<?xml version="1.0" encoding="utf-8"?>
<!-- Generator: Adobe Illustrator 16.0.0, SVG Export Plug-In . SVG Version: 6.00 Build 0)  -->
<!DOCTYPE svg PUBLIC "-//W3C//DTD SVG 1.1//EN" "http://www.w3.org/Graphics/SVG/1.1/DTD/svg11.dtd">
<svg version="1.1" xmlns="http://www.w3.org/2000/svg" xmlns:xlink="http://www.w3.org/1999/xlink" x="0px" y="0px"
	 width="20px" height="20px" viewBox="0 0 22 22" xml:space="preserve">
<g>
	<path fill="#666666" d="M11,9V2c0-1.1-0.9-2-2-2H2C0.9,0,0,0.9,0,2v7c0,1.1,0.9,2,2,2h7C10.1,11,11,10.1,11,9z M1,9V2
		c0-0.551,0.448-1,1-1h7c0.551,0,1,0.449,1,1v7c0,0.551-0.449,1-1,1H2C1.448,10,1,9.551,1,9z M9,5H6V2H5v3H2v1h3v3h1V6h3V5z
		 M14.5,15c2.485,0,4.5-2.015,4.5-4.5S16.985,6,14.5,6c-0.926,0-1.785,0.281-2.5,0.76V10c0,1.008-0.76,1.84-1.732,1.973
		C10.879,13.73,12.533,15,14.5,15z M20,16H9c-1.6,0-2,0.4-2,2v4h3v-2h1v2h7v-2h1v2h3v-3.909C22,16.491,21.6,16,20,16z"/>
</g>
</svg>
