<?xml version="1.0" encoding="utf-8"?>
<!-- Generator: Adobe Illustrator 16.0.0, SVG Export Plug-In . SVG Version: 6.00 Build 0)  -->
<!DOCTYPE svg PUBLIC "-//W3C//DTD SVG 1.1//EN" "http://www.w3.org/Graphics/SVG/1.1/DTD/svg11.dtd">
<svg version="1.1" xmlns="http://www.w3.org/2000/svg" xmlns:xlink="http://www.w3.org/1999/xlink" x="0px" y="0px"
	 width="20px" height="20px" viewBox="0 0 22 22" xml:space="preserve">
<g>
	<path fill="#666666" d="M11,9V2c0-1.1-0.9-2-2-2H2C0.9,0,0,0.9,0,2v7c0,1.1,0.9,2,2,2h7C10.1,11,11,10.1,11,9z M1,9V2
		c0-0.551,0.448-1,1-1h7c0.551,0,1,0.449,1,1v7c0,0.551-0.449,1-1,1H2C1.448,10,1,9.551,1,9z M9,5H6V2H5v3H2v1h3v3h1V6h3V5z M17,6
		h-5v3c0,0.353-0.072,0.686-0.185,1H21L17,6z M16,20h4v-4h-4V20z M6,20h4v-4H6V20z M20,11h-4v4h4V11z M11,15h4v-4h-3.78
		c-0.069,0.077-0.143,0.15-0.22,0.22V15z M5,22h16v-1H5V22z M10,11.815C9.686,11.928,9.352,12,9,12H6v3h4V11.815z M11,20h4v-4h-4V20
		z"/>
</g>
</svg>
