<?xml version="1.0" encoding="utf-8"?>
<!-- Generator: Adobe Illustrator 19.1.1, SVG Export Plug-In . SVG Version: 6.00 Build 0)  -->
<svg version="1.1" id="Слой_1" xmlns="http://www.w3.org/2000/svg" xmlns:xlink="http://www.w3.org/1999/xlink" x="0px" y="0px"
	 viewBox="0 0 1000 1000" style="enable-background:new 0 0 1000 1000;" xml:space="preserve">
<style type="text/css">
	.st0{enable-background:new    ;}
	.st1{fill:none;}
	.st2{fill:#231F20;}
	.st3{fill-rule:evenodd;clip-rule:evenodd;}
</style>
<path d="M2,2v20h4h1c0-2.8,2.2-5,5-5s5,2.2,5,5h1h4V2H2z M8,12c0-2.2,1.8-4,4-4s4,1.8,4,4c0,2.2-1.8,4-4,4S8,14.2,8,12z M21,21h-3.1
	c-0.3-2.1-1.8-3.8-3.7-4.6c1.6-0.8,2.7-2.5,2.7-4.4c0-2.8-2.2-5-5-5s-5,2.2-5,5c0,1.9,1.1,3.6,2.7,4.4c-1.9,0.8-3.3,2.5-3.7,4.6H3V3
	h18V21z"/>
<path d="M45,15v-4v-1V7h2l-6-5h-8l-6,5h2v3v1v4v3l-2,4h20l-2-4V15z M44,14h-4v-3h4V14z M35,15h4v3h-4V15z M35,14v-3h4v3H35z M39,10
	h-4V7h4V10z M44,10h-4V7h4V10z M33.4,3h7.3l3.6,3H29.8L33.4,3z M30,7h4v3h-4V7z M34,11v3h-4v-3H34z M30,15h4v3h-4V15z M45.4,21H28.6
	l1-2h14.8L45.4,21z M40,18v-3h4v3H40z"/>
<g>
	<path d="M72,8h-1.6l-0.9-3.1C69.2,3.9,68.1,3,67,3H57c-1.1,0-2.2,0.9-2.5,1.9L53.6,8H52v2h0.8L52,13v7v1c0,0.5,0.5,1,1,1h2
		c0.5,0,1-0.5,1-1v-1h12v1c0,0.5,0.5,1,1,1h2c0.5,0,1-0.5,1-1v-1v-7l-0.8-3H72V8z M54.5,8.4l0.9-3.2C55.6,4.6,56.3,4,57,4h10
		c0.7,0,1.4,0.6,1.6,1.2l0.9,3.2c0.1,0.2,0,0.4,0,0.5C69.4,8.9,69.2,9,69,9H55c-0.2,0-0.4-0.1-0.5-0.2C54.5,8.7,54.5,8.6,54.5,8.4z
		 M56,19v-1.4l1.2-0.6h9.5l1.2,0.6V19H56z M71,13.1V19h-2v-2l-2-1H57l-2,1v2h-2v-5.9l0.8-3.1H55h14h1.2L71,13.1z"/>
	<circle cx="55.5" cy="12.5" r="1.5"/>
	<circle cx="68.5" cy="12.5" r="1.5"/>
	<rect x="58" y="14" width="8" height="1"/>
</g>
<path d="M91,6.5C91,4,89,2,86.5,2S82,4,82,6.5c0,2.3,1.8,4.2,4,4.4v9.8l0.5,1.3l0.5-1.3v-9.8C89.2,10.7,91,8.8,91,6.5z M86.5,10
	C84.6,10,83,8.4,83,6.5C83,4.6,84.6,3,86.5,3S90,4.6,90,6.5C90,8.4,88.4,10,86.5,10z"/>
<g class="st0">
	<path d="M105.9,3c0.2,0,0.3,0,0.4,0.1c0.1,0.1,0.3,0.1,0.4,0.3l2.1,2.1c0.1,0.1,0.2,0.2,0.2,0.4c0.1,0.1,0.1,0.3,0.1,0.4
		c0,0.1,0,0.3-0.1,0.4C109,6.8,109,7,108.9,7.1c-0.1,0.1-0.2,0.3-0.3,0.4c-0.2,0.2-0.4,0.3-0.5,0.5c-0.2,0.2-0.4,0.4-0.5,0.6
		c-0.2,0.3-0.3,0.7-0.3,1c0,0.5,0.2,1,0.6,1.3l5.4,5.4c0.4,0.4,0.8,0.6,1.3,0.6c0.4,0,0.7-0.1,1-0.3c0.2-0.1,0.4-0.3,0.6-0.5
		c0.2-0.2,0.3-0.3,0.5-0.5c0.1-0.1,0.2-0.2,0.4-0.3c0.1-0.1,0.2-0.2,0.4-0.2c0.1,0,0.2-0.1,0.4-0.1c0.2,0,0.3,0,0.4,0.1
		c0.1,0.1,0.3,0.1,0.4,0.2l2.1,2.1c0.1,0.1,0.2,0.2,0.2,0.4c0.1,0.1,0.1,0.3,0.1,0.4s0,0.3-0.1,0.4c-0.1,0.1-0.1,0.3-0.3,0.4
		c-0.4,0.4-0.7,0.7-1,1c-0.3,0.2-0.5,0.4-0.8,0.6c-0.2,0.1-0.5,0.3-0.8,0.3c-0.3,0.1-0.7,0.1-1.2,0.1c-0.7,0-1.5-0.1-2.2-0.3
		c-0.8-0.2-1.6-0.6-2.4-1c-0.8-0.4-1.6-0.9-2.4-1.5c-0.8-0.6-1.5-1.2-2.2-1.9c-0.7-0.7-1.3-1.4-1.9-2.2c-0.6-0.8-1.1-1.6-1.5-2.4
		c-0.4-0.8-0.7-1.6-1-2.4c-0.2-0.8-0.3-1.5-0.3-2.2c0-0.5,0-0.9,0.1-1.2c0.1-0.3,0.2-0.6,0.3-0.8c0.2-0.3,0.4-0.5,0.6-0.8
		c0.3-0.3,0.6-0.6,1-1c0.1-0.1,0.2-0.2,0.4-0.3C105.6,3,105.7,3,105.9,3 M105.9,2c-0.3,0-0.6,0.1-0.8,0.2s-0.5,0.3-0.7,0.5
		c-0.4,0.4-0.7,0.7-1,1s-0.5,0.6-0.7,0.9s-0.3,0.7-0.4,1.1S102,6.5,102,7.1c0,0.8,0.1,1.6,0.4,2.5s0.6,1.7,1,2.5s1,1.7,1.6,2.5
		s1.3,1.6,2,2.3s1.5,1.4,2.3,2s1.7,1.2,2.5,1.6s1.7,0.8,2.6,1.1s1.7,0.4,2.5,0.4c0.6,0,1-0.1,1.4-0.2s0.8-0.3,1.1-0.4
		s0.6-0.4,0.9-0.7s0.6-0.6,1-1c0.2-0.2,0.4-0.4,0.5-0.7s0.2-0.5,0.2-0.8s-0.1-0.6-0.2-0.8s-0.3-0.5-0.5-0.7l-2.1-2.1
		c-0.2-0.2-0.4-0.4-0.7-0.5s-0.5-0.2-0.8-0.2s-0.5,0-0.8,0.1s-0.4,0.2-0.6,0.4s-0.3,0.3-0.5,0.5s-0.3,0.3-0.4,0.5s-0.3,0.3-0.4,0.4
		s-0.3,0.1-0.5,0.1c-0.2,0-0.5-0.1-0.6-0.3l-5.4-5.4c-0.2-0.2-0.3-0.4-0.3-0.6c0-0.2,0-0.3,0.1-0.5s0.2-0.3,0.4-0.4s0.3-0.3,0.5-0.4
		s0.3-0.3,0.5-0.5s0.3-0.4,0.4-0.6s0.1-0.5,0.1-0.8s-0.1-0.6-0.2-0.8s-0.3-0.5-0.5-0.7l-2.1-2.1c-0.2-0.2-0.4-0.4-0.7-0.5
		S106.1,2,105.9,2L105.9,2z"/>
</g>
<g class="st0">
	<path d="M137,2c0.9,0,1.8,0.1,2.7,0.4s1.7,0.6,2.4,1s1.4,1,2,1.6s1.1,1.3,1.6,2s0.8,1.5,1,2.4s0.4,1.7,0.4,2.7c0,0.4,0,0.7-0.1,1.1
		s-0.2,0.8-0.3,1.1s-0.3,0.7-0.5,1.1s-0.5,0.6-0.7,0.9c-0.3,0.3-0.6,0.4-0.9,0.6s-0.7,0.2-1.2,0.2c-0.4,0-0.7,0-1-0.1
		s-0.6-0.2-0.9-0.4s-0.5-0.4-0.8-0.6c-0.2-0.3-0.4-0.5-0.6-0.9c-0.2,0.3-0.4,0.6-0.7,0.8c-0.3,0.3-0.5,0.5-0.8,0.6s-0.6,0.3-1,0.4
		s-0.7,0.1-1.1,0.1c-0.7,0-1.3-0.1-1.8-0.4s-1-0.7-1.4-1.1s-0.7-1-0.9-1.6S132,12.6,132,12s0.1-1.2,0.3-1.8s0.5-1.1,0.9-1.6
		s0.8-0.8,1.4-1.1s1.1-0.4,1.8-0.4c0.6,0,1.2,0.1,1.7,0.4s1,0.6,1.4,1.1V7h1.3v5v1.3c0,0.3,0.1,0.7,0.2,1s0.3,0.6,0.5,0.8
		s0.5,0.4,0.8,0.5s0.6,0.2,1,0.2c0.3,0,0.5-0.1,0.8-0.2s0.4-0.3,0.6-0.5s0.3-0.4,0.5-0.7s0.2-0.5,0.3-0.8s0.2-0.6,0.2-0.8
		s0.1-0.5,0.1-0.8c0-0.8-0.1-1.6-0.3-2.3s-0.5-1.4-0.9-2.1s-0.8-1.2-1.4-1.8s-1.1-1-1.8-1.4s-1.3-0.7-2.1-0.9s-1.5-0.3-2.3-0.3
		s-1.6,0.1-2.3,0.3s-1.4,0.5-2.1,0.9s-1.2,0.8-1.8,1.4s-1,1.1-1.4,1.8s-0.7,1.3-0.9,2.1s-0.3,1.5-0.3,2.3s0.1,1.6,0.3,2.3
		s0.5,1.4,0.9,2.1c0.4,0.6,0.8,1.2,1.4,1.8s1.1,1,1.8,1.4s1.3,0.7,2.1,0.9s1.5,0.3,2.3,0.3c1.2,0,2.3-0.2,3.3-0.7l0.5,1.2
		c-0.6,0.3-1.2,0.4-1.9,0.6S137.7,22,137,22c-0.9,0-1.8-0.1-2.7-0.4s-1.7-0.6-2.4-1s-1.4-1-2-1.6s-1.1-1.3-1.6-2s-0.8-1.5-1-2.4
		S127,12.9,127,12c0-0.9,0.1-1.8,0.4-2.7s0.6-1.7,1-2.4s1-1.4,1.6-2s1.3-1.1,2-1.6s1.5-0.8,2.4-1S136.1,2,137,2z M136.4,15.8
		c0.5,0,0.9-0.1,1.3-0.3s0.7-0.5,1-0.9s0.5-0.8,0.6-1.2s0.2-0.9,0.2-1.3s-0.1-0.9-0.2-1.3s-0.3-0.8-0.6-1.2s-0.6-0.6-1-0.9
		s-0.8-0.3-1.3-0.3s-0.9,0.1-1.3,0.3s-0.7,0.5-1,0.9s-0.5,0.8-0.6,1.2s-0.2,0.9-0.2,1.3s0.1,0.9,0.2,1.3s0.3,0.8,0.6,1.2
		s0.6,0.6,1,0.9S135.9,15.8,136.4,15.8z"/>
</g>
<path d="M168,4h-3V3c0-0.6-0.4-1-1-1h-4c-0.6,0-1,0.4-1,1v1h-3c-0.6,0-1,0.4-1,1v4c0,0.6,0.4,1,1,1v11c0,0.6,0.4,1,1,1h10
	c0.6,0,1-0.4,1-1V10c0.6,0,1-0.4,1-1V5C169,4.4,168.6,4,168,4z M160,3h4v1h-4V3z M167,21h-10V10h10V21z M168,9h-12V5h12V9z"/>
<g class="st0">
	<path d="M194.5,11.6c0,0.1,0,0.1,0,0.2s0,0.1,0,0.2s0,0.1,0,0.2s0,0.1,0,0.2l2.5,1.6l-1.6,3.8l-2.9-0.7c-0.2,0.2-0.3,0.3-0.5,0.5
		l0.7,2.9l-3.8,1.6l-1.6-2.5c-0.1,0-0.1,0-0.2,0c-0.1,0-0.1,0-0.2,0s-0.1,0-0.2,0c-0.1,0-0.1,0-0.2,0l-1.6,2.5l-3.8-1.6l0.7-2.9
		c-0.2-0.2-0.3-0.3-0.5-0.5l-2.9,0.7l-1.6-3.8l2.5-1.6c0-0.1,0-0.1,0-0.2s0-0.1,0-0.2s0-0.1,0-0.2s0-0.1,0-0.2l-2.5-1.6l1.6-3.8
		l2.9,0.7c0.2-0.2,0.3-0.3,0.5-0.5l-0.7-2.9l3.8-1.6l1.6,2.5c0.1,0,0.1,0,0.2,0c0.1,0,0.1,0,0.2,0s0.1,0,0.2,0c0.1,0,0.1,0,0.2,0
		l1.6-2.5l3.8,1.6L192,6.5c0.2,0.2,0.3,0.3,0.5,0.5l2.9-0.7l1.6,3.8L194.5,11.6z M193.3,12.9c0-0.2,0-0.3,0-0.5c0-0.2,0-0.3,0-0.5
		c0-0.2,0-0.3,0-0.5c0-0.2,0-0.3,0-0.5l2.3-1.4l-0.8-2l-2.7,0.6c-0.2-0.2-0.4-0.5-0.6-0.7c-0.2-0.2-0.4-0.4-0.7-0.6l0.6-2.7l-2-0.8
		l-1.5,2.3c-0.2,0-0.3,0-0.5,0c-0.2,0-0.3,0-0.5,0c-0.2,0-0.3,0-0.5,0c-0.2,0-0.3,0-0.5,0l-1.4-2.3l-2,0.8l0.6,2.7
		c-0.2,0.2-0.5,0.4-0.7,0.6c-0.2,0.2-0.4,0.4-0.6,0.7l-2.7-0.6l-0.8,2l2.3,1.5c0,0.2,0,0.3,0,0.5c0,0.2,0,0.3,0,0.5
		c0,0.2,0,0.3,0,0.5c0,0.2,0,0.3,0,0.5l-2.3,1.4l0.8,2l2.7-0.6c0.2,0.2,0.4,0.5,0.6,0.7c0.2,0.2,0.4,0.4,0.7,0.6l-0.6,2.7l2,0.8
		l1.5-2.3c0.2,0,0.3,0,0.5,0c0.2,0,0.3,0,0.5,0c0.2,0,0.3,0,0.5,0c0.2,0,0.3,0,0.5,0l1.4,2.3l2-0.8l-0.6-2.7
		c0.2-0.2,0.5-0.4,0.7-0.6c0.2-0.2,0.4-0.4,0.6-0.7l2.7,0.6l0.8-2L193.3,12.9z M187,8.3c0.5,0,1,0.1,1.4,0.3
		c0.4,0.2,0.8,0.5,1.2,0.8c0.3,0.3,0.6,0.7,0.8,1.2s0.3,0.9,0.3,1.4c0,0.5-0.1,1-0.3,1.4c-0.2,0.4-0.5,0.8-0.8,1.2
		c-0.3,0.3-0.7,0.6-1.2,0.8c-0.4,0.2-0.9,0.3-1.4,0.3s-1-0.1-1.4-0.3c-0.4-0.2-0.8-0.5-1.2-0.8c-0.3-0.3-0.6-0.7-0.8-1.2
		c-0.2-0.4-0.3-0.9-0.3-1.4c0-0.5,0.1-1,0.3-1.4s0.5-0.8,0.8-1.2c0.3-0.3,0.7-0.6,1.2-0.8C186,8.4,186.5,8.3,187,8.3z M187,14.6
		c0.4,0,0.7-0.1,1-0.2c0.3-0.1,0.6-0.3,0.8-0.6c0.2-0.2,0.4-0.5,0.6-0.8c0.1-0.3,0.2-0.7,0.2-1s-0.1-0.7-0.2-1
		c-0.1-0.3-0.3-0.6-0.6-0.8c-0.2-0.2-0.5-0.4-0.8-0.6c-0.3-0.1-0.7-0.2-1-0.2s-0.7,0.1-1,0.2c-0.3,0.1-0.6,0.3-0.8,0.6
		c-0.2,0.2-0.4,0.5-0.6,0.8c-0.1,0.3-0.2,0.7-0.2,1s0.1,0.7,0.2,1c0.1,0.3,0.3,0.6,0.6,0.8c0.2,0.2,0.5,0.4,0.8,0.6
		C186.3,14.5,186.6,14.6,187,14.6z"/>
</g>
<path d="M212.5,13.1c0.7,1.3,0.7,2.7-0.1,3.6l-4.6,4.6c-1.1,1.1-3.1,0.8-4.5-0.6c-1.4-1.4-1.7-3.4-0.6-4.5l4.6-4.6
	c0.9-0.9,2.3-0.9,3.6-0.1l-0.9,0.9c-0.3-0.1-0.7-0.2-1-0.2c-0.3,0-0.6,0.1-0.9,0.3l-4.6,4.6c-0.4,0.4-0.3,0.9-0.3,1.2
	c0.1,0.6,0.4,1.2,0.9,1.7c0.6,0.6,1.3,0.9,2,0.9c0.3,0,0.6-0.1,0.9-0.3l4.6-4.6c0.4-0.4,0.4-1.2,0.1-1.9L212.5,13.1z M220.7,3.3
	c-1.4-1.4-3.4-1.7-4.5-0.6l-4.6,4.6c-0.9,0.9-0.9,2.3-0.1,3.6l0.9-0.9c-0.1-0.2-0.2-0.5-0.2-0.7c0-0.3,0-0.8,0.3-1.2l4.6-4.6
	c0.3-0.3,0.6-0.3,0.9-0.3c0.7,0,1.4,0.3,2,0.9c0.5,0.5,0.8,1.1,0.9,1.7c0,0.3,0,0.8-0.3,1.2l-4.6,4.7c-0.3,0.3-0.6,0.3-0.9,0.3
	c-0.3,0-0.7-0.1-1-0.2l-0.9,0.9c1.3,0.7,2.7,0.7,3.6-0.1l4.6-4.6C222.4,6.7,222.2,4.7,220.7,3.3z M215,9.8c0.2-0.2,0.2-0.6,0-0.8
	l0,0c-0.2-0.2-0.6-0.2-0.8,0l-5.1,5.1c-0.2,0.2-0.2,0.6,0,0.8l0,0c0.2,0.2,0.6,0.2,0.8,0L215,9.8z"/>
<g>
	<path d="M246,3v0.6l-7.7,7.7l-0.3,0.3V12v9h-2v-9v-0.4l-0.3-0.3L228,3.6V3H246 M247,2h-20v2l8,8v10h4V12l8-8V2L247,2z"/>
</g>
<g>
	<polygon points="253,21 253,2 252,2 252,21 252,22 253,22 272,22 272,21 	"/>
	<path d="M259,10h-5v10h5V10z M258,19h-3v-8h3V19z"/>
	<path d="M271,13h-5v7h5V13z M270,19h-3v-5h3V19z"/>
	<path d="M265,5h-5v15h5V5z M264,19h-3V6h3V19z"/>
</g>
<g class="st0">
	<path d="M287,12h8.8c0,0.4,0,0.8,0,1.1s-0.1,0.7-0.1,1.1s-0.1,0.7-0.2,1s-0.2,0.7-0.4,1c-0.4,0.9-0.9,1.7-1.4,2.4s-1.3,1.3-2,1.8
		s-1.6,0.9-2.4,1.2s-1.8,0.4-2.7,0.4c-0.9,0-1.7-0.1-2.5-0.3s-1.5-0.5-2.2-0.9s-1.3-0.9-1.9-1.5s-1.1-1.2-1.5-1.9s-0.7-1.4-0.9-2.2
		s-0.3-1.6-0.3-2.5s0.1-1.7,0.3-2.5s0.5-1.5,0.9-2.2s0.9-1.3,1.5-1.9s1.2-1.1,1.9-1.5s1.4-0.7,2.2-0.9s1.6-0.3,2.5-0.3h0.6V12z
		 M285.8,13.3V4.5c-0.7,0.1-1.4,0.2-2,0.4s-1.2,0.5-1.8,0.9s-1.1,0.8-1.5,1.3s-0.8,1-1.2,1.6s-0.6,1.2-0.7,1.9s-0.3,1.3-0.3,2
		c0,0.7,0.1,1.5,0.3,2.2s0.5,1.3,0.8,1.9s0.8,1.2,1.3,1.6s1,0.9,1.6,1.3s1.2,0.6,1.9,0.8s1.4,0.3,2.2,0.3c0.7,0,1.4-0.1,2-0.3
		s1.3-0.4,1.9-0.7s1.1-0.7,1.6-1.2s0.9-1,1.3-1.5s0.7-1.2,0.9-1.8s0.4-1.3,0.4-2H285.8z M288.3,2c0.8,0,1.6,0.1,2.3,0.3
		s1.4,0.5,2.1,0.9s1.2,0.8,1.8,1.4s1,1.1,1.4,1.8s0.7,1.3,0.9,2.1s0.3,1.5,0.3,2.3h-8.8V2z M289.5,9.5h6.2c-0.1-0.8-0.4-1.5-0.7-2.2
		s-0.8-1.3-1.4-1.8s-1.2-1-1.8-1.4s-1.4-0.6-2.2-0.7V9.5z"/>
</g>
<g>
	<path d="M317.9,5c-0.3,0-0.7,0.1-0.9,0.3c0,0,0-0.3,0-0.4C316.9,3.8,316,3,315,3c-0.4,0-0.8,0.1-1.1,0.3c-0.1-0.2-0.2-0.4-0.3-0.5
		c-0.4-0.5-1-0.8-1.6-0.8c-0.1,0-0.3,0-0.4,0.1c-0.7,0.1-1.2,0.6-1.4,1.3c-0.3-0.2-0.8-0.3-1.2-0.3c-1.1,0-2,0.9-2,2l0.1,6
		c-0.4-0.7-1.1-1.2-1.9-1.3c-0.4,0-0.8,0.1-1.1,0.3c-0.5,0.3-0.8,0.8-0.9,1.4c-0.1,0.6,0,1.3,0.3,1.8c0,0,2.5,3.8,3.5,5.5
		c1.4,2.2,3.6,3.3,6.6,3.3c4.8,0,6.5-3.1,6.5-6V7C320,5.9,319,5,317.9,5z M319,16c0,2.5-1.5,5-5.5,5c-2.7,0-4.5-0.9-5.7-2.8
		c-0.9-1.4-2.7-4.3-3.3-5.2l-0.2-0.3c-0.2-0.3-0.3-0.7-0.2-1.1c0.1-0.3,0.2-0.6,0.5-0.8c0.4-0.3,1-0.3,1.7,0.5L308,14V5
		c0-0.6,0.4-1,1-1c0.6,0,1,0.4,1,1v5h1V4c0-0.6,0.4-1,1-1l0,0c0.6,0,1,0.5,1,1l0,6h1V5c0-0.6,0.4-1,1-1c0.5,0,1,0.5,1,1v6h1V7
		c0-0.7,0.5-0.9,1-1c0.5,0,1,0.5,1,1C319,7,319,16,319,16z"/>
</g>
<g>
	<g>
		<path d="M343,6L343,6C343,6,343,6,343,6c-0.4,0-0.8,0.1-1.1,0.3c-0.1-0.3-0.3-0.5-0.5-0.7c-0.1-0.1-0.2-0.2-0.4-0.3c0,0,0,0,0,0
			c-0.1-0.1-0.3-0.1-0.4-0.2c-0.1,0-0.3-0.1-0.4-0.1c-0.2,0-0.4,0-0.7,0c0,0,0,0,0,0c-0.2,0-0.3,0.1-0.5,0.2
			c-0.2,0.1-0.4,0.2-0.5,0.4c-0.1-0.2-0.3-0.3-0.5-0.4c-0.1-0.1-0.3-0.1-0.4-0.2c0,0,0,0-0.1,0C337.3,5,337.2,5,337,5c0,0,0,0,0,0
			c-0.2,0-0.3,0-0.5,0.1c0,0,0,0-0.1,0c-0.2,0-0.3,0.1-0.4,0.2c-0.2,0.1-0.4,0.2-0.5,0.4c-0.1-0.2-0.3-0.3-0.5-0.4
			c-0.1-0.1-0.3-0.2-0.5-0.2c0,0,0,0,0,0C334.3,5,334.2,5,334,5c-0.2,0-0.3,0-0.5,0.1c0,0,0,0,0,0c-0.2,0-0.3,0.1-0.5,0.2
			c-0.3,0.2-0.5,0.4-0.7,0.7c0,0,0,0,0,0c-0.1,0.1-0.1,0.3-0.2,0.4c0,0,0,0,0,0.1c0,0.2-0.1,0.3-0.1,0.5v0v2.3
			c-0.9-0.6-2.2-0.2-2.7,0.7c-0.1,0.2-0.2,0.3-0.2,0.5c0,0.1-0.1,0.3-0.1,0.4c0,0,0,0,0,0.1c0,0.1,0,0.3,0,0.4
			c0,0.1,0.1,0.2,0.1,0.2c0,0.1,1.7,5.4,2.7,7c1.4,2.2,3.6,3.3,6.6,3.3c4.8,0,6.5-3.1,6.5-6V8C345,6.9,344.1,6,343,6z M344,9.7V16
			c0,2.5-1.5,5-5.5,5c-2.7,0-4.5-0.9-5.7-2.8c-1-2.2-1.9-4.4-2.6-6.7c-0.1-0.1-0.1-0.3-0.1-0.4c0-0.6,0.4-1,1-1s1,0.4,1,1v1l1,2v-3
			V8.7V7v0v0c0-0.4,0.2-1,1-1c0.8,0,1,0.6,1,1v1.7V11h1V8.7V7v0v0c0,0,0,0,0,0c0-0.5,0.2-1,1-1s1,0.6,1,1v0v0v1.7V11h1V8.7V7v0
			c0-0.5,0.2-1,1-1c0.8,0,1,0.6,1,1v0v0v1.7V11h1V9.7V8c0-0.6,0.4-1,1-1s1,0.4,1,1V9.7z"/>
	</g>
</g>
<g class="st0">
	<path d="M361.5,2c0.5,0,1,0.1,1.5,0.2c0.5,0.1,0.9,0.3,1.3,0.6s0.8,0.5,1.1,0.9s0.6,0.7,0.9,1.1s0.4,0.9,0.6,1.3
		c0.1,0.5,0.2,1,0.2,1.5c0,0.5-0.1,1-0.2,1.5c-0.1,0.4-0.3,0.8-0.6,1.2s-0.5,0.7-0.8,1s-0.6,0.6-0.9,0.9c-0.3,0.3-0.6,0.6-0.9,0.9
		c-0.3,0.3-0.6,0.6-0.8,0.9s-0.4,0.7-0.6,1.1c-0.1,0.4-0.2,0.8-0.2,1.3v1.9h-1.2v-1.9c0-0.5,0.1-1,0.2-1.5c0.1-0.4,0.3-0.8,0.6-1.2
		c0.2-0.4,0.5-0.7,0.8-1c0.3-0.3,0.6-0.6,0.9-0.9c0.3-0.3,0.6-0.6,0.9-0.9c0.3-0.3,0.6-0.6,0.8-0.9s0.4-0.7,0.6-1.1
		c0.1-0.4,0.2-0.8,0.2-1.3c0-0.6-0.1-1.2-0.3-1.7c-0.2-0.5-0.5-1-0.9-1.4c-0.4-0.4-0.8-0.7-1.4-0.9s-1.1-0.3-1.7-0.3
		s-1.1,0.1-1.7,0.3c-0.5,0.2-1,0.5-1.4,0.9s-0.7,0.9-0.9,1.4c-0.2,0.5-0.3,1.1-0.3,1.7H356c0-0.5,0.1-1,0.2-1.5s0.3-0.9,0.6-1.3
		s0.5-0.8,0.9-1.1c0.3-0.3,0.7-0.6,1.1-0.9c0.4-0.2,0.8-0.4,1.3-0.6C360.5,2.1,361,2,361.5,2z M360.9,20.8h1.2V22h-1.2V20.8z"/>
</g>
<path d="M397,2.6c0-0.2-0.1-0.3-0.2-0.4S396.5,2,396.4,2s-0.3,0.1-0.4,0.2l-7.1,7.1c-0.5-0.4-0.9-0.6-1.5-0.8
	c-0.5-0.2-1.1-0.3-1.6-0.3c-0.7,0-1.3,0.1-1.9,0.4c-0.6,0.3-1.2,0.6-1.6,1.1l-0.4,0.4l-0.3,0.3l-0.5,0.3l-3.9,2l9.4,9.4l2-3.9
	l0.3-0.5l0.3-0.3l0.4-0.4c0.5-0.5,0.8-1,1.1-1.6c0.3-0.6,0.4-1.3,0.4-1.9c0-0.6-0.1-1.1-0.3-1.6c-0.2-0.5-0.4-1-0.8-1.5l7.1-7.1
	C396.9,2.9,397,2.8,397,2.6z M386.1,20.3l-7.4-7.4l3-1.5l5.9,5.9L386.1,20.3z M389.7,13.3c0,0.5-0.1,1.1-0.3,1.6
	c-0.2,0.5-0.5,0.9-0.9,1.3l-0.4,0.4l-5.7-5.7l0.4-0.4c0.4-0.4,0.8-0.7,1.3-0.9c0.5-0.2,1-0.3,1.6-0.3c0.5,0,0.9,0.1,1.3,0.2
	c0.4,0.1,0.8,0.4,1.2,0.6l0.4,0.3l0.3,0.4c0.3,0.4,0.5,0.8,0.6,1.2C389.7,12.4,389.7,12.9,389.7,13.3z"/>
<g>
	<g>
		<path d="M402,2v2l8,8v10h4v-4v-0.3V12l0.6-0.6l-0.7-0.7l-0.6,0.6l-0.3,0.3l0,1.2v4.5v0.8V21h-2v-9v-0.4l-0.3-0.3L403,3.6V3h18v0.6
			l-3.4,3.4l0.7,0.7L422,4V2H402z M421.3,8l-2.8,2.8L415.7,8L415,8.7l2.8,2.8l-2.8,2.8l0.7,0.7l2.8-2.8l2.8,2.8l0.7-0.7l-2.8-2.8
			l2.8-2.8L421.3,8z"/>
	</g>
</g>
<g>
	<path d="M437,22v-9.3l4-4V11h1V7h-4v1h2.3l-4,4H427v10H437z M428,13h8v8h-8V13z"/>
	<polygon points="428,3 446,3 446,21 438,21 438,22 447,22 447,2 427,2 427,11 428,11 	"/>
</g>
<g>
	<path d="M462,2v9.3l-4,4V13h-1v4h4v-1h-2.3l4-4h9.3V2H462z M471,11h-8V3h8V11z"/>
	<polygon points="471,21 453,21 453,3 461,3 461,2 452,2 452,22 472,22 472,13 471,13 	"/>
</g>
<g>
	<path d="M517,7h-10v10h10V7z M516,16h-8V8h8V16z"/>
	<path d="M521,2h-19v20h20V2H521z M521,21h-18V3h18V21z"/>
</g>
<g>
	<path d="M487,2v9.3l-4,4V13h-1v4h4v-1h-2.3l4-4h9.3V2H487z"/>
	<polygon points="496,21 478,21 478,3 486,3 486,2 477,2 477,22 497,22 497,13 496,13 	"/>
</g>
<g>
	<path d="M544,3.4l1.6,1.6l-16,16H528v-1.6L544,3.4 M544,2l-17,17v3h3l17-17L544,2L544,2z"/>
</g>
<path d="M566.7,3c3.3,0,4.3,2.4,4.3,3.3v13.6c-1.2-0.8-2.7-1.7-4.3-1.7c-2.1,0-3.8,1.4-4.7,2.3c-1-1-2.7-2.3-4.7-2.3
	c-1.6,0-3.2,0.9-4.3,1.7V6.3c0-0.7,0.7-3.3,4.3-3.3c2.9,0,3.8,2.3,3.8,2.4L562,7l0.9-1.7C562.9,5.3,563.9,3,566.7,3 M566.7,2
	c-3.5,0-4.7,3.1-4.7,3.1S561.1,2,557.3,2c-4,0-5.3,2.9-5.3,4.3c0,1.4,0,15.7,0,15.7s2.8-2.9,5.3-2.9c2.5,0,4.7,2.9,4.7,2.9
	s2-2.9,4.7-2.9c2.5,0,5.3,2.9,5.3,2.9s0-14.3,0-15.7C572,4.9,570.5,2,566.7,2L566.7,2z"/>
<path d="M597,3.9L597,3.9C595.9,3,594.3,2,592.7,2c-2,0-3.6,1.4-4.6,2.5c0,0-0.1,0.1-0.1,0.1c-0.1-0.1-0.2-0.2-0.3-0.4
	c-1-1-2.5-2.3-4.3-2.3c-1.6,0-3.2,1-4.3,1.9v0c-0.6,0.6-1,1-1,1c0,0.4,0,0.9,0,1.4c0,5.5,0,15.6,0,15.6s2.8-3.2,5.3-3.2
	c2.5,0,4.7,3.2,4.7,3.2s2-3.2,4.7-3.2c2.5,0,5.3,3.2,5.3,3.2s0-11.8,0-17.1C598,4.9,597.6,4.5,597,3.9z M597,19.6
	c-1.2-0.9-2.7-1.9-4.3-1.9c-2.1,0-3.8,1.5-4.7,2.6c-1-1.1-2.7-2.6-4.7-2.6c-1.6,0-3.2,1-4.3,1.9V5.4c1-1,2.7-2.2,4.3-2.2
	c2.5,0,4.7,3.2,4.7,3.2s2-3.2,4.7-3.2c1.6,0,3.3,1.3,4.3,2.2V19.6z"/>
<path d="M622,5h-20V4h20V5z M622,7h-20v1h20V7z M622,10h-20v1h20V10z M602,14h9v-1h-9V14z M602,17h9v-1h-9V17z M622,21.3l-0.7,0.7
	l-2.4-2.4c-0.6,0.5-1.4,0.8-2.3,0.8c-2.1,0-3.7-1.7-3.7-3.7c0-2.1,1.7-3.7,3.7-3.7s3.7,1.7,3.7,3.7c0,0.9-0.3,1.6-0.8,2.3L622,21.3z
	 M619.5,16.7c0-1.5-1.3-2.8-2.8-2.8s-2.8,1.3-2.8,2.8s1.3,2.8,2.8,2.8c0.6,0,1.2-0.2,1.6-0.5c0.3-0.2,0.5-0.4,0.7-0.7
	C619.3,17.9,619.5,17.3,619.5,16.7z"/>
<path d="M646,12h-9v9h-1v-9h-9v-1h9V2h1v9h9V12z"/>
<g class="st0">
	<path d="M665.1,2c0.6,0,1.2,0.1,1.8,0.2s1.1,0.4,1.6,0.7s1,0.7,1.4,1.1s0.8,0.9,1.1,1.4s0.5,1.1,0.7,1.6s0.2,1.2,0.2,1.8
		s-0.1,1.2-0.2,1.8s-0.4,1.1-0.7,1.6s-0.7,1-1.1,1.4s-0.9,0.8-1.4,1.1s-1.1,0.5-1.6,0.7s-1.2,0.2-1.8,0.2c-0.8,0-1.6-0.1-2.3-0.4
		s-1.4-0.7-2.1-1.2l-7.7,7.7c-0.1,0.1-0.3,0.2-0.4,0.2s-0.3-0.1-0.4-0.2s-0.2-0.3-0.2-0.4s0.1-0.3,0.2-0.4l7.7-7.7
		c-0.5-0.6-0.9-1.3-1.2-2.1s-0.4-1.5-0.4-2.3c0-0.6,0.1-1.2,0.2-1.8s0.4-1.1,0.7-1.6s0.7-1,1.1-1.4s0.9-0.8,1.4-1.1s1.1-0.5,1.6-0.7
		S664.5,2,665.1,2z M665.1,14.5c0.8,0,1.5-0.1,2.2-0.4s1.3-0.7,1.8-1.2s0.9-1.1,1.2-1.8s0.4-1.4,0.4-2.2s-0.1-1.5-0.4-2.2
		s-0.7-1.3-1.2-1.8S668,4,667.3,3.7s-1.4-0.4-2.2-0.4s-1.5,0.1-2.2,0.4s-1.3,0.7-1.8,1.2s-0.9,1.1-1.2,1.8s-0.4,1.4-0.4,2.2
		s0.1,1.5,0.4,2.2s0.7,1.3,1.2,1.8s1.1,0.9,1.8,1.2S664.3,14.5,665.1,14.5z"/>
</g>
<g>
	<g>
		<path d="M692,8h-10v1h10V8z M682,11h10v-1h-10V11z M682,13h6v-1h-6V13z M697,2L697,2l-20,0v20l0,0v0h10l-1-1h-8V3h18v10l1,0L697,2
			L697,2z M690,20l-3-3l-1,1l4,4l7-7l-1-1L690,20z"/>
	</g>
</g>
<path d="M712.7,3.5L702,13.9l0.8,0.7l10.7-10.4c1.5-1.5,3.9-1.5,5.4-0.1s1.4,3.8-0.1,5.3l-2.5,2.4l-1.9,1.9l-6.6,6.5
	c-1,1-2.7,1-3.8,0c-1-1-1-2.7,0-3.7l7.8-7.6l0.8-0.8l2.6-2.5c0.6-0.6,1.6-0.6,2.3,0c0.6,0.6,0.6,1.6,0,2.2l-6.8,6.6l0.8,0.7l6.8-6.6
	c1-1,1-2.7,0-3.7c-1-1-2.7-1-3.8,0l-2.6,2.5l-0.8,0.8l-7.8,7.6c-1.5,1.4-1.5,3.7,0,5.2c1.5,1.4,3.8,1.4,5.3,0l6.6-6.5l1.9-1.9
	l2.5-2.4c2-1.9,2-4.9,0.1-6.8C717.7,1.5,714.6,1.6,712.7,3.5z"/>
<g>
	<circle cx="737" cy="8" r="2"/>
	<path d="M737,2c-3.3,0-6,2.9-6,6.4c0,1.6,0.7,3.5,1.3,4.7c1,1.9,4.4,8.4,4.4,8.4L737,22l0.2-0.5c0-0.1,3.4-6.3,4.5-8.4
		c0.6-1.2,1.3-3.2,1.3-4.7C743,4.9,740.3,2,737,2z M740.8,12.7c-0.8,1.5-2.8,5.3-3.8,7.2c-1.1-2-3.1-5.8-3.8-7.2
		c-0.6-1.2-1.2-3-1.2-4.3c0-3,2.2-5.4,5-5.4c2.8,0,5,2.4,5,5.4C742,9.7,741.4,11.6,740.8,12.7z"/>
</g>
<path d="M754,14v-4h9v4H754z M768,7v1h3v8h-3v1h4V7H768z M765,16h-12V8h12V7h-13v10h13V16z M767,19.1V3.9c1-0.2,1.8-1,1.9-1.9h-1
	c-0.2,0.6-0.8,1-1.4,1s-1.2-0.4-1.4-1h-1c0.2,1,1,1.7,1.9,1.9v15.1c-1,0.2-1.8,1-1.9,1.9h1c0.2-0.6,0.8-1,1.4-1s1.2,0.4,1.4,1h1
	C768.8,20,768,19.3,767,19.1z"/>
<path d="M795.8,4.1c0.2,0.3,0.3,0.6,0.5,0.8c0.1,0.3,0.3,0.5,0.4,0.8c0.1,0.3,0.2,0.6,0.2,0.9s0.1,0.6,0.1,1c0,0.5-0.1,1-0.2,1.5
	c-0.1,0.5-0.3,0.9-0.6,1.3s-0.5,0.8-0.9,1.1s-0.7,0.6-1.1,0.9c-0.4,0.2-0.9,0.4-1.3,0.6c-0.5,0.1-1,0.2-1.5,0.2c-0.2,0-0.3,0-0.5,0
	c-0.2,0-0.3,0-0.5-0.1l-7.9,7.9c-0.3,0.3-0.7,0.5-1.1,0.7c-0.4,0.2-0.8,0.2-1.3,0.2c-0.4,0-0.9-0.1-1.3-0.3c-0.4-0.2-0.7-0.4-1-0.7
	c-0.3-0.3-0.5-0.6-0.7-1c-0.2-0.4-0.3-0.8-0.3-1.3c0-0.4,0.1-0.9,0.2-1.3c0.2-0.4,0.4-0.8,0.7-1.1l7.9-7.9c0-0.1,0-0.3-0.1-0.5
	c0-0.2,0-0.3,0-0.5c0-0.5,0.1-1,0.2-1.5c0.1-0.5,0.3-0.9,0.6-1.3s0.5-0.8,0.9-1.1s0.7-0.6,1.1-0.9c0.4-0.2,0.9-0.4,1.3-0.6
	c0.5-0.1,1-0.2,1.5-0.2c0.4,0,0.7,0,1,0.1s0.6,0.1,0.9,0.2c0.3,0.1,0.5,0.2,0.8,0.4c0.3,0.1,0.5,0.3,0.8,0.5L791,7l1,1L795.8,4.1z
	 M791.4,12c0.6,0,1.2-0.1,1.7-0.3c0.5-0.2,1-0.5,1.4-0.9c0.4-0.4,0.7-0.9,0.9-1.4c0.2-0.5,0.3-1.1,0.3-1.7c0-0.5-0.1-0.9-0.2-1.4
	L792,9.8L789.2,7l3.5-3.5c-0.4-0.2-0.9-0.2-1.4-0.2c-0.6,0-1.2,0.1-1.7,0.3c-0.5,0.2-1,0.5-1.4,0.9c-0.4,0.4-0.7,0.9-0.9,1.4
	C787.1,6.5,787,7,787,7.6c0,0.2,0,0.4,0.1,0.7c0,0.2,0.1,0.4,0.1,0.6l-8.3,8.4c-0.2,0.2-0.3,0.4-0.4,0.7c-0.1,0.2-0.2,0.5-0.2,0.8
	c0,0.3,0.1,0.5,0.2,0.8c0.1,0.2,0.3,0.5,0.4,0.6c0.2,0.2,0.4,0.3,0.6,0.4c0.2,0.1,0.5,0.2,0.8,0.2c0.3,0,0.5-0.1,0.8-0.2
	c0.2-0.1,0.5-0.3,0.7-0.4l8.4-8.3c0.2,0.1,0.4,0.1,0.6,0.1C790.9,12,791.1,12,791.4,12z"/>
<polygon class="st1" points="839.4,12 839,12.1 838.6,12 835.9,10.9 839,17.6 842.1,10.9 "/>
<g>
	<polygon points="812,12 806,9 812,22 818,9 	"/>
	<polygon points="802,2 802,18 809,18 808,17 803,17 803,3 821,3 821,17 816,17 815,18 822,18 822,2 	"/>
</g>
<g>
	<path d="M837,12l-6-3l6,13l6-13L837,12z M833.1,11.2l3.5,1.7l0.4,0.2l0.4-0.2l3.5-1.7l-3.9,8.4L833.1,11.2z"/>
	<polygon points="827,2 827,18 834,18 833,17 828,17 828,3 846,3 846,17 841,17 840,18 847,18 847,2 	"/>
</g>
<g class="st0">
	<path d="M856.9,2H869v17.1l-2.9,2.9H854V4.9L856.9,2z M867.8,18.6V3.3h-10.4l-2.1,2.1v15.4h10.4L867.8,18.6z"/>
</g>
<g>
	<path d="M881.9,2L879,4.9V22h12.1l2.9-2.9V2H881.9z M893,18.6l-2.4,2.4H880V5.4l2.4-2.4H893V18.6z"/>
	<rect x="883" y="8" width="7" height="1"/>
	<rect x="883" y="11" width="7" height="1"/>
	<rect x="883" y="14" width="7" height="1"/>
</g>
<g>
	<g>
		<path d="M919.5,10c-0.7,0-1.2,0.4-1.4,1h-2.1c-0.1-1.1-0.7-2.1-1.4-2.8l1.8-3.2c0.1,0,0.1,0,0.2,0c0.8,0,1.5-0.7,1.5-1.5
			S917.3,2,916.5,2S915,2.7,915,3.5c0,0.4,0.2,0.8,0.4,1.1l-1.8,3C913,7.2,912.3,7,911.5,7c-0.5,0-0.9,0.1-1.4,0.2l-1.6-2.7
			c0.3-0.3,0.4-0.6,0.4-1.1c0-0.8-0.7-1.5-1.5-1.5S906,2.7,906,3.5s0.7,1.5,1.5,1.5c0.1,0,0.1,0,0.2,0l1.5,2.7
			c-1.2,0.7-2,1.9-2.2,3.3h-2.1c-0.2-0.6-0.8-1-1.4-1c-0.8,0-1.5,0.7-1.5,1.5s0.7,1.5,1.5,1.5c0.7,0,1.2-0.4,1.4-1h2.1
			c0.2,1.4,1,2.6,2.2,3.3l-1.5,2.7c-0.1,0-0.1,0-0.2,0c-0.8,0-1.5,0.7-1.5,1.5s0.7,1.5,1.5,1.5s1.5-0.7,1.5-1.5
			c0-0.4-0.2-0.8-0.4-1.1l1.6-2.7c0.4,0.1,0.9,0.2,1.4,0.2c0.8,0,1.5-0.2,2.2-0.6l1.8,3c-0.3,0.3-0.4,0.6-0.4,1.1
			c0,0.8,0.7,1.5,1.5,1.5s1.5-0.7,1.5-1.5s-0.7-1.5-1.5-1.5c-0.1,0-0.1,0-0.2,0l-1.8-3.2c0.8-0.7,1.3-1.7,1.4-2.8h2.1
			c0.2,0.6,0.8,1,1.4,1c0.8,0,1.5-0.7,1.5-1.5S920.3,10,919.5,10z M911.5,15c-1.9,0-3.5-1.6-3.5-3.5s1.6-3.5,3.5-3.5
			s3.5,1.6,3.5,3.5S913.4,15,911.5,15z"/>
	</g>
</g>
<g>
	<path d="M944.5,10c-0.7,0-1.2,0.4-1.4,1h-2.1c-0.1-1.1-0.7-2.1-1.4-2.8l1.8-3.2c0.1,0,0.1,0,0.2,0c0.8,0,1.5-0.7,1.5-1.5
		S942.3,2,941.5,2S940,2.7,940,3.5c0,0.4,0.2,0.8,0.4,1.1l-1.8,3C938,7.2,937.3,7,936.5,7c-0.5,0-0.9,0.1-1.4,0.2l-1.6-2.7
		c0.3-0.3,0.4-0.6,0.4-1.1c0-0.8-0.7-1.5-1.5-1.5S931,2.7,931,3.5s0.7,1.5,1.5,1.5c0.1,0,0.1,0,0.2,0l1.5,2.7
		c-1.2,0.7-2,1.9-2.2,3.3h-2.1c-0.2-0.6-0.8-1-1.4-1c-0.8,0-1.5,0.7-1.5,1.5s0.7,1.5,1.5,1.5c0.7,0,1.2-0.4,1.4-1h2.1
		c0.2,1.4,1,2.6,2.2,3.3l-1.5,2.7c-0.1,0-0.1,0-0.2,0c-0.8,0-1.5,0.7-1.5,1.5s0.7,1.5,1.5,1.5s1.5-0.7,1.5-1.5
		c0-0.4-0.2-0.8-0.4-1.1l1.6-2.7c0.4,0.1,0.9,0.2,1.4,0.2c0.8,0,1.5-0.2,2.2-0.6l1.8,3c-0.3,0.3-0.4,0.6-0.4,1.1
		c0,0.8,0.7,1.5,1.5,1.5s1.5-0.7,1.5-1.5s-0.7-1.5-1.5-1.5c-0.1,0-0.1,0-0.2,0l-1.8-3.2c0.8-0.7,1.3-1.7,1.4-2.8h2.1
		c0.2,0.6,0.8,1,1.4,1c0.8,0,1.5-0.7,1.5-1.5S945.3,10,944.5,10z"/>
</g>
<g>
	<circle cx="962" cy="12" r="3"/>
	<path d="M962,6c-5.5,0-10,6-10,6s4.5,6,10,6s10-6,10-6S967.5,6,962,6z M962,17c-4,0-7.5-3.6-8.7-5c1.3-1.4,4.7-5,8.7-5
		c4,0,7.5,3.6,8.7,5C969.5,13.4,966,17,962,17z"/>
</g>
<g class="st0">
	<path d="M995.7,2c0.2,0,0.3,0,0.5,0.1c0.2,0.1,0.3,0.2,0.4,0.3c0.1,0.1,0.2,0.2,0.3,0.4s0.1,0.3,0.1,0.5V22h-17.8l-2.2-2.2V3.2
		c0-0.2,0-0.3,0.1-0.5s0.2-0.3,0.3-0.4c0.1-0.1,0.2-0.2,0.4-0.3c0.2-0.1,0.3-0.1,0.5-0.1H995.7z M996,3h-2v10h-14V3h-1.9L978,19.1
		l1.9,1.9h1.2v-5.1l10,0l0.1,5h4.9V3z M981,12h12V3h-12V12z M990,17h-8v4h0.9l0-3h2v3h5L990,17z"/>
</g>
<path d="M971,45V34h-2h0c0-0.4-0.1-0.7-0.1-1c-0.1-0.4-0.1-0.7-0.2-1c-0.3-0.9-0.8-1.6-1.4-2.4c-0.2-0.3-0.5-0.5-0.7-0.7
	c-1.2-1.1-2.8-1.9-4.5-1.9h-1c-1.7,0-3.3,0.8-4.5,1.9c-0.2,0.2-0.5,0.5-0.7,0.7c-0.6,0.7-1.1,1.5-1.4,2.4c-0.1,0.3-0.2,0.6-0.2,1
	c-0.1,0.3-0.1,0.6-0.1,1h0h-2v11h6v1h-4v1h4h6h4v-1h-4v-1H971z M966.5,30.4c0.4,0.5,0.7,1,0.9,1.6c0.1,0.3,0.2,0.7,0.3,1
	c0.1,0.4,0.2,0.7,0.2,1H965c0-0.3,0.1-0.6,0.2-1c0.1-0.3,0.2-0.7,0.3-1C965.8,31.4,966.1,30.8,966.5,30.4
	C966.5,30.4,966.5,30.4,966.5,30.4z M968,35c-0.1,1-0.6,2.7-1.5,3.7c-0.8-1-1.3-2.7-1.5-3.7H968z M962,33v-1v-4
	c1.4,0.1,2.8,0.7,3.8,1.6c-0.6,0.7-1.1,1.4-1.4,2.4c-0.1,0.3-0.2,0.6-0.2,1c-0.1,0.3-0.1,0.6-0.1,1h-2V33z M962,35h2
	c0.1,2,0.8,3.2,1.8,4.4c0,0,0,0,0,0c-1,0.9-2.3,1.5-3.8,1.6V35z M961,28v4v1v1h-2c0-0.4-0.1-0.7-0.1-1c-0.1-0.4-0.1-0.7-0.2-1
	c-0.3-0.9-0.8-1.6-1.4-2.4C958.2,28.7,959.6,28.2,961,28z M961,35v6c-1.5-0.1-2.8-0.7-3.8-1.6c0,0,0,0,0,0c1-1.2,1.7-2.4,1.8-4.4
	H961z M955.2,33c0.1-0.3,0.2-0.7,0.3-1c0.2-0.6,0.5-1.2,0.9-1.6c0,0,0,0,0,0c0.4,0.5,0.7,1,0.9,1.6c0.1,0.3,0.2,0.7,0.3,1
	c0.1,0.4,0.2,0.7,0.2,1H955C955.1,33.7,955.1,33.4,955.2,33z M958,35c-0.1,1-0.7,2.6-1.5,3.7c-0.8-1-1.3-2.7-1.5-3.7H958z M963,46
	h-4v-1h4V46z M958,44h-5v-9h1h0c0.1,2,0.8,3.2,1.8,4.4c0.2,0.3,0.5,0.5,0.7,0.7c1.2,1.1,2.8,1.8,4.5,1.9h1c1.7-0.1,3.3-0.8,4.5-1.9
	c0.2-0.2,0.5-0.5,0.7-0.7c1-1.2,1.7-2.4,1.8-4.4h0h1v9h-6H958z"/>
<g>
	<path d="M996,45V34h-2v-7h-10v3h-5v4h-2v11h6v1h-4v1h4h6h4v-1h-4v-1H996z M985,40V28h8v12c0,1.1-0.9,2-2,2h-6h-0.8
		C984.7,41.5,985,40.8,985,40z M980,31h4v9c0,1.1-0.9,2-2,2s-2-0.9-2-2V31z M988,46h-4v-1h4V46z M983,44h-5v-9h1v5c0,1.7,1.3,3,3,3
		h9c1.7,0,3-1.3,3-3v-5h1v9h-6H983z"/>
	<rect x="986" y="32" width="6" height="1"/>
	<rect x="986" y="34" width="6" height="1"/>
	<rect x="986" y="36" width="6" height="1"/>
</g>
<g>
	<g>
		<path d="M19.8,68.8c1.3-1.6,2.1-3.4,2.2-5.3h-4.8C17.4,65.3,18.3,67.2,19.8,68.8z M22,62.5c-0.1-2.9-0.9-4.7-2.2-6.3
			c-1.5,1.5-2.4,3.4-2.6,6.3H22z M21,61.5h-2.9c0.2-1.9,0.8-2.9,1.6-3.8C20.4,58.6,20.9,59.6,21,61.5z M12.5,63.4V72
			c2.9-0.1,5-1,6.7-2.8c-1.7-1.7-2.8-3.9-2.9-5.8H12.5z M4.2,56.2c-1.3,1.6-2.1,3.4-2.2,6.3h4.8C6.6,59.6,5.7,57.7,4.2,56.2z
			 M4.3,57.7c0.8,1,1.4,1.9,1.6,3.8H3C3.1,59.6,3.6,58.6,4.3,57.7z M16.3,62.5c0.1-2.9,1.2-5.5,2.9-7.2c-1.7-1.8-3.8-3.1-6.7-3.2h-1
			c-2.9,0.1-5,1.5-6.7,3.2c1.7,1.7,2.8,4.4,2.9,7.2H16.3z M12.5,53L12.5,53c1.8,0,4,1.1,5.4,2.3c-1.3,1.6-2.3,4.3-2.5,6.2h-1.9h-1
			V53z M11.5,53v8.6H8.7c-0.2-1.9-1.2-4.6-2.5-6.2C7.6,54,9.5,53,11.5,53z M2,63.4c0.1,1.9,0.9,3.7,2.2,5.3c1.5-1.5,2.4-3.4,2.6-5.3
			H2z M4.8,69.2c1.7,1.8,3.8,2.6,6.7,2.8v-8.6H7.7C7.6,65.3,6.5,67.5,4.8,69.2z"/>
	</g>
</g>
<path d="M43.4,58.9l-0.7,0.7l2.4,2.4h-3.3c-0.3-3-3.5-6.6-7.3-6.6c-1.5,0-3,0.5-4.2,1.3L26.7,53L26,53.7l3.6,3.6
	c-1.5,1.3-2.4,3.3-2.4,5.4c0,1.8,0.6,3.4,1.7,4.7L26,70.3l0.7,0.7l2.9-2.9c1.3,1.2,3,1.9,4.9,1.9c3.9,0,7.1-3,7.3-7h3.2l-2.4,2.4
	l0.7,0.7l3.6-3.6L43.4,58.9z M34.5,69c-3.5,0-6.3-2.8-6.3-6.3c0-3.5,2.8-6.3,6.3-6.3c3.3,0,5.9,2.6,6.3,5.6h-1.6c-0.3-2-2.3-4-4.6-4
	c-2.6,0-4.7,2.1-4.7,4.7c0,2.6,2.1,4.7,4.7,4.7c2.5,0,4.5-1.4,4.6-4.4h1.5C40.7,67,37.9,69,34.5,69z M38.3,63
	c-0.2,2-1.7,3.4-3.6,3.4c-2,0-3.7-1.6-3.7-3.7c0-2,1.6-3.7,3.7-3.7c1.8,0,3.3,2,3.6,3H35v1H38.3z"/>
<g>
	<path d="M56.3,61L53,71h1.3l0.8-2.5h3.7l0.8,2.5H61l-3.3-10H56.3z M55.6,67.3l1.4-4.4l1.4,4.4H55.6z"/>
	<path d="M66,60c-0.6-0.6,2-2.3,2-3c0-1,0-1,0-1h-6v1h4.4c0.2,0,0.3,0.2,0.2,0.4C66,58,65,59,65,59h-1c0,0,1,0.7,1,1h-1h-3v1h4v2
		c0,1.3-2,1-2,1s0,1,1,1c0.1,0,1,0,1,0c0.6,0,1-0.5,1-1c0-0.2,0-3,0-3h4v-1h-3H66z"/>
	<path d="M70,54l-4,0v-1h-2v1h-4v4l1,0v-3h8c0,0,0,1.9,0,2h1C70,57,70,54.1,70,54z"/>
</g>
<polygon points="97,56 97,52 93,52 93,53 95.3,53 87,61.3 78.7,53 81,53 81,52 77,52 77,56 78,56 78,53.7 86.3,62 78,70.3 78,68 
	77,68 77,72 81,72 81,71 78.7,71 87,62.7 95.3,71 93,71 93,72 97,72 97,68 96,68 96,70.3 87.7,62 96,53.7 96,56 "/>
<g>
	<polygon points="117,64 117,63 113,63 113,67 114,67 114,64.7 121.3,72 122,71.3 114.7,64 	"/>
	<polygon points="117,60 114.7,60 122,52.7 121.3,52 114,59.3 114,57 113,57 113,61 117,61 	"/>
	<polygon points="107,64 109.3,64 102,71.3 102.7,72 110,64.7 110,67 111,67 111,63 107,63 	"/>
	<polygon points="110,59.3 102.7,52 102,52.7 109.3,60 107,60 107,61 111,61 111,57 110,57 	"/>
</g>
<g>
	<rect x="128" y="63" width="19" height="1"/>
	<rect x="128" y="60" width="19" height="1"/>
	<rect x="128" y="66" width="14" height="1"/>
	<rect x="128" y="57" width="19" height="1"/>
	<polygon points="132,53 127,53 129.5,56 	"/>
	<polygon points="139,71 144,71 141.5,68 	"/>
</g>
<g>
	<path d="M15.8,39.2l2.4,7.8L12,42.2L5.8,47l2.4-7.8L2,34.5h7.7L12,27l2.3,7.5H22L15.8,39.2z M15.9,43.6c-0.2-0.8-0.5-1.6-0.7-2.4
		s-0.5-1.6-0.8-2.4c0.7-0.5,1.3-1,2-1.5s1.3-1,2-1.5h-4.9L12,31.2l-1.4,4.6H5.7c0.7,0.5,1.3,1,2,1.5s1.3,1,2,1.5
		c-0.3,0.8-0.5,1.6-0.8,2.4s-0.5,1.6-0.7,2.4l3.9-3L15.9,43.6z"/>
</g>
<g>
	<g>
		<path class="st2" d="M46,28v12H35h-0.4l-0.3,0.3L31,43.6V41v-1h-1h-2V28H46 M47,27H27v14h3v5l5-5h12V27L47,27z"/>
	</g>
</g>
<g>
	<rect x="582" y="35" width="10" height="1"/>
	<rect x="582" y="37" width="6" height="1"/>
	<polygon points="597,27 597,27 577,27 577,47 577,47 577,47 588,47 588,46 578,46 578,28 596,28 596,38 597,39 597,27 	"/>
	<rect x="582" y="33" width="10" height="1"/>
	<path d="M594.8,43.4c0.8-0.5,1.2-1.4,1.2-2.4c0-1.7-1.3-3-3-3s-3,1.3-3,3c0,1,0.5,1.9,1.2,2.4c-1.3,0.7-2.2,2-2.2,3.6h1
		c0-1.7,1.3-3,3-3s3,1.3,3,3h1C597,45.4,596.1,44.1,594.8,43.4z M593,43c-1.1,0-2-0.9-2-2c0-1.1,0.9-2,2-2s2,0.9,2,2
		C595,42.1,594.1,43,593,43z"/>
</g>
<g>
	<rect x="607" y="35" width="10" height="1"/>
	<rect x="607" y="37" width="6" height="1"/>
	<rect x="607" y="33" width="10" height="1"/>
	<polygon points="622,27 622,27 602,27 602,47 602,47 602,47 613,47 613,46 603,46 603,28 621,28 621,37 622,37 622,27 	"/>
	<path d="M621,38h-7v9h4v0h4v-5h-1V38z M621,46h-2v0h-1h-3v-7h5v3v1h1V46z"/>
</g>
<g>
	<rect x="632" y="35" width="10" height="1"/>
	<rect x="632" y="33" width="10" height="1"/>
	<rect x="632" y="37" width="6" height="1"/>
	<polygon points="647,27 647,27 627,27 627,47 627,47 627,47 638,47 638,46 628,46 628,28 646,28 646,37 647,37 647,27 	"/>
	<rect x="644" y="39" width="3" height="2"/>
	<rect x="640" y="39" width="3" height="2"/>
	<rect x="644" y="42" width="3" height="2"/>
	<rect x="640" y="42" width="3" height="2"/>
	<rect x="644" y="45" width="3" height="2"/>
	<rect x="640" y="45" width="3" height="2"/>
</g>
<path d="M666,34h6v4h-3v-1h2v-2h-4L666,34z M653,37v-2h5l1-1h-7v4h4l0-1H653z M672,28v4h-20v-4H672z M671,29h-18v2h18V29z M663,38
	v-1h-1v1v2h-3v1h3v3h1v-3h3v-1h-3V38z M668.5,38c0.3,0.8,0.5,1.6,0.5,2.5c0,3.6-2.9,6.5-6.5,6.5s-6.5-2.9-6.5-6.5
	c0-0.9,0.2-1.7,0.5-2.5c0.1-0.4,0.3-0.7,0.5-1c0.5-0.8,1.2-1.5,2-2c1-0.6,2.1-1,3.3-1c0,0,0.1,0,0.1,0s0.1,0,0.1,0
	c1.2,0,2.4,0.4,3.3,1c0.8,0.5,1.5,1.2,2,2C668.2,37.3,668.4,37.6,668.5,38z M668,40.5c0-0.9-0.2-1.7-0.6-2.5c-0.2-0.4-0.4-0.7-0.7-1
	c-1-1.2-2.5-2-4.1-2c0,0-0.1,0-0.1,0s-0.1,0-0.1,0c-1.7,0-3.1,0.8-4.1,2c-0.3,0.3-0.5,0.6-0.7,1c-0.4,0.7-0.6,1.6-0.6,2.5
	c0,3,2.5,5.5,5.5,5.5S668,43.5,668,40.5z"/>
<g>
	<path d="M677,28v4h20v-4H677z M696,31h-18v-2h18V31z"/>
	<polygon points="688,38 688,37 687,37 687,38 687,40 684,40 684,41 687,41 687,44 688,44 688,41 691,41 691,40 688,40 	"/>
	<path d="M687.5,34c0,0-0.1,0-0.1,0H677v4h4.5c-0.3,0.8-0.5,1.6-0.5,2.5c0,3.6,2.9,6.5,6.5,6.5s6.5-2.9,6.5-6.5
		c0-0.9-0.2-1.7-0.5-2.5h3.5v-4h-9.4C687.6,34,687.5,34,687.5,34z M678,37v-2h6c-0.8,0.5-1.5,1.2-2,2H678z M687.5,46
		c-3,0-5.5-2.5-5.5-5.5c0-0.9,0.2-1.7,0.6-2.5c0.2-0.4,0.4-0.7,0.7-1c1-1.2,2.5-2,4.1-2c0,0,0.1,0,0.1,0s0.1,0,0.1,0
		c1.7,0,3.1,0.8,4.1,2c0.3,0.3,0.5,0.6,0.7,1c0.4,0.7,0.6,1.6,0.6,2.5C693,43.5,690.5,46,687.5,46z M696,35v2h-3
		c-0.5-0.8-1.2-1.5-2-2H696z"/>
</g>
<path d="M702,28v4h20v-4H702z M721,31h-18v-2h18V31z M712.5,34c0,0-0.1,0-0.1,0H702v4h4.5c-0.3,0.8-0.5,1.6-0.5,2.5
	c0,3.6,2.9,6.5,6.5,6.5s6.5-2.9,6.5-6.5c0-0.9-0.2-1.7-0.5-2.5h3.5v-4h-9.4C712.6,34,712.5,34,712.5,34z M703,37v-2h6
	c-0.8,0.5-1.5,1.2-2,2H703z M721,35v2h-3c-0.5-0.8-1.2-1.5-2-2H721z M713,40h3v1h-3v3h-1v-3h-3v-1h3v-3h1V40z"/>
<g class="st0">
	<path d="M96,47H77l3.8-11.3h5.1v-2.6c-0.4-0.1-0.7-0.2-1-0.4s-0.6-0.4-0.8-0.7c-0.2-0.3-0.4-0.6-0.5-0.9s-0.2-0.7-0.2-1.1
		c0-0.4,0.1-0.8,0.2-1.2s0.4-0.7,0.7-1s0.6-0.5,1-0.7c0.4-0.2,0.8-0.2,1.2-0.2s0.8,0.1,1.2,0.2c0.4,0.2,0.7,0.4,1,0.7
		c0.3,0.3,0.5,0.6,0.7,1s0.3,0.8,0.3,1.2c0,0.4-0.1,0.7-0.2,1.1s-0.3,0.6-0.5,0.9c-0.2,0.3-0.5,0.5-0.8,0.7s-0.6,0.3-1,0.4v2.6h5.1
		L96,47z M78.8,45.8h15.5L91.3,37h-4.2v4.7c0,0.1,0,0.1-0.1,0.2c0,0-0.1,0.1-0.2,0.1c-0.1,0-0.1,0-0.2,0c-0.1,0-0.1,0-0.2,0
		s-0.1,0-0.2,0c-0.1,0-0.1,0-0.2,0c-0.1,0-0.1-0.1-0.2-0.1c0,0-0.1-0.1-0.1-0.2V37h-4.2L78.8,45.8z M84.6,30.1c0,0.3,0,0.5,0.1,0.7
		c0.1,0.2,0.2,0.4,0.4,0.6s0.4,0.3,0.6,0.4s0.5,0.1,0.7,0.1s0.5,0,0.7-0.1s0.4-0.2,0.6-0.4s0.3-0.4,0.4-0.6c0.1-0.2,0.1-0.5,0.1-0.7
		s0-0.5-0.1-0.7c-0.1-0.2-0.2-0.4-0.4-0.6s-0.4-0.3-0.6-0.4s-0.5-0.1-0.7-0.1s-0.5,0-0.7,0.1s-0.4,0.2-0.6,0.4s-0.3,0.4-0.4,0.6
		C84.6,29.6,84.6,29.9,84.6,30.1z"/>
</g>
<g>
	<path d="M62,27c-3.3,0-6,2.9-6,6.4c0,1.6,0.7,3.5,1.3,4.7c1,1.9,4.4,8.4,4.4,8.4L62,47l0.2-0.5c0-0.1,3.4-6.3,4.5-8.4
		c0.6-1.2,1.3-3.2,1.3-4.7C68,29.9,65.3,27,62,27z M65.8,37.7C65,39.2,63,42.9,62,44.9c-1.1-2-3.1-5.8-3.8-7.2
		c-0.6-1.2-1.2-3-1.2-4.3c0-3,2.2-5.4,5-5.4c2.8,0,5,2.4,5,5.4C67,34.7,66.4,36.6,65.8,37.7z"/>
	<circle cx="62" cy="33.2" r="2"/>
</g>
<path d="M109.9,27l-2.9,2.9V37h-1c-1.7,0-3-1.3-3-3c0-1.7,1.4-3,3-3l-0.1-1v0c-2.2,0-4,1.8-4,4c0,2.2,1.8,4,4,4h1v9h12.1l2.9-2.9V27
	H109.9z M120.8,43.6l-2.1,2.1h-10.4V38h5.8v2l3-2.5l-3-2.5v2h-5.8v-6.6l2.1-2.1h10.4V43.6z"/>
<path d="M168,37v2h-11c-0.6,0-1.2-0.2-1.7-0.5c-0.3-0.2-0.5-0.4-0.7-0.7c-0.4-0.5-0.6-1.1-0.6-1.8s0.2-1.3,0.6-1.8
	c0.7,0.5,1.5,0.8,2.4,0.8h11V37l3-2.5l-3-2.5v2h-11c-0.6,0-1.2-0.2-1.7-0.5c-0.3-0.2-0.5-0.4-0.7-0.7c-0.4-0.5-0.6-1.1-0.6-1.8
	c0-1.7,1.4-3,3-3h5.9v-1h-6v0c-2.2,0-4,1.8-4,4c0,1,0.3,1.8,0.9,2.5c-0.6,0.7-0.9,1.5-0.9,2.5s0.3,1.8,0.9,2.5
	c-0.6,0.7-0.9,1.5-0.9,2.5c0,2.2,1.8,4,4,4h11v2l3-2.5l-3-2.5v2h-11c-1.7,0-3-1.3-3-3c0-0.7,0.2-1.3,0.6-1.8
	c0.7,0.5,1.5,0.8,2.4,0.8h11v2l3-2.5L168,37z"/>
<g>
	<path d="M183,41l3-2.5l-3-2.5v2h-2c-1.7,0-3-1.3-3-3c0-1.7,1.4-3,3-3l-0.1-1v0c-2.2,0-4,1.8-4,4c0,2.2,1.8,4,4,4h2V41z"/>
	<rect x="183" y="29" width="14" height="1"/>
	<rect x="183" y="32" width="14" height="1"/>
	<rect x="187" y="35" width="10" height="1"/>
	<rect x="187" y="38" width="10" height="1"/>
	<rect x="187" y="41" width="10" height="1"/>
	<rect x="183" y="44" width="14" height="1"/>
</g>
<path d="M147,37.5l-3-2.5v2h-2V27h-12.1l-2.9,2.9V47h12.1l2.9-2.9V38h2v2L147,37.5z M140.8,43.6l-2.1,2.1h-10.4V30.4l2.1-2.1h10.4
	V37H136c-1.7,0-3-1.3-3-3h-1c0,2.2,1.8,4,4,4h4.7V43.6z"/>
<g>
	<rect x="210" y="30" width="12" height="1"/>
	<polygon points="202,29 202,31 204,33 208,29 208,27 204,31 	"/>
	<rect x="210" y="37" width="12" height="1"/>
	<polygon points="202,36 202,38 204,40 208,36 208,34 204,38 	"/>
	<rect x="210" y="44" width="12" height="1"/>
	<polygon points="202,43 202,45 204,47 208,43 208,41 204,45 	"/>
</g>
<path d="M247,31v-4h-20v4h2v3v1v4v1v4v1h3v1h13v-3h-13v1h-2v-4h2v1h13v-3h-13v1h-2v-4h2v1h13v-3h-13v1h-2v-3H247z M233,44h11v1h-11
	V44z M233,39h11v1h-11V39z M233,34h11v1h-11V34z"/>
<g>
	<path d="M344,34v-4h-5c0,0-0.1-0.8-0.2-1.2s-0.4-0.7-0.6-1s-0.6-0.5-1-0.6S336.4,27,336,27c-0.4,0-0.8,0.1-1.2,0.2
		s-0.7,0.4-0.9,0.6s-0.5,0.6-0.6,1S333,30,333,30h-5v16h8v1h10V34H344z M332,31h2v-1c0-1.1,0.9-2,2-2s2,0.9,2,2v1h2v1h-8V31z
		 M336,45h-7V31h2v2h10v-2h2v3h-7V45z M345,46h-8V35h8V46z"/>
	<circle cx="336" cy="30" r="1"/>
</g>
<path d="M272,31v-4h-20v4h2v3v1v4v1v4v1h3v1h13v-3h-13v1h-2v-4h2v1h13v-3h-13v1h-2v-4h2v1h13v-3h-13v1h-2v-3H272z M258,44h1v1h-1V44
	z M258,39h1v1h-1V39z M258,34h1v1h-1V34z M253,30v-2h18v2H253z"/>
<g>
	<path d="M316,30v-3h-11.1l-1.9,1.9V44h5v3h11.1l1.9-1.9V30H316z M308,42.8h-3.8V29.4l1.1-1.1h9.4V30h-4.9l-1.9,1.9V42.8z
		 M319.8,44.6l-1.1,1.1h-9.4V44v-1.3V32.4l1.1-1.1h4.4h1.3h3.8V44.6z"/>
	<rect x="311.9" y="34" width="5" height="1"/>
	<rect x="311.9" y="38" width="5" height="1"/>
	<rect x="310.9" y="36" width="7" height="1"/>
	<circle cx="316.5" cy="42.5" r="1.5"/>
</g>
<g>
	<path d="M359,41.1C359,41.1,359,41.1,359,41.1C359,41.1,359,40.3,359,41.1z"/>
	<polygon points="359,41.1 359,41.1 359,41.1 	"/>
	<path d="M359,41.1c0-0.1-0.7-2.8,0-3.1c1.2-0.6,2.5-0.7,3.7-0.7c0.7,0,0.5,0,1.1,0.1l0.8-0.9c-0.8-0.2-0.8-0.2-1.9-0.2
		c-1.5,0-2.9,0.3-4.1,0.8c-0.5,0.2-0.8,0.5-0.8,1.8c-1.2-1.5-1.7-1.8-2.3-1.8c-1.4,0-2.5-1.1-2.5-2.5c0-1.3,1-2.3,2.2-2.5
		c0.3,0,0.6-0.2,0.7-0.5c0.2-0.3,0.2-0.6,0.1-0.9c0-0.1,0-0.1,0-0.2c0-0.3,0.2-0.5,0.5-0.5c0.1,0,0.1,0,0.2,0c0.1,0,0.2,0.1,0.4,0.1
		c0.2,0,0.3,0,0.4-0.1c0.3-0.1,0.4-0.4,0.5-0.6c0.1-0.2,0.3-0.4,0.5-0.4c0,0,0.1,0,0.3,0.1c0.2,0.1,0.4,0.2,0.6,0.2
		c0.1,0,0.2,0,0.2,0c0.3-0.1,0.5-0.2,0.6-0.5c0.3-0.5,0.8-0.8,1.3-0.8s1,0.3,1.3,0.8c0.1,0.2,0.4,0.4,0.6,0.5c0.1,0,0.1,0,0.2,0
		c0.2,0,0.4-0.1,0.6-0.2c0.1-0.1,0.2-0.1,0.3-0.1c0.2,0,0.4,0.2,0.5,0.4c0.1,0.3,0.3,0.5,0.5,0.6c0.1,0.1,0.3,0.1,0.4,0.1
		c0.1,0,0.3,0,0.4-0.1c0.1,0,0.1,0,0.2,0c0.3,0,0.5,0.2,0.5,0.5c0,0.1,0,0.2-0.1,0.2c-0.1,0.3-0.2,0.6-0.1,0.8
		c0.1,0.3,0.3,0.5,0.6,0.6c0.6,0.2,0.7,0.3,1,0.8l0.7-0.7c-0.4-0.6-0.6-0.7-1.3-1c0.1-0.2,0.2-0.5,0.2-0.8c0-0.8-0.7-1.5-1.5-1.5
		c-0.2,0-0.4,0-0.6,0.1c-0.2-0.6-0.7-1.1-1.4-1.1c-0.3,0-0.6,0.1-0.8,0.3c-0.4-0.8-1.2-1.3-2.2-1.3s-1.7,0.5-2.2,1.3
		c-0.2-0.2-0.5-0.3-0.8-0.3c-0.7,0-1.3,0.5-1.4,1.1c-0.2-0.1-0.4-0.1-0.6-0.1c-0.8,0-1.5,0.7-1.5,1.5c0,0.2,0,0.4,0.1,0.5
		c-1.7,0.2-3.1,1.7-3.1,3.5c0,1.9,1.6,3.5,3.5,3.5C355.7,38,359,41.3,359,41.1C359,41.1,359,41.1,359,41.1z"/>
	<path d="M369.2,33L358,44.2V47h2.6L372,35.8L369.2,33z M360.2,46H359v-1.4l10.2-10.2l1.4,1.4L360.2,46z"/>
</g>
<polygon points="370,47 362,47 363,46 370,46 "/>
<g>
	<path d="M392.9,38c-0.1,0-0.3-0.1-0.6-0.2c-0.4-0.1-0.5-0.1-0.5-0.1C391.8,37.7,392.8,37.9,392.9,38z"/>
	<path d="M385,42c0,0-0.7-3.7,0-4c1.2-0.6,2.5-0.7,3.7-0.7c1.6,0,2.9,0.3,3.7,0.5c0.2,0,0.4,0.1,0.6,0.1c0.1,0,0.2,0,0.4,0
		c1.4,0,2.6-1.9,2.6-3.5c0-1.5-0.9-2.7-2.2-3.2c0.1-0.2,0.2-0.5,0.2-0.8c0-0.8-0.7-1.5-1.5-1.5c-0.2,0-0.4,0-0.6,0.1
		c-0.2-0.6-0.7-1.1-1.4-1.1c-0.3,0-0.6,0.1-0.8,0.3c-0.4-0.8-1.2-1.3-2.2-1.3s-1.7,0.5-2.2,1.3c-0.2-0.2-0.5-0.3-0.8-0.3
		c-0.7,0-1.3,0.5-1.4,1.1c-0.2-0.1-0.4-0.1-0.6-0.1c-0.8,0-1.5,0.7-1.5,1.5c0,0.2,0,0.4,0.1,0.5c-1.7,0.2-3.1,1.7-3.1,3.5
		c0,1.9,1.6,3.5,3.5,3.5C381.7,38,384.8,42,385,42C385,42,385,42,385,42L385,42z M383.7,39c-1.6-1.9-1.7-2-2.2-2
		c-1.4,0-2.5-1.1-2.5-2.5c0-1.3,1-2.3,2.2-2.5c0.3,0,0.6-0.2,0.7-0.5c0.2-0.3,0.2-0.6,0.1-0.9c0-0.1,0-0.1,0-0.2
		c0-0.3,0.2-0.5,0.5-0.5c0.1,0,0.1,0,0.2,0c0.1,0,0.2,0.1,0.4,0.1c0.2,0,0.3,0,0.4-0.1c0.3-0.1,0.4-0.4,0.5-0.6
		c0.1-0.2,0.3-0.4,0.5-0.4c0,0,0.1,0,0.3,0.1c0.2,0.1,0.4,0.2,0.6,0.2c0.1,0,0.2,0,0.2,0c0.3-0.1,0.5-0.2,0.6-0.5
		c0.3-0.5,0.8-0.8,1.3-0.8s1,0.3,1.3,0.8c0.1,0.2,0.4,0.4,0.6,0.5c0.1,0,0.1,0,0.2,0c0.2,0,0.4-0.1,0.6-0.2c0.1-0.1,0.2-0.1,0.3-0.1
		c0.2,0,0.4,0.2,0.5,0.4c0.1,0.3,0.3,0.5,0.5,0.6c0.1,0.1,0.3,0.1,0.4,0.1c0.1,0,0.3,0,0.4-0.1c0.1,0,0.1,0,0.2,0
		c0.3,0,0.5,0.2,0.5,0.5c0,0.1,0,0.2-0.1,0.2c-0.1,0.3-0.2,0.6-0.1,0.8c0.1,0.3,0.3,0.5,0.6,0.6c1,0.4,1.6,1.3,1.6,2.3
		c0,1.2-1,2.5-1.6,2.5c0,0-0.1,0-0.1,0l-0.6-0.1c-0.9-0.3-2.3-0.6-3.9-0.6c-1.5,0-2.9,0.3-4.1,0.8C384.1,37.3,383.7,37.8,383.7,39z"
		/>
	<polygon points="387,47 395,47 395,46 388,46 	"/>
	<rect x="379" y="46" width="5" height="1"/>
	<polygon points="392,39 385,46 385,47 386,47 393,40 	"/>
</g>
<g>
	<path d="M291.1,38c0-2.2-1.8-4-4-4s-4,1.8-4,4c0,2.2,1.8,4,4,4c0.9,0,1.8-0.3,2.5-0.9l1.8,1.8l0.7-0.7l-1.8-1.8
		C290.7,39.8,291.1,39,291.1,38z M289.5,39.8c-0.2,0.3-0.4,0.5-0.7,0.7c-0.5,0.4-1.1,0.6-1.7,0.6c-1.7,0-3-1.4-3-3s1.4-3,3-3
		s3,1.4,3,3C290.1,38.7,289.8,39.3,289.5,39.8z"/>
	<path d="M291,30v-1v0c0-0.1,0-0.1,0,0c0-0.5-0.5-1-1-1h-1h-4h-1c-0.5,0-1,0.4-1,1c0,0,0,0,0,0v0v1h-6v15h2v1h3v-1h10v1h3v-1h2V30
		H291z M284,29h6v1h-6V29z M294,31.1l-1,0.9h-12l-1-0.9H294z M296,44h-18V34l4,2c0.9-2,2.7-3.5,5-3.5s4.2,1.5,5,3.5l4-2V44z"/>
</g>
<g>
	<path d="M419.6,27c-0.1,0-0.1,0-0.2,0c0,0,0,0,0,0c0,0-0.1,0-0.1,0H408c-1.6,0-3,1.3-3,2.9V41h0c-1.6,0-2.9,1.4-2.9,3
		c0,1.6,1.3,3,2.9,3h10.2c1.6,0,2.9-1.3,2.9-2.9V31.5V31h1.5h2h0.5v-1c0,0,0-0.3,0-0.5C422,28.1,420.9,27,419.6,27z M404.9,46
		c-1.1,0-1.9-0.9-1.9-2c0-1.1,0.8-2,1.9-2h8.1c-0.5,0.5-0.9,1.2-0.9,2c0,0.8,0.3,2,0.9,2H404.9z M417,29.2c0,0.1,0,0.2,0,0.3
		c0,0.2,0,0.5,0,0.5v1v13.1c0,1.1-0.9,2.1-2,2.1c-1.2,0-2-0.9-2-2.1s0.9-2.1,2.1-2.1c0.2,0,0.4-0.3,0.4-0.5c0-0.2-0.2-0.5-0.4-0.5
		H406V29.9c0-1.1,0.9-1.9,2-1.9h9.5h0.3C417.5,28,417.1,28.6,417,29.2z M421,30h-2.9H418c0-0.1,0-0.4,0-0.5c0-0.8,0.7-1.5,1.5-1.5
		c0.3,0,0.7,0.1,0.9,0.3c0.4,0.3,0.6,0.7,0.6,1.2V30z"/>
	<polygon points="408,37 408,38 409,38 415,32 414,31 	"/>
</g>
<g>
	<path d="M471.9,27.8c-0.1-0.2-0.2-0.3-0.3-0.4c-0.1-0.1-0.2-0.2-0.4-0.3c-0.2-0.1-0.3-0.1-0.5-0.1h-12.5c-0.2,0-0.3,0-0.5,0.1
		c-0.2,0.1-0.3,0.2-0.4,0.3c-0.1,0.1-0.2,0.3-0.3,0.4s-0.1,0.3-0.1,0.5V33h-3.7c-0.2,0-0.3,0-0.5,0.1c-0.2,0.1-0.3,0.2-0.4,0.3
		c-0.1,0.1-0.2,0.3-0.3,0.4c-0.1,0.2-0.1,0.3-0.1,0.5v11.4c0,0.2,0,0.3,0.1,0.5c0.1,0.2,0.2,0.3,0.3,0.4c0.1,0.1,0.2,0.2,0.4,0.3
		c0.2,0.1,0.3,0.1,0.5,0.1h17.5c0.2,0,0.3,0,0.5-0.1c0.2-0.1,0.3-0.2,0.4-0.3c0.1-0.1,0.2-0.3,0.3-0.4c0.1-0.2,0.1-0.3,0.1-0.5V28.3
		C472,28.1,472,27.9,471.9,27.8z M457,46h-4V34h4V46z M471,46h-13V28h13V46z"/>
	<path d="M464.4,42.7l0.1,0.3l0.1-0.3c0,0,2-3.8,2.6-5.1c0.4-0.7,0.8-1.9,0.8-2.8c0-2.1-1.6-3.8-3.5-3.8c-1.9,0-3.5,1.7-3.5,3.8
		c0,0.9,0.4,2.1,0.8,2.8C462.3,38.8,464.3,42.7,464.4,42.7z M464.5,33c0.8,0,1.5,0.7,1.5,1.5c0,0.8-0.7,1.5-1.5,1.5
		c-0.8,0-1.5-0.7-1.5-1.5C463,33.7,463.7,33,464.5,33z"/>
</g>
<g>
	<circle cx="487" cy="43" r="2"/>
	<path d="M487,39c-3.9,0-7,4-7,4s3.1,4,7,4s7-4,7-4S490.9,39,487,39z M487,46c-2.5,0-4.7-2-5.7-3c1-1,3.2-3,5.7-3c2.5,0,4.7,2,5.7,3
		C491.7,44,489.5,46,487,46z"/>
	<rect x="482" y="28" width="15" height="1"/>
	<path d="M480,27h-3v3h3V27z M479,29h-1v-1h1V29z"/>
	<rect x="482" y="32" width="15" height="1"/>
	<path d="M480,31h-3v3h3V31z M479,33h-1v-1h1V33z"/>
	<rect x="482" y="36" width="15" height="1"/>
	<path d="M480,35h-3v3h3V35z M479,37h-1v-1h1V37z"/>
</g>
<path d="M517,37v-1h4v1H517z M515,32.3l3.4-3.4l0.7,0.7l-3.4,3.4L515,32.3z M511.5,41c-2.5,0-4.5-2-4.5-4.5s2-4.5,4.5-4.5
	s4.5,2,4.5,4.5S514,41,511.5,41z M511.5,33c-1.9,0-3.5,1.6-3.5,3.5s1.6,3.5,3.5,3.5s3.5-1.6,3.5-3.5S513.4,33,511.5,33z M511,27h1v4
	h-1V27z M503.8,29.6l0.7-0.7l3.4,3.4l-0.7,0.7L503.8,29.6z M506,37h-4v-1h4V37z M508,40.7l-3.4,3.4l-0.7-0.7l3.4-3.4L508,40.7z
	 M512,46h-1v-4h1V46z M519.2,43.5l-0.7,0.7l-3.4-3.4l0.7-0.7L519.2,43.5z"/>
<path d="M543.8,32c-0.2-0.6-0.4-1.1-0.7-1.6s-0.7-1-1.1-1.4s-0.9-0.8-1.4-1.1s-1.1-0.5-1.7-0.7S537.6,27,537,27s-1.3,0.1-1.9,0.2
	s-1.2,0.4-1.7,0.7s-1,0.7-1.4,1.1s-0.8,0.9-1.1,1.4s-0.5,1.1-0.7,1.6c-0.2,0.6-0.2,1.2-0.2,1.8c0,0.9,0.2,1.8,0.5,2.6
	s0.9,1.5,1.6,2.2c0.6,0.5,1,1.1,1.3,1.8c0.3,0.7,0.4,1.4,0.4,2.1v2.5c0,0.3,0,0.5,0.1,0.7s0.2,0.4,0.4,0.6s0.4,0.3,0.6,0.4
	c0.2,0.1,0.5,0.1,0.7,0.1h2.5c0.3,0,0.5,0,0.7-0.1c0.2-0.1,0.4-0.2,0.6-0.4s0.3-0.4,0.4-0.6s0.1-0.5,0.1-0.7v-2.5
	c0-0.8,0.1-1.5,0.4-2.1c0.3-0.7,0.7-1.3,1.3-1.8c0.7-0.7,1.2-1.4,1.6-2.2s0.5-1.7,0.5-2.6C544,33.2,543.9,32.6,543.8,32z
	 M539.1,45.5c0,0.1-0.1,0.2-0.2,0.3c-0.1,0.1-0.2,0.1-0.3,0.2c-0.1,0-0.2,0.1-0.4,0.1h-2.5c-0.1,0-0.2,0-0.4-0.1
	c-0.1,0-0.2-0.1-0.3-0.2c-0.1-0.1-0.1-0.2-0.2-0.3c0-0.1-0.1-0.2-0.1-0.3V43h4.4v2.1C539.2,45.2,539.2,45.4,539.1,45.5z M542.5,36.1
	c-0.3,0.7-0.8,1.3-1.3,1.9c-0.6,0.6-1.1,1.3-1.5,2.1c-0.3,0.6-0.4,1.2-0.5,1.9h-4.4c-0.1-0.7-0.2-1.3-0.5-1.9
	c-0.3-0.8-0.8-1.5-1.5-2.1c-0.6-0.6-1-1.2-1.3-1.9c-0.3-0.7-0.5-1.4-0.5-2.2c0-0.5,0.1-1.1,0.2-1.6c0.1-0.5,0.3-1,0.6-1.4
	c0.3-0.4,0.6-0.8,0.9-1.2c0.4-0.4,0.8-0.7,1.2-0.9c0.4-0.3,0.9-0.5,1.4-0.6c0.5-0.1,1-0.2,1.6-0.2s1.1,0.1,1.6,0.2
	c0.5,0.1,1,0.3,1.4,0.6c0.4,0.3,0.9,0.6,1.2,0.9c0.4,0.4,0.7,0.8,0.9,1.2c0.3,0.4,0.5,0.9,0.6,1.4c0.1,0.5,0.2,1,0.2,1.6
	C543,34.7,542.8,35.4,542.5,36.1z"/>
<g>
	<path d="M444.6,27c-0.1,0-0.1,0-0.2,0c0,0,0,0,0,0c0,0-0.1,0-0.1,0H433c-1.6,0-3,1.3-3,2.9V41h0c-1.6,0-2.9,1.4-2.9,3
		c0,1.6,1.3,3,2.9,3h10.2c1.6,0,2.9-1.3,2.9-2.9V31.5V31h1.5h2h0.5v-1c0,0,0-0.3,0-0.5C447,28.1,445.9,27,444.6,27z M429.9,46
		c-1.1,0-1.9-0.9-1.9-2c0-1.1,0.8-2,1.9-2h8.1c-0.5,0.5-0.9,1.2-0.9,2c0,0.8,0.3,2,0.9,2H429.9z M442,29.2c0,0.1,0,0.2,0,0.3
		c0,0.2,0,0.5,0,0.5v1v13.1c0,1.1-0.9,2.1-2,2.1c-1.2,0-2-0.9-2-2.1s0.9-2.1,2.1-2.1c0.2,0,0.4-0.3,0.4-0.5c0-0.2-0.2-0.5-0.4-0.5
		H431V29.9c0-1.1,0.9-1.9,2-1.9h9.5h0.3C442.5,28,442.1,28.6,442,29.2z M446,30h-2.9H443c0-0.1,0-0.4,0-0.5c0-0.8,0.7-1.5,1.5-1.5
		c0.3,0,0.7,0.1,0.9,0.3c0.4,0.3,0.6,0.7,0.6,1.2V30z"/>
	<polygon points="437.8,33.2 437.9,31 436.5,32.6 435.1,31 435.2,33.2 433,33.1 434.6,34.5 433,35.9 435.2,35.8 435.1,38 
		436.5,36.4 437.9,38 437.8,35.8 440,35.9 438.4,34.5 440,33.1 	"/>
</g>
<path d="M565,29.8l-0.2,3.4l-0.1,1.1l1.1-0.1l3.4-0.2l-2.5,2.3l-0.8,0.7l0.8,0.7l2.5,2.3l-3.4-0.2l-1.1-0.1l0.1,1.1l0.2,3.4
	l-2.3-2.5l-0.7-0.8l-0.7,0.8l-2.3,2.5l0.2-3.4l0.1-1.1l-1.1,0.1l-3.4,0.2l2.5-2.3l0.8-0.7l-0.8-0.7l-2.5-2.3l3.4,0.2l1.1,0.1
	l-0.1-1.1l-0.2-3.4l2.3,2.5l0.7,0.8l0.7-0.8L565,29.8 M566.1,27l-4.1,4.6l-4.1-4.6l0.3,6.2l-6.2-0.3l4.6,4.1l-4.6,4.1l6.2-0.3
	l-0.3,6.2l4.1-4.6l4.1,4.6l-0.3-6.2l6.2,0.3l-4.6-4.1l4.6-4.1l-6.2,0.3L566.1,27L566.1,27z"/>
<path d="M736,36v2h1v9h-3v-9h1v-2v-1h10v-4h-2v3h-15v-7h15v3h3v1v4v1H736z M735,46h1v-7h-1V46z"/>
<g class="st0">
	<path d="M762,27c0.9,0,1.8,0.1,2.7,0.4s1.7,0.6,2.4,1s1.4,1,2,1.6s1.1,1.3,1.6,2c0.4,0.7,0.8,1.5,1,2.4s0.4,1.7,0.4,2.7
		s-0.1,1.8-0.4,2.7s-0.6,1.7-1,2.4s-1,1.4-1.6,2s-1.3,1.1-2,1.6s-1.5,0.8-2.4,1S762.9,47,762,47c-0.3,0-0.7-0.1-1-0.2
		s-0.6-0.3-0.8-0.5s-0.4-0.5-0.5-0.8s-0.2-0.6-0.2-1c0-0.3,0-0.6,0.1-0.8s0.1-0.5,0.2-0.6s0.2-0.4,0.3-0.5s0.2-0.3,0.3-0.5
		s0.2-0.4,0.2-0.5s0.1-0.4,0.1-0.7c0-0.3-0.1-0.7-0.2-1s-0.3-0.6-0.5-0.8s-0.5-0.4-0.8-0.5s-0.6-0.2-1-0.2c-0.2,0-0.5,0-0.7,0.1
		s-0.4,0.1-0.5,0.2s-0.3,0.2-0.5,0.3s-0.4,0.2-0.5,0.3s-0.4,0.2-0.7,0.2s-0.5,0.1-0.8,0.1c-0.3,0-0.7-0.1-1-0.2s-0.6-0.3-0.8-0.5
		s-0.4-0.5-0.5-0.8s-0.2-0.6-0.2-1c0-0.9,0.1-1.8,0.4-2.7s0.6-1.7,1-2.4c0.4-0.7,1-1.4,1.6-2s1.3-1.1,2-1.6s1.5-0.8,2.4-1
		S761.1,27,762,27z M762,45.8c0.8,0,1.6-0.1,2.3-0.3s1.4-0.5,2.1-0.9c0.6-0.4,1.2-0.8,1.8-1.4s1-1.1,1.4-1.8s0.7-1.3,0.9-2.1
		s0.3-1.5,0.3-2.3s-0.1-1.6-0.3-2.3s-0.5-1.4-0.9-2.1c-0.4-0.6-0.8-1.2-1.4-1.8s-1.1-1-1.8-1.4c-0.6-0.4-1.3-0.7-2.1-0.9
		s-1.5-0.3-2.3-0.3s-1.6,0.1-2.3,0.3s-1.4,0.5-2.1,0.9s-1.2,0.8-1.8,1.4s-1,1.1-1.4,1.8c-0.4,0.6-0.7,1.3-0.9,2.1s-0.3,1.5-0.3,2.3
		c0,0.2,0,0.3,0.1,0.5s0.2,0.3,0.3,0.4s0.2,0.2,0.4,0.3s0.3,0.1,0.5,0.1c0.2,0,0.5,0,0.7-0.1s0.4-0.1,0.5-0.2s0.3-0.2,0.5-0.3
		s0.3-0.2,0.5-0.3s0.4-0.2,0.6-0.2s0.5-0.1,0.8-0.1c0.5,0,1,0.1,1.5,0.3s0.9,0.5,1.2,0.8s0.6,0.7,0.8,1.2s0.3,0.9,0.3,1.5
		c0,0.3,0,0.6-0.1,0.8s-0.1,0.5-0.2,0.7s-0.2,0.4-0.3,0.5s-0.2,0.3-0.3,0.5s-0.2,0.4-0.2,0.5s-0.1,0.4-0.1,0.7c0,0.2,0,0.3,0.1,0.5
		s0.2,0.3,0.3,0.4s0.2,0.2,0.4,0.3S761.8,45.8,762,45.8z M757,33.3c0.2,0,0.3,0,0.5,0.1s0.3,0.2,0.4,0.3s0.2,0.2,0.3,0.4
		s0.1,0.3,0.1,0.5s0,0.3-0.1,0.5s-0.2,0.3-0.3,0.4s-0.2,0.2-0.4,0.3s-0.3,0.1-0.5,0.1s-0.3,0-0.5-0.1s-0.3-0.2-0.4-0.3
		s-0.2-0.2-0.3-0.4s-0.1-0.3-0.1-0.5s0-0.3,0.1-0.5s0.2-0.3,0.3-0.4s0.2-0.2,0.4-0.3S756.8,33.3,757,33.3z M760.8,30.8
		c0.2,0,0.3,0,0.5,0.1s0.3,0.2,0.4,0.3s0.2,0.2,0.3,0.4s0.1,0.3,0.1,0.5c0,0.2,0,0.3-0.1,0.5s-0.2,0.3-0.3,0.4s-0.2,0.2-0.4,0.3
		s-0.3,0.1-0.5,0.1s-0.3,0-0.5-0.1s-0.3-0.2-0.4-0.3s-0.2-0.2-0.3-0.4s-0.1-0.3-0.1-0.5c0-0.2,0-0.3,0.1-0.5s0.2-0.3,0.3-0.4
		s0.2-0.2,0.4-0.3S760.6,30.8,760.8,30.8z M764.5,40.8c0.2,0,0.3,0,0.5,0.1s0.3,0.2,0.4,0.3s0.2,0.2,0.3,0.4s0.1,0.3,0.1,0.5
		s0,0.3-0.1,0.5s-0.2,0.3-0.3,0.4s-0.2,0.2-0.4,0.3s-0.3,0.1-0.5,0.1s-0.3,0-0.5-0.1s-0.3-0.2-0.4-0.3s-0.2-0.2-0.3-0.4
		s-0.1-0.3-0.1-0.5s0-0.3,0.1-0.5s0.2-0.3,0.3-0.4s0.2-0.2,0.4-0.3S764.3,40.8,764.5,40.8z M765.8,34.5c-0.2,0-0.3,0-0.5-0.1
		s-0.3-0.2-0.4-0.3s-0.2-0.2-0.3-0.4s-0.1-0.3-0.1-0.5s0-0.3,0.1-0.5s0.2-0.3,0.3-0.4s0.2-0.2,0.4-0.3s0.3-0.1,0.5-0.1
		s0.3,0,0.5,0.1s0.3,0.2,0.4,0.3s0.2,0.2,0.3,0.4s0.1,0.3,0.1,0.5s0,0.3-0.1,0.5s-0.2,0.3-0.3,0.4s-0.2,0.2-0.4,0.3
		S765.9,34.5,765.8,34.5z M767,37c0.2,0,0.3,0,0.5,0.1s0.3,0.2,0.4,0.3s0.2,0.2,0.3,0.4s0.1,0.3,0.1,0.5s0,0.3-0.1,0.5
		s-0.2,0.3-0.3,0.4s-0.2,0.2-0.4,0.3s-0.3,0.1-0.5,0.1s-0.3,0-0.5-0.1s-0.3-0.2-0.4-0.3s-0.2-0.2-0.3-0.4s-0.1-0.3-0.1-0.5
		s0-0.3,0.1-0.5s0.2-0.3,0.3-0.4s0.2-0.2,0.4-0.3S766.8,37,767,37z"/>
</g>
<path d="M794.6,27c-0.1,0-0.1,0-0.2,0c0,0,0,0,0,0c0,0-0.1,0-0.1,0H783c-1.6,0-3,1.3-3,2.9V30h-3v10h3v1h0c-1.6,0-2.9,1.4-2.9,3
	c0,1.6,1.3,3,2.9,3h10.2c1.6,0,2.9-1.3,2.9-2.9V31.5V31h1.5h2h0.5v-1c0,0,0-0.3,0-0.5C797,28.1,795.9,27,794.6,27z M778,31h1v1h-1
	V31z M778,39v-6h2h1h8v6h-8h-1H778z M786,32v-1h1v1H786z M788,32v-1h1v1H788z M779.9,46c-1.1,0-1.9-0.9-1.9-2c0-1.1,0.8-2,1.9-2h8.1
	c-0.5,0.5-0.9,1.2-0.9,2c0,0.8,0.3,2,0.9,2H779.9z M792,29.2c0,0.1,0,0.2,0,0.3c0,0.2,0,0.5,0,0.5v1v13.1c0,1.1-0.9,2.1-2,2.1
	c-1.2,0-2-0.9-2-2.1s0.9-2.1,2.1-2.1c0.2,0,0.4-0.3,0.4-0.5c0-0.2-0.2-0.5-0.4-0.5H781v-1h9V30h-9v-0.1c0-1.1,0.9-1.9,2-1.9h9.5h0.3
	C792.5,28,792.1,28.6,792,29.2z M796,30h-2.9H793c0-0.1,0-0.4,0-0.5c0-0.8,0.7-1.5,1.5-1.5c0.3,0,0.7,0.1,0.9,0.3
	c0.4,0.3,0.6,0.7,0.6,1.2V30z"/>
<g>
	<path d="M819.6,27c-0.1,0-0.1,0-0.2,0c0,0,0,0,0,0c0,0-0.1,0-0.1,0H808c-1.6,0-3,1.3-3,2.9V41h0c-1.6,0-2.9,1.4-2.9,3
		c0,1.6,1.3,3,2.9,3h10.2c1.6,0,2.9-1.3,2.9-2.9V42l-1-1v3.1c0,1.1-0.9,2.1-2,2.1c-1.2,0-2-0.9-2-2.1s0.9-2.1,2.1-2.1
		c0.2,0,0.4-0.3,0.4-0.5c0-0.2-0.2-0.5-0.4-0.5H806V29.9c0-1.1,0.9-1.9,2-1.9h9.5h0.3c-0.3,0-0.7,0.6-0.8,1.2c0,0.1,0,0.2,0,0.3
		c0,0.2,0,0.5,0,0.5v1v5.2l1,1v-5.7V31h1.5h2h0.5v-1c0,0,0-0.3,0-0.5C822,28.1,820.9,27,819.6,27z M813.1,42c-0.5,0.5-0.9,1.2-0.9,2
		c0,0.8,0.3,2,0.9,2h-8.1c-1.1,0-1.9-0.9-1.9-2c0-1.1,0.8-2,1.9-2H813.1z M821,30h-2.9H818c0-0.1,0-0.4,0-0.5c0-0.8,0.7-1.5,1.5-1.5
		c0.3,0,0.7,0.1,0.9,0.3c0.4,0.3,0.6,0.7,0.6,1.2V30z"/>
	<path d="M815.4,32.1c0.2-0.2,0.1-0.4-0.1-0.5l-1.2-0.4c-0.3-0.1-0.6,0-0.8,0.2l-0.7,0.7c-0.2,0.2-0.5,0.2-0.7,0
		c-0.2-0.2-0.5-0.2-0.7,0l-0.7,0.7c-0.2,0.2-0.2,0.5,0,0.7c0.2,0.2,0.2,0.5,0,0.7c-0.2,0.2-0.6,0.4-0.9,0.4l-0.4,0
		c-0.3,0-0.7,0.2-0.9,0.3l0,0c-0.2,0.2-0.2,0.5,0,0.7l2.1,2.1c0.2,0.2,0.5,0.2,0.7,0l0,0c0.2-0.2,0.4-0.6,0.3-0.9l0-0.4
		c0-0.3,0.2-0.7,0.3-0.9c0.2-0.2,0.5-0.2,0.7,0l7.6,7.6c0.2,0.2,0.5,0.2,0.7,0l0.7-0.7c0.2-0.2,0.2-0.5,0-0.7l-7.6-7.6
		c-0.2-0.2-0.2-0.5,0-0.7L815.4,32.1z"/>
</g>
<g>
	<path d="M831,27v3h-3v14h3v3h15V27H831z M829,43V31h2v12H829z M845,42l-4,4h-9V28h13V42z"/>
	<rect x="834" y="31" width="9" height="1"/>
	<rect x="834" y="33" width="6" height="1"/>
	<rect x="834" y="35" width="9" height="1"/>
	<rect x="834" y="37" width="6" height="1"/>
	<rect x="834" y="39" width="9" height="1"/>
	<rect x="834" y="41" width="6" height="1"/>
</g>
<g>
	<path d="M860,34h-6v1h6V34z M860,37h-6v1h6V37z M860,40h-6v1h6V40z M869,34h-6v1h6V34z M869,37h-6v1h6V37z M869,40h-6v1h6V40z
		 M852,27v20h19V27H852z M861,46h-8V30h8V46z M861,29h-8v-1h8V29z M870,46h-8V30h8V46z M870,29h-8v-1h8V29z"/>
</g>
<g>
	<path d="M917,34h-11v1h11V34z M917,37h-11v1h11V37z M917,40h-11v1h11V40z M902,27v20h19V27H902z M920,46h-17V30h17V46z M920,29h-17
		v-1h17V29z"/>
</g>
<g>
	<path d="M882,34h-3v1h3V34z M882,37h-3v1h3V37z M882,40h-3v1h3V40z M888,34h-3v1h3V34z M888,37h-3v1h3V37z M888,40h-3v1h3V40z
		 M877,27v20h19V27H877z M883,46h-5V30h5V46z M883,29h-5v-1h5V29z M894,34h-3v1h3V34z M894,37h-3v1h3V37z M894,40h-3v1h3V40z
		 M895,46h-5V30h5V46z M895,29h-5v-1h5V29z M889,46h-5V30h5V46z M889,29h-5v-1h5V29z"/>
</g>
<g>
	<path d="M927,47h6V27h-6V47z M928,30h4v16h-4V30z"/>
	<rect x="929" y="32" width="2" height="12"/>
	<path d="M934,47h6V27h-6V47z M935,30h4v16h-4V30z"/>
	<rect x="936" y="32" width="2" height="12"/>
	<path d="M941,27v20h6V27H941z M946,46h-4V30h4V46z"/>
	<rect x="943" y="32" width="2" height="12"/>
</g>
<path d="M159,63v-1h11.1l-2.4-2.4l0.7-0.7l3.6,3.6l-3.6,3.6l-0.7-0.7l2.4-2.4H159z M165,52v8h-1v-7h-11v18h11v-6h1v7h-13V52H165z"/>
<path id="Rectangle_4_copy" d="M221.5,56H218v13.1c0,1.6-1.3,2.9-2.9,2.9h-10.2c-1.6,0-2.9-1.4-2.9-3s1.3-3,2.9-3l0,0V54.9
	c0.1-1.6,1.5-2.9,3.1-2.9h11.3h0.1l0,0c0.1,0,0.1,0,0.2,0c1.3,0,2.4,1.1,2.4,2.5V56H221.5z M204.9,67c-1.1,0-2,0.9-2,2s0.9,2,2,2
	h8.1c-0.5,0-0.9-1.2-0.9-2s0.3-1.5,0.9-2H204.9z M217.5,53H208c-1-0.1-1.9,0.7-2,1.8c0,0.1,0,0.1,0,0.2v11h9.1
	c0.3,0,0.5,0.3,0.4,0.6c0,0.2-0.2,0.4-0.4,0.4c-1.2,0-2.1,0.9-2.1,2.1c0,1.1,0.9,2,2,2s2-0.9,2-2l0,0V54.5c0-0.1,0-0.2,0-0.3
	c0-0.5,0.3-1,0.8-1.2H217.5z M221,54.5c0-0.8-0.7-1.5-1.5-1.5s-1.5,0.7-1.5,1.5V55h3V54.5z M214.3,61.6l-0.7,0.7l-1.6-1.6V63h-1
	v-2.3l-1.6,1.6l-0.7-0.7l1.6-1.6H208v-1h2.3l-1.6-1.6l0.7-0.7l1.6,1.6V56h1v2.3l1.6-1.6l0.7,0.7l-1.6,1.6h2.3v1h-2.3L214.3,61.6z"/>
<path d="M246.5,56H243v13.1c0,1.6-1.3,2.9-2.9,2.9h-10.2c-1.6,0-2.9-1.4-2.9-3s1.3-3,2.9-3l0,0v-1h-3v-8l2-2h1v-0.1
	c0.1-1.6,1.5-2.9,3.1-2.9h11.3h0.1l0,0c0.1,0,0.1,0,0.2,0c1.3,0,2.4,1.1,2.4,2.5V56H246.5z M229.9,67c-1.1,0-2,0.9-2,2s0.9,2,2,2
	h8.1c-0.5,0-0.9-1.2-0.9-2s0.3-1.5,0.9-2H229.9z M229.4,56l-1.4,1.4V64h4.6l1.4-1.4V56H229.4z M242.5,53H233c-1-0.1-1.9,0.7-2,1.8
	c0,0.1,0,0.1,0,0.2l0,0h4v8l-2,2h-2v1h9.1c0.3,0,0.5,0.3,0.4,0.6c0,0.2-0.2,0.4-0.4,0.4c-1.2,0-2.1,0.9-2.1,2.1c0,1.1,0.9,2,2,2
	s2-0.9,2-2V54.5c0-0.1,0-0.2,0-0.3c0-0.5,0.3-1,0.8-1.2H242.5z M246,54.5c0-0.8-0.7-1.5-1.5-1.5s-1.5,0.7-1.5,1.5V55h3V54.5z"/>
<path d="M254,62v-1h18v1H254z M254,57h18v1h-18V57z M254,53h18v1h-18V53z M252,69h1v1h-1V69z M252,65h1v1h-1V65z M252,61h1v1h-1V61z
	 M252,57h1v1h-1V57z M252,53h1v1h-1V53z M261,66h-7v-1h7V66z M261,70h-7v-1h7V70z M264.4,63.7l3.1,3.1l3.1-3.1l0.7,0.7l-3.1,3.1
	l3.1,3.1l-0.7,0.7l-3.1-3.1l-3.1,3.1l-0.7-0.7l3.1-3.1l-3.1-3.1L264.4,63.7z"/>
<path id="Shape_7_copy" d="M197,63v-1h-12.1l2.4-2.4l-0.7-0.7l-3.6,3.6l3.6,3.6l0.7-0.7l-2.4-2.4H197z M190,52v8h-1v-7h-11v18h11v-6
	h1v7h-13V52H190z"/>
<g>
	<path d="M335,57v-3h-8v16h20V57H335z M346,69h-18V55h6v3h12V69z"/>
	<path d="M341,64v-1h-1.3c-0.1,0-0.2-0.5-0.3-0.8l0.7-0.7l-0.6-0.6l-0.6,0.7c-0.2-0.2-0.8-0.3-0.8-0.3V60h-1v1.3
		c-0.3,0.1-0.6,0.2-0.8,0.3l-0.7-0.7l-0.6,0.6l0.7,0.6c-0.2,0.2-0.3,0.8-0.3,0.8h-1.2v1h1.2c0.1,0.3,0.2,0.6,0.3,0.8l-0.7,0.7
		l0.6,0.6l0.7-0.7c0.2,0.2,0.5,0.3,0.8,0.3v1.2h1v-1.2c0-0.1,0.5-0.2,0.8-0.3l0.7,0.7l0.6-0.6l-0.7-0.7c0.2-0.2,0.3-0.5,0.3-0.8h1.2
		L341,64L341,64z"/>
</g>
<path d="M2,80v-1h20v1H2z M11,90H5v-9h6V90z M19,95h-6V81h6V95z M18,82h-4v12h4V82z"/>
<path d="M44,88v6h-6v-6h-2v4h-6v-4h-3v-1h3v-4h6v4h2v-7h6v7h3v1H44z M43,81h-4v12h4V81z"/>
<g>
	<path d="M69,79h-6v14h6V79z M68,92h-4V80h4V92z"/>
	<rect x="52" y="94" width="20" height="1"/>
	<rect x="55" y="84" width="6" height="9"/>
</g>
<path d="M119,88h-7v-3h4v-6h-4v-2h-1v2h-4v6h4v3h-7v7h7v2h1v-2h7V88z M118,94h-6h-1h-6v-5h6h1h6V94z"/>
<g>
	<path d="M80,88v7h15v-7H80z M94,94H81v-5h13V94z"/>
	<rect x="80" y="79" width="9" height="6"/>
	<rect x="78" y="77" width="1" height="20"/>
</g>
<g>
	<path d="M128,95h15v-7h-15V95z M129,89h13v5h-13V89z"/>
	<rect x="134" y="79" width="9" height="6"/>
	<rect x="144" y="77" width="1" height="20"/>
</g>
<g>
	<path d="M690,55v-2c0-0.1,0-0.3-0.1-0.4c-0.1-0.1-0.1-0.2-0.2-0.3c-0.1-0.1-0.2-0.2-0.3-0.2c-0.1-0.1-0.3-0.1-0.4-0.1h-12v17.4
		l2.3,2.3c0.2,0.2,0.4,0.3,0.7,0.3c0.1,0,0.3,0,0.4-0.1c0.2-0.1,0.3-0.2,0.4-0.4c0.1-0.2,0.2-0.4,0.2-0.6v-1h9c0.1,0,0.3,0,0.4-0.1
		c0.1-0.1,0.2-0.1,0.3-0.2c0.1-0.1,0.2-0.2,0.2-0.3c0.1-0.1,0.1-0.3,0.1-0.4v-3h6V55H690z M680.9,65.2c0,0.1-0.1,0.2-0.2,0.3
		c-0.1,0.1-0.2,0.2-0.2,0.3c-0.1,0.1-0.2,0.2-0.2,0.4c-0.1,0.1-0.1,0.3-0.2,0.5c0,0.2-0.1,1.4-0.1,1.6V71l-2-2V53.7l3,3v8
		C681,64.9,681,65.1,680.9,65.2z M690,69h-9v-0.8c0-0.2,0-1.3,0.1-1.4c0-0.1,0.1-0.2,0.2-0.3c0.1-0.1,0.2-0.2,0.2-0.3
		c0.1-0.1,0.2-0.2,0.2-0.4c0.1-0.1,0.1-0.3,0.2-0.5c0-0.2,0.1-0.4,0.1-0.6v-8c0-0.1,0-0.3-0.1-0.4c0-0.1-0.1-0.2-0.2-0.3l-3-3H689v2
		h-5v11h6V69z M696,65h-5v0h-1v0h-5v-9h4h1h6V65z"/>
	<rect x="686" y="57" width="4" height="3"/>
	<rect x="691" y="57" width="4" height="1"/>
	<rect x="691" y="59" width="4" height="1"/>
	<rect x="686" y="61" width="9" height="1"/>
	<rect x="686" y="63" width="9" height="1"/>
</g>
<path class="st3" d="M290,69v2h4v1h-4h-6h-4v-1h4v-2h-7V57h3.3c0.9-2.9,3.5-5,6.7-5c3.2,0,5.8,2.1,6.7,5h3.3v12H290z M285,71h4v-2
	h-4V71z M287,53c-3.3,0-6,2.7-6,6s2.7,6,6,6c3.3,0,6-2.7,6-6S290.3,53,287,53z M296,58h-2.1c0,0.3,0.1,0.7,0.1,1c0,3.8-3.1,7-7,7
	s-7-3.2-7-7c0-0.3,0.1-0.7,0.1-1H278v10h6h6h6V58z M286,60v-4v-1h0.5h0.5v0.5V59h1.5h1.5v0.5V60h-2H286z"/>
<path d="M312,72c-5.5,0-10-4.5-10-10s4.5-10,10-10s10,4.5,10,10S317.5,72,312,72z M312,53c-5,0-9,4-9,9s4,9,9,9s9-4,9-9
	S317,53,312,53z M311,57l1,0v5h4v1h-5V57z"/>
<path d="M354,64v-4h9v4H354z M368,57v1h3v8h-3v1h4V57H368z M365,66h-12v-8h12v-1h-13v10h13V66z M367,69.1V53.9c1-0.2,1.8-1,1.9-1.9
	h-1c-0.2,0.6-0.8,1-1.4,1s-1.2-0.4-1.4-1h-1c0.2,1,1,1.7,1.9,1.9v15.1c-1,0.2-1.8,1-1.9,1.9h1c0.2-0.6,0.8-1,1.4-1s1.2,0.4,1.4,1h1
	C368.8,70,368,69.3,367,69.1z"/>
<g>
	<polygon points="446,52 427,52 427,61 428,61 428,53 445.3,53 440,58.3 440,56 439,56 439,60 443,60 443,59 440.7,59 446,53.7 
		446,71 438,71 438,72 447,72 447,52 	"/>
	<path d="M427,72h10V62h-10V72z M428,63h8v8h-8V63z"/>
</g>
<g class="st0">
	<path d="M392.6,53.7c0.9,0.6,1.7,1.4,2.3,2.2s1.2,1.8,1.5,2.8s0.5,2.1,0.5,3.2c0,0.9-0.1,1.8-0.4,2.7s-0.6,1.7-1,2.4s-1,1.4-1.6,2
		s-1.3,1.1-2,1.6s-1.5,0.8-2.4,1S387.9,72,387,72s-1.8-0.1-2.7-0.4s-1.7-0.6-2.4-1s-1.4-1-2-1.6s-1.1-1.3-1.6-2s-0.8-1.5-1-2.4
		S377,62.9,377,62c0-0.9,0.1-1.8,0.4-2.7s0.6-1.7,1-2.4s1-1.4,1.6-2.1s1.4-1.2,2.2-1.6h-2.7V52h5v5h-1.3v-2.9
		c-0.8,0.4-1.5,0.8-2.1,1.4s-1.1,1.2-1.6,1.9s-0.8,1.4-1,2.2s-0.4,1.6-0.4,2.5c0,0.8,0.1,1.6,0.3,2.3c0.2,0.7,0.5,1.4,0.9,2.1
		s0.8,1.2,1.4,1.8s1.1,1,1.8,1.4c0.6,0.4,1.3,0.7,2.1,0.9s1.5,0.3,2.3,0.3c0.8,0,1.6-0.1,2.3-0.3s1.4-0.5,2.1-0.9s1.2-0.8,1.8-1.4
		s1-1.1,1.4-1.8s0.7-1.3,0.9-2.1c0.2-0.7,0.3-1.5,0.3-2.3c0-1-0.2-1.9-0.5-2.8s-0.8-1.7-1.3-2.5s-1.2-1.4-2-1.9s-1.6-0.9-2.6-1.2
		l0.3-1.2C390.7,52.7,391.7,53.1,392.6,53.7z"/>
</g>
<path d="M421,59v-3h-1.6l-6.4-3v-1h-1h-1h-1v1l-6.4,3H402v3h1v7h-1v3h3v-0.3l5,2.4v1h1h1h1v-1l5-2.4V69h3v-3h-1v-7H421z M411,53.6
	V53h1v0.6V54h-1V53.6z M405,56.4l5-2.4V55h1h1h1v-0.9l5,2.4V58l-5,2.4V60h-1h-1h-1v0.3l-5-2.4V56.4z M411,62L411,62v-0.7V61h0.4h0.2
	h0.4v0.3v0.6V62H411z M403,57h1v0.5V58h-1V57z M404,67.1V68h-0.4H403v-0.3V67L404,67.1L404,67.1z M410,69v0.9l-5-2.4V66v0h-1v-0.6
	V59h0.9l5.1,2.4v1.1V63h1v6H410z M412,70.4V71h-1v-0.6V70h1V70.4z M418,66v1.5l-5,2.4V69h-1v-6h1v-0.4v-1.1l5.1-2.4h0.9v6.4V66
	L418,66L418,66z M420,67.7V68h-0.6H419v-0.9V67h1V67.7z M419,58v-0.5V57h1v1H419z"/>
<g>
	<rect x="467.5" y="61" width="1" height="4"/>
	<polygon points="453,53 467.5,53 467.5,57 468.5,57 468.5,53 468.5,52 467.5,52 453,52 452,52 452,53 452,60 453,60 	"/>
	<polygon points="467.5,71 462.5,71 462.5,72 467.5,72 468.5,72 468.5,71 468.5,68 467.5,69 	"/>
	<path d="M461,68h-2v-2h1v-1h-1v-2h1h2v-1h-10v10h10v-5l-1-1V68z M455,71h-2v-2h2V71z M455,68h-2v-2h2V68z M455,65h-2v-2h2V65z
		 M458,71h-2v-2h2V71z M458,68h-2v-2h2V68z M458,65h-2v-2h2V65z M461,71h-2v-2h2V71z"/>
	<path d="M470.6,61.1c-0.3-0.6-0.6-1.1-1.1-1.6c-0.5-0.4-1-0.8-1.6-1.1c-0.6-0.3-1.3-0.4-2-0.4h-3.7l1.3-1.3l-0.8-0.8l-2.7,2.6
		l2.7,2.6l0.8-0.8l-1.3-1.3h3.7c0.5,0,1.1,0.1,1.5,0.3c0.5,0.2,0.9,0.5,1.3,0.8c0.4,0.3,0.6,0.8,0.8,1.2s0.3,1,0.3,1.5
		s-0.1,1-0.3,1.5c-0.2,0.5-0.5,0.9-0.8,1.2c-0.4,0.3-0.8,0.6-1.3,0.8c-0.5,0.2-1,0.3-1.5,0.3c-0.5,0-1.1-0.1-1.5-0.3
		c-0.5-0.2-0.9-0.5-1.3-0.8c-0.4-0.3-0.6-0.8-0.8-1.2c-0.1-0.2-0.2-0.4-0.2-0.5h-1.2c0.1,0.3,0.2,0.6,0.3,1c0.3,0.6,0.6,1.1,1.1,1.6
		c0.5,0.4,1,0.8,1.6,1.1s1.3,0.4,2,0.4s1.4-0.1,2-0.4c0.6-0.3,1.2-0.6,1.6-1.1c0.5-0.4,0.8-1,1.1-1.6c0.3-0.6,0.4-1.3,0.4-1.9
		S470.9,61.7,470.6,61.1z"/>
</g>
<path d="M496.9,54.7c-0.1-0.2-0.2-0.3-0.3-0.4c-0.1-0.1-0.2-0.2-0.4-0.3c-0.1,0-0.2-0.1-0.3-0.1l0,0h-10.9c0,0-0.1,0-0.1,0
	c-0.1-0.1-0.2-0.2-0.3-0.3c-0.1-0.1-0.3-0.2-0.4-0.3c-0.2-0.1-0.4-0.2-0.6-0.2s-0.5-0.1-0.8-0.1h-4.7c-0.2,0-0.3,0-0.5,0.1
	c-0.1,0.1-0.3,0.2-0.4,0.3c-0.1,0.1-0.2,0.3-0.3,0.4s-0.1,0.3-0.1,0.5V70h4v1h3v-1h6v1h3v-1h4V55.2C497,55.1,497,54.9,496.9,54.7z
	 M478,54h4.9c0.2,0,0.3,0,0.4,0s0.2,0.1,0.3,0.1c0.1,0,0.2,0.1,0.3,0.2c0.1,0.1,0.2,0.1,0.3,0.2c-0.1,0.1-0.2,0.1-0.3,0.2
	c-0.1,0.1-0.2,0.1-0.3,0.2c-0.1,0-0.2,0.1-0.3,0.1s-0.3,0-0.4,0H478V54z M490,69h-6v-4h6V69z M492,70h-1l0-6l-8,0l0,6h-1v-6.4
	c0-0.2,0.1-0.3,0.2-0.5s0.3-0.2,0.4-0.2h8.8c0.2,0,0.3,0.1,0.4,0.2s0.2,0.3,0.2,0.5V70z M496,69h-3v-5.1c0-0.3,0-0.5-0.1-0.8
	c-0.1-0.2-0.2-0.4-0.4-0.6s-0.4-0.3-0.6-0.4c-0.2-0.1-0.5-0.2-0.7-0.2h-8.3c-0.3,0-0.5,0.1-0.7,0.2c-0.2,0.1-0.4,0.2-0.6,0.4
	s-0.3,0.4-0.4,0.6c-0.1,0.2-0.1,0.5-0.1,0.8V69h-3V56h4.9c0.3,0,0.5,0,0.8-0.1s0.4-0.1,0.6-0.2c0.2-0.1,0.3-0.2,0.4-0.3
	s0.2-0.2,0.3-0.4c0,0,0,0,0,0h10.9l0.1,0V69z"/>
<g class="st0">
	<path d="M512.6,70h4.5v1l-10.6,0l-4.1-4.2c-0.2-0.2-0.3-0.3-0.4-0.6c-0.1-0.2-0.1-0.4-0.1-0.7c0-0.2,0-0.4,0.1-0.7
		c0.1-0.2,0.2-0.4,0.4-0.6L514.1,53l7.9,7.7L512.6,70z M511.2,70l1.5-1.5l-6.4-6.4l-3.2,3.2c-0.1,0.1-0.1,0.2-0.1,0.3
		c0,0.1,0,0.2,0.1,0.3l3.9,4H511.2z M514.1,54.3l-7.1,7.1l6.4,6.3l7.1-7L514.1,54.3z"/>
</g>
<path d="M544,59c-0.2,0-0.4,0-0.6,0.1c-0.7-1.5-1.9-2.7-3.4-3.4c0-0.2,0.1-0.4,0.1-0.6c0-1.7-1.3-3-3-3s-3,1.3-3,3
	c0,0.2,0,0.4,0.1,0.6c-1.5,0.7-2.7,1.9-3.4,3.4c-0.2,0-0.4-0.1-0.6-0.1c-1.7,0-3,1.3-3,3s1.3,3,3,3c0.2,0,0.4,0,0.6-0.1
	c0.7,1.5,1.9,2.7,3.4,3.4c0,0.2-0.1,0.4-0.1,0.7c0,1.7,1.3,3,3,3s3-1.3,3-3c0-0.2,0-0.4-0.1-0.7c1.5-0.7,2.7-1.9,3.4-3.4
	c0.2,0,0.4,0.1,0.6,0.1c1.7,0,3-1.3,3-3S545.7,59,544,59z M535,55c0-1.1,0.9-2,2-2s2,0.9,2,2c0,0.1,0,0.2,0,0.3
	c0,0.3-0.2,0.7-0.4,0.9c-0.4,0.5-0.9,0.8-1.6,0.8s-1.2-0.3-1.6-0.8c-0.2-0.3-0.3-0.6-0.4-0.9C535,55.2,535,55.1,535,55z M530.3,64
	c-0.1,0-0.2,0-0.3,0c-1.1,0-2-0.9-2-2c0-1.1,0.9-2,2-2c0.1,0,0.2,0,0.3,0c0.3,0.1,0.7,0.2,0.9,0.4c0.5,0.4,0.8,0.9,0.8,1.6
	c0,0.6-0.3,1.2-0.8,1.6C531,63.8,530.6,63.9,530.3,64z M539,69c0,1.1-0.9,2-2,2s-2-0.9-2-2c0-0.1,0-0.2,0-0.3
	c0.1-0.3,0.2-0.7,0.4-0.9c0.4-0.5,0.9-0.8,1.6-0.8s1.2,0.3,1.6,0.8c0.2,0.3,0.3,0.6,0.4,0.9C539,68.8,539,68.9,539,69z M539.5,67.4
	c-0.5-0.9-1.5-1.4-2.5-1.4s-2,0.6-2.5,1.4c-1.3-0.6-2.3-1.6-2.9-2.9c0.9-0.5,1.4-1.5,1.4-2.5c0-1.1-0.6-2-1.4-2.5
	c0.6-1.3,1.6-2.3,2.9-2.9c0.5,0.9,1.5,1.4,2.5,1.4s2-0.6,2.5-1.4c1.3,0.6,2.3,1.6,2.9,2.9c-0.9,0.5-1.4,1.5-1.4,2.5
	c0,1.1,0.6,2,1.4,2.5C541.8,65.8,540.8,66.8,539.5,67.4z M544,64c-0.1,0-0.2,0-0.3,0c-0.3-0.1-0.7-0.2-0.9-0.4
	c-0.5-0.4-0.8-0.9-0.8-1.6c0-0.6,0.3-1.2,0.8-1.6c0.3-0.2,0.6-0.3,0.9-0.4c0.1,0,0.2,0,0.3,0c1.1,0,2,0.9,2,2
	C546,63.1,545.1,64,544,64z"/>
<path d="M572,62c0-1.6-1.2-2.9-2.8-3c1-1.2,1-3-0.1-4.1s-2.9-1.2-4.1-0.1c-0.1-1.6-1.4-2.8-3-2.8s-2.9,1.2-3,2.8c-1.2-1-3-1-4.1,0.1
	s-1.2,2.9-0.1,4.1c-1.6,0.1-2.8,1.4-2.8,3s1.2,2.9,2.8,3c-1,1.2-1,3,0.1,4.1s2.9,1.2,4.1,0.1c0.1,1.6,1.4,2.8,3,2.8s2.9-1.2,3-2.8
	c1.2,1,3,1,4.1-0.1s1.2-2.9,0.1-4.1C570.8,64.9,572,63.6,572,62z M565.4,55.9c0.1-0.1,0.1-0.2,0.2-0.2c0.8-0.8,2-0.8,2.8,0
	c0.8,0.8,0.8,2,0,2.8c-0.1,0.1-0.1,0.1-0.2,0.2c0,0,0,0,0,0c-0.3,0.2-0.6,0.3-0.9,0.4c0,0,0,0,0,0c-0.6,0.1-1.2-0.1-1.6-0.6
	c-0.4-0.4-0.6-1.1-0.6-1.6c0,0,0,0,0,0C565,56.5,565.1,56.2,565.4,55.9C565.3,55.9,565.3,55.9,565.4,55.9z M566.8,64
	c-0.7,0-1.4,0.3-1.9,0.9c-0.5,0.5-0.8,1.2-0.9,1.9c-0.5-0.5-1.2-0.8-2-0.8s-1.4,0.3-2,0.8c0-0.7-0.3-1.4-0.9-1.9
	c-0.5-0.5-1.2-0.8-1.9-0.9c0.5-0.5,0.8-1.2,0.8-2c0-0.8-0.3-1.4-0.8-2c0.7,0,1.4-0.3,1.9-0.9c0.5-0.5,0.8-1.2,0.9-1.9
	c0.5,0.5,1.2,0.8,2,0.8c0.8,0,1.4-0.3,2-0.8c0,0.7,0.3,1.4,0.9,1.9c0.5,0.5,1.2,0.8,1.9,0.9c-0.5,0.5-0.8,1.2-0.8,2
	C566,62.8,566.3,63.4,566.8,64z M562,53c1.1,0,2,0.9,2,2c0,0.1,0,0.2,0,0.3c0,0,0,0,0,0c-0.1,0.3-0.2,0.6-0.4,0.9c0,0,0,0,0,0
	c-0.4,0.5-0.9,0.8-1.6,0.8c-0.6,0-1.2-0.3-1.6-0.8c0,0,0,0,0,0c-0.2-0.3-0.3-0.6-0.4-0.9c0,0,0,0,0,0c0-0.1,0-0.2,0-0.3
	C560,53.9,560.9,53,562,53z M555.6,55.6c0.8-0.8,2-0.8,2.8,0c0.1,0.1,0.1,0.1,0.2,0.2c0,0,0,0,0,0c0.2,0.3,0.3,0.6,0.4,0.9
	c0,0,0,0,0,0c0.1,0.6-0.1,1.2-0.6,1.6c-0.4,0.4-1.1,0.6-1.6,0.6c0,0,0,0,0,0c-0.3,0-0.6-0.2-0.9-0.4c0,0,0,0,0,0
	c-0.1-0.1-0.2-0.1-0.2-0.2C554.9,57.7,554.9,56.4,555.6,55.6z M553,62c0-1.1,0.9-2,2-2c0.1,0,0.2,0,0.3,0c0,0,0,0,0,0
	c0.3,0.1,0.6,0.2,0.9,0.4c0,0,0,0,0,0c0.5,0.4,0.8,0.9,0.8,1.6c0,0.6-0.3,1.2-0.8,1.6c0,0,0,0,0,0c-0.3,0.2-0.6,0.3-0.9,0.4
	c0,0,0,0,0,0c-0.1,0-0.2,0-0.3,0C553.9,64,553,63.1,553,62z M558.6,68.1c-0.1,0.1-0.1,0.2-0.2,0.2c-0.8,0.8-2,0.8-2.8,0
	c-0.8-0.8-0.8-2,0-2.8c0.1-0.1,0.1-0.1,0.2-0.2c0,0,0,0,0,0c0.3-0.2,0.6-0.3,0.9-0.4c0,0,0,0,0,0c0.6-0.1,1.2,0.1,1.6,0.6
	c0.4,0.4,0.6,1.1,0.6,1.6c0,0,0,0,0,0C559,67.5,558.9,67.8,558.6,68.1C558.7,68.1,558.7,68.1,558.6,68.1z M562,71c-1.1,0-2-0.9-2-2
	c0-0.1,0-0.2,0-0.3c0,0,0,0,0,0c0.1-0.3,0.2-0.6,0.4-0.9c0,0,0,0,0,0c0.4-0.5,0.9-0.8,1.6-0.8c0.6,0,1.2,0.3,1.6,0.8c0,0,0,0,0,0
	c0.2,0.3,0.3,0.6,0.4,0.9c0,0,0,0,0,0c0,0.1,0,0.2,0,0.3C564,70.1,563.1,71,562,71z M568.4,68.4c-0.8,0.8-2,0.8-2.8,0
	c-0.1-0.1-0.1-0.1-0.2-0.2c0,0,0,0,0,0c-0.2-0.3-0.3-0.6-0.4-0.9c0,0,0,0,0,0c-0.1-0.6,0.1-1.2,0.6-1.6c0.4-0.4,1.1-0.6,1.6-0.6
	c0,0,0,0,0,0c0.3,0,0.6,0.2,0.9,0.4c0,0,0,0,0,0c0.1,0.1,0.2,0.1,0.2,0.2C569.1,66.3,569.1,67.6,568.4,68.4z M569,64
	c-0.1,0-0.2,0-0.3,0c0,0,0,0,0,0c-0.3-0.1-0.6-0.2-0.9-0.4c0,0,0,0,0,0c-0.5-0.4-0.8-0.9-0.8-1.6c0-0.6,0.3-1.2,0.8-1.6c0,0,0,0,0,0
	c0.3-0.2,0.6-0.3,0.9-0.4c0,0,0,0,0,0c0.1,0,0.2,0,0.3,0c1.1,0,2,0.9,2,2C571,63.1,570.1,64,569,64z"/>
<path d="M596.7,58.6c-0.2-0.8-0.5-1.5-0.9-2.1s-0.9-1.3-1.4-1.8s-1.2-1-1.8-1.4c-0.7-0.4-1.4-0.7-2.1-0.9S588.8,52,588,52v9h9
	C597,60.2,596.9,59.4,596.7,58.6z M589,60v-6.9c0.4,0,0.7,0.1,1.1,0.2c0.7,0.2,1.3,0.5,1.9,0.8c0.6,0.3,1.1,0.8,1.6,1.2
	c0.5,0.5,0.9,1,1.2,1.6c0.3,0.6,0.6,1.2,0.8,1.9c0.1,0.4,0.2,0.7,0.2,1.1H589z M587.1,53h-0.6c-0.9,0-1.7,0.1-2.5,0.3
	c-0.8,0.2-1.6,0.5-2.3,1c-0.7,0.4-1.3,0.9-1.9,1.5c-0.6,0.6-1.1,1.2-1.5,1.9s-0.7,1.5-1,2.3c-0.2,0.8-0.3,1.7-0.3,2.5
	s0.1,1.7,0.3,2.5c0.2,0.8,0.5,1.6,1,2.3c0.4,0.7,0.9,1.3,1.5,1.9c0.6,0.6,1.2,1.1,1.9,1.5c0.7,0.4,1.5,0.7,2.3,1
	c0.8,0.2,1.7,0.3,2.5,0.3c1,0,1.9-0.1,2.8-0.4s1.7-0.7,2.5-1.2c0.8-0.5,1.4-1.1,2-1.8c0.6-0.7,1.1-1.5,1.5-2.4
	c0.2-0.4,0.3-0.7,0.4-1.1s0.2-0.7,0.2-1.1s0.1-0.7,0.1-1.1c0-0.4,0-0.7,0-1.1h-8.9V53z M595,62.9C595,62.9,595,62.9,595,62.9
	c0,0.4-0.1,0.7-0.1,1c-0.1,0.3-0.1,0.6-0.2,1c-0.1,0.3-0.2,0.6-0.3,0.9c-0.3,0.8-0.8,1.5-1.3,2.1c-0.5,0.6-1.1,1.2-1.8,1.6
	c-0.7,0.4-1.4,0.8-2.2,1c-0.8,0.2-1.6,0.4-2.5,0.4c-0.8,0-1.5-0.1-2.3-0.3c-0.7-0.2-1.4-0.5-2-0.9c-0.6-0.4-1.2-0.8-1.7-1.3
	c-0.5-0.5-1-1.1-1.3-1.7c-0.4-0.6-0.7-1.3-0.9-2c-0.2-0.7-0.3-1.5-0.3-2.3c0-0.8,0.1-1.5,0.3-2.3c0.2-0.7,0.5-1.4,0.9-2
	c0.4-0.6,0.8-1.2,1.3-1.7c0.5-0.5,1.1-1,1.7-1.3c0.6-0.4,1.3-0.7,2-0.9c0.6-0.2,1.2-0.3,1.9-0.3v7.8v1h1H595z"/>
<g class="st0">
	<path d="M617,53h4v19h-19V53h4v-1h1v1h9v-1h1V53z M606,54h-3v3h17v-3h-3v1h-1v-1h-9v1h-1V54z M603,71l17-0.1V58h-17V71z M605,64v-1
		h1v1H605z M608,64v-1h1v1H608z M611,64v-1h1v1H611z M614,64v-1h1v1H614z M617,64v-1h1v1H617z M605,62v-1h1v1H605z M608,62v-1h1v1
		H608z M611,62v-1h1v1H611z M614,62v-1h1v1H614z M617,62v-1h1v1H617z M605,66v-1h1v1H605z M608,66v-1h1v1H608z M611,66v-1h1v1H611z
		 M614,66v-1h1v1H614z M617,66v-1h1v1H617z M605,68v-1h1v1H605z M608,68v-1h1v1H608z M611,68v-1h1v1H611z M614,68v-1h1v1H614z
		 M617,68v-1h1v1H617z"/>
</g>
<g class="st0">
	<path d="M647,62.6h-17.6l7.7,7.5l-0.9,0.9l-9.2-9l9.2-9l0.9,0.9l-7.7,7.5H647V62.6z"/>
</g>
<g class="st0">
	<path d="M652,62.6h17.6l-7.7,7.5l0.9,0.9l9.2-9l-9.2-9l-0.9,0.9l7.7,7.5H652V62.6z"/>
</g>
<g class="st0">
	<path d="M715.1,52c0.6,0,1.2,0.1,1.8,0.2s1.1,0.4,1.6,0.7s1,0.7,1.4,1.1s0.8,0.9,1.1,1.4s0.5,1.1,0.7,1.6s0.2,1.2,0.2,1.8
		s-0.1,1.2-0.2,1.8s-0.4,1.1-0.7,1.6s-0.7,1-1.1,1.4s-0.9,0.8-1.4,1.1s-1.1,0.5-1.6,0.7s-1.2,0.2-1.8,0.2c-0.8,0-1.6-0.1-2.3-0.4
		s-1.4-0.7-2.1-1.2l-7.7,7.7c-0.1,0.1-0.3,0.2-0.4,0.2s-0.3-0.1-0.4-0.2s-0.2-0.3-0.2-0.4s0.1-0.3,0.2-0.4l7.7-7.7
		c-0.5-0.6-0.9-1.3-1.2-2.1s-0.4-1.5-0.4-2.3c0-0.6,0.1-1.2,0.2-1.8s0.4-1.1,0.7-1.6s0.7-1,1.1-1.4s0.9-0.8,1.4-1.1s1.1-0.5,1.6-0.7
		S714.5,52,715.1,52z M715.1,64.5c0.8,0,1.5-0.1,2.2-0.4s1.3-0.7,1.8-1.2s0.9-1.1,1.2-1.8s0.4-1.4,0.4-2.2s-0.1-1.5-0.4-2.2
		s-0.7-1.3-1.2-1.8s-1.1-0.9-1.8-1.2s-1.4-0.4-2.2-0.4s-1.5,0.1-2.2,0.4s-1.3,0.7-1.8,1.2s-0.9,1.1-1.2,1.8s-0.4,1.4-0.4,2.2
		s0.1,1.5,0.4,2.2s0.7,1.3,1.2,1.8s1.1,0.9,1.8,1.2S714.3,64.5,715.1,64.5z"/>
</g>
<g class="st0">
	<path d="M258.9,77c-0.6,0-1.2,0.1-1.8,0.2s-1.1,0.4-1.6,0.7s-1,0.7-1.4,1.1s-0.8,0.9-1.1,1.4c-0.3,0.5-0.5,1.1-0.7,1.6
		s-0.2,1.2-0.2,1.8s0.1,1.2,0.2,1.8s0.4,1.1,0.7,1.6c0.3,0.5,0.7,1,1.1,1.4s0.9,0.8,1.4,1.1s1.1,0.5,1.6,0.7s1.2,0.2,1.8,0.2
		c0.8,0,1.6-0.1,2.3-0.4s1.4-0.7,2.1-1.2l7.7,7.7c0.1,0.1,0.3,0.2,0.4,0.2s0.3-0.1,0.4-0.2c0.1-0.1,0.2-0.3,0.2-0.4
		s-0.1-0.3-0.2-0.4l-7.7-7.7c0.5-0.6,0.9-1.3,1.2-2.1s0.4-1.5,0.4-2.3c0-0.6-0.1-1.2-0.2-1.8s-0.4-1.1-0.7-1.6
		c-0.3-0.5-0.7-1-1.1-1.4s-0.9-0.8-1.4-1.1s-1.1-0.5-1.6-0.7S259.5,77,258.9,77z M258.9,89.5c-0.8,0-1.5-0.1-2.2-0.4
		c-0.7-0.3-1.3-0.7-1.8-1.2s-0.9-1.1-1.2-1.8s-0.4-1.4-0.4-2.2s0.1-1.5,0.4-2.2s0.7-1.3,1.2-1.8s1.1-0.9,1.8-1.2
		c0.7-0.3,1.4-0.4,2.2-0.4s1.5,0.1,2.2,0.4c0.7,0.3,1.3,0.7,1.8,1.2s0.9,1.1,1.2,1.8s0.4,1.4,0.4,2.2s-0.1,1.5-0.4,2.2
		s-0.7,1.3-1.2,1.8s-1.1,0.9-1.8,1.2C260.4,89.4,259.7,89.5,258.9,89.5z"/>
</g>
<g class="st0">
	<path d="M743.3,60.1L747,62l-3.8,1.9l3.8,1.9L737,71l-10-5.1l3.8-1.9L727,62l3.8-1.9l-3.8-1.9l10-5.1l10,5.1L743.3,60.1z
		 M729.8,58.1l7.2,3.7l7.2-3.7l-7.2-3.7L729.8,58.1z M737,65.7l7.2-3.7l-2.4-1.2l-4.9,2.5l-4.9-2.5l-2.4,1.2L737,65.7z M744.2,65.9
		l-2.4-1.2l-4.9,2.5l-4.9-2.5l-2.4,1.2l7.2,3.7L744.2,65.9z"/>
</g>
<path d="M770.8,54.1c0.2,0.3,0.3,0.6,0.5,0.8c0.1,0.3,0.3,0.5,0.4,0.8c0.1,0.3,0.2,0.6,0.2,0.9c0.1,0.3,0.1,0.6,0.1,1
	c0,0.5-0.1,1-0.2,1.5c-0.1,0.5-0.3,0.9-0.6,1.3s-0.5,0.8-0.9,1.1s-0.7,0.6-1.1,0.9c-0.4,0.2-0.9,0.4-1.3,0.6c-0.5,0.1-1,0.2-1.5,0.2
	c-0.2,0-0.3,0-0.5,0s-0.3,0-0.5-0.1l-7.9,7.9c-0.3,0.3-0.7,0.5-1.1,0.7c-0.4,0.2-0.8,0.2-1.3,0.2c-0.4,0-0.9-0.1-1.3-0.3
	c-0.4-0.2-0.7-0.4-1-0.7c-0.3-0.3-0.5-0.6-0.7-1c-0.2-0.4-0.3-0.8-0.3-1.3c0-0.4,0.1-0.9,0.2-1.3c0.2-0.4,0.4-0.8,0.7-1.1l7.9-7.9
	c0-0.1,0-0.3-0.1-0.5c0-0.2,0-0.3,0-0.5c0-0.5,0.1-1,0.2-1.5c0.1-0.5,0.3-0.9,0.6-1.3s0.5-0.8,0.9-1.1s0.7-0.6,1.1-0.9
	c0.4-0.2,0.9-0.4,1.3-0.6c0.5-0.1,1-0.2,1.5-0.2c0.4,0,0.7,0,1,0.1s0.6,0.1,0.9,0.2c0.3,0.1,0.5,0.2,0.8,0.4
	c0.3,0.1,0.5,0.3,0.8,0.5L766,57l1,1L770.8,54.1z M766.4,62c0.6,0,1.2-0.1,1.7-0.3c0.5-0.2,1-0.5,1.4-0.9c0.4-0.4,0.7-0.9,0.9-1.4
	c0.2-0.5,0.3-1.1,0.3-1.7c0-0.5-0.1-0.9-0.2-1.4l-3.5,3.5l-2.8-2.8l3.5-3.5c-0.4-0.2-0.9-0.2-1.4-0.2c-0.6,0-1.2,0.1-1.7,0.3
	c-0.5,0.2-1,0.5-1.4,0.9c-0.4,0.4-0.7,0.9-0.9,1.4c-0.2,0.5-0.3,1.1-0.3,1.7c0,0.2,0,0.4,0.1,0.7c0,0.2,0.1,0.4,0.1,0.6l-8.3,8.4
	c-0.2,0.2-0.3,0.4-0.4,0.7c-0.1,0.2-0.2,0.5-0.2,0.8c0,0.3,0.1,0.5,0.2,0.8c0.1,0.2,0.3,0.5,0.4,0.6c0.2,0.2,0.4,0.3,0.6,0.4
	c0.2,0.1,0.5,0.2,0.8,0.2c0.3,0,0.5-0.1,0.8-0.2c0.2-0.1,0.5-0.3,0.7-0.4l8.4-8.3c0.2,0.1,0.4,0.1,0.6,0.1
	C765.9,62,766.1,62,766.4,62z"/>
<path d="M796,61c-0.3-4.8-4.1-8.7-9-9c-0.2,0-0.3,0-0.5,0s-0.3,0-0.5,0c-4.8,0.3-8.7,4.1-9,9c0,0.2,0,0.3,0,0.5s0,0.3,0,0.5
	c0.3,4.8,4.1,8.7,9,9c0.2,0,0.3,0,0.5,0s0.3,0,0.5,0c4.8-0.3,8.7-4.1,9-9c0-0.2,0-0.3,0-0.5S796,61.2,796,61z M795,61h-2
	c-0.2-3.2-2.8-5.7-6-6v-2C791.3,53.3,794.7,56.7,795,61z M786,58.1c-1.5,0.2-2.7,1.4-2.9,2.9h-2c0.2-2.6,2.3-4.7,5-5V58.1z
	 M783.1,62c0.2,1.5,1.4,2.7,2.9,2.9v2c-2.6-0.2-4.7-2.3-5-5H783.1z M787,64.9c1.5-0.2,2.7-1.4,2.9-2.9h2c-0.2,2.6-2.3,4.7-5,5V64.9z
	 M789.9,61c-0.2-1.5-1.4-2.7-2.9-2.9v-2c2.6,0.2,4.7,2.3,5,5H789.9z M786,53v2c-3.2,0.2-5.7,2.8-6,6h-2
	C778.3,56.7,781.7,53.3,786,53z M778,62h2c0.2,3.2,2.8,5.7,6,6v2C781.7,69.7,778.3,66.3,778,62z M787,70v-2c3.2-0.2,5.7-2.8,6-6h2
	C794.7,66.3,791.3,69.7,787,70z"/>
<path d="M821,56v-4h-19v4h2h1v1v1h-1v14h3V58h-1v-2h5v2h-1v14h3V58h-1v-2h5v2h-1v14h3V58h-1v-2H821z M806,60h-1v-1h1V60z M812,60h-1
	v-1h1V60z M818,60h-1v-1h1V60z M812,55h-1h-5h-1h-2v-2h17v2h-2h-1H812z"/>
<g class="st0">
	<path d="M830,69l-3-3h6L830,69z M827,54h20v1h-20V54z M827,61v-1h20v1H827z M836,67v-1h11v1H836z"/>
</g>
<g class="st0">
	<path d="M980,89l-3-3h6L980,89z M986,87v-1h11v1H986z"/>
</g>
<path d="M857,53h-3v-1h-2v4h5V53z M860,60h-2v4h5v-3h-3V60z M860,68h-2v4h5v-3h-3V68z M855,65h-1v5h3v-1h-2V65z M855,58h-1v5h3v-1
	h-2V58z M858,54v1h14v-1H858z M864,63h8v-1h-8V63z M864,71h8v-1h-8V71z"/>
<g>
	<path d="M881,66c-0.4,0.1-0.6,0.2-0.6,0.2C880.7,66.1,882.6,65.6,881,66z"/>
	<path d="M880.4,66.2C880.4,66.2,880.4,66.2,880.4,66.2C880.4,66.2,880.4,66.2,880.4,66.2z"/>
	<path d="M893.6,57.8c0.1-0.2,0.1-0.4,0.1-0.6c0-1-0.7-1.8-1.7-1.8c-0.2,0-0.4,0-0.6,0.1c-0.2-0.8-0.8-1.3-1.6-1.3
		c-0.3,0-0.7,0.1-0.9,0.3c-0.5-0.9-1.4-1.5-2.4-1.5c-1,0-1.9,0.6-2.4,1.5c-0.3-0.2-0.6-0.3-0.9-0.3c-0.8,0-1.4,0.6-1.6,1.3
		c-0.2-0.1-0.4-0.1-0.6-0.1c-0.9,0-1.7,0.8-1.7,1.8c0,0.3,0.1,0.6,0.2,0.9c-1.4,0.6-2.5,2.1-2.5,3.9c0,2.1,1.6,4.6,3.3,4.1
		c0.3-0.1,0.5-0.1,0.7-0.2c1.4-0.5,5-1.3,8.2,0.2c0.8,0.4,0,4.8,0,4.8c0.2,0,3.7-4.8,3.9-4.8c2.1,0,3.9-1.9,3.9-4.2
		C897,59.8,895.5,58.1,893.6,57.8z"/>
</g>
<g>
	<path d="M906.6,65.8c0,0-0.2,0-0.6,0.1c-0.4,0.1-0.6,0.2-0.6,0.2C905.6,66.1,906.7,65.8,906.6,65.8L906.6,65.8z"/>
	<path d="M905.4,66.2C905.4,66.2,905.4,66.2,905.4,66.2C905.4,66.2,905.4,66.2,905.4,66.2L905.4,66.2z"/>
	<path d="M911.4,54c0.6,0,1.2,0.4,1.5,1l0.5,1l0.9-0.7c0.2-0.1,0.3-0.1,0.3-0.1c0.3,0,0.5,0.2,0.6,0.6l0.3,1.1l1.1-0.5
		c0.1,0,0.1,0,0.2,0c0.4,0,0.7,0.4,0.7,0.8c0,0.1,0,0.2-0.1,0.3l-0.4,1.2l1.2,0.2c1.5,0.2,2.6,1.5,2.6,3.2c0,1.8-1.3,3.2-2.9,3.2
		c-0.6,0-0.6,0-2.5,2.6c0-1.6-0.3-2.2-0.9-2.5c-1.3-0.7-2.9-1-4.5-1c-1.8,0-3.3,0.4-4.3,0.7l-0.7,0.2c-0.1,0-0.1,0-0.2,0
		c-0.8,0-1.9-1.6-1.9-3.2c0-1.3,0.7-2.5,1.8-3l1-0.4l-0.5-1c-0.1-0.1-0.1-0.3-0.1-0.4c0-0.4,0.3-0.8,0.7-0.8c0.1,0,0.1,0,0.2,0
		l1.1,0.5l0.3-1.1c0.1-0.3,0.3-0.6,0.6-0.6c0,0,0.1,0,0.3,0.1l0.9,0.7l0.5-1C910.2,54.4,910.8,54,911.4,54 M911.4,53
		c-1,0-1.9,0.6-2.4,1.5c-0.3-0.2-0.6-0.3-0.9-0.3c-0.8,0-1.4,0.6-1.6,1.3c-0.2-0.1-0.4-0.1-0.6-0.1c-0.9,0-1.7,0.8-1.7,1.8
		c0,0.3,0.1,0.6,0.2,0.9c-1.4,0.6-2.5,2.1-2.5,3.9c0,1.9,1.4,4.2,2.9,4.2c0.1,0,0.3,0,0.4,0c0.3-0.1,0.5-0.1,0.7-0.2
		c0.8-0.3,2.3-0.7,4.1-0.7c1.3,0,2.7,0.2,4.1,0.9c0.8,0.4,0,4.8,0,4.8l0,0c0,0,0,0,0,0c0.2,0,3.7-4.8,3.9-4.8c2.1,0,3.9-1.9,3.9-4.2
		c0-2.2-1.5-3.9-3.4-4.2c0.1-0.2,0.1-0.4,0.1-0.6c0-1-0.7-1.8-1.7-1.8c-0.2,0-0.4,0-0.6,0.1c-0.2-0.8-0.8-1.3-1.6-1.3
		c-0.3,0-0.7,0.1-0.9,0.3C913.4,53.6,912.5,53,911.4,53L911.4,53z"/>
</g>
<g>
	<rect x="936" y="66" width="1.2" height="1.3"/>
	<path d="M944.4,54.4c-0.5,0-1-0.1-1.5-0.2s-1-0.3-1.4-0.4c-0.5-0.2-1-0.4-1.4-0.7c-0.3-0.2-0.6-0.3-0.8-0.5
		c-0.3-0.1-0.6-0.2-0.8-0.3c-0.3-0.1-0.6-0.2-0.9-0.2c-0.3,0-0.6-0.1-1-0.1c-0.7,0-1.3,0.1-1.9,0.3c-0.6,0.2-1.1,0.4-1.7,0.8
		c-0.5,0.3-0.9,0.5-1.4,0.7c-0.5,0.2-1,0.3-1.4,0.4s-1,0.2-1.5,0.2c-0.5,0-1,0.1-1.6,0.1v5c0,1,0.1,1.9,0.4,2.8
		c0.3,0.9,0.6,1.7,1,2.5c0.4,0.8,1,1.5,1.6,2.2c0.6,0.7,1.3,1.3,2,1.9c0.7,0.6,1.4,1.2,2.2,1.7c0.8,0.5,1.6,1,2.3,1.5
		c0.8-0.5,1.6-0.9,2.3-1.5c0.8-0.5,1.5-1.1,2.2-1.7c0.7-0.6,1.4-1.2,2-1.9c0.6-0.7,1.1-1.4,1.6-2.2c0.4-0.8,0.8-1.6,1-2.5
		c0.3-0.9,0.4-1.8,0.4-2.8v-5C945.5,54.5,944.9,54.5,944.4,54.4z M945,59.5c0,0.9-0.1,1.7-0.3,2.5c-0.2,0.8-0.5,1.6-0.9,2.3
		c-0.4,0.7-0.9,1.4-1.4,2c-0.6,0.6-1.2,1.3-1.9,1.8c-0.7,0.6-1.4,1.1-2.1,1.6c-0.6,0.4-1.2,0.8-1.8,1.1c-0.6-0.4-1.2-0.7-1.8-1.1
		c-0.7-0.5-1.5-1-2.1-1.6c-0.7-0.6-1.3-1.2-1.9-1.8c-0.6-0.6-1-1.3-1.4-2c-0.4-0.7-0.7-1.5-0.9-2.3c-0.2-0.8-0.3-1.6-0.3-2.5v-4
		c0.2,0,0.4,0,0.7,0c0.6,0,1.1-0.1,1.6-0.2c0.5-0.1,1.1-0.3,1.6-0.5c0.5-0.2,1.1-0.5,1.6-0.8c0.5-0.3,1-0.5,1.4-0.7
		c0.5-0.1,1-0.2,1.6-0.2c0.3,0,0.6,0,0.8,0.1c0.2,0,0.5,0.1,0.7,0.2c0.2,0.1,0.5,0.2,0.7,0.3c0.2,0.1,0.5,0.3,0.7,0.4
		c0.5,0.3,1.1,0.6,1.6,0.8c0.5,0.2,1.1,0.4,1.6,0.5c0.5,0.1,1.1,0.2,1.6,0.2c0.2,0,0.4,0,0.7,0V59.5z"/>
	<rect x="936" y="56" width="1.2" height="8.8"/>
</g>
<g>
	<path d="M959,52h-5c-1.1,0-2,0.9-2,2v16c0,1.1,0.9,2,2,2h5c1.1,0,2-0.9,2-2V54C961,52.9,960.1,52,959,52z M960,70c0,0.6-0.4,1-1,1
		h-5c-0.6,0-1-0.4-1-1V54c0-0.6,0.4-1,1-1h5c0.6,0,1,0.4,1,1V70z"/>
	<path d="M969,52h-5c-1.1,0-2,0.9-2,2v16c0,1.1,0.9,2,2,2h5c1.1,0,2-0.9,2-2V54C971,52.9,970.1,52,969,52z M970,70c0,0.6-0.4,1-1,1
		h-5c-0.6,0-1-0.4-1-1V54c0-0.6,0.4-1,1-1h5c0.6,0,1,0.4,1,1V70z"/>
</g>
<g>
	<path d="M993,55h-12c-0.5,0-1,0.5-1,1v12c0,0.5,0.5,1,1,1h12c0.5,0,1-0.5,1-1V56C994,55.5,993.5,55,993,55z M993,68h-12V56h12V68z"
		/>
	<path d="M995,52h-16c-1.1,0-2,0.9-2,2v16c0,1.1,0.9,2,2,2h16c1.1,0,2-0.9,2-2V54C997,52.9,996.1,52,995,52z M996,70
		c0,0.6-0.4,1-1,1h-16c-0.6,0-1-0.4-1-1V54c0-0.6,0.4-1,1-1h16c0.6,0,1,0.4,1,1V70z"/>
</g>
<path d="M170,86h-1v-8c0-0.5-0.4-1-1-1h-12c-0.6,0-1,0.5-1,1v8h-1c-1.1,0-2,0.9-2,2v7c0,1.1,0.9,2,2,2h16c1.1,0,2-0.9,2-2v-7
	C172,86.9,171.1,86,170,86z M156,78h12v8h-12V78z M171,95c0,0.6-0.4,1-1,1h-16c-0.6,0-1-0.4-1-1v-7c0-0.6,0.4-1,1-1h2h12h2
	c0.6,0,1,0.4,1,1V95z M169,92c0-0.6-0.4-1-1-1h-12c-0.6,0-1,0.4-1,1v1c0,0.6,0.4,1,1,1h12c0.6,0,1-0.4,1-1V92z M168,93h-12v-1h12V93
	z M156,89h-1v-1h1V89z M158,89h-1v-1h1V89z M160,89h-1v-1h1V89z M168,88h1v1h-1V88z"/>
<path d="M193,80c-0.4,0-0.7,0.1-1,0.3V80c0,0,0-0.1,0-0.1c0-1.1-0.9-1.9-2-1.9c-0.4,0-0.8,0.1-1.1,0.3c-0.1-0.2-0.1-0.3-0.2-0.5
	c0,0,0-0.1-0.1-0.1c-0.4-0.5-0.9-0.8-1.6-0.8c0,0,0,0,0,0c0,0-0.1,0-0.1,0c-0.1,0-0.2,0-0.4,0.1c-0.7,0.2-1.2,0.6-1.4,1.3
	c-0.3-0.2-0.8-0.3-1.2-0.3c-1.1,0-2,0.9-2,2v6c-0.4-0.6-1.1-1.3-1.8-1.3c-0.4,0-0.8,0.1-1.1,0.3c-0.5,0.3-0.8,0.8-0.9,1.4
	c-0.1,0.6,0,1.3,0.3,1.8c0,0,2.5,3.8,3.5,5.5c1.4,2.2,3.6,3.3,6.6,3.3c4.8,0,6.5-3.4,6.5-6.3V82C195,80.9,194.1,80,193,80z
	 M194,90.7c0,2.5-1.5,5.3-5.5,5.3c-2.7,0-4.5-0.9-5.7-2.8c-0.9-1.4-2.7-4.3-3.3-5.2l-0.2-0.3c-0.2-0.3-0.3-0.7-0.2-1.1
	c0.1-0.3,0.2-0.6,0.5-0.8c0.4-0.3,1-0.3,1.7,0.5l1.7,2.6v-9c0-0.6,0.5-1,1.1-1s1,0.4,1,1v5h1v-4v-1v-1c0-0.6,0.5-1,1-1c0,0,0,0,0,0
	c0.3,0,0.5,0.1,0.7,0.3c0,0,0,0,0,0c0.1,0.1,0.1,0.1,0.1,0.2c0,0,0,0.1,0.1,0.1c0,0.1,0.1,0.2,0.1,0.3v1v5h1l0-5c0-0.6,0.5-1,1-1
	c0.5,0,1,0.4,1,1c0,0,0,0,0,0v2v0.3V86h1v-4c0-0.2,0.1-0.3,0.1-0.4c0.2-0.3,0.5-0.6,0.9-0.6c0.6,0,1,0.4,1,1V90.7z"/>
<path d="M217.6,87.7l3.4-1.5l-9-4.6l-9-4.6l2.5,9.7l2.5,9.7l2.2-3l1.6-2.1l4.5,5.6l3.3-2.6l-4.5-5.6L217.6,87.7z"/>
<path d="M229.5,78.9l7,3.6l7.1,3.6l-1.5,0.7l-2.4,1.1l-1.2,0.5l0.8,1l3.9,4.8l-1.8,1.4l-3.9-4.9l-0.8-1l-0.8,1l-1.6,2.1l-1,1.3
	l-2-7.7L229.5,78.9 M228,77l2.5,9.7l2.5,9.7l2.2-3l1.6-2.1l4.5,5.6l3.3-2.6l-4.5-5.6l2.4-1.1l3.4-1.5l-9-4.6L228,77L228,77z"/>
<g>
	<polygon points="287,82 286,82 286,86 282,86 282,87 286,87 286,91 287,91 287,87 291,87 291,86 287,86 	"/>
	<path d="M286.5,77c-5.2,0-9.5,4.3-9.5,9.5s4.3,9.5,9.5,9.5s9.5-4.3,9.5-9.5S291.7,77,286.5,77z M286.5,95c-4.7,0-8.5-3.8-8.5-8.5
		c0-4.7,3.8-8.5,8.5-8.5c4.7,0,8.5,3.8,8.5,8.5C295,91.2,291.2,95,286.5,95z"/>
</g>
<g>
	<rect x="307" y="86" width="9" height="1"/>
	<path d="M311.5,77c-5.2,0-9.5,4.3-9.5,9.5s4.3,9.5,9.5,9.5s9.5-4.3,9.5-9.5S316.7,77,311.5,77z M311.5,95c-4.7,0-8.5-3.8-8.5-8.5
		c0-4.7,3.8-8.5,8.5-8.5c4.7,0,8.5,3.8,8.5,8.5C320,91.2,316.2,95,311.5,95z"/>
</g>
<g>
	<path d="M340,81h-1v2h-5v-2h-1v2h-2v1h2v5h-2v1h2v2h1v-2h5v2h1v-2h2v-1h-2v-5h2v-1h-2V81z M339,89h-5v-5h5V89z"/>
	<path d="M336.5,77c-5.2,0-9.5,4.3-9.5,9.5s4.3,9.5,9.5,9.5s9.5-4.3,9.5-9.5S341.7,77,336.5,77z M336.5,95c-4.7,0-8.5-3.8-8.5-8.5
		c0-4.7,3.8-8.5,8.5-8.5c4.7,0,8.5,3.8,8.5,8.5C345,91.2,341.2,95,336.5,95z"/>
</g>
<g>
	<g>
		<path d="M356.9,91.6l1.6-0.4c0.1,0.1,0.2,0.2,0.3,0.3l-0.4,1.6l2.1,0.9l0.9-1.4c0,0,0.1,0,0.1,0c0,0,0.1,0,0.1,0c0,0,0.1,0,0.1,0
			c0,0,0.1,0,0.1,0l0.9,1.4l2.1-0.9l-0.4-1.6c0.1-0.1,0.2-0.2,0.3-0.3l1.6,0.4l0.9-2.1l-1.4-0.9c0,0,0-0.1,0-0.1c0,0,0-0.1,0-0.1
			c0,0,0-0.1,0-0.1c0,0,0-0.1,0-0.1l1.4-0.9l-0.9-2.1l-1.6,0.4c-0.1-0.1-0.2-0.2-0.3-0.3l0.4-1.6l-2.1-0.9l-0.9,1.4c0,0-0.1,0-0.1,0
			c0,0-0.1,0-0.1,0c0,0-0.1,0-0.1,0c0,0-0.1,0-0.1,0l-0.9-1.4l-2.1,0.9l0.4,1.6c-0.1,0.1-0.2,0.2-0.3,0.3l-1.6-0.4l-0.9,2.1l1.4,0.9
			c0,0,0,0.1,0,0.1c0,0,0,0.1,0,0.1c0,0,0,0.1,0,0.1c0,0,0,0.1,0,0.1l-1.4,0.9L356.9,91.6z M352,77v20h19V77H352z M370,96h-17V81h17
			V96z M370,80h-17v-2h17V80z"/>
	</g>
</g>
<g>
	<path d="M377,77v2l3.4,3.4L385,87v10h4V87l4.6-4.6L397,79v-2H377z M396,78.6l-3.8,3.8h-5.9h-0.4h-4.1l-3.8-3.8V78h18V78.6z"/>
</g>
<g class="st0">
	<path d="M418.4,83.9c0.4,0.2,0.8,0.5,1.2,0.8s0.7,0.7,0.9,1.1c0.2,0.4,0.4,0.8,0.6,1.3c0.1,0.5,0.2,0.9,0.2,1.4H420
		c0-0.5-0.1-1-0.3-1.5c-0.2-0.5-0.5-0.9-0.8-1.2c-0.3-0.3-0.8-0.6-1.2-0.8c-0.5-0.2-1-0.3-1.5-0.3s-1,0.1-1.5,0.3
		c-0.5,0.2-0.9,0.5-1.2,0.8c-0.3,0.3-0.6,0.7-0.8,1.2c-0.2,0.5-0.3,1-0.3,1.5c0,0.6-0.1,1.2-0.4,1.7c-0.3,0.5-0.7,1-1.2,1.3
		c0.4,0.2,0.8,0.5,1.2,0.8c0.4,0.3,0.7,0.7,0.9,1.1c0.2,0.4,0.4,0.8,0.6,1.3c0.1,0.5,0.2,0.9,0.2,1.4h-1.3c0-0.5-0.1-1-0.3-1.5
		c-0.2-0.5-0.5-0.9-0.8-1.2s-0.8-0.6-1.2-0.8c-0.5-0.2-1-0.3-1.5-0.3s-1,0.1-1.5,0.3c-0.5,0.2-0.9,0.5-1.2,0.8
		c-0.3,0.3-0.6,0.7-0.8,1.2c-0.2,0.5-0.3,1-0.3,1.5h-1.3c0-0.5,0.1-0.9,0.2-1.4c0.1-0.5,0.3-0.9,0.6-1.3c0.2-0.4,0.5-0.7,0.9-1.1
		c0.4-0.3,0.7-0.6,1.2-0.8c-0.5-0.4-0.9-0.8-1.2-1.3c-0.3-0.5-0.4-1.1-0.4-1.7c0-0.5,0.1-1,0.3-1.5c0.2-0.5,0.5-0.9,0.8-1.2
		c0.3-0.3,0.8-0.6,1.2-0.8c0.5-0.2,1-0.3,1.5-0.3c0.6,0,1.2,0.1,1.7,0.4c0.5,0.3,1,0.7,1.4,1.1c0.3-0.5,0.6-0.9,1-1.3
		c0.4-0.4,0.8-0.7,1.3-1c-0.5-0.4-0.9-0.8-1.2-1.3c-0.3-0.5-0.4-1.1-0.4-1.7c0-0.5,0.1-1,0.3-1.5c0.2-0.5,0.5-0.9,0.8-1.2
		c0.3-0.3,0.8-0.6,1.2-0.8c0.5-0.2,1-0.3,1.5-0.3s1,0.1,1.5,0.3c0.5,0.2,0.9,0.5,1.2,0.8c0.3,0.3,0.6,0.7,0.8,1.2
		c0.2,0.5,0.3,1,0.3,1.5c0,0.6-0.1,1.2-0.4,1.7C419.3,83.1,418.9,83.5,418.4,83.9z M408.4,90.9c0.3,0,0.7-0.1,1-0.2s0.6-0.3,0.8-0.5
		c0.2-0.2,0.4-0.5,0.6-0.8c0.1-0.3,0.2-0.6,0.2-1c0-0.3-0.1-0.7-0.2-1c-0.1-0.3-0.3-0.6-0.6-0.8c-0.2-0.2-0.5-0.4-0.8-0.5
		c-0.3-0.1-0.6-0.2-1-0.2c-0.4,0-0.7,0.1-1,0.2c-0.3,0.1-0.6,0.3-0.8,0.5c-0.2,0.2-0.4,0.5-0.6,0.8s-0.2,0.6-0.2,1
		c0,0.3,0.1,0.7,0.2,1s0.3,0.6,0.6,0.8c0.2,0.2,0.5,0.4,0.8,0.5C407.7,90.9,408,90.9,408.4,90.9z M413.5,80.8c0,0.3,0.1,0.7,0.2,1
		c0.1,0.3,0.3,0.6,0.6,0.8c0.2,0.2,0.5,0.4,0.8,0.5c0.3,0.1,0.6,0.2,1,0.2c0.3,0,0.7-0.1,1-0.2s0.6-0.3,0.8-0.5
		c0.2-0.2,0.4-0.5,0.6-0.8s0.2-0.6,0.2-1c0-0.3-0.1-0.7-0.2-1s-0.3-0.6-0.6-0.8c-0.2-0.2-0.5-0.4-0.8-0.5c-0.3-0.1-0.6-0.2-1-0.2
		c-0.4,0-0.7,0.1-1,0.2c-0.3,0.1-0.6,0.3-0.8,0.5c-0.2,0.2-0.4,0.5-0.6,0.8C413.6,80.1,413.5,80.5,413.5,80.8z"/>
</g>
<g>
	<polygon points="428,96 428,77 427,77 427,96 427,97 428,97 447,97 447,96 	"/>
	<path d="M434,85h-5v10h5V85z M433,94h-3v-8h3V94z"/>
	<path d="M446,88h-5v7h5V88z M445,94h-3v-5h3V94z"/>
	<path d="M440,80h-5v15h5V80z M439,94h-3V81h3V94z"/>
</g>
<g class="st0">
	<path d="M471.6,83.9l-0.6,0.6c0,0,0,0.1,0.1,0.3c0.1,0.2,0.1,0.3,0.2,0.6c0.1,0.2,0.2,0.5,0.2,0.7c0.1,0.3,0.2,0.5,0.2,0.7
		s0.2,0.5,0.2,0.7v7.2c0,0.2,0,0.3-0.1,0.5c-0.1,0.1-0.2,0.3-0.3,0.4s-0.2,0.2-0.4,0.3c-0.1,0.1-0.3,0.1-0.5,0.1h-1.3
		c-0.2,0-0.3,0-0.5-0.1c-0.1-0.1-0.3-0.2-0.4-0.3s-0.2-0.2-0.3-0.4c-0.1-0.1-0.1-0.3-0.1-0.5h-12.5c0,0.2,0,0.3-0.1,0.5
		c-0.1,0.1-0.2,0.3-0.3,0.4s-0.2,0.2-0.4,0.3c-0.1,0.1-0.3,0.1-0.5,0.1h-1.3c-0.2,0-0.3,0-0.5-0.1c-0.1-0.1-0.3-0.2-0.4-0.3
		s-0.2-0.2-0.3-0.4c-0.1-0.1-0.1-0.3-0.1-0.5v-7.2c0.1-0.3,0.2-0.5,0.2-0.7s0.1-0.4,0.2-0.7c0.1-0.2,0.2-0.5,0.2-0.7
		c0.1-0.2,0.1-0.4,0.2-0.6c0.1-0.2,0.1-0.3,0.1-0.3l-0.6-0.6H452v-1.2h0.9l0.6,0.6l0.7-3.1c0.1-0.3,0.3-0.6,0.5-0.9
		c0.2-0.3,0.4-0.5,0.7-0.7c0.3-0.2,0.5-0.3,0.9-0.4c0.3-0.1,0.6-0.2,1-0.2h9.7c0.3,0,0.7,0.1,1,0.2c0.3,0.1,0.6,0.2,0.9,0.4
		c0.3,0.2,0.5,0.4,0.7,0.7c0.2,0.3,0.3,0.5,0.5,0.9l0.7,3.1l0.6-0.6h0.9v1.2H471.6z M470.8,93.5v-5.8c-0.1-0.2-0.1-0.4-0.2-0.6
		c-0.1-0.2-0.1-0.4-0.2-0.6c-0.1-0.2-0.1-0.4-0.2-0.6c-0.1-0.2-0.1-0.4-0.2-0.5c0-0.1-0.1-0.2-0.1-0.2h-15.8c0,0,0,0.1-0.1,0.2
		c0,0.1-0.1,0.3-0.2,0.5c-0.1,0.2-0.1,0.4-0.2,0.6c-0.1,0.2-0.1,0.4-0.2,0.6c-0.1,0.2-0.1,0.4-0.2,0.6v5.8h3.8v-1.8l1.5-2.9h7
		l1.5,2.9v1.8H470.8z M455.8,86.4c0.2,0,0.3,0,0.5,0.1c0.1,0.1,0.3,0.2,0.4,0.3c0.1,0.1,0.2,0.2,0.3,0.4c0.1,0.1,0.1,0.3,0.1,0.5
		c0,0.2,0,0.3-0.1,0.5c-0.1,0.1-0.2,0.3-0.3,0.4c-0.1,0.1-0.2,0.2-0.4,0.3c-0.1,0.1-0.3,0.1-0.5,0.1s-0.3,0-0.5-0.1
		c-0.1-0.1-0.3-0.2-0.4-0.3c-0.1-0.1-0.2-0.2-0.3-0.4c-0.1-0.1-0.1-0.3-0.1-0.5c0-0.2,0-0.3,0.1-0.5c0.1-0.1,0.2-0.3,0.3-0.4
		c0.1-0.1,0.2-0.2,0.4-0.3C455.4,86.4,455.6,86.4,455.8,86.4z M457.1,79.2c-0.4,0-0.8,0.1-1.1,0.3c-0.3,0.2-0.5,0.5-0.7,0.9
		l-0.8,3.4h14.9l-0.8-3.4c-0.1-0.4-0.4-0.7-0.7-0.9c-0.3-0.2-0.7-0.3-1.1-0.3H457.1z M465.8,92.1l-1-2h-5.5l-1,2v1.5h7.5V92.1z
		 M468.3,86.4c0.2,0,0.3,0,0.5,0.1c0.1,0.1,0.3,0.2,0.4,0.3c0.1,0.1,0.2,0.2,0.3,0.4c0.1,0.1,0.1,0.3,0.1,0.5c0,0.2,0,0.3-0.1,0.5
		c-0.1,0.1-0.2,0.3-0.3,0.4c-0.1,0.1-0.2,0.2-0.4,0.3c-0.1,0.1-0.3,0.1-0.5,0.1s-0.3,0-0.5-0.1c-0.1-0.1-0.3-0.2-0.4-0.3
		c-0.1-0.1-0.2-0.2-0.3-0.4c-0.1-0.1-0.1-0.3-0.1-0.5c0-0.2,0-0.3,0.1-0.5c0.1-0.1,0.2-0.3,0.3-0.4c0.1-0.1,0.2-0.2,0.4-0.3
		C467.9,86.4,468.1,86.4,468.3,86.4z"/>
</g>
<g>
	<g>
		<path d="M493,79L493,79C493,79,493,79,493,79c-0.4,0-0.8,0.1-1.1,0.3c-0.1-0.3-0.3-0.5-0.5-0.7c-0.1-0.1-0.2-0.2-0.4-0.3
			c0,0,0,0,0,0c-0.1-0.1-0.3-0.1-0.4-0.2c-0.1,0-0.3-0.1-0.4-0.1c-0.2,0-0.4,0-0.7,0c0,0,0,0,0,0c-0.2,0-0.3,0.1-0.5,0.2
			c-0.2,0.1-0.4,0.2-0.5,0.4c-0.1-0.2-0.3-0.3-0.5-0.4c-0.1-0.1-0.3-0.1-0.4-0.2c0,0,0,0-0.1,0c-0.2,0-0.3-0.1-0.5-0.1c0,0,0,0,0,0
			c-0.2,0-0.3,0-0.5,0.1c0,0,0,0-0.1,0c-0.2,0-0.3,0.1-0.4,0.2c-0.2,0.1-0.4,0.2-0.5,0.4c-0.1-0.2-0.3-0.3-0.5-0.4
			c-0.1-0.1-0.3-0.2-0.5-0.2c0,0,0,0,0,0c-0.2,0-0.3-0.1-0.5-0.1c-0.2,0-0.3,0-0.5,0.1c0,0,0,0,0,0c-0.2,0-0.3,0.1-0.5,0.2
			c-0.3,0.2-0.5,0.4-0.7,0.7c0,0,0,0,0,0c-0.1,0.1-0.1,0.3-0.2,0.4c0,0,0,0,0,0.1c0,0.2-0.1,0.3-0.1,0.5v0v2.3
			c-0.9-0.6-2.2-0.2-2.7,0.7c-0.1,0.2-0.2,0.3-0.2,0.5c0,0.1-0.1,0.3-0.1,0.4c0,0,0,0,0,0.1c0,0.1,0,0.3,0,0.4
			c0,0.1,0.1,0.2,0.1,0.2c0,0.1,1.7,5.4,2.7,7c1.4,2.2,3.6,3.3,6.6,3.3c4.8,0,6.5-3.1,6.5-6v-8C495,79.9,494.1,79,493,79z M494,82.7
			V89c0,2.5-1.5,5-5.5,5c-2.7,0-4.5-0.9-5.7-2.8c-1-2.2-1.9-4.4-2.6-6.7c-0.1-0.1-0.1-0.3-0.1-0.4c0-0.6,0.4-1,1-1s1,0.4,1,1v1l1,2
			v-3v-2.3V80v0v0c0-0.4,0.2-1,1-1c0.8,0,1,0.6,1,1v1.7V84h1v-2.3V80v0v0c0,0,0,0,0,0c0-0.5,0.2-1,1-1s1,0.6,1,1v0v0v1.7V84h1v-2.3
			V80v0c0-0.5,0.2-1,1-1c0.8,0,1,0.6,1,1v0v0v1.7V84h1v-1.3V81c0-0.6,0.4-1,1-1s1,0.4,1,1V82.7z"/>
	</g>
</g>
<g>
	<path d="M522,87l-7-7v7h-1V77h-1v10v1v9h1v-9h1v6L522,87z M516,82.4l4.6,4.6l-4.6,4.6V88v-1V82.4z"/>
	<path d="M510,87h-1v-7l-7,7l7,7v-6h1v9h1v-9v-1V77h-1V87z M508,91.6l-4.6-4.6l4.6-4.6V87v1V91.6z"/>
</g>
<g>
	<path d="M547,87h-2v-7l-6,6v-9h-1v20h1v-9l6,6v-6h2V87z M544,91.6l-4.6-4.6l4.6-4.6V87v1V91.6z"/>
	<path d="M535,86l-6-6v7h-2v1h2v6l6-6v9h1V77h-1V86z M530,91.6V88v-1v-4.6l4.6,4.6L530,91.6z"/>
</g>
<g>
	<path d="M557,77v3h-5v14c0,1.7,1.3,3,3,3h14c1.7,0,3-1.3,3-3V77H557z M557,94c0,1.1-0.9,2-2,2s-2-0.9-2-2V81h4V94z M571,94
		c0,1.1-0.9,2-2,2h-11h-0.8c0.5-1,0.8-1.2,0.8-2V78h13V94z"/>
	<polygon points="561.1,92 564.5,89.3 567.9,92 566.6,87.7 570,85 565.8,85 564.5,80.9 563.2,85 559,85 562.4,87.7 	"/>
</g>
<g>
	<g>
		<path d="M597,77h-15v3h-5v14c0,1.7,1.3,3,3,3h14c1.7,0,3-1.3,3-3V77L597,77z M582.2,96c0.5-1,0.8-1.2,0.8-2V78h13v16
			c0,1.1-0.9,2-2,2h-11H582.2L582.2,96z M580,96c-1.1,0-2-0.9-2-2V81h4v13C582,95.1,581.1,96,580,96L580,96z"/>
	</g>
	<g>
		<path d="M589.5,84.2l0.3,1.1l0.2,0.7h0.7h1.3l-1.1,0.9l-0.5,0.4l0.2,0.7l0.4,1.3l-0.9-0.7l-0.6-0.5l-0.6,0.5l-0.9,0.7l0.4-1.3
			l0.2-0.7l-0.5-0.4l-1.1-0.9h1.3h0.7l0.2-0.7L589.5,84.2 M589.5,80.9l-1.3,4.1H584l3.4,2.7l-1.3,4.3l3.4-2.7l3.4,2.6l-1.3-4.3
			L595,85h-4.2L589.5,80.9L589.5,80.9z"/>
	</g>
</g>
<g>
	<path d="M607,77v3h-5v14c0,1.7,1.3,3,3,3h14c1.7,0,3-1.3,3-3V77H607z M607,94c0,1.1-0.9,2-2,2s-2-0.9-2-2V81h4V94z M621,94
		c0,1.1-0.9,2-2,2h-11h-0.8c0.5-1,0.8-1.2,0.8-2V78h13V94z"/>
	<rect x="611" y="84" width="7" height="1"/>
	<rect x="611" y="86" width="7" height="1"/>
	<rect x="611" y="88" width="7" height="1"/>
</g>
<g class="st0">
	<path d="M646,97h-19l3.8-11.3h5.1v-2.6c-0.4-0.1-0.7-0.2-1-0.4s-0.6-0.4-0.8-0.7s-0.4-0.6-0.5-0.9s-0.2-0.7-0.2-1.1
		c0-0.4,0.1-0.8,0.2-1.2c0.2-0.4,0.4-0.7,0.7-1s0.6-0.5,1-0.7c0.4-0.2,0.8-0.2,1.2-0.2s0.8,0.1,1.2,0.2c0.4,0.2,0.7,0.4,1,0.7
		s0.5,0.6,0.7,1c0.2,0.4,0.3,0.8,0.3,1.2c0,0.4-0.1,0.7-0.2,1.1s-0.3,0.6-0.5,0.9s-0.5,0.5-0.8,0.7s-0.6,0.3-1,0.4v2.6h5.1L646,97z
		 M628.8,95.8h15.5l-2.9-8.8h-4.2v4.7c0,0.1,0,0.1-0.1,0.2c0,0-0.1,0.1-0.2,0.1s-0.1,0-0.2,0s-0.1,0-0.2,0s-0.1,0-0.2,0
		s-0.1,0-0.2,0s-0.1-0.1-0.2-0.1c0,0-0.1-0.1-0.1-0.2V87h-4.2L628.8,95.8z M634.6,80.1c0,0.3,0,0.5,0.1,0.7c0.1,0.2,0.2,0.4,0.4,0.6
		s0.4,0.3,0.6,0.4s0.5,0.1,0.7,0.1s0.5,0,0.7-0.1s0.4-0.2,0.6-0.4s0.3-0.4,0.4-0.6c0.1-0.2,0.1-0.5,0.1-0.7s0-0.5-0.1-0.7
		c-0.1-0.2-0.2-0.4-0.4-0.6s-0.4-0.3-0.6-0.4s-0.5-0.1-0.7-0.1s-0.5,0-0.7,0.1s-0.4,0.2-0.6,0.4s-0.3,0.4-0.4,0.6
		C634.6,79.6,634.6,79.9,634.6,80.1z"/>
</g>
<g>
	<path d="M662,77c0.9,0,1.8,0.1,2.7,0.4s1.6,0.6,2.4,1s1.4,1,2,1.6s1.1,1.3,1.6,2s0.8,1.5,1,2.4s0.4,1.7,0.4,2.7s-0.1,1.8-0.4,2.7
		s-0.6,1.6-1,2.4s-1,1.4-1.6,2s-1.3,1.1-2,1.6s-1.5,0.8-2.4,1S662.9,97,662,97s-1.8-0.1-2.7-0.4s-1.6-0.6-2.4-1s-1.4-1-2-1.6
		s-1.1-1.3-1.6-2s-0.8-1.5-1-2.4S652,87.9,652,87s0.1-1.8,0.4-2.7s0.6-1.6,1-2.4s1-1.4,1.6-2s1.3-1.1,2-1.6s1.5-0.8,2.4-1
		S661.1,77,662,77z M662,95.8c0.7,0,1.5-0.1,2.2-0.3s1.4-0.5,2-0.8s1.2-0.8,1.8-1.3s1-1.1,1.4-1.7c-0.1-0.2-0.2-0.4-0.2-0.6
		s-0.1-0.4-0.1-0.6c0-0.2,0-0.4,0-0.6s0-0.3,0.1-0.4s0-0.2,0-0.3s0-0.2,0-0.3s-0.1-0.2-0.2-0.4s-0.2-0.4-0.4-0.6c0,0,0-0.1,0-0.2
		s0-0.2,0-0.2s0-0.2,0-0.2s0-0.1,0-0.2c-0.2,0-0.3-0.1-0.5-0.1s-0.3-0.1-0.5-0.2l0.1,0c-0.1,0-0.2,0-0.3,0.1s-0.2,0.1-0.2,0.1
		S667,87,666.9,87s-0.2,0-0.3,0l-0.2,0l0-0.1c-0.1,0-0.2,0.1-0.3,0.1s-0.2,0.1-0.3,0.1c-0.1,0-0.2,0-0.3-0.1s-0.2-0.1-0.4-0.2
		s-0.2-0.1-0.3-0.2s-0.1-0.2-0.1-0.2l0,0c0,0-0.1-0.1-0.1-0.1s-0.1-0.1-0.2-0.1s-0.1-0.1-0.1-0.1s0-0.1,0-0.1l0.1-0.1l-0.2,0
		l-0.1-0.3c0,0,0,0,0.1,0s0.1,0,0.1,0l-0.4-0.2l0.2-0.6c-0.1-0.3-0.1-0.6-0.1-0.8s0.1-0.3,0.3-0.5s0.3-0.2,0.4-0.4s0.3-0.3,0.5-0.5
		l0-0.1l0.6-0.8l0.1,0c0.2,0,0.4,0,0.6,0s0.5,0,0.7-0.1s0.5-0.1,0.7-0.1s0.4-0.1,0.6-0.1c-0.2-0.2-0.4-0.5-0.7-0.7s-0.5-0.4-0.7-0.6
		c-0.1,0-0.2,0.1-0.3,0.1s-0.2,0.1-0.3,0.2s-0.2,0.1-0.2,0.2s-0.1,0.2-0.1,0.3l0.1,0.2c-0.1,0.2-0.2,0.3-0.4,0.4s-0.3,0.1-0.4,0.1
		s-0.3,0-0.5,0s-0.3,0-0.5,0.1l-0.2-0.3l0.1-0.6l-0.2-0.2l1.7-0.5c-0.1-0.2-0.2-0.3-0.4-0.4s-0.3-0.1-0.5-0.1v-0.1l0.5-0.1
		c-0.6-0.3-1.2-0.5-1.9-0.7s-1.3-0.2-2-0.2c-0.6,0-1.1,0.1-1.7,0.2s-1.1,0.3-1.6,0.5s-1,0.5-1.5,0.8s-0.9,0.7-1.3,1.1
		c0.2,0,0.3,0,0.4,0.1s0.2,0.2,0.3,0.3s0.2,0.2,0.2,0.3s0.2,0.1,0.3,0.1l0.2-0.1l0-0.2l0.3-0.5l-0.3-0.7c0,0,0.1-0.1,0.2-0.1
		s0.1-0.1,0.2-0.1c0.2,0,0.3,0,0.5,0s0.2,0.1,0.3,0.1s0.1,0.1,0.2,0.2s0.2,0.2,0.3,0.4l0.4-0.3c0.1,0,0.2,0.1,0.3,0.1
		s0.3,0.1,0.4,0.2s0.3,0.2,0.4,0.3s0.2,0.2,0.2,0.3c0,0.1,0,0.2-0.1,0.2s-0.2,0.1-0.3,0.1s-0.2,0.1-0.4,0.1s-0.3,0-0.4,0.1
		s-0.2,0.1-0.3,0.1S659,81.9,659,82l0.6,0.2c-0.1,0.1-0.3,0.2-0.4,0.3s-0.3,0.2-0.5,0.2l0,0.2l-0.9,0.4v0.3l-0.1,0l0-0.3l0,0
		c0,0-0.1,0-0.1,0s0,0,0,0.1s0,0.1,0,0.1s0,0,0,0.1l-0.1-0.1l0,0c0,0,0,0,0,0.1s0,0.1,0.1,0.1s0.1,0.1,0.1,0.1c0,0,0,0,0,0.1
		s-0.1,0-0.1,0s-0.1,0-0.1,0s0,0,0,0c0.1,0,0.1,0,0.1,0s-0.1,0-0.2,0.1s-0.2,0.1-0.3,0.2s-0.2,0.2-0.2,0.4c0,0.1,0,0.2,0,0.3
		s0,0.2,0,0.3c-0.1-0.2-0.2-0.4-0.4-0.6s-0.4-0.2-0.7-0.2l-0.4,0l0.2,0.1c-0.1,0-0.2,0-0.3,0s-0.2,0-0.4,0s-0.2,0-0.3,0.1
		s-0.2,0.1-0.3,0.2l-0.1,0.4c0,0.2,0,0.4,0.1,0.5s0.3,0.2,0.5,0.2c0.2,0,0.4,0,0.6-0.1s0.4-0.1,0.6-0.2c-0.1,0.1-0.1,0.3-0.2,0.4
		s-0.1,0.3-0.2,0.4l0.1,0.1c0.2-0.1,0.3-0.1,0.4,0s0.3,0.2,0.4,0.3s0.3,0.3,0.4,0.4s0.3,0.2,0.4,0.3l-0.3,0.2l-0.8-0.4
		c0,0,0,0,0,0.1s0,0.1,0,0l-0.4-0.6c-0.2,0-0.4,0-0.7-0.1s-0.5-0.1-0.7-0.2s-0.5-0.2-0.7-0.3s-0.4-0.2-0.6-0.4l-0.1,1
		c0,0.8,0.1,1.6,0.3,2.3s0.5,1.5,0.9,2.1s0.9,1.3,1.4,1.8s1.2,1,1.9,1.4c0-0.1,0-0.3,0-0.4s0.1-0.3,0.1-0.4s0.1-0.3,0.1-0.4
		s0.1-0.3,0.1-0.4c0-0.2,0-0.4-0.1-0.7s-0.1-0.5-0.2-0.7s-0.2-0.5-0.3-0.7s-0.2-0.4-0.3-0.6s-0.1-0.4-0.2-0.6s0-0.3,0.1-0.5
		l-0.1-0.1c0-0.1,0.1-0.2,0.2-0.3s0.1-0.2,0.2-0.3s0.1-0.2,0.2-0.3s0.1-0.2,0.1-0.3c0-0.1,0-0.1,0-0.2s-0.1-0.1-0.1-0.2l0.2,0
		c0.1-0.3,0.3-0.4,0.5-0.5s0.4-0.1,0.7-0.1c0,0,0.1,0,0.2,0s0.2,0.1,0.3,0.1s0.2,0.1,0.3,0.1s0.2,0.1,0.2,0.1c0,0,0,0.1,0.1,0.1
		s0.1,0,0.1,0.1l0,0.1c0,0,0.1,0,0.1,0.1s0.2,0.1,0.2,0.1s0.2,0.1,0.2,0.2s0.1,0.1,0.1,0.1c0.1,0,0.3,0,0.5,0.1s0.4,0.2,0.7,0.3
		s0.5,0.3,0.7,0.4s0.5,0.3,0.7,0.5s0.4,0.3,0.5,0.5s0.2,0.3,0.2,0.4l-0.3,0.4c0,0.3,0,0.6-0.1,0.8s-0.2,0.3-0.3,0.4
		s-0.3,0.2-0.5,0.3s-0.4,0.2-0.6,0.3c0,0.1,0,0.3-0.1,0.4s-0.1,0.3-0.2,0.4s-0.2,0.2-0.4,0.3s-0.3,0.1-0.4,0.1l-0.4-0.3
		c0,0,0,0,0,0.1s0,0,0,0c0.1,0.1,0.1,0.3,0,0.4s-0.1,0.3-0.2,0.5s-0.2,0.3-0.3,0.5s-0.2,0.3-0.3,0.4c0.4,0.1,0.7,0.2,1.1,0.2
		S661.6,95.8,662,95.8z M656.8,85.6c0.1,0,0.2,0,0.3,0s0.2,0.1,0.3,0.1s0.2,0.1,0.3,0.1S658,86,658,86c-0.1,0-0.1,0-0.2,0
		s-0.1,0-0.2,0c-0.1,0-0.2,0-0.3-0.1s-0.2-0.1-0.3-0.1s-0.2-0.1-0.2-0.1s-0.1-0.1-0.2-0.1s-0.1,0-0.2,0s-0.1,0.1-0.2,0.1
		c0,0,0,0-0.1,0c0,0,0.1-0.1,0.3-0.1S656.8,85.6,656.8,85.6z M658.2,86.1c0.3,0,0.5,0,0.7,0.1c-0.1,0-0.2,0.1-0.3,0.1s-0.2,0-0.3,0
		c-0.1,0-0.2,0-0.4,0c0-0.1,0.1-0.1,0.1-0.1S658.1,86.1,658.2,86.1z M668.8,81.5c0,0.1,0,0.1,0,0.1h0.1c0,0,0,0,0.1,0L668.8,81.5z
		 M669.4,82.4c-0.1-0.1-0.2-0.3-0.3-0.4s-0.2-0.3-0.3-0.4c0,0.1,0,0.1-0.1,0.1s0,0.1,0,0.2c0,0.1,0,0.1,0.1,0.2s0.1,0.1,0.2,0.2
		s0.1,0.1,0.2,0.1S669.4,82.4,669.4,82.4z"/>
</g>
<g>
	<path d="M697,92.4V97h-5v-2.5h-2.5V92H687v-2c-0.5,0.3-1,0.4-1.5,0.6s-1.1,0.2-1.6,0.2c-0.6,0-1.2-0.1-1.8-0.2s-1.1-0.4-1.6-0.7
		s-1-0.7-1.4-1.1s-0.8-0.9-1.1-1.4s-0.5-1.1-0.7-1.6s-0.2-1.2-0.2-1.8s0.1-1.2,0.2-1.8s0.4-1.1,0.7-1.6s0.7-1,1.1-1.4
		s0.9-0.8,1.4-1.1s1.1-0.5,1.6-0.7s1.2-0.2,1.8-0.2s1.2,0.1,1.8,0.2s1.1,0.4,1.6,0.7s1,0.7,1.4,1.1s0.8,0.9,1.1,1.4s0.5,1.1,0.7,1.6
		s0.2,1.2,0.2,1.8c0,0.3,0,0.7-0.1,1s-0.1,0.6-0.2,1L697,92.4z M695.8,92.9l-6.7-6.7c0.1-0.4,0.3-0.7,0.4-1.1s0.1-0.8,0.1-1.2
		c0-0.8-0.1-1.5-0.4-2.2s-0.7-1.3-1.2-1.8s-1.1-0.9-1.8-1.2s-1.4-0.4-2.2-0.4s-1.5,0.1-2.2,0.4s-1.3,0.7-1.8,1.2s-0.9,1.1-1.2,1.8
		s-0.4,1.4-0.4,2.2s0.1,1.5,0.4,2.2s0.7,1.3,1.2,1.8s1.1,0.9,1.8,1.2s1.4,0.4,2.2,0.4c0.6,0,1.3-0.1,1.9-0.3s1.2-0.5,1.6-0.9h0.9
		v2.5h2.5v2.5h2.5v2.5h2.5V92.9z M682,80.8c0.2,0,0.3,0,0.5,0.1s0.3,0.2,0.4,0.3s0.2,0.2,0.3,0.4s0.1,0.3,0.1,0.5s0,0.3-0.1,0.5
		s-0.2,0.3-0.3,0.4s-0.2,0.2-0.4,0.3s-0.3,0.1-0.5,0.1s-0.3,0-0.5-0.1s-0.3-0.2-0.4-0.3s-0.2-0.2-0.3-0.4s-0.1-0.3-0.1-0.5
		s0-0.3,0.1-0.5s0.2-0.3,0.3-0.4s0.2-0.2,0.4-0.3S681.8,80.8,682,80.8z"/>
</g>
<g class="st0">
	<path d="M722,77v5c-0.7,0-1.4,0.1-1.8,0.3s-0.9,0.5-1.1,0.9s-0.5,0.8-0.6,1.3s-0.2,1-0.2,1.6s0,1.1,0,1.7s0,1.1,0,1.7h-2.5v3.8
		l-7.5,3.8v-7.5h-2.5c0-0.5,0-1.1,0-1.7s0-1.1,0-1.7s-0.1-1.1-0.2-1.6s-0.3-0.9-0.6-1.3s-0.7-0.7-1.1-0.9S702.7,82,702,82v-5h1.3
		v3.8h17.5V77H722z M717,88.3c0-0.6,0-1.1,0-1.7s0-1.1,0.1-1.6s0.2-1,0.4-1.5s0.5-1,1-1.4h-12.9c0.4,0.4,0.8,0.9,1,1.4
		s0.4,1,0.4,1.5s0.1,1.1,0.1,1.6s0,1.1,0,1.7H717z M714.5,89.5h-5V95l5-2.5V89.5z"/>
</g>
<g class="st0">
	<path d="M735.8,89.1v-1.3c0.5,0,1-0.1,1.4-0.2s0.9-0.3,1.2-0.6c0.3-0.3,0.6-0.6,0.8-1c0.2-0.4,0.3-0.9,0.3-1.5
		c0-0.4-0.1-0.9-0.2-1.3c-0.2-0.4-0.4-0.7-0.7-1s-0.6-0.5-1-0.7c-0.4-0.2-0.8-0.3-1.2-0.3h-5c-0.4,0-0.8,0.1-1.2,0.3
		c-0.4,0.2-0.7,0.4-1,0.7s-0.5,0.6-0.7,1c-0.2,0.4-0.2,0.8-0.2,1.3c0,0.6,0.1,1.1,0.3,1.5c0.2,0.4,0.5,0.7,0.8,1
		c0.3,0.3,0.7,0.4,1.2,0.6s0.9,0.2,1.4,0.2v1.3h-0.6c-0.6,0-1.2-0.1-1.7-0.4c-0.5-0.2-1-0.6-1.4-1c-0.4-0.4-0.7-0.9-0.9-1.4
		s-0.3-1.1-0.3-1.8c0-0.6,0.1-1.2,0.3-1.8s0.5-1,0.9-1.4c0.4-0.4,0.9-0.7,1.4-1c0.5-0.2,1.1-0.4,1.7-0.4h5c0.6,0,1.2,0.1,1.7,0.4
		c0.5,0.2,1,0.6,1.4,1c0.4,0.4,0.7,0.9,0.9,1.4s0.3,1.1,0.3,1.8c0,0.6-0.1,1.2-0.3,1.8s-0.5,1-0.9,1.4c-0.4,0.4-0.9,0.7-1.4,1
		c-0.5,0.2-1.1,0.4-1.7,0.4H735.8z M742,83.9v1.3c0.5,0,1,0.1,1.4,0.2s0.9,0.3,1.2,0.6c0.3,0.3,0.6,0.6,0.8,1
		c0.2,0.4,0.3,0.9,0.3,1.5c0,0.4-0.1,0.9-0.2,1.3c-0.2,0.4-0.4,0.7-0.7,1s-0.6,0.5-1,0.7c-0.4,0.2-0.8,0.3-1.2,0.3h-5
		c-0.4,0-0.8-0.1-1.2-0.3c-0.4-0.2-0.7-0.4-1-0.7s-0.5-0.6-0.7-1c-0.2-0.4-0.2-0.8-0.2-1.3c0-0.6,0.1-1.1,0.3-1.5
		c0.2-0.4,0.5-0.7,0.8-1c0.3-0.3,0.7-0.4,1.2-0.6s0.9-0.2,1.4-0.2v-1.3h-0.6c-0.6,0-1.2,0.1-1.7,0.4c-0.5,0.2-1,0.6-1.4,1
		c-0.4,0.4-0.7,0.9-0.9,1.4s-0.3,1.1-0.3,1.8c0,0.6,0.1,1.2,0.3,1.8s0.5,1,0.9,1.4c0.4,0.4,0.9,0.7,1.4,1c0.5,0.2,1.1,0.4,1.7,0.4h5
		c0.6,0,1.2-0.1,1.7-0.4c0.5-0.2,1-0.6,1.4-1c0.4-0.4,0.7-0.9,0.9-1.4s0.3-1.1,0.3-1.8c0-0.6-0.1-1.2-0.3-1.8s-0.5-1-0.9-1.4
		c-0.4-0.4-0.9-0.7-1.4-1c-0.5-0.2-1.1-0.4-1.7-0.4H742z"/>
</g>
<g>
	<g>
		<path d="M763,84h-8v1h8V84z M763,87h-8v1h8V87z M763,90h-8v1h8V90z M752,77v3v17h19h1v-1V80v-3H752z M763,78h1v1h-1V78z M761,78h1
			v1h-1V78z M753,78h5v1h-5V78z M765,96h-12V80h12V96z M765,78h1v1h-1V78z M771,96h-5V80h5V96z M771,79h-1v-1h1V79z"/>
	</g>
</g>
<g>
	<g>
		<path d="M793,84h-14v1h14V84z M793,87h-14v1h14V87z M793,90h-14v1h14V90z M776,77v20h21V77H776z M789,78h1v1h-1V78z M787,78h1v1
			h-1V78z M785,78h1v1h-1V78z M777,78h5v1h-5V78z M796,96h-19V80h19V96z M796,79h-1v-1h1V79z"/>
	</g>
</g>
<g>
	<path d="M802,77v20h20V77H802z M815,78h1v1h-1V78z M813,78h1v1h-1V78z M811,78h1v1h-1V78z M803,78h5v1h-5V78z M821,96h-18V80h18V96
		z M821,79h-1v-1h1V79z"/>
	<polygon points="810,86 817,86 817,85 819,85 819,84 817,84 817,83 810,83 810,84 805,84 805,85 810,85 	"/>
	<polygon points="807,92 814,92 814,91 819,91 819,90 814,90 814,89 807,89 807,90 805,90 805,91 807,91 	"/>
</g>
<path d="M846,80.8c-0.5-0.5-1.2-0.8-2-0.8h-2v-1c0-1.1-0.9-2-2-2h-6c-1.1,0-2,0.9-2,2v1h-2c-0.8,0-1.5,0.3-2,0.8
	c-0.6,0.6-1,1.3-1,2.2v11c0,1.7,1.3,3,3,3h14c1.7,0,3-1.3,3-3V83C847,82.1,846.6,81.3,846,80.8z M833,79c0-0.6,0.4-1,1-1h6
	c0.6,0,1,0.4,1,1v1h-8V79z M846,94c0,1.1-0.9,2-2,2h-14c-1.1,0-2-0.9-2-2v-5.8c0.5,0.5,1.2,0.8,2,0.8h0.9c1.2,1,3.5,3,6.1,3
	s4.9-2,6.1-3h0.9c0.8,0,1.5-0.3,2-0.8V94z M831.3,88c1-1,3.2-3,5.7-3c2.5,0,4.7,2,5.7,3c-1,1-3.2,3-5.7,3
	C834.5,91,832.3,89,831.3,88z M843.9,88.1C843.9,88.1,843.9,88.1,843.9,88.1C843.9,88.1,843.9,88.1,843.9,88.1z M846,86
	c0,1.1-0.9,2-2,2c0,0-3.1-4-7-4s-7,4-7,4c-1.1,0-2-0.9-2-2v-3c0-1.1,0.9-2,2-2h14c1.1,0,2,0.9,2,2V86z M830.1,88.1
	C830.1,88.1,830.1,88.1,830.1,88.1C830.1,88.1,830.1,88.1,830.1,88.1z M837,90c-1.1,0-2-0.9-2-2s0.9-2,2-2c1.1,0,2,0.9,2,2
	S838.1,90,837,90z"/>
<path d="M896,80.8c-0.5-0.5-1.2-0.8-2-0.8h-2v-1c0-1.1-0.9-2-2-2h-6c-1.1,0-2,0.9-2,2v1h-2c-0.8,0-1.5,0.3-2,0.8
	c-0.6,0.6-1,1.3-1,2.2v3v8c0,1.7,1.3,3,3,3h14c1.7,0,3-1.3,3-3v-8v-3C897,82.1,896.6,81.3,896,80.8z M883,79c0-0.6,0.4-1,1-1h6
	c0.6,0,1,0.4,1,1v1h-8V79z M878,83c0-1.1,0.9-2,2-2h2h1h8h1h2c1.1,0,2,0.9,2,2v3c0,1.1-0.9,2-2,2h-4c0-1-0.9-2-2-2h-2
	c-1.1,0-2,1-2,2h-4c-1.1,0-2-0.9-2-2V83z M889,89c0,0.6-0.4,1-1,1h-2c-0.6,0-1-0.4-1-1v-1c0-0.6,0.4-1,1-1h2c0.6,0,1,0.4,1,1V89z
	 M896,94c0,1.1-0.9,2-2,2h-14c-1.1,0-2-0.9-2-2v-5.8c0.5,0.5,1.2,0.8,2,0.8h4c0,1,0.9,2,2,2h2c1.1,0,2-1,2-2h4c0.8,0,1.5-0.3,2-0.8
	V94z"/>
<path d="M871,80.8c-0.5-0.5-1.2-0.8-2-0.8h-2v-1c0-1.1-0.9-2-2-2h-6c-1.1,0-2,0.9-2,2v1h-2c-0.8,0-1.5,0.3-2,0.8
	c-0.6,0.6-1,1.3-1,2.2v3v8c0,1.7,1.3,3,3,3h14c1.7,0,3-1.3,3-3v-8v-3C872,82.1,871.6,81.3,871,80.8z M858,79c0-0.6,0.4-1,1-1h6
	c0.6,0,1,0.4,1,1v1h-8V79z M871,94c0,1.1-0.9,2-2,2h-14c-1.1,0-2-0.9-2-2v-5.8c0.5,0.5,1.2,0.8,2,0.8h3.1c0.4,2,2,3,3.9,3
	s3.4-1,3.9-3h3.1c0.8,0,1.5-0.3,2-0.8V94z M865,87v2h-2v2h-2v-2h-2v-2h2v-2h2v2H865z M871,86c0,1.1-0.9,2-2,2h-3c0-2-1.8-4-4-4
	c-2.2,0-4,2-4,4h-3c-1.1,0-2-0.9-2-2v-3c0-1.1,0.9-2,2-2h2h1h8h1h2c1.1,0,2,0.9,2,2V86z"/>
<polygon points="917,84 917,86 913,86 913,82 915,82 912,77 909,82 911,82 911,86 907,86 907,84 902,87 907,90 907,88 911,88 
	911,92 909,92 912,97 915,92 913,92 913,88 917,88 917,90 922,87 "/>
<path d="M943.3,88.7c-1.4,0-2.6,0.8-3.3,2l-5.9-3.1c0.1-0.3,0.2-0.7,0.2-1.1c0-0.2,0-0.4-0.1-0.6l6.1-3.1c0.7,0.9,1.7,1.5,2.9,1.5
	c2,0,3.7-1.6,3.7-3.6c0-2-1.6-3.6-3.7-3.6c-2,0-3.7,1.6-3.7,3.6c0,0.3,0,0.7,0.1,1l-6,3.1c-0.6-1.1-1.8-1.8-3.2-1.8
	c-2,0-3.7,1.6-3.7,3.6c0,2,1.6,3.6,3.7,3.6c1.2,0,2.2-0.5,2.9-1.4l6.2,3.2c0,0.1,0,0.3,0,0.4c0,2,1.6,3.6,3.7,3.6
	c2,0,3.7-1.6,3.7-3.6C947,90.4,945.4,88.7,943.3,88.7z M943.3,78.3c1.3,0,2.3,1,2.3,2.3c0,1.3-1,2.3-2.3,2.3c-1.3,0-2.3-1-2.3-2.3
	C941,79.4,942,78.3,943.3,78.3z M930.7,88.8c-1.3,0-2.3-1-2.3-2.3c0-1.3,1-2.3,2.3-2.3c1.3,0,2.3,1,2.3,2.3
	C933,87.8,932,88.8,930.7,88.8z M943.3,94.7c-1.3,0-2.3-1-2.3-2.3c0-1.3,1-2.3,2.3-2.3c1.3,0,2.3,1,2.3,2.3
	C945.7,93.6,944.6,94.7,943.3,94.7z"/>
<g>
	<path d="M969,89c-1.1,0-2-0.9-2-2s0.9-2,2-2s2,0.9,2,2S970.1,89,969,89z M962,89c-1.1,0-2-0.9-2-2s0.9-2,2-2s2,0.9,2,2
		S963.1,89,962,89z M955,89c-1.1,0-2-0.9-2-2s0.9-2,2-2s2,0.9,2,2S956.1,89,955,89z"/>
</g>
</svg>
