<?xml version="1.0" encoding="utf-8"?>
<!-- Generator: Adobe Illustrator 19.1.1, SVG Export Plug-In . SVG Version: 6.00 Build 0)  -->
<svg version="1.1" id="Слой_1" xmlns="http://www.w3.org/2000/svg" xmlns:xlink="http://www.w3.org/1999/xlink" x="0px" y="0px"
	 viewBox="0 0 20 20" style="enable-background:new 0 0 20 20;" xml:space="preserve">
<style type="text/css">
	.st0{fill:#FFFFFF;}
</style>
<path class="st0" d="M14.1,16.2c-0.7,0-6.6,0-6.6,0s-6,0-6.6,0C0.1,16.2,0,16,0,15.7c0-0.4,0.4-0.5,1-0.8c1.5-1.4,2.2-3.1,2.1-5
	c0-0.1,0-0.1,0-0.3c0-1.9,0.6-3.4,3.1-3.9V5.3c0-0.8,0.5-1.1,1.3-1.1s1.3,0.4,1.3,1.1v0.5c2.5,0.5,3.1,2.1,3.1,3.9
	c0,0.1,0,0.1,0,0.3c-0.1,1.9,0.6,3.8,2.1,5.2c0.6,0.3,1,0.4,1,0.8C15,16.2,15,16.2,14.1,16.2z M7.5,3.3c-0.9,0-1.6-0.8-1.6-1.6
	S6.6,0,7.5,0s1.6,0.8,1.6,1.6C9.1,2.5,8.4,3.3,7.5,3.3z M7.5,17.5h3.4c0,1.3-2.1,2.5-3.4,2.5s-3.2-1.1-3.4-2.5
	C4.1,17.4,7.5,17.5,7.5,17.5z"/>
</svg>
