<?xml version="1.0" encoding="utf-8"?>
<!-- Generator: Adobe Illustrator 19.1.1, SVG Export Plug-In . SVG Version: 6.00 Build 0)  -->
<svg version="1.1" id="Слой_1" xmlns="http://www.w3.org/2000/svg" xmlns:xlink="http://www.w3.org/1999/xlink" x="0px" y="0px"
	 viewBox="-639 1015 512 20" style="enable-background:new -639 1015 512 20;" xml:space="preserve">
<style type="text/css">
	.st0{enable-background:new    ;}
</style>
<path d="M-632,1026v-1h11.1l-2.4-2.4l0.7-0.7l3.6,3.6l-3.6,3.6l-0.7-0.7l2.4-2.4H-632z M-626,1015v8h-1v-7h-11v18h11v-6h1v7h-13v-20
	H-626z"/>
<path id="Rectangle_4_copy" d="M-579.5,1019h-3.5v13.1c0,1.6-1.3,2.9-2.9,2.9h-10.2c-1.6,0-2.9-1.4-2.9-3s1.3-3,2.9-3l0,0v-11.1
	c0.1-1.6,1.5-2.9,3.1-2.9h11.3h0.1l0,0c0.1,0,0.1,0,0.2,0c1.3,0,2.4,1.1,2.4,2.5v1.5H-579.5z M-596.1,1030c-1.1,0-2,0.9-2,2
	s0.9,2,2,2h8.1c-0.5,0-0.9-1.2-0.9-2s0.3-1.5,0.9-2H-596.1z M-583.5,1016h-9.5c-1-0.1-1.9,0.7-2,1.8c0,0.1,0,0.1,0,0.2v11h9.1
	c0.3,0,0.5,0.3,0.4,0.6c0,0.2-0.2,0.4-0.4,0.4c-1.2,0-2.1,0.9-2.1,2.1c0,1.1,0.9,2,2,2s2-0.9,2-2l0,0v-14.6c0-0.1,0-0.2,0-0.3
	c0-0.5,0.3-1,0.8-1.2H-583.5z M-580,1017.5c0-0.8-0.7-1.5-1.5-1.5s-1.5,0.7-1.5,1.5v0.5h3V1017.5z M-586.7,1024.6l-0.7,0.7l-1.6-1.6
	v2.3h-1v-2.3l-1.6,1.6l-0.7-0.7l1.6-1.6h-2.3v-1h2.3l-1.6-1.6l0.7-0.7l1.6,1.6v-2.3h1v2.3l1.6-1.6l0.7,0.7l-1.6,1.6h2.3v1h-2.3
	L-586.7,1024.6z"/>
<path d="M-559.5,1019h-3.5v13.1c0,1.6-1.3,2.9-2.9,2.9h-10.2c-1.6,0-2.9-1.4-2.9-3s1.3-3,2.9-3l0,0v-1h-3v-8l2-2h1v-0.1
	c0.1-1.6,1.5-2.9,3.1-2.9h11.3h0.1l0,0c0.1,0,0.1,0,0.2,0c1.3,0,2.4,1.1,2.4,2.5v1.5H-559.5z M-576.1,1030c-1.1,0-2,0.9-2,2
	s0.9,2,2,2h8.1c-0.5,0-0.9-1.2-0.9-2s0.3-1.5,0.9-2H-576.1z M-576.6,1019l-1.4,1.4v6.6h4.6l1.4-1.4v-6.6H-576.6z M-563.5,1016h-9.5
	c-1-0.1-1.9,0.7-2,1.8c0,0.1,0,0.1,0,0.2l0,0h4v8l-2,2h-2v1h9.1c0.3,0,0.5,0.3,0.4,0.6c0,0.2-0.2,0.4-0.4,0.4
	c-1.2,0-2.1,0.9-2.1,2.1c0,1.1,0.9,2,2,2s2-0.9,2-2v-14.6c0-0.1,0-0.2,0-0.3c0-0.5,0.3-1,0.8-1.2H-563.5z M-560,1017.5
	c0-0.8-0.7-1.5-1.5-1.5s-1.5,0.7-1.5,1.5v0.5h3V1017.5z"/>
<path d="M-499.6,1015c0.2,0,0.3,0.1,0.4,0.2c0.2,0.2,0.2,0.6,0,0.9l0,0l-7.1,7.1c0.3,0.4,0.6,0.9,0.8,1.5c0.2,0.5,0.3,1.1,0.3,1.6
	c0,1.3-0.5,2.6-1.5,3.6l-0.7,0.7l-2.2,4.4l-9.4-9.4l4.4-2.2l0.7-0.7c0.9-0.9,2.2-1.5,3.6-1.5c0.6,0,1.1,0.1,1.6,0.3s1,0.5,1.5,0.8
	l7.1-7.1C-500,1015.1-499.8,1015-499.6,1015z M-508.6,1030.1l-5.5-5.5l-2.8,1.4l6.9,6.9L-508.6,1030.1z M-507.8,1029.1
	c0.4-0.4,0.7-0.8,0.9-1.3c0.2-0.5,0.3-1,0.3-1.5s-0.1-1-0.3-1.5c-0.4-0.9-1.1-1.6-2-2c-0.5-0.2-1-0.3-1.5-0.3s-1.1,0.1-1.5,0.3
	c-0.5,0.2-0.9,0.5-1.3,0.9L-507.8,1029.1z"/>
<path d="M-549,1035c-5.5,0-10-4.5-10-10s4.5-10,10-10s10,4.5,10,10S-543.5,1035-549,1035z M-549,1016c-5,0-9,4-9,9s4,9,9,9s9-4,9-9
	S-544,1016-549,1016z M-549.9,1026.2l-3.5-3.5l0.7-0.7l3.5,3.5l2.8-2.8l0.7,0.7l-3.5,3.5L-549.9,1026.2z"/>
<path d="M-537,1024v-1h18v1H-537z M-537,1019h18v1h-18V1019z M-537,1015h18v1h-18V1015z M-539,1031h1v1h-1V1031z M-539,1027h1v1h-1
	V1027z M-539,1023h1v1h-1V1023z M-539,1019h1v1h-1V1019z M-539,1015h1v1h-1V1015z M-530,1028h-7v-1h7V1028z M-530,1032h-7v-1h7V1032
	z M-526.6,1025.7l3.1,3.1l3.1-3.1l0.7,0.7l-3.1,3.1l3.1,3.1l-0.7,0.7l-3.1-3.1l-3.1,3.1l-0.7-0.7l3.1-3.1l-3.1-3.1L-526.6,1025.7z"
	/>
<path id="Shape_7_copy" d="M-599,1026v-1h-12.1l2.4-2.4l-0.7-0.7l-3.6,3.6l3.6,3.6l0.7-0.7l-2.4-2.4H-599z M-606,1015v8h-1v-7h-11
	v18h11v-6h1v7h-13v-20H-606z"/>
<g>
	<path d="M-491,1018v-3h-8v16h20v-13H-491z M-480,1030h-18v-14h6v3h12V1030z"/>
	<path d="M-485,1025v-1h-1.3c-0.1,0-0.2-0.5-0.3-0.8l0.7-0.7l-0.6-0.6l-0.6,0.7c-0.2-0.2-0.8-0.3-0.8-0.3v-1.3h-1v1.3
		c-0.3,0.1-0.6,0.2-0.8,0.3l-0.7-0.7l-0.6,0.6l0.7,0.6c-0.2,0.2-0.3,0.8-0.3,0.8h-1.2v1h1.2c0.1,0.3,0.2,0.6,0.3,0.8l-0.7,0.7
		l0.6,0.6l0.7-0.7c0.2,0.2,0.5,0.3,0.8,0.3v1.2h1v-1.2c0-0.1,0.5-0.2,0.8-0.3l0.7,0.7l0.6-0.6l-0.7-0.7c0.2-0.2,0.3-0.5,0.3-0.8h1.2
		V1025z"/>
</g>
<path d="M-477,1027v-4h9v4H-477z M-463,1020v1h3v8h-3v1h4v-10H-463z M-466,1029h-12v-8h12v-1h-13v10h13V1029z M-464,1032.1V1017
	c1-0.2,1.8-1,1.9-1.9h-1c-0.2,0.6-0.8,1-1.4,1s-1.2-0.4-1.4-1h-1c0.2,1,1,1.7,1.9,1.9v15.1c-1,0.2-1.8,1-1.9,1.9h1
	c0.2-0.6,0.8-1,1.4-1s1.2,0.4,1.4,1h1C-462.2,1033-463,1032.3-464,1032.1z"/>
<g>
	<path d="M-440,1016v0.6l-7.7,7.7l-0.3,0.3v0.4v8h-2v-8v-0.4l-0.3-0.3l-7.7-7.7v-0.6H-440 M-439,1015h-20v2l8,8v9h4v-9l8-8V1015
		L-439,1015z"/>
</g>
<g class="st0">
	<path d="M-422.4,1016.8c0.9,0.6,1.7,1.4,2.3,2.2c0.6,0.8,1.2,1.8,1.5,2.8c0.4,1,0.5,2.1,0.5,3.2c0,0.9-0.1,1.8-0.4,2.7
		c-0.2,0.9-0.6,1.6-1,2.4c-0.4,0.7-1,1.4-1.6,2c-0.6,0.6-1.3,1.1-2,1.6c-0.7,0.4-1.5,0.8-2.4,1c-0.9,0.2-1.7,0.4-2.7,0.4
		s-1.8-0.1-2.7-0.4c-0.9-0.2-1.7-0.6-2.4-1c-0.7-0.4-1.4-1-2-1.6c-0.6-0.6-1.1-1.3-1.6-2c-0.4-0.7-0.8-1.5-1-2.4
		c-0.2-0.8-0.4-1.7-0.4-2.7c0-0.9,0.1-1.8,0.4-2.7c0.2-0.9,0.6-1.7,1-2.4c0.4-0.8,1-1.6,1.6-2.2s1.4-0.7,2.2-1.7h-3.2v-1h5v5h-1
		v-2.9c-1,0.4-1.3,0.8-1.9,1.4c-0.6,0.5-1.1,1.2-1.5,1.9c-0.4,0.7-0.7,1.4-1,2.2c-0.2,0.8-0.3,1.6-0.3,2.4c0,0.8,0.1,1.6,0.3,2.3
		c0.2,0.7,0.5,1.4,0.9,2.1c0.4,0.6,0.8,1.2,1.4,1.8c0.5,0.5,1.1,1,1.8,1.4c0.6,0.4,1.3,0.7,2.1,0.9c0.7,0.2,1.5,0.3,2.3,0.3
		c0.8,0,1.6-0.1,2.3-0.3c0.7-0.2,1.4-0.5,2.1-0.9c0.6-0.4,1.2-0.8,1.8-1.4s1-1.1,1.4-1.8c0.4-0.6,0.7-1.3,0.9-2.1
		c0.2-0.7,0.3-1.5,0.3-2.3c0-1-0.2-1.9-0.5-2.8c-0.3-0.9-0.8-1.7-1.3-2.5c-0.6-0.7-1.2-1.4-2-1.9c-0.8-0.5-1.6-0.9-2.6-1.2l0.3-1.2
		C-424.3,1015.7-423.3,1016.1-422.4,1016.8z"/>
</g>
<path d="M-413,1016h-3v-1h-2v4h5V1016z M-411,1023h-2v4h5v-3h-3V1023z M-415,1020h-1v5h2l0,0h-1V1020z M-411,1031h-2v4h5v-3h-3V1031
	z M-415,1028h-1v5h2v-1h-1V1028z M-412,1017v1h11v-1H-412z M-407,1027h6v-2h-6V1027z M-407,1034h6v-2h-6V1034z"/>
<g class="st0">
	<path d="M-392.3,1015.3c0.6,0.2,1.1,0.4,1.6,0.7c0.5,0.3,1,0.7,1.4,1.1s0.8,0.9,1.1,1.4s0.5,1.1,0.7,1.6s0.2,1.2,0.2,1.8
		c0,0.8-0.1,1.6-0.4,2.3c-0.3,0.7-0.7,1.4-1.2,2.1l7.7,7.7c0.1,0.1,0.2,0.3,0.2,0.4s-0.1,0.3-0.2,0.4c-0.1,0.1-0.3,0.2-0.4,0.2
		s-0.3-0.1-0.4-0.2l-7.7-7.6c-0.6,0.5-1.3,0.9-2.1,1.2c-0.7,0.3-1.5,0.4-2.3,0.4c-0.6,0-1.2-0.1-1.8-0.2c-0.6-0.2-1.1-0.4-1.6-0.7
		c-0.5-0.3-1-0.7-1.4-1.1c-0.4-0.4-0.8-0.9-1.1-1.4c-0.3-0.5-0.5-1.1-0.7-1.6c-0.2-0.6-0.2-1.2-0.2-1.8s0.1-1.2,0.2-1.8
		s0.4-1.1,0.7-1.6s0.7-1,1.1-1.4s0.9-0.8,1.4-1.1c0.5-0.3,1.1-0.5,1.6-0.7c0.6-0.2,1.2-0.2,1.8-0.2S-392.9,1015.1-392.3,1015.3z
		 M-391.9,1027.1c0.7-0.3,1.3-0.7,1.8-1.2c0.5-0.5,0.9-1.1,1.2-1.8s0.4-1.4,0.4-2.2c0-0.8-0.1-1.5-0.4-2.2c-0.3-0.7-0.7-1.3-1.2-1.8
		s-1.1-0.9-1.8-1.2s-1.4-0.4-2.2-0.4s-1.5,0.1-2.2,0.4s-1.3,0.7-1.8,1.2s-0.9,1.1-1.2,1.8c-0.3,0.7-0.4,1.4-0.4,2.2
		c0,0.8,0.1,1.5,0.4,2.2s0.7,1.3,1.2,1.8c0.5,0.5,1.1,0.9,1.8,1.2s1.4,0.4,2.2,0.4S-392.6,1027.3-391.9,1027.1z"/>
</g>
<path d="M-381,1016v-1h20v1H-381z M-372,1026h-6v-9h6V1026z M-364,1031h-6v-14h6V1031z M-365,1018h-4v12h4V1018z"/>
<path d="M-344,1023v6h-6v-6h-2v4h-6v-4h-3v-1h3v-4h6v4h2v-7h6v7h3v1H-344z M-345,1016h-4v12h4V1016z"/>
<path d="M-341,1031v-1h20v1H-341z M-330,1015h6v14h-6V1015z M-329,1028h4v-12h-4V1028z M-338,1020h6v9h-6V1020z"/>
<g>
	<path d="M-287,1033h-15v-7h15V1033z M-301,1032h13v-5h-13V1032z"/>
	<rect x="-299" y="1017" width="9" height="6"/>
	<rect x="-295" y="1015" width="1" height="12"/>
	<rect x="-295" y="1032" width="1" height="3"/>
</g>
<g>
	<path d="M-303,1033h-15v-7h15V1033z M-317,1032h13v-5h-13V1032z"/>
	<rect x="-318" y="1017" width="9" height="6"/>
	<rect x="-320" y="1015" width="1" height="20"/>
</g>
<g>
	<path d="M-286,1026h15v7h-15V1026z M-272,1027h-13v5h13V1027z"/>
	<rect x="-280" y="1017" width="9" height="6"/>
	<rect x="-270" y="1015" width="1" height="20"/>
</g>
<path d="M-250.5,1024.6c0,0.1,0,0.1,0,0.2s0,0.1,0,0.2s0,0.1,0,0.2c0,0.1,0,0.1,0,0.2l2.5,1.6l-1.6,3.8l-2.9-0.7
	c-0.2,0.2-0.3,0.3-0.5,0.5l0.7,2.9l-3.8,1.6l-1.6-2.5c-0.1,0-0.1,0-0.2,0c-0.1,0-0.1,0-0.2,0c-0.1,0-0.1,0-0.2,0s-0.1,0-0.2,0
	l-1.6,2.5l-3.8-1.6l0.7-2.9c-0.2-0.2-0.3-0.3-0.5-0.5l-2.9,0.7l-1.6-3.8l2.5-1.6c0-0.1,0-0.1,0-0.2c0-0.1,0-0.1,0-0.2s0-0.1,0-0.2
	c0-0.1,0-0.1,0-0.2l-2.5-1.6l1.6-3.8l2.9,0.7c0.2-0.2,0.3-0.3,0.5-0.5l-0.7-2.9l3.8-1.6l1.6,2.5c0.1,0,0.1,0,0.2,0
	c0.1,0,0.1,0,0.2,0c0.1,0,0.1,0,0.2,0c0.1,0,0.1,0,0.2,0l1.6-2.5l3.8,1.6l-0.7,2.9c0.2,0.2,0.3,0.3,0.5,0.5l2.9-0.7l1.6,3.8
	L-250.5,1024.6z M-251.7,1025.9c0-0.2,0-0.3,0-0.5s0-0.3,0-0.5c0-0.2,0-0.3,0-0.5c0-0.2,0-0.3,0-0.5l2.3-1.4l-0.8-2l-2.7,0.6
	c-0.2-0.2-0.4-0.5-0.6-0.7c-0.2-0.2-0.4-0.4-0.7-0.6l0.6-2.7l-2-0.8l-1.5,2.3c-0.2,0-0.3,0-0.5,0s-0.3,0-0.5,0c-0.2,0-0.3,0-0.5,0
	c-0.2,0-0.3,0-0.5,0l-1.4-2.3l-2,0.8l0.6,2.7c-0.2,0.2-0.5,0.4-0.7,0.6s-0.4,0.4-0.6,0.7l-2.7-0.6l-0.8,2l2.3,1.5c0,0.2,0,0.3,0,0.5
	c0,0.2,0,0.3,0,0.5c0,0.2,0,0.3,0,0.5c0,0.2,0,0.3,0,0.5l-2.3,1.4l0.8,2l2.7-0.6c0.2,0.2,0.4,0.5,0.6,0.7c0.2,0.2,0.4,0.4,0.7,0.6
	l-0.6,2.7l2,0.8l1.5-2.3c0.2,0,0.3,0,0.5,0c0.2,0,0.3,0,0.5,0c0.2,0,0.3,0,0.5,0c0.2,0,0.3,0,0.5,0l1.4,2.3l2-0.8l-0.6-2.7
	c0.2-0.2,0.5-0.4,0.7-0.6c0.2-0.2,0.4-0.4,0.6-0.7l2.7,0.6l0.8-2L-251.7,1025.9z M-258,1021.3c0.5,0,1,0.1,1.4,0.3
	c0.4,0.2,0.8,0.5,1.2,0.8c0.3,0.3,0.6,0.7,0.8,1.2c0.2,0.4,0.3,0.9,0.3,1.4s-0.1,1-0.3,1.4c-0.2,0.4-0.5,0.8-0.8,1.2
	c-0.3,0.3-0.7,0.6-1.2,0.8c-0.4,0.2-0.9,0.3-1.4,0.3c-0.5,0-1-0.1-1.4-0.3c-0.4-0.2-0.8-0.5-1.2-0.8c-0.3-0.3-0.6-0.7-0.8-1.2
	c-0.2-0.4-0.3-0.9-0.3-1.4s0.1-1,0.3-1.4c0.2-0.4,0.5-0.8,0.8-1.2c0.3-0.3,0.7-0.6,1.2-0.8C-259,1021.4-258.5,1021.3-258,1021.3z
	 M-258,1027.6c0.4,0,0.7-0.1,1-0.2s0.6-0.3,0.8-0.6c0.2-0.2,0.4-0.5,0.6-0.8c0.1-0.3,0.2-0.7,0.2-1s-0.1-0.7-0.2-1
	c-0.1-0.3-0.3-0.6-0.6-0.8c-0.2-0.2-0.5-0.4-0.8-0.6c-0.3-0.1-0.7-0.2-1-0.2c-0.4,0-0.7,0.1-1,0.2c-0.3,0.1-0.6,0.3-0.8,0.6
	c-0.2,0.2-0.4,0.5-0.6,0.8c-0.1,0.3-0.2,0.7-0.2,1s0.1,0.7,0.2,1c0.1,0.3,0.3,0.6,0.6,0.8c0.2,0.2,0.5,0.4,0.8,0.6
	C-258.7,1027.5-258.4,1027.6-258,1027.6z"/>
<path d="M-228.2,1017.1c0.2,0.3,0.3,0.6,0.5,0.8c0.1,0.3,0.3,0.5,0.4,0.8c0.1,0.3,0.2,0.6,0.2,0.9c0.1,0.3,0.1,0.6,0.1,1
	c0,0.5-0.1,1-0.2,1.5c-0.1,0.5-0.3,0.9-0.6,1.3c-0.2,0.4-0.5,0.8-0.9,1.1c-0.3,0.3-0.7,0.6-1.1,0.9s-0.9,0.4-1.3,0.6
	c-0.5,0.1-1,0.2-1.5,0.2c-0.2,0-0.3,0-0.5,0s-0.3,0-0.5-0.1l-7.9,7.9c-0.3,0.3-0.7,0.5-1.1,0.7c-0.4,0.2-0.8,0.2-1.3,0.2
	c-0.4,0-0.9-0.1-1.3-0.3c-0.4-0.2-0.7-0.4-1-0.7s-0.5-0.6-0.7-1c-0.2-0.4-0.3-0.8-0.3-1.3c0-0.4,0.1-0.9,0.2-1.3
	c0.2-0.4,0.4-0.8,0.7-1.1l7.9-7.9c0-0.1,0-0.3-0.1-0.5c0-0.2,0-0.3,0-0.5c0-0.5,0.1-1,0.2-1.5c0.1-0.5,0.3-0.9,0.6-1.3
	c0.2-0.4,0.5-0.8,0.9-1.1c0.3-0.3,0.7-0.6,1.1-0.9s0.9-0.4,1.3-0.6c0.5-0.1,1-0.2,1.5-0.2c0.4,0,0.7,0,1,0.1
	c0.3,0.1,0.6,0.1,0.9,0.2c0.3,0.1,0.5,0.2,0.8,0.4c0.3,0.1,0.5,0.3,0.8,0.5l-3.8,3.8l1,1L-228.2,1017.1z M-232.6,1025
	c0.6,0,1.2-0.1,1.7-0.3s1-0.5,1.4-0.9c0.4-0.4,0.7-0.9,0.9-1.4c0.2-0.5,0.3-1.1,0.3-1.7c0-0.5-0.1-0.9-0.2-1.4l-3.5,3.5l-2.8-2.8
	l3.5-3.5c-0.4-0.2-0.9-0.2-1.4-0.2c-0.6,0-1.2,0.1-1.7,0.3c-0.5,0.2-1,0.5-1.4,0.9c-0.4,0.4-0.7,0.9-0.9,1.4
	c-0.2,0.5-0.3,1.1-0.3,1.7c0,0.2,0,0.4,0.1,0.7c0,0.2,0.1,0.4,0.1,0.6l-8.3,8.4c-0.2,0.2-0.3,0.4-0.4,0.7c-0.1,0.2-0.2,0.5-0.2,0.8
	s0.1,0.5,0.2,0.8c0.1,0.2,0.3,0.5,0.4,0.6c0.2,0.2,0.4,0.3,0.6,0.4c0.2,0.1,0.5,0.2,0.8,0.2c0.3,0,0.5-0.1,0.8-0.2
	c0.2-0.1,0.5-0.3,0.7-0.4l8.4-8.3c0.2,0.1,0.4,0.1,0.6,0.1C-233.1,1025-232.9,1025-232.6,1025z"/>
</svg>
