<svg id="Слой_1" data-name="Слой 1" xmlns="http://www.w3.org/2000/svg" viewBox="0 0 544 544"><defs><style>.cls-1{fill:#378dda;}.cls-2{isolation:isolate;}</style></defs><title>data-icon-all</title>
<path class="cls-1" d="M0,13,1.8,7.5,0,2,16,7.5ZM2.7,7h8.6L1.6,3.7ZM1.6,11.3,11.3,8H2.7Z"/>
<!-- Ведро viewBox="35 0 18 18"-->
<path class="cls-1" d="M47,2H45V1.1A1.18,1.18,0,0,0,44,0H40a1.18,1.18,0,0,0-1,1.1V2H37a1.18,1.18,0,0,0-1,1.1v2a1.08,1.08,0,0,0,1,1v9a1,1,0,0,0,1,.9h8a1,1,0,0,0,1-.9v-9a1.08,1.08,0,0,0,1-1v-2A1.18,1.18,0,0,0,47,2ZM40,1h4V2H40Zm6,14H38V6h8ZM47,5H37V3H47Z"/>
<path class="cls-1" d="M64.5,4A1.42,1.42,0,0,0,66,2.5,1.36,1.36,0,0,0,64.5,1C63.3,1,63,2,63,3.3L61.4,4.9a3.65,3.65,0,0,0-4.8,0L54.9,3.2c0-.3.1-.5.1-.7a1.5,1.5,0,1,0-3,0A1.54,1.54,0,0,0,53.5,4a1.42,1.42,0,0,0,.6-.2l1.7,1.7A4.38,4.38,0,0,0,55,8a2.93,2.93,0,0,0,.4,1.6l-2.2,1.5c-.2,0-.4-.1-.7-.1A1.5,1.5,0,1,0,54,12.5a1.27,1.27,0,0,0-.1-.6l2-1.4a3.81,3.81,0,0,0,1.4,1.1L56.8,13a1.08,1.08,0,0,0-.8,1,1,1,0,1,0,2,0,.91.91,0,0,0-.3-.7l.5-1.4c.3,0,.5.1.8.1a3.45,3.45,0,0,0,1.8-.5l1.4,1.1a1.14,1.14,0,0,0-.3.8,1.5,1.5,0,1,0,3,0A1.37,1.37,0,0,0,63.5,12a.75.75,0,0,0-.5.1L61.7,11A4.16,4.16,0,0,0,63,8a3.41,3.41,0,0,0-.9-2.4l1.5-1.5A2.77,2.77,0,0,1,64.5,4ZM60.3,9.5l-.3.2a1.69,1.69,0,0,1-1,.3,2,2,0,1,1,2-2A2,2,0,0,1,60.3,9.5Z"/>
<path class="cls-1" d="M83.6,13.8l-1.4-1.4a3.69,3.69,0,0,0-.7-4.1,3.61,3.61,0,1,0-5.1,5.1,3.66,3.66,0,0,0,4.1.7l1.4,1.4a1.27,1.27,0,0,0,1.8,0,1.4,1.4,0,0,0,.3-.9C84,14.2,83.9,14.1,83.6,13.8Zm-3-1.3a2.33,2.33,0,1,1,0-3.3A2.35,2.35,0,0,1,80.6,12.5ZM79.3,2.7l.1.5,1,.9.3.1.3-.6,1.3-.1.2-.1a8.39,8.39,0,0,1,1.3,4.4,7.79,7.79,0,0,1-.9,3.7,4.57,4.57,0,0,0-1.1-3.7,4,4,0,0,0-2.9-1.2,4.55,4.55,0,0,0-2,.5L77.8,6l1.3-.7.8.1L80,5l-1-.6-.4-.5h-.5l-.3-.4-.7-.2L77,4l-.8-.2L76,3.3l.6-.2.2-.9.6.3v.4l.6.2.3.1.4-.2-.4-.4-.7-.7V1.6l.7.1.6.6ZM75.8,7.4l.5.2c-.1.1-.2.1-.2.2a.77.77,0,0,1-.2.3h-.3l-.3.3-.2-.7ZM78.9,15a2.2,2.2,0,0,0,.8-.1,6.19,6.19,0,0,1-1.9.7l.1-.5.3-.2A2,2,0,0,0,78.9,15Zm-2-.5a1,1,0,0,0-.1.4l.1,1c-.3,0-.7.1-1,.1A7.94,7.94,0,0,1,68,8a7.74,7.74,0,0,1,1.1-4l.6-.1-.6.7.4.4h.9L72,4.4l1,1.1V6.8L73.7,9H74V7.9l.4.9.8.2a3.92,3.92,0,0,0-.4,1.8A3.85,3.85,0,0,0,76,13.7,3.24,3.24,0,0,0,76.9,14.5ZM71,2.5l1.4-.2.6-.4.7.2L74.9,2l.4-.6.6.1,1.4-.1.4-.5.6-.4.7.2h.3A7.67,7.67,0,0,0,75.9,0a7.18,7.18,0,0,0-6.1,3h0ZM76.3.7l.8-.4.5.3-.8.6-.7.1L75.8.9ZM73.9.7l.3.2.5-.1.3.4-1.1.3-.5-.3C73.4,1.1,73.9.8,73.9.7Z"/>
<path class="cls-1" d="M93,0a5,5,0,0,0-5,5.1,9.35,9.35,0,0,0,1.1,3.8c.8,1.5,3.7,6.7,3.7,6.7l.2.4.2-.4c0-.1,2.8-5.1,3.7-6.7A9.35,9.35,0,0,0,98,5.1,5,5,0,0,0,93,0Zm3.1,8.4c-.6,1.1-2.2,3.9-3.1,5.5-.9-1.6-2.5-4.5-3-5.5a7.9,7.9,0,0,1-1-3.3,4,4,0,1,1,8,0A9,9,0,0,1,96.1,8.4ZM95,5a2,2,0,1,1-2-2A2,2,0,0,1,95,5Z"/>
<path class="cls-1" d="M256,16V0h14V16ZM269,1H257V5h12Zm0,5H257v4h12Zm0,5H257v4h12Zm-5,3h-2l-1-2h4Zm0-5h-2l-1-2h4Zm0-5h-2l-1-2h4Z"/><rect class="cls-1" x="276" y="1" width="2" height="1"/><polygon class="cls-1" points="274 2 275 2 275 1 273 1 273 3 274 3 274 2"/><rect class="cls-1" x="279" y="1" width="2" height="1"/><polygon class="cls-1" points="284 8 284 7 283 7 283 8 280.7 8 278.7 6 280 6 280 5 277 5 277 8 278 8 278 6.7 280 8.7 280 11 279 11 279 12 280 12 280 15 287 15 287 8 284 8"/><rect class="cls-1" x="283" y="4" width="1" height="2"/><polygon class="cls-1" points="283 3 284 3 284 1 282 1 282 2 283 2 283 3"/><polygon class="cls-1" points="274 10 273 10 273 12 275 12 275 11 274 11 274 10"/><rect class="cls-1" x="273" y="4" width="1" height="2"/><rect class="cls-1" x="276" y="11" width="2" height="1"/><rect class="cls-1" x="273" y="7" width="1" height="2"/>
<path class="cls-1" d="M380,3.4,384.6,8,380,12.6V3m-1-2V15l7-7-7-7Z"/>
<path class="cls-1" d="M446,15V12h-3V1h11V4h3V15Zm7-10V2h-9v9h9Zm3,0h-2v7h-7v2h9ZM446,8h5V9h-5Zm0-2h5V7h-5Zm0-2h5V5h-5Z"/>
<path class="cls-1" d="M473,1H460a1,1,0,0,0-1,1V14.1a1,1,0,0,0,1,1h13a1,1,0,0,0,1-1V2A.94.94,0,0,0,473,1Zm0,13H460V2h13Zm-6-8h-1V7h1Zm0-2h-1V5h1Zm2,5.5-.7-.7L467,10.2V8h-1v2.2l-1.4-1.4-.7.7,2.5,2.5Z"/>
<path class="cls-1" d="M528,8a7,7,0,0,1,7-7V0a8,8,0,0,0,0,16V15A7,7,0,0,1,528,8Z"/>
<path class="cls-1" d="M20.8,11.9l1.5-.3.2.2-.3,1.5,1.9.9.8-1.2h.4l.8,1.2,1.9-.9-.3-1.5.2-.2,1.5.3.7-1.9L29,9.2V8.8l1.1-.7-.9-1.9-1.5.3-.2-.2.3-1.5L26,3.9,25.2,5h-.4L24,3.9l-1.9.9.3,1.5-.2.2-1.5-.3L19.9,8l1.1.9v.4l-1.1.7ZM25,7a2,2,0,1,1-2,2A2,2,0,0,1,25,7Z"/>
<path class="cls-1" d="M17,0V16H33V0ZM32,15H18V3H32ZM32,2H18V1H32Z"/>
<path class="cls-1" d="M116,7V4h-8V2h-6V14h14l2-7ZM103,3h4V5h8V7H104.1L103,10.5Zm12.3,10H103.4l1.4-5h11.9l-.7,2.4Z"/>
<path class="cls-1" d="M348,0V7.3l-2,2V8h-1v3h3V10h-1.3l2-2H356V0Zm7,7h-6V1h6Z"/><polygon class="cls-1" points="355 15 341 15 341 1 347 1 347 0 340 0 340 16 356 16 356 9 355 9 355 15"/>
<path class="cls-1" d="M331,16V8.7l2-2V8h1V5h-3V6h1.3l-2,2H323v8Zm-7-7h6v6h-6Z"/><polygon class="cls-1" points="324 1 338 1 338 15 332 15 332 16 339 16 339 0 323 0 323 7 324 7 324 1"/><polygon class="cls-1" points="365 0 365 7.3 363 9.3 363 8 362 8 362 11 365 11 365 10 363.7 10 365.7 8 373 8 373 0 365 0"/><polygon class="cls-1" points="372 15 358 15 358 1 364 1 364 0 357 0 357 16 373 16 373 9 372 9 372 15"/>
<path class="cls-1" d="M407,4a2.15,2.15,0,0,0-2-2h-3V1a1.08,1.08,0,0,0-1-1h-4a1.08,1.08,0,0,0-1,1V2h-3a2.15,2.15,0,0,0-2,2h0V14a2.15,2.15,0,0,0,2,2h12a2.15,2.15,0,0,0,2-2V4ZM397,1h4V2h-4Zm9,13a1,1,0,0,1-1,1H393a1.17,1.17,0,0,1-1-1.1V8.5a14.8,14.8,0,0,0,5,1.5v1h4V10a14.93,14.93,0,0,0,5-1.4V14Zm-8-4h0V9h2v1h-2Zm8-3c0,.6-2.5,1.5-5,1.9V8h-4v.9c-2.5-.3-5-1.3-5-1.9V4.1A1.09,1.09,0,0,1,393,3h12a1.07,1.07,0,0,1,1,1h0V7Z"/>
<path class="cls-1" d="M161,1l-8,14h16Zm0,2,6.3,11H154.7Zm4,10h-8l4-7.5Z"/>
<path class="cls-1" d="M178,0a8,8,0,1,0,8,8A8,8,0,0,0,178,0Zm0,15a7,7,0,0,1-7-7,7,7,0,0,1,14,0A7,7,0,0,1,178,15Zm1-3a1,1,0,0,1-2,0,1,1,0,0,1,1-1h0A1,1,0,0,1,179,12Zm-2-9h2v7h-2Z"/>
<path class="cls-1" d="M422,2h-3V1a1.08,1.08,0,0,0-1-1h-9a1,1,0,0,0-1,1V4h0V6h0v8a2.15,2.15,0,0,0,2,2h12a2.15,2.15,0,0,0,2-2V4h0A2.15,2.15,0,0,0,422,2Zm-4-1V2h-3V1h3Zm-9,2h2V1h1V3h2V4h-2V6h-1V4h-2Zm14,10v1a1,1,0,0,1-1,1H410a1.17,1.17,0,0,1-1-1.1V8.5a14.8,14.8,0,0,0,5,1.5v1h4V10a14.93,14.93,0,0,0,5-1.4Zm-8-3h0V9h2v1h-2Zm8-4V7c0,.6-2.5,1.5-5,1.9V8h-4v.9a13.61,13.61,0,0,1-4-1.1,5.58,5.58,0,0,1-.8-.5c-.1-.1-.2-.2-.2-.3h5a1.08,1.08,0,0,0,1-1V3h7a1.07,1.07,0,0,1,1,1h0Z"/>
<path class="cls-1" d="M435,15h-4l1-4.5L433,6h-2V5h4l-1,4.5L433,14h2v1ZM433.5,4a1.23,1.23,0,0,1-1-.5,1.59,1.59,0,0,1-.5-1,1.82,1.82,0,0,1,.5-1.1,1.39,1.39,0,0,1,1-.5,1.23,1.23,0,0,1,1,.5,1.43,1.43,0,0,1,.5,1.1,1.1,1.1,0,0,1-.5,1A1.23,1.23,0,0,1,433.5,4Z"/>
<path class="cls-1" d="M515.5,14h4a1.82,1.82,0,0,1-.6,1.4,1.93,1.93,0,0,1-2.8,0A1.82,1.82,0,0,1,515.5,14Zm8.5-1H511l.1-.3.1-.3a9.42,9.42,0,0,0,1.2-4,20.59,20.59,0,0,0,.2-2.6,3.68,3.68,0,0,1,1.3-2.7,5.33,5.33,0,0,1,3-1.2h0V.5c0-.2,0-.3.1-.4s.2-.1.4-.1.5,0,.5.5V1.88a4.52,4.52,0,0,1,3,1.42,3.47,3.47,0,0,1,1.3,2.6,20.59,20.59,0,0,0,.2,2.6,9.42,9.42,0,0,0,1.2,4l.1.3Zm-1.8-1a11.17,11.17,0,0,1-.9-3.7c-.1-1.2-.1-2.3-.1-2.4a2.78,2.78,0,0,0-1-2,3.92,3.92,0,0,0-2.4-.9h-.7a4,4,0,0,0-2.5.9,2.61,2.61,0,0,0-1,2c0,.1,0,1.1-.1,2.4a10.59,10.59,0,0,1-.9,3.7h9.6Z"/>
<path class="cls-1" d="M14,24H7v1H8v8H5V25H6V23h7V20H12v2H1V17H12v2h2v5ZM6,32H7V26H6Z"/>
<path class="cls-1" d="M31,33a1.68,1.68,0,0,1-1.4-.6A2,2,0,0,1,29,31c0-.9,2-4,2-4s2,3,2,4a1.68,1.68,0,0,1-.6,1.4A2,2,0,0,1,31,33Zm-.4-7h-2l-2.5,2.7-2.5,2.7a2.09,2.09,0,0,1-.6.4,1.7,1.7,0,0,1-.7.1c-.3,0-.5-.1-.7-.1a2.09,2.09,0,0,1-.6-.4l-1.7-1.7L17.6,28a1.66,1.66,0,0,1-.5-1.3,2.11,2.11,0,0,1,.5-1.3l1.2-1.3L20,22.8h0v-3a3.22,3.22,0,0,1,.7-2,2.5,2.5,0,0,1,1.8-.8,2.62,2.62,0,0,1,1.7.5,2.62,2.62,0,0,1,.8,2.3h0l3,2.8,3,2.8c.1.1.1.1.1.2S30.8,26,30.6,26Zm-8.1-8a1.23,1.23,0,0,0-1,.5,2.54,2.54,0,0,0-.5,1.3v2l3-2.9q-.15-.75-.6-.9ZM25,21.2v3.4a.52.52,0,0,1-.2.4c-.1.1-.2,0-.3,0s-.3,0-.3-.1a.4.4,0,0,1-.2-.4V20.3l-2.9,2.9-2.9,2.9c-.2.1-.2.4-.2.6a1.42,1.42,0,0,0,.2.6L19.9,29l1.7,1.7c.1.1.2.1.3.2h.3a.37.37,0,0,0,.3-.1c.1,0,.2-.1.3-.1L25.3,28l2.5-2.7a.52.52,0,0,1,.4-.2.6.6,0,0,1,.4-.1h.6l-2-1.9Z"/>
<path class="cls-1" d="M195,0a8,8,0,1,0,8,8A8,8,0,0,0,195,0Zm0,13a.94.94,0,0,1-1-1,1,1,0,0,1,1-1h0a1,1,0,0,1,1,1A.94.94,0,0,1,195,13Zm1-3h-2V3h2Z"/>
<path class="cls-1" d="M44,28H34V22H44v1H35v4h9Zm-8-2V24h6v2Zm10,3.2c1,.5,1.3.8,2,.8h0v1h0a4,4,0,0,1-2.5-.9,3.38,3.38,0,0,1-1.2.6,5.85,5.85,0,0,1-1.3.2h0v-1h0c.8,0,1-.3,2-.7V20.7c0-.2-.6-.4-.9-.5A3.59,3.59,0,0,0,43,20h0V19h0a5.07,5.07,0,0,1,1.3.2,3.38,3.38,0,0,1,1.2.6A3.59,3.59,0,0,1,48,19h0v1h0c-.8,0-1,.2-2,.7ZM50,22v6H47V27h2V23H47V22Z"/>
<!-- Флажок viewBox="52 17 16 16" -->
<path class="cls-1" d="M59,19h6v8H58V25H53v8H52V17h7Zm-6,5h5V18H53Zm11,2V20H59v6Z"/>
<path class="cls-1" d="M80,30l-4,3-4-3H68V17H84V30Zm3-12H69V29h3.4l.3.2,3.4,2.5,3.4-2.5.3-.2h3.3L83,18ZM72,25h8v1H72Zm0-2h8v1H72Zm0-2h8v1H72Z"/>
<path class="cls-1" d="M107.1,28.5l-3.8-3.8L102,26l5.1,5L118,20.3,116.7,19Z"/>
<path class="cls-1" d="M151,31v1H137V31Zm-11-1h-1l4.4-13h1.1L149,30h-1l-1.2-3h-5.6Zm1.4-4h5.1L144,18.5Z"/>
<path class="cls-1" d="M161,17l5,15h-1l-1.3-4h-6.3L156,32h-1l5-15Zm-3.3,10h5.7l-2.8-8.7Z"/>
<path class="cls-1" d="M125,4V2h-6V14h14V4Zm7,9H120V8h12ZM120,7V3h4V5h8V7Z"/>
<path class="cls-1" d="M142,4V2h-6V14h14V4Zm7,9H137V3h4V5h8Z"/>
<path class="cls-1" d="M185.9,17.5a.79.79,0,0,0-.8-.5H170.7a.75.75,0,0,0-.7.5.76.76,0,0,0,.2.9l5.8,6.1V33h4V24.5l5.7-6.1A.65.65,0,0,0,185.9,17.5ZM179,24v8h-2V24l-5.7-6h13.6Zm-5.1-5H182l-4,4Z"/>
<path class="cls-1" d="M202.9,17.5a.79.79,0,0,0-.8-.5H187.7a.75.75,0,0,0-.7.5.76.76,0,0,0,.2.9l5.8,6.1V33h4V24.5l5.7-6.1A.65.65,0,0,0,202.9,17.5ZM196,24v8h-2V24l-5.7-6h13.6Z"/>
<path class="cls-1" d="M230.6,30l2.3,2.3-.6.6-3.4-3.4,3.4-3.4.6.6L230.6,29H237v1Zm2.3-6.7-.6.6-3.4-3.4,3.4-3.4.6.6L230.6,20H237v1h-6.4ZM221,26h7v7h-7Zm1,6h5V27h-5Zm-1-15h7v7h-7Zm1,6h5V18h-5Zm1-4h3v3h-3Z"/>
<path class="cls-1" d="M246.7,25l6.3,6.3-.7.7L246,25.7,239.7,32l-.7-.7,6.3-6.3L239,18.7l.7-.7,6.3,6.3,6.3-6.3.7.7Z"/>
<path class="cls-1" d="M263.7,25l4.3,4.3-.7.7L263,25.7,258.7,30l-.7-.7,4.3-4.3L258,20.7l.7-.7,4.3,4.3,4.3-4.3.7.7Z"/>
<path class="cls-1" d="M280.7,25l2.3,2.3-.7.7L280,25.7,277.7,28l-.7-.7,2.3-2.3L277,22.7l.7-.7,2.3,2.3,2.3-2.3.7.7Z"/>
<!-- Карандаш viewBox="290 17 16 16" -->
<path class="cls-1" d="M301.2,19.4l1.4,1.4L292.4,31H291V29.6l10.2-10.2m0-1.4L290,29.2V32h2.8L304,20.8,301.2,18Z"/>
<!-- Стрелка вниз (загрузка) viewBox="323 17 16 16" -->
<path class="cls-1" d="M338,25.9v5a1,1,0,0,1-1,1H324a1,1,0,0,1-1-1v-5h1v5h13v-5Zm-3-.5-.7-.7L331,28.1V17.9h-1V28.1l-3.4-3.4-.6.7,4.5,4.5Z"/>
<!-- Кусочек А viewBox="442 17 16 16" -->
<path class="cls-1" d="M445.7,24,443,32h1l.7-2h3.1l.7,2h1.1l-2.7-8Zm-.6,5,1.2-3.5,1.2,3.5Z"/>
<path class="cls-1" d="M455.3,21.61l-.9-.6H449v1h4.5L452,23h-4v1h3.9l.1,2h-2a9.32,9.32,0,0,0,1,1h2V24h4V23h-3.6C454.1,22.51,455.3,21.61,455.3,21.61Z"/><polygon class="cls-1" points="453 19.01 453 18.01 452 18.01 452 19.01 448 19.01 448 21.01 449 21.01 449 20.01 456 20.01 456 21.01 457 21.01 457 19.01 453 19.01"/>
<path class="cls-1" d="M235.3,2c-1.1-1.2-3.5-2-6.3-2s-5.2.8-6.3,2a2.57,2.57,0,0,0-.7,1.5v9a.9.9,0,0,0,.1.5c.5,1.7,3.4,3,6.9,3s6.4-1.3,6.9-3c0-.2.1-.3.1-.5v-9A2.08,2.08,0,0,0,235.3,2ZM235,12.5c0-1-2.3-2.5-6-2.5s-6,1.5-6,2.5V5.3A9.75,9.75,0,0,0,229,7a9.75,9.75,0,0,0,6-1.7ZM229,6c-3.7,0-6-1.5-6-2.5S225.3,1,229,1s6,1.5,6,2.5S232.7,6,229,6Z"/>
<path class="cls-1" d="M218.3,2c-1.1-1.2-3.5-2-6.3-2s-5.2.8-6.3,2a2.57,2.57,0,0,0-.7,1.5v9a.9.9,0,0,0,.1.5c.5,1.7,3.4,3,6.9,3s6.4-1.3,6.9-3c0-.2.1-.3.1-.5v-9A2.08,2.08,0,0,0,218.3,2ZM212,1c3.7,0,6,1.5,6,2.5S215.7,6,212,6s-6-1.5-6-2.5S208.3,1,212,1Zm6,11.5c0,1-2.3,2.5-6,2.5s-6-1.5-6-2.5V5.3A9.75,9.75,0,0,0,212,7a9.75,9.75,0,0,0,6-1.7Z"/>
<path class="cls-1" d="M252.3,2c-1.1-1.2-3.5-2-6.3-2s-5.2.8-6.3,2a2.57,2.57,0,0,0-.7,1.5v9a.9.9,0,0,0,.1.5c.5,1.7,3.4,3,6.9,3s6.4-1.3,6.9-3c0-.2.1-.3.1-.5v-9A2.08,2.08,0,0,0,252.3,2ZM246,1c3.7,0,6,1.5,6,2.5S249.7,6,246,6s-6-1.5-6-2.5S242.3,1,246,1Zm0,14c-3.7,0-6-1.5-6-2.5V11.3a11.44,11.44,0,0,0,12,0v1.2C252,13.5,249.7,15,246,15Zm6-5.5c0,1-2.3,2.5-6,2.5s-6-1.5-6-2.5V8.3a11.44,11.44,0,0,0,12,0V9.5Zm0-3c0,1-2.3,2.5-6,2.5s-6-1.5-6-2.5V5.3A9.75,9.75,0,0,0,246,7a9.75,9.75,0,0,0,6-1.7V6.5Z"/>
<!-- Круглые часы  viewBox="289 0 16 16"-->
<path class="cls-1" d="M297,0a8,8,0,1,0,8,8A8,8,0,0,0,297,0Zm0,15a7,7,0,0,1-7-7,7,7,0,1,1,14,0A7,7,0,0,1,297,15Z"/><polygon class="cls-1" points="297 8 297 5.5 297 3 296.5 3 296 3 296 6 296 9 298 9 300 9 300 8.5 300 8 298.5 8 297 8"/>
<path class="cls-1" d="M321,31a1,1,0,0,1-1,1H308a.94.94,0,0,1-1-1V19c0-.7.2-1,1-1h10l1-1H308a1.75,1.75,0,0,0-2,2V31a1.75,1.75,0,0,0,2,2h12c1.4,0,2-.6,2-2V20l-1,1Z"/><polygon class="cls-1" points="311.9 27.1 314.2 26.2 322 18.4 320.6 17 312.8 24.8 311.9 27.1"/>
<path class="cls-1" d="M501,21a7.64,7.64,0,0,0-2.7.6,11.84,11.84,0,0,0-2.2,1.4c-.6.5-1.1,1-1.5,1.4l-.6.6a2.76,2.76,0,0,0,.6.6c.4.4.9.9,1.5,1.4a11.85,11.85,0,0,0,2.2,1.4,6.26,6.26,0,0,0,2.7.6,8.17,8.17,0,0,0,2.7-.6,11.84,11.84,0,0,0,2.2-1.4c.6-.5,1.1-1,1.5-1.4l.6-.6a2.76,2.76,0,0,0-.6-.6c-.4-.4-.9-.9-1.5-1.4a11.85,11.85,0,0,0-2.2-1.4A7.64,7.64,0,0,0,501,21Zm0,7a5.66,5.66,0,0,1-1.8-.3,8,8,0,0,1-1.6-.8,14.7,14.7,0,0,1-1.3-1,9,9,0,0,1-1-.9,4.5,4.5,0,0,1,1-.9,14.7,14.7,0,0,1,1.3-1,8,8,0,0,1,1.6-.8,5.55,5.55,0,0,1,3.6,0,8,8,0,0,1,1.6.8,14.7,14.7,0,0,1,1.3,1,9,9,0,0,1,1,.9,4.5,4.5,0,0,1-1,.9,14.7,14.7,0,0,1-1.3,1,8,8,0,0,1-1.6.8A5.66,5.66,0,0,1,501,28Zm0-5a2.35,2.35,0,0,1,.8.2c.2.1.5.2.6.4a2.09,2.09,0,0,1,.4.6,1.88,1.88,0,0,1,.2.8,2.35,2.35,0,0,1-.2.8c-.1.2-.2.5-.4.6a2.09,2.09,0,0,1-.6.4,1.88,1.88,0,0,1-.8.2,2.35,2.35,0,0,1-.8-.2c-.2-.1-.5-.2-.6-.4a2.09,2.09,0,0,1-.4-.6,1.88,1.88,0,0,1-.2-.8,2.35,2.35,0,0,1,.2-.8c.1-.2.2-.5.4-.6a2.09,2.09,0,0,1,.6-.4A2.35,2.35,0,0,1,501,23Z"/>
<!-- Домик с колоннами viewBox="509 17 16 16" -->
<path class="cls-1" d="M510,24h1v8h-1v1h15V32h-1V24h1V23H510Zm10,0h3v8h-3Zm-4,0h3v8h-3Zm-4,0h3v8h-3Z"/><polygon class="cls-1" points="518 17.01 517 17.01 510 21.01 510 22.01 525 22.01 525 21.01 518 17.01"/>
<path class="cls-1" d="M542,25h0a1.74,1.74,0,0,0-.5-1.16,1.25,1.25,0,0,0-1-.42,1.56,1.56,0,0,0-.9.32,1.22,1.22,0,0,0-.5.74h-2.2l-.4-.74-.4-.74.5-.95.5-.95A1.35,1.35,0,0,0,538,21a1.37,1.37,0,0,0,.7-.63,1.52,1.52,0,0,0,.1-1.16,1.33,1.33,0,0,0-.7-.95,1.38,1.38,0,0,0-1.1-.11,1.52,1.52,0,0,0-.9.74,1.32,1.32,0,0,0-.2.84,1.08,1.08,0,0,0,.4.74l-.5.84-.5.84h-1.6l-.5-.84-.5-.84a2.17,2.17,0,0,0,.4-.84,1.18,1.18,0,0,0-.2-.84A1.61,1.61,0,0,0,532,18a1.58,1.58,0,0,0-1.8,1.16,1.52,1.52,0,0,0,.1,1.16,1.37,1.37,0,0,0,.7.63,1.35,1.35,0,0,0,.9.11l.5.95.5.95-.4.74-.4.74h-2.2a1.89,1.89,0,0,0-.5-.74,1.18,1.18,0,0,0-.9-.32,1.25,1.25,0,0,0-1,.42,2.19,2.19,0,0,0-.5.95V25h0a2.29,2.29,0,0,0,.4,1.16,1.33,1.33,0,0,0,1.1.42,1.56,1.56,0,0,0,.9-.32,1.22,1.22,0,0,0,.5-.74h2.2l.4.74.4.74-.5.95-.5.95a1.35,1.35,0,0,0-.9.11,1.37,1.37,0,0,0-.7.63,1.52,1.52,0,0,0-.1,1.16,1.33,1.33,0,0,0,.7.95,1.38,1.38,0,0,0,1.1.11,1.52,1.52,0,0,0,.9-.74,1.32,1.32,0,0,0,.2-.84,1.08,1.08,0,0,0-.4-.74l.5-.84.5-.84h1.6l.5.84.5.84a2.17,2.17,0,0,0-.4.84,1.18,1.18,0,0,0,.2.84,1.61,1.61,0,0,0,.9.74,1.33,1.33,0,0,0,1.1-.21,1.67,1.67,0,0,0,.7-.95,1.52,1.52,0,0,0-.1-1.16A1.37,1.37,0,0,0,538,29a1.35,1.35,0,0,0-.9-.11l-.5-.95-.5-.95.4-.74.4-.74h2.2a1.89,1.89,0,0,0,.5.74,1.18,1.18,0,0,0,.9.32,2,2,0,0,0,1.1-.42A2.29,2.29,0,0,0,542,25Z"/>
<path class="cls-1" d="M16,42a2,2,0,0,0-.3-1.1,1.6,1.6,0,0,0-.9-.7,2.1,2.1,0,0,0,.4-1.1,2,2,0,0,0-.3-1.1,1.58,1.58,0,0,0-.7-.7,2.93,2.93,0,0,0-1-.3H13a2,2,0,0,0-.2-1.1,2,2,0,0,0-.8-.8c-.2-.1-.3-.2-.5-.2s-.3-.1-.5-.1a1.27,1.27,0,0,0-.6.1l-.6.3a2.18,2.18,0,0,0-.7-.9A2,2,0,0,0,8,34a2,2,0,0,0-1.1.3,1.6,1.6,0,0,0-.7.9l-.6-.3a1.27,1.27,0,0,0-.6-.1.9.9,0,0,0-.5.1c-.2,0-.3.1-.5.2a2,2,0,0,0-.8.8A2,2,0,0,0,3,37H2.8a1.93,1.93,0,0,0-1,.3,1.58,1.58,0,0,0-.7.7,2.28,2.28,0,0,0-.3,1.1,2.46,2.46,0,0,0,.4,1.1,5.5,5.5,0,0,0-.9.7A1.43,1.43,0,0,0,0,42a2,2,0,0,0,.3,1.1,1.6,1.6,0,0,0,.9.7,2.1,2.1,0,0,0-.4,1.1A2,2,0,0,0,1.1,46a1.58,1.58,0,0,0,.7.7,2.93,2.93,0,0,0,1,.3H3a2,2,0,0,0,.2,1.1,2,2,0,0,0,.8.8c.2.1.3.2.5.2s.3.1.5.1a1.27,1.27,0,0,0,.6-.1l.6-.3a2.18,2.18,0,0,0,.7.9A2,2,0,0,0,8,50a2,2,0,0,0,1.1-.3,1.6,1.6,0,0,0,.7-.9l.6.3a1.27,1.27,0,0,0,.6.1.9.9,0,0,0,.5-.1c.2,0,.3-.1.5-.2a2,2,0,0,0,.8-.8A2,2,0,0,0,13,47h.2a1.93,1.93,0,0,0,1-.3,1.58,1.58,0,0,0,.7-.7,2.28,2.28,0,0,0,.3-1.1,2.46,2.46,0,0,0-.4-1.1,5.5,5.5,0,0,0,.9-.7A1.43,1.43,0,0,0,16,42Zm-2.8-4a.75.75,0,0,1,.5.1c.1.1.3.2.4.4a1.06,1.06,0,0,1,.1.8c-.1.3-.2.5-.5.6a.35.35,0,0,0-.2.1h-.3a.75.75,0,0,1-.5-.1c-.1-.1-.3-.2-.4-.4a1.06,1.06,0,0,1-.1-.8c.1-.3.2-.5.5-.6a.35.35,0,0,0,.2-.1Zm-3.1-1.7a.78.78,0,0,1,.4-.4.9.9,0,0,1,.5-.1h.3a.35.35,0,0,1,.2.1,1.47,1.47,0,0,1,.5.6,1.19,1.19,0,0,1-.1.8.78.78,0,0,1-.4.4.9.9,0,0,1-.5.1h-.3a.35.35,0,0,1-.2-.1,1.47,1.47,0,0,1-.5-.6A1.13,1.13,0,0,1,10.1,36.3ZM8,35a1,1,0,1,1-.7,1.7A1,1,0,0,1,8,35Zm-3.5.9a.35.35,0,0,0,.2-.1H5a.75.75,0,0,1,.5.1c.1.1.3.2.4.4a1.06,1.06,0,0,1,.1.8c-.1.3-.2.5-.5.6a.35.35,0,0,0-.2.1H5a.75.75,0,0,1-.5-.1.78.78,0,0,1-.4-.4,1.06,1.06,0,0,1-.1-.8C4.1,36.2,4.3,36.1,4.5,35.9ZM1.9,38.5a.78.78,0,0,1,.4-.4.9.9,0,0,1,.5-.1h.3a.35.35,0,0,1,.2.1,1.47,1.47,0,0,1,.5.6,1.19,1.19,0,0,1-.1.8.78.78,0,0,1-.4.4.9.9,0,0,1-.5.1H2.5a.35.35,0,0,1-.2-.1,1.47,1.47,0,0,1-.5-.6A1.13,1.13,0,0,1,1.9,38.5ZM2,41a.91.91,0,0,1,.7.3,1,1,0,0,1,0,1.4A.91.91,0,0,1,2,43a.91.91,0,0,1-.7-.3,1,1,0,0,1,0-1.4A.91.91,0,0,1,2,41Zm-.1,4.5a1.06,1.06,0,0,1-.1-.8c.1-.3.2-.5.5-.6a.35.35,0,0,0,.2-.1h.3a.75.75,0,0,1,.5.1c.1.1.3.2.4.4a1.06,1.06,0,0,1,.1.8c-.1.3-.2.5-.5.6a.35.35,0,0,0-.2.1H2.8a.75.75,0,0,1-.5-.1C2.2,45.8,2,45.7,1.9,45.5Zm4,2.2a.78.78,0,0,1-.4.4.9.9,0,0,1-.5.1H4.7a.35.35,0,0,1-.2-.1,1.47,1.47,0,0,1-.5-.6,1.19,1.19,0,0,1,.1-.8.78.78,0,0,1,.4-.4.9.9,0,0,1,.5-.1h.3a.35.35,0,0,1,.2.1,1.47,1.47,0,0,1,.5.6A1.13,1.13,0,0,1,5.9,47.7ZM8,49a1,1,0,1,1,.7-1.7A1,1,0,0,1,8,49Zm1.2-2.6c-.2-.1-.3-.2-.5-.3a1.27,1.27,0,0,0-.6-.1,1.27,1.27,0,0,0-.6.1,2.19,2.19,0,0,0-.5.3,2.18,2.18,0,0,0-.3-.5,1,1,0,0,0-.5-.4c-.2-.1-.3-.2-.5-.2s-.3-.1-.5-.1H5v-.6a1.42,1.42,0,0,0-.2-.6,1,1,0,0,0-.4-.5c-.2-.1-.3-.2-.5-.3a2.18,2.18,0,0,1,.3-.5c.1-.1.1-.4.1-.6a1.27,1.27,0,0,0-.1-.6,2.18,2.18,0,0,0-.3-.5,2.19,2.19,0,0,0,.5-.3,2.18,2.18,0,0,0,.4-.5,1.42,1.42,0,0,0,.2-.6V39h.2a.9.9,0,0,0,.5-.1c.2,0,.3-.1.5-.2a1,1,0,0,0,.5-.4c.1-.2.2-.3.3-.5.2.1.3.2.5.3a1.27,1.27,0,0,0,.6.1,1.27,1.27,0,0,0,.6-.1,2.19,2.19,0,0,0,.5-.3,2.18,2.18,0,0,0,.3.5,1,1,0,0,0,.5.4c.2.1.3.2.5.2s.3.1.5.1h.2v.6a1.42,1.42,0,0,0,.2.6,1,1,0,0,0,.4.5c.2.1.3.2.5.3a2.18,2.18,0,0,1-.3.5c-.1.1,0,.3,0,.5a1.27,1.27,0,0,0,.1.6,2.18,2.18,0,0,0,.3.5,2.19,2.19,0,0,0-.5.3,1,1,0,0,0-.4.5,1.42,1.42,0,0,0-.2.6v.6h-.2a.9.9,0,0,0-.5.1c-.2,0-.3.1-.5.2a1,1,0,0,0-.5.4A2.1,2.1,0,0,0,9.2,46.4Zm2.3,1.7a.35.35,0,0,0-.2.1H11a.75.75,0,0,1-.5-.1.78.78,0,0,1-.4-.4,1.06,1.06,0,0,1-.1-.8c.1-.3.2-.5.5-.6a.35.35,0,0,0,.2-.1H11a.75.75,0,0,1,.5.1c.1.1.3.2.4.4a1.06,1.06,0,0,1,.1.8C11.9,47.8,11.7,47.9,11.5,48.1Zm2.6-2.6a.78.78,0,0,1-.4.4.9.9,0,0,1-.5.1h-.3a.35.35,0,0,1-.2-.1,1.47,1.47,0,0,1-.5-.6,1.19,1.19,0,0,1,.1-.8.78.78,0,0,1,.4-.4.9.9,0,0,1,.5-.1h.3a.35.35,0,0,1,.2.1,1.47,1.47,0,0,1,.5.6A1.13,1.13,0,0,1,14.1,45.5ZM14,43a1,1,0,1,1,.7-.3A.91.91,0,0,1,14,43Z"/>
<path class="cls-1" d="M8,39a2.72,2.72,0,0,0-2.1.9A3.12,3.12,0,0,0,5,42a2.72,2.72,0,0,0,.9,2.1A3.12,3.12,0,0,0,8,45a2.72,2.72,0,0,0,2.1-.9A3.12,3.12,0,0,0,11,42a2.72,2.72,0,0,0-.9-2.1A2.72,2.72,0,0,0,8,39Zm0,5a1.68,1.68,0,0,1-1.4-.6A2,2,0,0,1,6,42a1.82,1.82,0,0,1,.6-1.4A2,2,0,0,1,8,40a1.82,1.82,0,0,1,1.4.6A2,2,0,0,1,10,42a1.82,1.82,0,0,1-.6,1.4A1.68,1.68,0,0,1,8,44Z"/>
<g class="cls-2">
<!-- Ластик viewBox="424 17 16 16" -->
<path class="cls-1" d="M433.8,31h3.3v1h-8.5l-3.2-3.3a2.19,2.19,0,0,1-.3-.5,1.09,1.09,0,0,1-.1-.5c0-.1,0-.4.1-.5s.2-.3.3-.5l9.4-9.7,6.2,6.4Zm-1.4,0,1-1.1-4.8-5-2.4,2.5a.5.5,0,0,0,0,.6l2.9,3Zm2.5-12.5-5.6,5.8,4.8,5,5.6-5.7Z"/></g>
<path class="cls-1" d="M50,34V46H45l1-1h3V35H35V45h3l1,1H34V34ZM38.9,40.9,42,47.6l3.1-6.7L42.4,42l-.4.1-.4-.1-2.7-1.1M47,39,42,50,37,39l5,2,5-2Z"/>
<path class="cls-1" d="M65.1,34H54v8H51v6a2.23,2.23,0,0,0,2.2,2h11a1.92,1.92,0,0,0,1.9-2V34ZM54,48a1,1,0,0,1-2,0V43h2Zm11,0c0,.6-.3,1-.9,1H54.8a1.64,1.64,0,0,0,.2-1V35H65V48Zm-2-8H57V39h6Zm0,2H57V41h6Zm0,2H57V43h6Z"/>
<path class="cls-1" d="M33,39a5,5,0,0,0-5-5,5.14,5.14,0,0,0-3,1,5.14,5.14,0,0,0-3-1,5,5,0,0,0-5,5,5.11,5.11,0,0,0,3,4.6V44a5,5,0,0,0,10,0v-.4A5.11,5.11,0,0,0,33,39Zm-7,.1a3.4,3.4,0,0,0-1-.1,3.4,3.4,0,0,0-1,.1V39a4,4,0,0,1,1-2.6,4.06,4.06,0,0,1,1,2.7Zm-1,2.5a3.15,3.15,0,0,1-.8-1.5A2.2,2.2,0,0,1,25,40a2,2,0,0,1,.8.1A2.75,2.75,0,0,1,25,41.6Zm1.8-1.2a4,4,0,0,1,2.1,2.5,2.2,2.2,0,0,1-.8.1,4.76,4.76,0,0,1-2.3-.7A5.74,5.74,0,0,0,26.8,40.4Zm-2.5,1.9A4.18,4.18,0,0,1,22,43a2,2,0,0,1-.8-.1,4,4,0,0,1,2.1-2.5A3.52,3.52,0,0,0,24.3,42.3ZM18,39a4,4,0,0,1,4-4,4.76,4.76,0,0,1,2.3.7A4.87,4.87,0,0,0,23,39v.4a4.73,4.73,0,0,0-2.8,3.2A4.05,4.05,0,0,1,18,39Zm11,5a4,4,0,0,1-8,0v-.1a3.4,3.4,0,0,0,1,.1,5.14,5.14,0,0,0,3-1,5.14,5.14,0,0,0,3,1Zm.8-1.4A5.23,5.23,0,0,0,27,39.4V39a4.87,4.87,0,0,0-1.3-3.3A4.18,4.18,0,0,1,28,35a4,4,0,0,1,4,4A4.05,4.05,0,0,1,29.8,42.6Z"/><rect class="cls-1" x="306" y="7" width="2" height="1"/><rect class="cls-1" x="313" width="1" height="2"/><rect class="cls-1" x="307.94" y="11.6" width="2" height="1" transform="translate(81.93 222) rotate(-45)"/><polygon class="cls-1" points="319.2 2.6 318.5 1.9 317 3.3 317.7 4 319.2 2.6"/><rect class="cls-1" x="317.63" y="11.1" width="1" height="2" transform="translate(84.62 228.5) rotate(-45)"/><rect class="cls-1" x="319" y="7" width="2" height="1"/>
<!-- Часы viewBox="306 0 16 16" -->
<path class="cls-1" d="M314.9,7a1.5,1.5,0,0,0-1.4-1,.75.75,0,0,0-.5.1L310.8,4l-2.2-2.1-.3.3-.4.4,2.2,2.1,2.1,2.2a1.07,1.07,0,0,0-.2.6A1.54,1.54,0,0,0,313.5,9a1.41,1.41,0,0,0,1.4-1H317V7h-2.1Z"/><rect class="cls-1" x="313" y="13" width="1" height="2"/>
<!-- Обновить viewBox="357 17 16 16" -->
<path class="cls-1" d="M369.5,18.41a10.71,10.71,0,0,1,1.9,1.8,8.36,8.36,0,0,1,1.2,2.3,7.46,7.46,0,0,1,.4,2.6,7.61,7.61,0,0,1-.3,2.1,10.84,10.84,0,0,1-.8,1.9,6.53,6.53,0,0,1-1.3,1.6A10.1,10.1,0,0,1,369,32a10.84,10.84,0,0,1-1.9.8,7.5,7.5,0,0,1-4.2,0A10.84,10.84,0,0,1,361,32a6.53,6.53,0,0,1-1.6-1.3,10.09,10.09,0,0,1-1.3-1.6,10.84,10.84,0,0,1-.8-1.9A8.91,8.91,0,0,1,357,25a7.61,7.61,0,0,1,.3-2.1,10.84,10.84,0,0,1,.8-1.9,10.92,10.92,0,0,1,1.3-1.7,10.91,10.91,0,0,1,1.7-1.3H359V17h4v4h-1v-2.3a9.43,9.43,0,0,0-1.7,1.1,6.39,6.39,0,0,0-1.3,1.5,7.5,7.5,0,0,0-.8,1.8,6.45,6.45,0,0,0-.3,2,6.28,6.28,0,0,0,.3,1.9,8.65,8.65,0,0,0,.7,1.7,7.47,7.47,0,0,0,2.5,2.5,8.65,8.65,0,0,0,1.7.7,5.82,5.82,0,0,0,1.9.3,6.28,6.28,0,0,0,1.9-.3,8.65,8.65,0,0,0,1.7-.7,7.47,7.47,0,0,0,2.5-2.5,8.65,8.65,0,0,0,.7-1.7,5.82,5.82,0,0,0,.3-1.9,6.2,6.2,0,0,0-.4-2.3,7.81,7.81,0,0,0-1.1-2,7.52,7.52,0,0,0-1.6-1.5,6.81,6.81,0,0,0-2.1-1l.3-1A7,7,0,0,1,369.5,18.41Z"/>
<path class="cls-1" d="M348,17a7.61,7.61,0,0,1,2.1.3,10.84,10.84,0,0,1,1.9.8,6.53,6.53,0,0,1,1.6,1.3,10.09,10.09,0,0,1,1.3,1.6,10.84,10.84,0,0,1,.8,1.9,7.5,7.5,0,0,1,0,4.2,10.84,10.84,0,0,1-.8,1.9,6.53,6.53,0,0,1-1.3,1.6,10.1,10.1,0,0,1-1.6,1.3,6.39,6.39,0,0,1-1.9.8,7.5,7.5,0,0,1-4.2,0,10.84,10.84,0,0,1-1.9-.8,6.53,6.53,0,0,1-1.6-1.3,10.09,10.09,0,0,1-1.3-1.6,10.84,10.84,0,0,1-.8-1.9,7.5,7.5,0,0,1,0-4.2,10.84,10.84,0,0,1,.8-1.9,6.53,6.53,0,0,1,1.3-1.6,10.1,10.1,0,0,1,1.6-1.3,6.39,6.39,0,0,1,1.9-.8A7.61,7.61,0,0,1,348,17Zm-7,8a6.45,6.45,0,0,0,.3,2h2.8c0-.3-.1-.7-.1-1V24c0-.3.1-.7.1-1h-2.8A6.45,6.45,0,0,0,341,25Zm4.7-6.6a7.54,7.54,0,0,0-1.3.6,4.44,4.44,0,0,0-1.1.8,4.3,4.3,0,0,0-.9,1c-.2.4-.5.8-.7,1.2h2.6c.1-.3.1-.6.2-.9l.3-.9c.1-.3.3-.6.4-.9A3.6,3.6,0,0,1,345.7,18.41Zm-4,9.6a7.46,7.46,0,0,0,.7,1.2,9,9,0,0,0,.9,1,4.44,4.44,0,0,0,1.1.8c.4.2.8.4,1.3.6a3.51,3.51,0,0,1-.5-.8,3.55,3.55,0,0,1-.4-.9l-.3-.9a2.92,2.92,0,0,1-.2-.9h-2.6Zm9.2-1c0-.3.1-.7.1-1V24c0-.3-.1-.7-.1-1h-5.7c0,.3-.1.7-.1,1v2c0,.3.1.7.1,1ZM348,18a1.45,1.45,0,0,0-.7.2,1.7,1.7,0,0,0-.6.6,3.51,3.51,0,0,0-.5.8c-.1.3-.3.6-.4.9l-.3.9a6.36,6.36,0,0,1-.2.7h5.4a2.54,2.54,0,0,0-.2-.7l-.3-.9a3.55,3.55,0,0,0-.4-.9c-.2-.3-.3-.5-.5-.8a3.4,3.4,0,0,0-.6-.6A1.45,1.45,0,0,0,348,18Zm0,14a1.45,1.45,0,0,0,.7-.2,1.7,1.7,0,0,0,.6-.6,3.51,3.51,0,0,0,.5-.8c.1-.3.3-.6.4-.9l.3-.9a6.36,6.36,0,0,1,.2-.7h-5.4a2.54,2.54,0,0,0,.2.7l.3.9a3.55,3.55,0,0,0,.4.9c.2.3.3.5.5.8a3.4,3.4,0,0,0,.6.6A1.45,1.45,0,0,0,348,32Zm6.3-10a7.46,7.46,0,0,0-.7-1.2,9,9,0,0,0-.9-1,4.44,4.44,0,0,0-1.1-.8c-.4-.2-.8-.4-1.3-.6a3.51,3.51,0,0,1,.5.8,3.55,3.55,0,0,1,.4.9l.3.9a2.92,2.92,0,0,1,.2.9h2.6Zm-4,9.6a7.54,7.54,0,0,0,1.3-.6,4.44,4.44,0,0,0,1.1-.8,4.3,4.3,0,0,0,.9-1c.2-.4.5-.8.7-1.2h-2.6c-.1.3-.1.6-.2.9l-.3.9c-.1.3-.3.6-.4.9A3.6,3.6,0,0,1,350.3,31.61ZM355,25a6.45,6.45,0,0,0-.3-2h-2.8c0,.3.1.7.1,1v2c0,.3-.1.7-.1,1h2.8A6.45,6.45,0,0,0,355,25Z"/><circle class="cls-1" cx="376" cy="24.9" r="1"/><circle class="cls-1" cx="382" cy="24.9" r="1"/><circle class="cls-1" cx="388" cy="24.9" r="1"/>
<!-- Два квадратика справа стрелка вверх  viewBox="202 18 24 24"-->
<path class="cls-1" d="M204.5,22H204V17h8v5h-1V18h-6v4Zm7.5,8h-8V23h11v7h-3Zm0-5h2V24h-2v1Zm0,2h2v-1h-2v1Zm0,2h2v-1h-2v1Zm-5-1h-2v1h2v-1Zm0-2h-2v1h2v-1Zm0-2h-2v1h2V24Zm4,4h-3v1h3v-1Zm0-2h-3v1h3v-1Zm0-2h-3v1h3V24Zm8.8-1.09a12.53,12.53,0,0,0-.6-1.79,13.9,13.9,0,0,0-1-1.59A19.13,19.13,0,0,0,216.8,18h2.3V17h-4v4h1V18.69a16.54,16.54,0,0,1,1.3,1.39,5.47,5.47,0,0,1,.9,1.39,7.5,7.5,0,0,1,.6,1.59,10.94,10.94,0,0,1,.2,1.89,6.2,6.2,0,0,1-.3,1.89,8.57,8.57,0,0,1-.7,1.69A7.45,7.45,0,0,1,215.6,31a8.68,8.68,0,0,1-1.7.7,5.86,5.86,0,0,1-1.9.3v1a7.66,7.66,0,0,0,2.1-.3,10.88,10.88,0,0,0,1.9-.8,6.52,6.52,0,0,0,1.6-1.29A10,10,0,0,0,218.9,29a10.74,10.74,0,0,0,.8-1.89A7.52,7.52,0,0,0,220,25,12.56,12.56,0,0,0,219.8,22.86Z"/>
<!-- Солнышко viewBox="120 18 16 16" -->
<path class="cls-1" d="M132,25V24h2v1Zm-2-4.7,1.4-1.4.7.7L130.7,21ZM126.5,29a4.5,4.5,0,1,1,4.5-4.5A4.48,4.48,0,0,1,126.5,29Zm0-8a3.5,3.5,0,1,0,3.5,3.5A3.54,3.54,0,0,0,126.5,21Zm-.5-4h1v2h-1Zm-5.2,2.5.7-.7,1.4,1.4-.6.8ZM121,25h-2V24h2Zm2,3.7-1.4,1.4-.7-.7,1.4-1.4Zm4,3.3h-1V30h1Zm5.2-2.6-.7.7-1.4-1.4.7-.7Z"/>
<path class="cls-1" d="M93.1,18.2l-7.1,7,.6.6,7.1-7a3.27,3.27,0,0,1,4.5-.1,3.05,3.05,0,0,1-.1,4.4l-2,2-1.6,1.6-3.8,3.7a2.3,2.3,0,0,1-3.1,0,2.12,2.12,0,0,1,0-3.1l4.7-4.6L93,22l2.1-2.1a1.39,1.39,0,0,1,1.9,0,1.27,1.27,0,0,1,0,1.8l-5.6,5.5.6.8,5.6-5.5a2.12,2.12,0,0,0,0-3.1,2.3,2.3,0,0,0-3.1,0l-2.1,2.1-.7.7L87,26.8a3,3,0,0,0,0,4.3,3.14,3.14,0,0,0,4.4,0l3.8-3.7,1.6-1.6,2-2a3.87,3.87,0,0,0,.1-5.6A4.1,4.1,0,0,0,93.1,18.2Z"/>
<path class="cls-1" d="M506.8,13.8a6.89,6.89,0,0,1-2.2-5.1V7.1A4,4,0,0,0,502,3.2a1.85,1.85,0,0,0,.5-1.2,2,2,0,0,0-4,0,2.19,2.19,0,0,0,.5,1.2,4.13,4.13,0,0,0-2.7,3.9V8.7a6.72,6.72,0,0,1-2.1,5.1.37.37,0,0,0-.2.5.46.46,0,0,0,.5.3h4a2,2,0,0,0,2,1.4,2.17,2.17,0,0,0,2-1.4h4c.2,0,.3,0,.4-.3S506.9,14,506.8,13.8ZM500.5,1.1a1,1,0,0,1,1,.9.92.92,0,0,1-1,.9,1,1,0,0,1-1-.9A1.06,1.06,0,0,1,500.5,1.1Zm0,14a1.23,1.23,0,0,1-.8-.4h1.5A.67.67,0,0,1,500.5,15.1Zm1.5-1.4h-6.3a8.27,8.27,0,0,0,1.4-5V7.1a3.31,3.31,0,0,1,6.6,0V8.7a7.91,7.91,0,0,0,1.6,5Z"/>
<path class="cls-1" d="M486.39,9.4a6.7,6.7,0,0,1,1.92,1A6.79,6.79,0,0,1,489.76,12a7,7,0,0,1,.92,1.9A7.2,7.2,0,0,1,491,16h-1a6.12,6.12,0,0,0-.46-2.38,5.75,5.75,0,0,0-3.16-3.16,6.35,6.35,0,0,0-4-.25,6,6,0,0,0-1.44.6,5.86,5.86,0,0,0-2.14,2.14A6.08,6.08,0,0,0,478,16h-1a7,7,0,0,1,1.26-4,6.85,6.85,0,0,1,1.46-1.52,7.08,7.08,0,0,1,1.91-1,4.94,4.94,0,0,1-1.92-1.84,5.11,5.11,0,0,1-.52-1.23,5,5,0,0,1,.21-3.29A5,5,0,0,1,482.05.39a5.06,5.06,0,0,1,3.9,0,5,5,0,0,1,2.66,2.66,5,5,0,0,1,.21,3.29,5.06,5.06,0,0,1-.52,1.22,5.19,5.19,0,0,1-.82,1A4.83,4.83,0,0,1,486.39,9.4ZM480,5a3.85,3.85,0,0,0,.32,1.55,4.05,4.05,0,0,0,2.13,2.13,4,4,0,0,0,3.11,0,4.05,4.05,0,0,0,2.13-2.13A3.85,3.85,0,0,0,488,5a3.85,3.85,0,0,0-.32-1.55,4.05,4.05,0,0,0-2.13-2.13,4,4,0,0,0-3.11,0,4.05,4.05,0,0,0-2.13,2.13A3.85,3.85,0,0,0,480,5Z"/>
<path class="cls-1" d="M64.3,64.1H53.7c-.6,0-.7-.2-.7-.4s.3-.4.8-.6a4.91,4.91,0,0,0,1.7-4v-.2A2.76,2.76,0,0,1,58,55.8v-.4c0-.6.4-.9,1-.9s1,.3,1,.9v.4a2.82,2.82,0,0,1,2.5,3.1v.2a5.1,5.1,0,0,0,1.7,4.1c.5.2.8.3.8.6S65,64.1,64.3,64.1ZM59,53.7a1.3,1.3,0,1,1,1.3-1.3A1.32,1.32,0,0,1,59,53.7Zm0,11.4h2.7c0,1-1.7,2-2.7,2s-2.6-.9-2.7-2A24.32,24.32,0,0,1,59,65.1Z"/>
<path class="cls-1" d="M407,30.41,400.8,18l-2.8,1.2V18h-7V32h7V21.61L403.2,32ZM394,31h-2V19h2Zm3,0h-2V19h2Zm3.3-11.7,5.3,10.6-2,.8-5.3-10.6Z"/>
<!-- Календарь viewBox="322 51 16 16"-->
<path class="cls-1" d="M336.61,67.1h-13c-.6,0-.61-.4-.61-1v-13c0-.6,0-1,.61-1H326v-1h1v1h3v-1h1v1h3v-1h1v1h1.61c.6,0,1.39.4,1.39,1v13C338,66.7,337.21,67.1,336.61,67.1Zm.39-14h-2v1h-1v-1h-3v1h-1v-1h-3v1h-1v-1h-2v13h13Zm-11.39,5h-1v-1h1Zm0,2h-1v-1h1Zm0,2h-1v-1h1Zm0,2h-1v-1h1Zm2-6h-1v-1h1Zm0,2h-1v-1h1Zm0,2h-1v-1h1Zm0,2h-1v-1h1Zm2-6h-1v-1h1Zm0,2h-1v-1h1Zm0,2h-1v-1h1Zm0,2h-1v-1h1Zm2-6h-1v-1h1Zm0,2h-1v-1h1Zm0,2h-1v-1h1Zm0,2h-1v-1h1Zm-3.61-9h5v1h-5Zm5.61,3h-1v-1h1Zm0,2h-1v-1h1Zm0,2h-1v-1h1Zm0,2h-1v-1h1Zm2-6h-1v-1h1Zm0,2h-1v-1h1Zm0,2h-1v-1h1Zm0,2h-1v-1h1Z"/>
<path class="cls-1" d="M423.5,17a.6.6,0,0,1,.4.1c.1.1.1.2.1.4s0,.3-.1.4l-5.7,5.7a3.38,3.38,0,0,1,.6,1.2,5.85,5.85,0,0,1,.2,1.3,3.65,3.65,0,0,1-.3,1.5,3.81,3.81,0,0,1-.9,1.3l-.5.5L415.5,33l-7.5-7.5,3.6-1.8.5-.5a3.81,3.81,0,0,1,1.3-.9,4,4,0,0,1,1.5-.3,5.07,5.07,0,0,1,1.3.2,6.72,6.72,0,0,1,1.2.6l5.7-5.7A.6.6,0,0,1,423.5,17Zm-7.2,12.1-4.4-4.4-2.2,1.1,5.5,5.5Zm.7-.8a3,3,0,0,0,.7-1,2.66,2.66,0,0,0,.3-1.2,5,5,0,0,0-.2-1.2,2.29,2.29,0,0,0-.7-1,3.59,3.59,0,0,0-1-.7,2.34,2.34,0,0,0-1.2-.2,2.13,2.13,0,0,0-1.2.3,3.59,3.59,0,0,0-1,.7Z"/>
<!-- баскетбольный мячик viewBox="510 33 16 16" -->
<path class="cls-1" d="M525,42a6.82,6.82,0,0,1-1.8,4.4,4.62,4.62,0,0,1-.7.7A7.34,7.34,0,0,1,518,49h-1a7.34,7.34,0,0,1-4.5-1.9l-.7-.7A6.82,6.82,0,0,1,510,42h0V41h0a6.82,6.82,0,0,1,1.8-4.4,4.62,4.62,0,0,1,.7-.7A7.34,7.34,0,0,1,517,34h1a8,8,0,0,1,4.5,1.9l.7.7A6.82,6.82,0,0,1,525,41h0v1Zm-12.5,3.6h0A8.42,8.42,0,0,0,514,42h-3A8,8,0,0,0,512.5,45.6Zm0-8.2A8,8,0,0,0,511,41h3a8,8,0,0,0-1.5-3.6ZM517,35a6.52,6.52,0,0,0-3.8,1.6A6.82,6.82,0,0,1,515,41h2Zm0,7h-2a6.7,6.7,0,0,1-1.7,4.3h0l-.1.1h0A6.25,6.25,0,0,0,517,48Zm1,6a6.25,6.25,0,0,0,3.8-1.6h0A6.82,6.82,0,0,1,520,42h-2Zm0-13v6h2a6.82,6.82,0,0,1,1.8-4.4A6.52,6.52,0,0,0,518,35Zm4.5,2.4h0A8,8,0,0,0,521,41h3A8,8,0,0,0,522.5,37.4ZM521,42a8,8,0,0,0,1.5,3.6h0a8.29,8.29,0,0,0,1.5-3.7h-3Z"/>
<path class="cls-1" d="M117,49.1h0s-2.1-2-4-2-3.5,2-3.5,2-1.6-2-3.5-2-4,2-4,2h0v-11c0-1,1-3,4-3a3.51,3.51,0,0,1,3.5,2.2,3.81,3.81,0,0,1,3.5-2.2c2.9,0,4,2,4,3Zm-8-10a3,3,0,0,0-3-3c-3,0-3,2-3,3v8a4.86,4.86,0,0,1,3-1,4.31,4.31,0,0,1,3,1v-3h0Zm7,0c0-1,0-3-3-3a3.08,3.08,0,0,0-3,3v8a4.36,4.36,0,0,1,3-1,4.91,4.91,0,0,1,3,1Zm-14,10Z"/>
<path class="cls-1" d="M135,40.1a5.91,5.91,0,0,1-4.3,5.7,5.16,5.16,0,0,1-1.1.2H129a5.84,5.84,0,0,1-5.9-5h1a5.36,5.36,0,0,0,4.9,4,2.77,2.77,0,0,0,.9-.1l1.1-.3a5,5,0,0,0-2-9.6,5.07,5.07,0,0,0-4,2h-1.2a5.59,5.59,0,0,1,5.2-3A6.17,6.17,0,0,1,135,40.1Zm-6,7a5.07,5.07,0,0,1-4,2,5,5,0,0,1-5-5,5.07,5.07,0,0,1,2-4s.71-.47,1-.6a5.41,5.41,0,0,1,1.12-.36,6.66,6.66,0,0,1,.88,0,5.36,5.36,0,0,1,4.9,4h1a5.84,5.84,0,0,0-5.9-5c-.2,0-.4,0-.6,0a4.66,4.66,0,0,0-1.1.2,6.12,6.12,0,0,0-4.3,5.8,6,6,0,0,0,11.2,3Z"/>
<path class="cls-1" d="M77.2,43.6a5.37,5.37,0,0,0,1.8-4,5.55,5.55,0,0,0-5.5-5.5h-.2A5.33,5.33,0,0,0,68,39v.7h0a5.46,5.46,0,0,0,5.4,5.5h.2a5,5,0,0,0,2.9-.9l5.9,5.9.7-.7Zm-3.7.5A4.5,4.5,0,1,1,78,39.6,4.48,4.48,0,0,1,73.5,44.1Z"/>
<path class="cls-1" d="M166,35.1V47.7l-1.8,1.4H156V36.5l1-1.4h9m1-1H156.6l-1.6,2v14h9.6l2.4-2v-14Zm-3,5h-6v1h6Zm0,2h-6v1h6Zm0,2h-6v1h6Z"/>
<!-- Чистый лист viewBox="138 34 16 16" -->
<path class="cls-1" d="M149,35.1V47.7l-1.8,1.4H139V36.5l1-1.4h9m1-1H139.6l-1.6,2v14h9.6l2.4-2v-14Z"/>
<path class="cls-1" d="M236,34.4a1.69,1.69,0,0,0-1-.3H225a2,2,0,0,0-2,2v10a1.94,1.94,0,0,0-1.7,1,1.82,1.82,0,0,0,0,2,1.94,1.94,0,0,0,1.7,1h9a2,2,0,0,0,2-2v-10h3v-2A1.94,1.94,0,0,0,236,34.4Zm-7.7,14.7H223a1,1,0,1,1,0-2h5.3a1.82,1.82,0,0,0,0,2Zm4.7-9v8a.94.94,0,0,1-1,1h-2a1,1,0,1,1,0-2h1v-1h-7v-10a.94.94,0,0,1,1-1h8.3a1.69,1.69,0,0,0-.3,1v4Zm1-3v-1a1,1,0,1,1,2,0v1Z"/>
<path class="cls-1" d="M240,34.1v16l6-3,6,3v-16Zm11,14.4-4.6-2.3L246,46l-.4.2L241,48.5V37.1h10ZM241,36.1v-1h10v1Z"/><rect class="cls-1" x="256" y="42.1" width="14" height="1"/><rect class="cls-1" x="256" y="40.1" width="14" height="1"/><rect class="cls-1" x="256" y="44.1" width="9" height="1"/><rect class="cls-1" x="256" y="38.1" width="14" height="1"/><polygon class="cls-1" points="260 34.1 255 34.1 257.5 37.1 260 34.1"/><polygon class="cls-1" points="262 49.1 267 49.1 264.5 46.1 262 49.1"/><rect class="cls-1" x="279" y="42.1" width="7" height="1"/><rect class="cls-1" x="279" y="40.1" width="7" height="1"/><rect class="cls-1" x="280" y="37.1" width="5" height="1"/>
<path class="cls-1" d="M277,34.1v.1h0a7.5,7.5,0,0,0-4.3,1.9,2.57,2.57,0,0,0-.7,1.5v9a.9.9,0,0,0,.1.5c.4,1.4,2.3,2.5,4.9,2.8v.2h11v-16Zm0,14.8c-2.5-.4-4-1.5-4-2.3V39.4a9.28,9.28,0,0,0,4,1.6Zm0-10v1c-2.5-.4-4-1.5-4-2.3s1.5-1.9,4-2.3Zm10,6.2v4h-9v-14h9Z"/><rect class="cls-1" x="279" y="44.1" width="7" height="1"/>
<path class="cls-1" d="M304.9,43.6,303,45.2l-1,.8V44h-5V43h5V41l1,.9Zm-3.1,3.5,1.2-1v.7l-.1.3c-.5,1.7-3.4,3-6.9,3s-6.4-1.3-6.9-3a.9.9,0,0,1-.1-.5v-9a2.57,2.57,0,0,1,.7-1.5c1.1-1.2,3.5-2,6.3-2s5.2.8,6.3,2a2.08,2.08,0,0,1,.7,1.5V41l-1-.9v-.7a11.44,11.44,0,0,1-12,0v7.2c0,1,2.3,2.5,6,2.5C299.1,49.1,301.2,48,301.8,47.1ZM290,37.6c0,1,2.3,2.5,6,2.5s6-1.5,6-2.5-2.3-2.5-6-2.5S290,36.6,290,37.6Z"/>
<path class="cls-1" d="M320.3,36.1c-1.1-1.2-3.5-2-6.3-2s-5.2.8-6.3,2a2.57,2.57,0,0,0-.7,1.5v9a.9.9,0,0,0,.1.5c.5,1.7,3.4,3,6.9,3s6.4-1.3,6.9-3c0-.2.1-.3.1-.5v-9A2.08,2.08,0,0,0,320.3,36.1ZM320,46.6c0,1-2.3,2.5-6,2.5s-6-1.5-6-2.5V39.4a11.44,11.44,0,0,0,12,0Zm-6-6.5c-3.7,0-6-1.5-6-2.5s2.3-2.5,6-2.5,6,1.5,6,2.5S317.7,40.1,314,40.1Z"/><polygon class="cls-1" points="310 45.1 315 45.1 315 46.1 317.9 44.6 315 43.1 315 44.1 310 44.1 310 45.1"/>
<path class="cls-1" d="M325,44.1h1v-1h-1Zm12-3v-6a1.08,1.08,0,0,0-1-1H326a1,1,0,0,0-1,1v6a2,2,0,0,0-2,2v3a2,2,0,0,0,2,2v2h12v-2a2,2,0,0,0,2-2v-3A2,2,0,0,0,337,41.1Zm-11-6h10v6H326Zm10,14H326v-3h10Zm2-3a.94.94,0,0,1-1,1v-2H325v2a.94.94,0,0,1-1-1v-3a.94.94,0,0,1,1-1h12a.94.94,0,0,1,1,1Zm-11-2h1v-1h-1Zm8,0h2v-1h-2Zm-6,0h1v-1h-1Z"/>
<path class="cls-1" d="M287,57.1h-1v5h1v3h-3v-.9l-3,1.5v1.4h-3V65.7l-3-1.5v.9h-3v-3h1v-5h-1v-3h2.9l3.1-1.6V51.1h3v1.4l3.1,1.6H287Zm-14-2v1h1v-1Zm1,9v-1h-1v1Zm1-1.1,3,1.5v-.4h1v-5h-1v-.9l-3-1.5v.4h-1v5h1Zm6-8.9h-3v-.4l-3,1.5v.4l3,1.5v-1h3V57l3-1.5v-.4l-3-1.5Zm-2-2v1h1v-1Zm0,6h1v-1h-1Zm1,8v-1h-1v1Zm5-4v-5h-1v-.4l-3,1.5v.9h-1v5h1v.4l3-1.5v-.9Zm0-7v1h1v-1Zm1,9v-1h-1v1Z"/>
<path class="cls-1" d="M440,34.1a.6.6,0,0,1,.4.1c.1.1.2.1.3.2s.2.2.2.3a.6.6,0,0,1,.1.4v15H426.8L425,48.3V35.1a.6.6,0,0,1,.1-.4c.1-.1.1-.2.2-.3s.2-.2.3-.2a.6.6,0,0,1,.4-.1Zm0,1h-1v7H427v-7h-1V47.9l1.2,1.2h.8v-5h8v5h4Zm-12,6h10v-6H428Zm7,4h-6v4h1v-2h1v2h4Z"/>
<path class="cls-1" d="M255,56.1v-1l7.5-4,7.5,4v1h-1V64a.31.31,0,0,0,.1.2,1.69,1.69,0,0,0,.2.5c.1.2.1.5.2.7a2.54,2.54,0,0,1,.2.7c.1.2.1.4.2.6a.77.77,0,0,1,.1.3H255a.77.77,0,0,1,.1-.3c.1-.2.1-.4.2-.6a1.85,1.85,0,0,0,.2-.7,2.54,2.54,0,0,0,.2-.7c.1-.2.1-.4.2-.5a.1.1,0,0,1,.1-.1v-8Zm13.6,10-.3-1H256.7l-.3,1ZM257,56.1V64h1V56.1Zm5.5-3.8-5.3,2.8h10.5ZM259,56.1V64h1V56.1Zm2,0V64h1V56.1Zm2,0V64h1V56.1Zm2,0V64h1V56.1Zm3,0h-1V64h1Z"/>
<!-- Лист с текстом и галочка viewBox="440 34 16 16" -->
<path class="cls-1" d="M442,50.1v-16h16v16Zm15-15H443v14h14Zm-10,10V43.9l2,2,5-4v1.2l-5,4Zm-2-6h10v1H445Zm0-2h10v1H445Zm5,5h-5v-1h5Z"/><rect class="cls-1" x="462" y="37.1" width="10" height="1"/><rect class="cls-1" x="462" y="39.1" width="10" height="1"/>
<path class="cls-1" d="M459,34.1v16h16v-16Zm15,15H460v-14h14Z"/><rect class="cls-1" x="462" y="41.1" width="5" height="1"/><polygon class="cls-1" points="470 42.1 469 42.1 469 44.1 467 44.1 467 45.1 469 45.1 469 47.1 470 47.1 470 45.1 472 45.1 472 44.1 470 44.1 470 42.1"/><rect class="cls-1" x="478.13" y="42.63" width="1.07" height="1.07"/><rect class="cls-1" x="484.53" y="42.63" width="5.33" height="1.07"/><rect class="cls-1" x="478.13" y="36.23" width="1.07" height="1.07"/><rect class="cls-1" x="484.53" y="36.23" width="5.33" height="1.07"/>
<path class="cls-1" d="M490.93,39.43A1.15,1.15,0,0,0,492,38.37v-3.2a1.15,1.15,0,0,0-1.07-1.07H477.07A1.15,1.15,0,0,0,476,35.17v3.2a1.15,1.15,0,0,0,1.07,1.07h6.4V40.5h-6.4A1.15,1.15,0,0,0,476,41.57v3.2a1.15,1.15,0,0,0,1.07,1.07h6.4V46.9H482.4V48h-5.33V49h5.33V50.1h3.2V49h5.33V48H485.6V46.9h-1.07V45.83h6.4A1.15,1.15,0,0,0,492,44.77v-3.2a1.15,1.15,0,0,0-1.07-1.07h-6.4V39.43Zm-6.4,9.6h-1.07V48h1.07Zm6.4-7.47v3.2H477.07v-3.2Zm-13.87-3.2v-3.2h13.87v3.2Z"/>
<path class="cls-1" d="M503.7,37.1l4.3,4.3v8.7H498v-3h-4v-13h5.7l3,3Zm-8.7,9h3v-9h3.3l-2-2H495Zm4,3h8v-7h-4v-4h-4Zm5-10.3v2.3h2.3Z"/>
<path class="cls-1" d="M5,52.1a4,4,0,0,0-4,4v10H15v-14Zm9,13H2v-9a3,3,0,0,1,3-3h9Zm-2-11-3,10H7l-3-10H6l2,6.7,1.7-5.7H8v-1Z"/>
<path class="cls-1" d="M22,52.1a4,4,0,0,0-4,4v10H32v-14Zm9,13H19v-9a3,3,0,0,1,3-3h9Zm-5-6,3,5H27l-2-3.3-1.4,2.3H25v1H21l3-5-3-5h2l2,3.3,2-3.3h2Z"/>
<path class="cls-1" d="M39,52.1a4,4,0,0,0-4,4v10H49v-14Zm9,13H36v-9a3,3,0,0,1,3-3h9Zm-1-11-2,10H43.5L42,56.6l-1.5,7.5H39l-2-10h1.5l1.3,6.3L41,54.1h2l1.3,6.3,1-5.3H44v-1Z"/>
<!-- Корзинка viewBox="68 50 16 16" -->
<path class="cls-1" d="M78.5,63.1a1.41,1.41,0,0,0-1.4,1H72.9a1.5,1.5,0,0,0-1.4-1,1.5,1.5,0,0,0,0,3,1.41,1.41,0,0,0,1.4-1h4.2a1.5,1.5,0,0,0,1.4,1,1.5,1.5,0,0,0,0-3Zm-7,2a.5.5,0,1,1,.5-.5A.47.47,0,0,1,71.5,65.1Zm7,0a.5.5,0,1,1,.5-.5A.47.47,0,0,1,78.5,65.1Zm2.5-12v1H68l2,8H80l2-8v-1h2v-1H82A.94.94,0,0,0,81,53.1Zm-1.8,8H70.8l-1.5-6H80.7Z"/>
<!-- Ножницы viewBox="86 50 16 16" -->
<path class="cls-1" d="M99.2,63.5l-4.2-4v-1l4.2-3.9A1.94,1.94,0,0,0,100,53a2,2,0,0,0-4,0,2.1,2.1,0,0,0,1.3,1.9L93.9,58h-.5L88,53H86l6,5.3.8.7-.8.7L86,65h2l5.4-5h.5l3.4,3.1A2,2,0,0,0,96,65a2,2,0,0,0,4,0A2.06,2.06,0,0,0,99.2,63.5ZM98,54.1a1,1,0,1,1,1-1,.91.91,0,0,1-.3.7h0l-.1.1A1.42,1.42,0,0,1,98,54.1Zm0,12a1,1,0,0,1,0-2,.71.71,0,0,1,.6.3h0a1,1,0,0,1,.4.7A.94.94,0,0,1,98,66.1Z"/>
<!-- Кавычки viewBox="119 50 16 16" -->
<path class="cls-1" d="M124,63.1l4-9h1l-4,9Zm0-3-2.2-1.5,2.2-1.5v-1l-3,2v1l3,2Zm5-3,2,1.5-2,1.5v1l3-2v-1l-3-2Zm5-5v13a1,1,0,0,1-1,1H120a1,1,0,0,1-1-1v-13a1,1,0,0,1,1-1h13A.94.94,0,0,1,134,52.1Zm-1,0H120v13h13v-13Z"/>
<!-- Чек(плюсик) в кружочке viewBox="136 51 16 16" -->
<path class="cls-1" d="M143.5,52.1a6.5,6.5,0,1,1-6.5,6.5,6.49,6.49,0,0,1,6.5-6.5m0-1a7.5,7.5,0,1,0,7.5,7.5,7.55,7.55,0,0,0-7.5-7.5Zm3.5,7h-3v-3h-1v3h-3v1h3v3h1v-3h3Z"/>
<!-- Чек(галочка) в кружочке viewBox="153 50 16 16" -->
<path class="cls-1" d="M160.5,52.1a6.5,6.5,0,1,1-6.5,6.5,6.49,6.49,0,0,1,6.5-6.5m0-1a7.5,7.5,0,1,0,7.5,7.5,7.55,7.55,0,0,0-7.5-7.5Zm3.5,6v-2l-5,5-2-2v2l2,2Z"/>
<path class="cls-1" d="M180.3,56.5l-2.1,2.1,2.1,2.1-.7.7-2.1-2.1-2.1,2.1-.7-.7,2.1-2.1-2.1-2.1.7-.7,2.1,2.1,2.1-2.1Zm2.5,7.4a7.5,7.5,0,1,1,0-10.6A7.54,7.54,0,0,1,182.8,63.9Zm-.7-9.9a6.51,6.51,0,1,0,0,9.2A6.58,6.58,0,0,0,182.1,54Z"/>
<!-- Выделение (квадрат) viewBox="204 51 16 16" -->
<path class="cls-1" d="M213,67.1v-1h6v-6h1v7Zm6-15h-6v-1h7v7h-1Zm-15,8h1v6h6v1h-7Zm1-8v6h-1v-7h7v1h-6Z"/>
<!-- Три полоски viewBox="222 51 16 16" -->
<path class="cls-1" d="M237,55.6l-2,2V56.1H221v-1h14V53.6Zm-7-4.5h2v3h-2Zm-3,6.5,2,2-2,2V60.1h-6v-1h6Zm5,9.5h-2v-10h2Z"/>
<!-- Скрепка viewBox="183 51 16 16" -->
<path class="cls-1" d="M198,54.1v9.5a3.38,3.38,0,0,1-.28,1.36,3.53,3.53,0,0,1-1.86,1.86,3.49,3.49,0,0,1-2.73,0A3.53,3.53,0,0,1,191.28,65,3.37,3.37,0,0,1,191,63.6v-10a2.38,2.38,0,0,1,.2-1,2.56,2.56,0,0,1,1.33-1.33,2.46,2.46,0,0,1,1.94,0,2.56,2.56,0,0,1,1.33,1.33,2.38,2.38,0,0,1,.2,1v10a1.47,1.47,0,0,1-.12.59,1.49,1.49,0,0,1-.8.8,1.52,1.52,0,0,1-1.17,0,1.49,1.49,0,0,1-.8-.8,1.47,1.47,0,0,1-.12-.59V55.1h1v8.5a.5.5,0,0,0,1,0v-10a1.47,1.47,0,0,0-.12-.59,1.49,1.49,0,0,0-.8-.8,1.52,1.52,0,0,0-1.17,0,1.49,1.49,0,0,0-.8.8,1.47,1.47,0,0,0-.12.59v10a2.38,2.38,0,0,0,.2,1,2.56,2.56,0,0,0,1.33,1.33,2.46,2.46,0,0,0,1.94,0,2.56,2.56,0,0,0,1.33-1.33,2.38,2.38,0,0,0,.2-1V54.1Z"/>
<!-- Звездочка viewBox="86 34 16 16" -->
<path class="cls-1" d="M101,40.22H94.88L93,34.11l-1.88,6.12H85L90,44l-1.9,6.11L93,46.31l4.94,3.79L96,44ZM93,45l-3,2.32,1.17-3.75-3-2.31h3.75L93,37.53l1.15,3.75H97.9l-3,2.31L96,47.33Z"/>
<path class="cls-1" d="M252,51.1v16H241a1.94,1.94,0,0,1-.78-.16,2,2,0,0,1-1.07-1.07,1.94,1.94,0,0,1-.16-.78v-12a1.76,1.76,0,0,1,.17-.75,2.2,2.2,0,0,1,.45-.64,2.23,2.23,0,0,1,.64-.45,1.74,1.74,0,0,1,.75-.17ZM240,63.37a2,2,0,0,1,1-.27h10v-11H241a.8.8,0,0,0-.36.09,1.23,1.23,0,0,0-.55.55.8.8,0,0,0-.09.36Zm11,.73H241a1,1,0,0,0-.39.08,1,1,0,0,0-.53.53,1,1,0,0,0,0,.78,1,1,0,0,0,.53.53,1,1,0,0,0,.39.08h10Zm-9-10h7v3h-7Zm1,2h5v-1h-5Z"/>
<path class="cls-1" d="M395,41.1v-3a4.07,4.07,0,0,1,.3-1.58,3.86,3.86,0,0,1,2.11-2.11,4.26,4.26,0,0,1,3.16,0,3.86,3.86,0,0,1,2.11,2.11,4.07,4.07,0,0,1,.3,1.58h-1a3,3,0,0,0-.23-1.19,2.91,2.91,0,0,0-1.58-1.58,3.17,3.17,0,0,0-2.37,0,2.91,2.91,0,0,0-1.58,1.58A3,3,0,0,0,396,38.1v3h9v9H393v-9Zm-1,8h10v-7H394Z"/>
<path class="cls-1" d="M420,41.1v-3a4.07,4.07,0,0,0-.3-1.58,3.86,3.86,0,0,0-2.11-2.11,4.26,4.26,0,0,0-3.16,0,3.86,3.86,0,0,0-2.11,2.11,4.07,4.07,0,0,0-.3,1.58v3h-2v9h12v-9Zm-7-3a3,3,0,0,1,.23-1.19,2.91,2.91,0,0,1,1.58-1.58,3.17,3.17,0,0,1,2.38,0,2.91,2.91,0,0,1,1.58,1.58A3,3,0,0,1,419,38.1v3h-6Zm8,11H411v-7h10Z"/>
<!-- Лампочка viewBox="376 33 16 16" -->
<path class="cls-1" d="M383.46,34.3a5.5,5.5,0,0,1,3.84,3.84,5.43,5.43,0,0,1,.2,1.46,5.12,5.12,0,0,1-.43,2.1,5.74,5.74,0,0,1-1.23,1.76,4.62,4.62,0,0,0-1,1.43,4.2,4.2,0,0,0-.35,1.71v2a1.47,1.47,0,0,1-.12.59,1.49,1.49,0,0,1-.8.8,1.47,1.47,0,0,1-.59.12h-2a1.47,1.47,0,0,1-.59-.12,1.49,1.49,0,0,1-.8-.8,1.47,1.47,0,0,1-.12-.59v-2a4.2,4.2,0,0,0-.35-1.71,4.6,4.6,0,0,0-1-1.43,5.75,5.75,0,0,1-1.23-1.76,5.13,5.13,0,0,1-.43-2.1,5.45,5.45,0,0,1,.2-1.46,5.5,5.5,0,0,1,3.84-3.84,5.56,5.56,0,0,1,2.92,0Zm.06,11.8a5.18,5.18,0,0,1,.52-1.83,6.06,6.06,0,0,1,1.12-1.53,4.84,4.84,0,0,0,1-1.43,4.13,4.13,0,0,0,.35-1.71,4.35,4.35,0,0,0-.36-1.75,4.53,4.53,0,0,0-2.39-2.39,4.49,4.49,0,0,0-3.5,0,4.53,4.53,0,0,0-2.39,2.39,4.36,4.36,0,0,0-.36,1.75,4.14,4.14,0,0,0,.35,1.71,4.86,4.86,0,0,0,1,1.43A6.05,6.05,0,0,1,380,44.27a5.16,5.16,0,0,1,.52,1.83Zm-.52,3a.51.51,0,0,0,.5-.5V47.1h-3v1.5a.51.51,0,0,0,.5.5Z"/>
<!-- Фломастер  viewBox="360 34 16 16"-->
<path class="cls-1" d="M373,39.1h-1.19l-3.5,7H368v1a2.92,2.92,0,0,1-.23,1.17,3,3,0,0,1-1.6,1.6,3,3,0,0,1-2.33,0,3,3,0,0,1-1.6-1.6A2.92,2.92,0,0,1,362,47.1v-1h-.31l-3.5-7H357v-5h1v4h14v-4h1Zm-2.31,0H359.31l3,6h5.37Zm-3.69,7h-4v1a1.94,1.94,0,0,0,.16.78,2,2,0,0,0,1.07,1.07,2,2,0,0,0,1.55,0,2,2,0,0,0,1.07-1.07,2,2,0,0,0,.16-.78Z"/>
<!-- Фломастер острый viewBox="342 34 16 16" -->
<path class="cls-1" d="M356,34.1v4a3.5,3.5,0,0,0-1.47.27,2.33,2.33,0,0,0-.91.71,2.74,2.74,0,0,0-.47,1,7.4,7.4,0,0,0-.17,1.27q0,.67,0,1.36t0,1.34h-2v3l-6,3v-6h-2q0-.65,0-1.34t0-1.36a7.45,7.45,0,0,0-.17-1.27,2.76,2.76,0,0,0-.47-1,2.33,2.33,0,0,0-.91-.71A3.5,3.5,0,0,0,340,38.1v-4h1v3h14v-3Zm-4,9q0-.7,0-1.36a7.87,7.87,0,0,1,.07-1.3,4.79,4.79,0,0,1,.34-1.22,3.57,3.57,0,0,1,.78-1.12H342.82a3.67,3.67,0,0,1,.78,1.13,4.83,4.83,0,0,1,.34,1.21,7.85,7.85,0,0,1,.07,1.29q0,.67,0,1.37Zm-2,1h-4v4.38l4-2Z"/>
<!-- Краски, палитра viewBox="101 51 16 16" -->
<path class="cls-1" d="M110,51.1a7.87,7.87,0,0,1,2.13.29,8.09,8.09,0,0,1,1.91.8,8,8,0,0,1,2.87,2.87,8.1,8.1,0,0,1,.8,1.91,8.06,8.06,0,0,1,0,4.25,8.1,8.1,0,0,1-.8,1.91A8,8,0,0,1,114,66a8.09,8.09,0,0,1-1.91.8,7.87,7.87,0,0,1-2.12.29,1.91,1.91,0,0,1-.78-.16,2,2,0,0,1-1.06-1.06,1.9,1.9,0,0,1-.16-.78,2.66,2.66,0,0,1,.07-.67,3,3,0,0,1,.18-.52,3.47,3.47,0,0,1,.24-.44q.13-.2.24-.41a2.76,2.76,0,0,0,.18-.44,1.72,1.72,0,0,0,.07-.53,1.92,1.92,0,0,0-.16-.77,2,2,0,0,0-1.07-1.07,1.92,1.92,0,0,0-.77-.16,1.71,1.71,0,0,0-.53.07,2.7,2.7,0,0,0-.44.18l-.41.24a3.53,3.53,0,0,1-.44.24,3,3,0,0,1-.52.18,2.67,2.67,0,0,1-.66.07,1.91,1.91,0,0,1-.78-.16,2,2,0,0,1-1.06-1.06,1.9,1.9,0,0,1-.16-.78,7.87,7.87,0,0,1,.29-2.12,8.06,8.06,0,0,1,.8-1.91A8,8,0,0,1,106,52.19a8.11,8.11,0,0,1,1.91-.8A7.85,7.85,0,0,1,110,51.1Zm0,15a6.85,6.85,0,0,0,1.86-.25A7,7,0,0,0,116.75,61a7,7,0,0,0,0-3.71,7,7,0,0,0-4.89-4.89,7,7,0,0,0-3.71,0,7,7,0,0,0-4.89,4.89A6.85,6.85,0,0,0,103,59.1a1,1,0,0,0,.08.39,1,1,0,0,0,.53.53,1,1,0,0,0,.39.08,1.71,1.71,0,0,0,.53-.07,2.74,2.74,0,0,0,.44-.18l.41-.24a3.39,3.39,0,0,1,.43-.24,2.87,2.87,0,0,1,.52-.18,2.74,2.74,0,0,1,.68-.07,2.94,2.94,0,0,1,1.17.23,3,3,0,0,1,1.59,1.59A2.94,2.94,0,0,1,110,62.1a2.78,2.78,0,0,1-.07.68,2.89,2.89,0,0,1-.18.52,3.49,3.49,0,0,1-.24.43,4.57,4.57,0,0,0-.24.41,2.67,2.67,0,0,0-.18.44,1.71,1.71,0,0,0-.07.53,1,1,0,0,0,.08.39,1,1,0,0,0,.53.53A1,1,0,0,0,110,66.1Zm-4-10a1,1,0,0,1,.39.08,1,1,0,0,1,.53.53,1,1,0,0,1,0,.78,1,1,0,0,1-.53.53,1,1,0,0,1-.78,0,1,1,0,0,1-.53-.53,1,1,0,0,1,0-.78,1,1,0,0,1,.53-.53A1,1,0,0,1,106,56.1Zm3-2a1,1,0,0,1,.39.08,1,1,0,0,1,.53.53,1,1,0,0,1,0,.78,1,1,0,0,1-.53.53,1,1,0,0,1-.78,0,1,1,0,0,1-.53-.53,1,1,0,0,1,0-.78,1,1,0,0,1,.53-.53A1,1,0,0,1,109,54.1Zm3,8a1,1,0,0,1,.39.08,1,1,0,0,1,.53.53,1,1,0,0,1,0,.78,1,1,0,0,1-.53.53,1,1,0,0,1-.78,0,1,1,0,0,1-.53-.53,1,1,0,0,1,0-.78,1,1,0,0,1,.53-.53A1,1,0,0,1,112,62.1Zm1-5a1,1,0,0,1-.39-.08,1,1,0,0,1-.53-.53,1,1,0,0,1,0-.78,1,1,0,0,1,.53-.53,1,1,0,0,1,.78,0,1,1,0,0,1,.53.53,1,1,0,0,1,0,.78,1,1,0,0,1-.53.53A1,1,0,0,1,113,57.1Zm1,2a1,1,0,0,1,.39.08,1,1,0,0,1,.53.53,1,1,0,0,1,0,.78,1,1,0,0,1-.53.53,1,1,0,0,1-.78,0,1,1,0,0,1-.53-.53,1,1,0,0,1,0-.78,1,1,0,0,1,.53-.53A1,1,0,0,1,114,59.1Z"/>
<!-- Глобус viewBox="304 50 16 16" -->
<path class="cls-1" d="M314,51.1a7.75,7.75,0,0,1,2.12.29,8,8,0,0,1,3.53,2.06,8,8,0,0,1,1.25,1.62,8.2,8.2,0,0,1,.81,1.91,7.93,7.93,0,0,1,0,4.24,8.2,8.2,0,0,1-.81,1.91A8.09,8.09,0,0,1,318,66a8.14,8.14,0,0,1-1.91.81,7.93,7.93,0,0,1-4.24,0A8.12,8.12,0,0,1,310,66a8.09,8.09,0,0,1-2.87-2.88,8.12,8.12,0,0,1-.81-1.91,7.93,7.93,0,0,1,0-4.24,8.12,8.12,0,0,1,.81-1.91A8.09,8.09,0,0,1,310,52.2a8.12,8.12,0,0,1,1.91-.81A7.75,7.75,0,0,1,314,51.1Zm0,15a6.74,6.74,0,0,0,1.74-.23,7.21,7.21,0,0,0,1.61-.64,7,7,0,0,0,1.41-1,7.15,7.15,0,0,0,1.13-1.34c-.07-.16-.13-.32-.2-.48a1.37,1.37,0,0,1-.09-.5,3,3,0,0,1,0-.46c0-.12,0-.22.05-.3s0-.16,0-.23a.62.62,0,0,0,0-.24,1.92,1.92,0,0,0-.14-.32q-.1-.19-.29-.48s0-.09,0-.15a1.74,1.74,0,0,0,0-.2,1.83,1.83,0,0,0,0-.19.33.33,0,0,0,0-.14,2.7,2.7,0,0,1-.43-.09,1.15,1.15,0,0,1-.39-.19l0,0-.2.07-.2.08-.2.07-.21,0-.12,0,0-.05-.24.08a.7.7,0,0,1-.24,0,.73.73,0,0,1-.23-.05l-.3-.13a1.43,1.43,0,0,1-.27-.17.25.25,0,0,1-.11-.18l0,0-.1-.09-.12-.08-.1-.09a.16.16,0,0,1,0-.11l.09-.07-.18,0-.06-.23s0,0,.07,0l.08,0-.28-.15.2-.5a1.27,1.27,0,0,1-.05-.62.77.77,0,0,1,.21-.36,2.56,2.56,0,0,1,.35-.28,1.64,1.64,0,0,0,.38-.38l0-.09.52-.62.12,0,.49,0,.55-.05.55-.08.5-.1a7.21,7.21,0,0,0-.53-.56c-.19-.18-.38-.35-.58-.51l-.21.09a1.54,1.54,0,0,0-.25.14,1,1,0,0,0-.2.18.33.33,0,0,0-.08.21l0,.15a.63.63,0,0,1-.31.29,1.19,1.19,0,0,1-.36.06h-.37a.84.84,0,0,0-.37.07l-.12-.27.12-.45-.13-.2,1.35-.42a.62.62,0,0,0-.29-.33.87.87,0,0,0-.43-.11v-.08l.44-.07a7.16,7.16,0,0,0-1.51-.55,6.88,6.88,0,0,0-2.94-.05,7.07,7.07,0,0,0-1.29.39,7.24,7.24,0,0,0-1.19.62,6.55,6.55,0,0,0-1.05.84.45.45,0,0,1,.32.11,1.71,1.71,0,0,1,.2.23,2.15,2.15,0,0,0,.19.23.36.36,0,0,0,.27.11l.13-.09,0-.17.26-.37-.2-.58.12-.08a.27.27,0,0,1,.13-.05,2.15,2.15,0,0,1,.36,0,.49.49,0,0,1,.21.09.83.83,0,0,1,.16.18l.22.29.28-.22.25.11.35.17a2.18,2.18,0,0,1,.3.21.29.29,0,0,1,.13.2.23.23,0,0,1-.09.19.8.8,0,0,1-.22.12l-.29.07-.29.06a.89.89,0,0,0-.23.08.15.15,0,0,0-.09.13l.45.15a2.75,2.75,0,0,1-.34.25l-.37.2,0,.13-.72.28v.22l-.05,0,0-.27h0s-.06,0-.07,0a.07.07,0,0,0,0,.05l0,.06a.06.06,0,0,1,0,0l-.1-.05,0,0a.16.16,0,0,0,0,.07l.06.09.09.11s0,0,0,0l-.07,0-.06,0s0,0,0,0,.09,0,0,0l-.19.08a.94.94,0,0,0-.25.18.46.46,0,0,0-.12.34q0,.13,0,.26a1,1,0,0,1,0,.26.94.94,0,0,0-.33-.45.89.89,0,0,0-.53-.16l-.34,0,.16.11-.28,0h-.29a.93.93,0,0,0-.27.06.62.62,0,0,0-.23.16l0,.35a.69.69,0,0,0,.11.41.43.43,0,0,0,.38.16,1.46,1.46,0,0,0,.46-.07l.45-.16c0,.11-.1.23-.16.33a1.26,1.26,0,0,0-.12.34l.1,0a.31.31,0,0,1,.34,0,1.22,1.22,0,0,1,.3.25l.3.34a.88.88,0,0,0,.34.25l-.27.14-.62-.35,0,.07s0,0,0,0l-.28-.48a2.39,2.39,0,0,1-.54-.08,4.85,4.85,0,0,1-1.11-.45,3.79,3.79,0,0,1-.46-.29l-.05.84a6.76,6.76,0,0,0,.26,1.86,7.13,7.13,0,0,0,1.88,3.16,6.64,6.64,0,0,0,1.51,1.11.76.76,0,0,1,0-.33,2.88,2.88,0,0,1,.08-.33l.1-.33a1.17,1.17,0,0,0,.05-.33,2,2,0,0,0-.08-.53,5.41,5.41,0,0,0-.19-.55l-.24-.55q-.13-.27-.21-.52a2.3,2.3,0,0,1-.12-.45.59.59,0,0,1,0-.36l-.12-.05a.89.89,0,0,1,.13-.21l.16-.21a1.52,1.52,0,0,0,.13-.21.52.52,0,0,0,.05-.23.46.46,0,0,0,0-.17,1,1,0,0,1-.05-.16l.16,0a.78.78,0,0,1,.36-.42,1.28,1.28,0,0,1,.57-.11l.16,0,.27.08.27.09.18.06s0,.06.07.07.07,0,.07.05l0,.06.11.06.19.11.18.13L313,60a1.17,1.17,0,0,1,.39.09,5.18,5.18,0,0,1,.53.24,6.4,6.4,0,0,1,.57.34,5.28,5.28,0,0,1,.53.39,2.84,2.84,0,0,1,.39.39.58.58,0,0,1,.15.34l-.27.28a1.38,1.38,0,0,1-.06.61.83.83,0,0,1-.27.35,1.94,1.94,0,0,1-.41.23,3.73,3.73,0,0,0-.5.27.88.88,0,0,1-.08.34,1.68,1.68,0,0,1-.2.34,1.23,1.23,0,0,1-.28.27.57.57,0,0,1-.32.11l-.33-.25s0,0,0,.06,0,0,0,0a.51.51,0,0,1,0,.34,1.82,1.82,0,0,1-.13.4,3.2,3.2,0,0,1-.21.39,3.59,3.59,0,0,1-.21.3,6.77,6.77,0,0,0,.84.16A6.67,6.67,0,0,0,314,66.1ZM309.88,58a.85.85,0,0,1,.23,0l.25.08.25.1.22.09-.13,0h-.13a.66.66,0,0,1-.24,0l-.21-.1-.19-.1a.4.4,0,0,0-.17,0,.31.31,0,0,0-.14,0l-.12.07s0,0-.05,0a.43.43,0,0,1,.2-.09Zm1.05.35a1.52,1.52,0,0,1,.59.11l-.22.07-.23,0a1.17,1.17,0,0,1-.28,0,.2.2,0,0,1,.08-.08A.15.15,0,0,0,310.93,58.35Zm8.48-3.68a.12.12,0,0,1,0,.09h.09Zm.54.77-.22-.33-.23-.32a.24.24,0,0,1,0,.1.23.23,0,0,0,0,.14.21.21,0,0,0,.06.14.71.71,0,0,0,.14.12l.17.09Z"/>
<!-- Гаечный ключ viewBox="476 17 16 16" -->
<path class="cls-1" d="M491.08,18.73q.2.35.37.67a6.07,6.07,0,0,1,.29.65,4,4,0,0,1,.19.68,4.27,4.27,0,0,1,.07.78,4.43,4.43,0,0,1-.16,1.19,4.51,4.51,0,0,1-3.15,3.15,4.43,4.43,0,0,1-1.19.16l-.36,0-.36,0-6.3,6.3a2.56,2.56,0,0,1-.86.57,2.65,2.65,0,0,1-1,.2,2.53,2.53,0,0,1-1-.21,2.65,2.65,0,0,1-1.39-1.39,2.52,2.52,0,0,1-.21-1,2.64,2.64,0,0,1,.2-1,2.56,2.56,0,0,1,.57-.86l6.3-6.3q0-.18,0-.36c0-.12,0-.24,0-.36a4.41,4.41,0,0,1,.16-1.19,4.51,4.51,0,0,1,3.15-3.15A4.43,4.43,0,0,1,487.5,17a4.27,4.27,0,0,1,.78.07,4,4,0,0,1,.68.19,5.88,5.88,0,0,1,.65.29l.67.37L487.2,21l.8.8ZM487.5,25a3.38,3.38,0,0,0,1.36-.28,3.53,3.53,0,0,0,1.86-1.86,3.38,3.38,0,0,0,.28-1.36,3.29,3.29,0,0,0-.19-1.1L488,23.21,485.8,21l2.8-2.81a3.29,3.29,0,0,0-1.1-.19,3.38,3.38,0,0,0-1.36.28,3.53,3.53,0,0,0-1.86,1.86,3.37,3.37,0,0,0-.28,1.36,3,3,0,0,0,0,.53q0,.26.11.52l-6.68,6.69a1.61,1.61,0,0,0-.35.52,1.59,1.59,0,0,0-.12.63,1.55,1.55,0,0,0,.13.63,1.63,1.63,0,0,0,.86.86,1.55,1.55,0,0,0,.63.13,1.6,1.6,0,0,0,.63-.12,1.62,1.62,0,0,0,.52-.35l6.69-6.68L487,25A3,3,0,0,0,487.5,25Z"/>
<!-- Шарики viewBox="289 51 16 16" -->
<path class="cls-1" d="M291.5,56.1a2.38,2.38,0,0,1,1,.2,2.56,2.56,0,0,1,1.33,1.33,2.38,2.38,0,0,1,.2,1,2.41,2.41,0,0,1-.2,1,2.56,2.56,0,0,1-.54.8,2.52,2.52,0,0,1-.79.54,2.43,2.43,0,0,1-1,.2,2.45,2.45,0,0,1-1-.2,2.49,2.49,0,0,1-1.33-1.33,2.45,2.45,0,0,1-.2-1,2.42,2.42,0,0,1,.2-1,2.52,2.52,0,0,1,.54-.79,2.56,2.56,0,0,1,.8-.54A2.41,2.41,0,0,1,291.5,56.1Zm0,4a1.47,1.47,0,0,0,.59-.12,1.49,1.49,0,0,0,.8-.8,1.52,1.52,0,0,0,0-1.17,1.49,1.49,0,0,0-.8-.8,1.52,1.52,0,0,0-1.17,0,1.49,1.49,0,0,0-.8.8,1.52,1.52,0,0,0,0,1.17,1.49,1.49,0,0,0,.8.8A1.47,1.47,0,0,0,291.5,60.1Zm12,.61a3.21,3.21,0,0,1,.64.55,3.44,3.44,0,0,1,.48.7,3.66,3.66,0,0,1,.3.79,3.51,3.51,0,0,1-.17,2.21,3.51,3.51,0,0,1-1.86,1.86,3.54,3.54,0,0,1-2.73,0A3.51,3.51,0,0,1,298.27,65,3.41,3.41,0,0,1,298,63.6a3.3,3.3,0,0,1,.08-.73,4.38,4.38,0,0,1-1.25-.65,4.51,4.51,0,0,1-1.6-2.22,4.42,4.42,0,0,1-.22-1.4,4.35,4.35,0,0,1,.36-1.75,4.53,4.53,0,0,1,2.39-2.39,4.35,4.35,0,0,1,1.75-.36h.28l.28,0a2.37,2.37,0,0,1-.06-.53,2.42,2.42,0,0,1,.2-1,2.52,2.52,0,0,1,.54-.79,2.56,2.56,0,0,1,.8-.54,2.41,2.41,0,0,1,1-.2,2.38,2.38,0,0,1,1,.2,2.56,2.56,0,0,1,1.33,1.33,2.38,2.38,0,0,1,.2,1,2.45,2.45,0,0,1-.13.8,2.48,2.48,0,0,1-.37.7,2.6,2.6,0,0,1-.58.55,2.52,2.52,0,0,1-.73.35,4.36,4.36,0,0,1,.61,1.23A4.54,4.54,0,0,1,304,58.6a4.47,4.47,0,0,1-.13,1.09A4.41,4.41,0,0,1,303.47,60.71ZM296,58.6a3.42,3.42,0,0,0,.18,1.09,3.53,3.53,0,0,0,1.26,1.74,3.37,3.37,0,0,0,1,.5,3.64,3.64,0,0,1,1.29-1.34,3.38,3.38,0,0,1,1.79-.49,3.51,3.51,0,0,1,1.07.16,3.47,3.47,0,0,0,.32-.8,3.46,3.46,0,0,0-.19-2.27,3.57,3.57,0,0,0-.84-1.17h0a4.61,4.61,0,0,0-.54-.39,4.74,4.74,0,0,0-.6-.3h0a3.48,3.48,0,0,0-1.18-.2,3.38,3.38,0,0,0-1.36.28,3.53,3.53,0,0,0-1.86,1.86A3.37,3.37,0,0,0,296,58.6Zm5.5,7.5a2.43,2.43,0,0,0,1-.2,2.52,2.52,0,0,0,.79-.54,2.56,2.56,0,0,0,.54-.8,2.41,2.41,0,0,0,.2-1,2.42,2.42,0,0,0-.76-1.79,2.57,2.57,0,0,0-.82-.52,2.67,2.67,0,0,0-1-.19,2.19,2.19,0,0,0-.94.21,2.52,2.52,0,0,0-.77.55,2.67,2.67,0,0,0-.52.8,2.37,2.37,0,0,0-.19.94,2.45,2.45,0,0,0,.2,1,2.49,2.49,0,0,0,1.33,1.33A2.45,2.45,0,0,0,301.5,66.1ZM301,53.6a1.4,1.4,0,0,0,.29.87,4.23,4.23,0,0,1,.53.27,4.67,4.67,0,0,1,.49.34h.19a1.47,1.47,0,0,0,.59-.12,1.49,1.49,0,0,0,.8-.8,1.52,1.52,0,0,0,0-1.17,1.49,1.49,0,0,0-.8-.8,1.52,1.52,0,0,0-1.17,0,1.49,1.49,0,0,0-.8.8A1.47,1.47,0,0,0,301,53.6Z"/>
<!-- Шестеренка  viewBox="452 14 24 24"-->
<path class="cls-1" d="M472.88,24.67s0,.09,0,.14,0,.09,0,.14,0,.09,0,.14,0,.09,0,.14l2,1.26-1.24,3L471.34,29q-.19.2-.39.39l.53,2.32-3,1.24-1.26-2h-.56l-1.26,2-3-1.24.53-2.32q-.2-.19-.39-.39l-2.32.53-1.24-3,2-1.26s0-.09,0-.14,0-.09,0-.14,0-.09,0-.14,0-.09,0-.14l-2-1.26,1.24-3,2.32.53q.19-.2.39-.39l-.53-2.32,3-1.24,1.26,2h.56l1.26-2,3,1.24L471,20.56q.2.19.39.39l2.32-.53,1.24,3Zm-.91,1,0-.37c0-.12,0-.25,0-.37s0-.24,0-.37l0-.37,1.84-1.15-.67-1.62-2.12.49a6.88,6.88,0,0,0-.5-.55c-.17-.17-.35-.33-.55-.5l.49-2.12-1.62-.67-1.16,1.84-.37,0-.37,0-.37,0-.37,0-1.15-1.84-1.62.67.49,2.12a6.71,6.71,0,0,0-.55.5q-.25.25-.5.55l-2.12-.49-.67,1.62,1.84,1.16,0,.37c0,.12,0,.25,0,.37s0,.24,0,.37l0,.37-1.84,1.15.67,1.63,2.12-.49a6.7,6.7,0,0,0,.5.55c.17.17.35.33.55.5l-.49,2.12,1.63.67L466.22,30l.37,0,.37,0,.37,0,.37,0,1.15,1.84,1.63-.67L470,29a6.87,6.87,0,0,0,.55-.5q.25-.25.5-.55l2.12.49.67-1.62ZM467,22a2.87,2.87,0,0,1,1.14.23,2.94,2.94,0,0,1,1.56,1.56,3,3,0,0,1,0,2.29,2.94,2.94,0,0,1-1.56,1.56,3,3,0,0,1-2.29,0,2.94,2.94,0,0,1-1.56-1.56,3,3,0,0,1,0-2.29,2.94,2.94,0,0,1,1.56-1.56A2.87,2.87,0,0,1,467,22Zm0,5a2,2,0,0,0,.8-.16,2.06,2.06,0,0,0,1.1-1.1,2.1,2.1,0,0,0,0-1.61,2.06,2.06,0,0,0-1.1-1.1,2.1,2.1,0,0,0-1.61,0,2.06,2.06,0,0,0-1.1,1.1,2.1,2.1,0,0,0,0,1.61,2.06,2.06,0,0,0,1.1,1.1A2,2,0,0,0,467,27Z"/>
<!-- Глаз viewBox="526 34 16 16" -->
	<path class="cls-1" d="M535.9,40.28a1.92,1.92,0,0,0-1.9.05,2,2,0,0,0-.1,3.43,1.95,1.95,0,0,0,2.09.05,2,2,0,0,0-.1-3.54Z"/>
	<path class="cls-1" d="M542,42.08a13.46,13.46,0,0,0-3.47-3l3.32-3.35-.72-.73-3.56,3.6A6.52,6.52,0,0,0,535,38a6.59,6.59,0,0,0-2.67.61L528.72,35l-.72.73,3.37,3.41A13.52,13.52,0,0,0,528,42.08,13.55,13.55,0,0,0,531.28,45L528,48.27l.72.73,3.5-3.54a6.17,6.17,0,0,0,5.45,0L541.13,49l.72-.73L538.63,45A13.52,13.52,0,0,0,542,42.08Zm-5.1,2.66a5,5,0,0,1-3.91,0,7.76,7.76,0,0,1-1-.47,12.19,12.19,0,0,1-2.68-2.14,12,12,0,0,1,2.77-2.19,7.53,7.53,0,0,1,1-.46A5.4,5.4,0,0,1,535,39a5.32,5.32,0,0,1,1.8.33,7.37,7.37,0,0,1,1,.46,12,12,0,0,1,2.87,2.25,12,12,0,0,1-2.77,2.19A7.54,7.54,0,0,1,536.9,44.73Z"/>
<!--Связать  viewBox="340 50 16 16" -->
<path class="cls-1" d="M348,60.33a2.24,2.24,0,0,1-.1,2.72l-3.54,3.54c-.83.83-2.36.63-3.44-.44s-1.27-2.61-.44-3.43l3.54-3.54a2.24,2.24,0,0,1,2.72-.1l-.65.65a1.85,1.85,0,0,0-.75-.18,1,1,0,0,0-.69.25l-3.54,3.54a1.06,1.06,0,0,0-.24.88,2.32,2.32,0,0,0,.68,1.29,2.21,2.21,0,0,0,1.49.69,1,1,0,0,0,.69-.25l3.54-3.54a1.28,1.28,0,0,0,.07-1.44Zm7-8.27c-1.07-1.07-2.61-1.27-3.44-.44l-3.54,3.54a2.24,2.24,0,0,0-.1,2.72l.66-.66a2,2,0,0,1-.17-.55,1.06,1.06,0,0,1,.24-.88l3.54-3.54a1,1,0,0,1,.69-.25,2.21,2.21,0,0,1,1.49.69A2.32,2.32,0,0,1,355.1,54a1.06,1.06,0,0,1-.24.88l-3.54,3.54a1,1,0,0,1-.69.25,1.84,1.84,0,0,1-.75-.18l-.65.65a2.24,2.24,0,0,0,2.72-.1l3.54-3.54C356.32,54.66,356.12,53.12,355,52.05Zm-5.16,5.79a.44.44,0,0,0,0-.63h0a.44.44,0,0,0-.63,0l-3.14,3.14a.44.44,0,0,0,0,.63h0a.44.44,0,0,0,.63,0Z"/>
<!-- Лист с открытым замочком viewBox="172 35 16 16" -->
<path class="cls-1" d="M184,40h-2V34H172l-2,2V50h10l2-2V46h3V40Zm-3,7.59L179.59,49H171V36.41L172.41,35H181v5h-1a4.66,4.66,0,0,0-.14-1.14,2.76,2.76,0,0,0-.44-1,2.19,2.19,0,0,0-.77-.66,2.82,2.82,0,0,0-2.3,0,2.18,2.18,0,0,0-.77.66,2.75,2.75,0,0,0-.44,1A4.63,4.63,0,0,0,175,40v1h1V39.5a1.47,1.47,0,0,1,.12-.59,1.49,1.49,0,0,1,.8-.8,1.52,1.52,0,0,1,1.17,0,1.49,1.49,0,0,1,.8.8,1.47,1.47,0,0,1,.12.59V40h-1v6h3ZM184,45h-5V41h5Z"/>
<!-- Лист с закртым замочком viewBox="185 34 16 16" -->
<path class="cls-1" d="M201,40a4.66,4.66,0,0,0-.14-1.14,2.76,2.76,0,0,0-.44-1A2.07,2.07,0,0,0,199,37V34H189l-2,2V50h10l2-2V46h3V40Zm-1.91-1.88a1.49,1.49,0,0,1,.8.8,1.47,1.47,0,0,1,.12.59V40h-3v-.5a1.47,1.47,0,0,1,.12-.59,1.49,1.49,0,0,1,.8-.8l.09,0a1.43,1.43,0,0,1,1,0ZM198,47.59,196.59,49H188V36.41L189.41,35H198v2a2.07,2.07,0,0,0-1.43.86,2.75,2.75,0,0,0-.44,1A4.63,4.63,0,0,0,196,40h-1v6h3ZM201,45h-5V41h5Z"/>
<!-- Глобус с диалогом -->
<path class="cls-1" d="M207.87,40.9l.13,0V41l-.07,0a.4.4,0,0,0-.17,0,.31.31,0,0,0-.14,0l-.12.07s0,0-.05,0a.44.44,0,0,1,.2-.09Zm9.41,1.19a.33.33,0,0,1,0,.14,1.71,1.71,0,0,1,0,.19,1.64,1.64,0,0,1,0,.2l0,.15q.19.3.29.48a1.88,1.88,0,0,1,.14.32.61.61,0,0,1,0,.24c0,.07,0,.15,0,.23s0,.18-.05.3a3,3,0,0,0,0,.46,1.37,1.37,0,0,0,.09.5l.2.48a7.15,7.15,0,0,1-1.13,1.34,7,7,0,0,1-1.41,1,7.21,7.21,0,0,1-1.61.64,6.73,6.73,0,0,1-3.44,0,3.59,3.59,0,0,0,.21-.3,3.2,3.2,0,0,0,.21-.39,1.82,1.82,0,0,0,.13-.4.51.51,0,0,0,0-.34s0,0,0,0,0,0,0-.06l.33.25a.57.57,0,0,0,.32-.11,1.23,1.23,0,0,0,.28-.27,1.63,1.63,0,0,0,.2-.34.88.88,0,0,0,.08-.34,3.73,3.73,0,0,1,.5-.27A1.93,1.93,0,0,0,213,46a.83.83,0,0,0,.27-.35,1.38,1.38,0,0,0,.06-.61l.27-.28a.58.58,0,0,0-.15-.34A2.84,2.84,0,0,0,213,44a5.28,5.28,0,0,0-.53-.39,6.4,6.4,0,0,0-.57-.34,5.18,5.18,0,0,0-.53-.24h0l-2.77,2.77c.06.16.12.33.17.49a2,2,0,0,1,.08.53,1.15,1.15,0,0,1-.05.33l-.1.33a2.88,2.88,0,0,0-.08.33.77.77,0,0,0,0,.33A6.66,6.66,0,0,1,207.13,47a7.13,7.13,0,0,1-1.87-3.16A6.76,6.76,0,0,1,205,42l.05-.84a3.79,3.79,0,0,0,.46.29,4.81,4.81,0,0,0,.54.26,4.75,4.75,0,0,0,.57.19,2.39,2.39,0,0,0,.54.08l.28.48s0,0,0,0l0-.07.57.32v-.34h0l-.3-.34a1.21,1.21,0,0,0-.3-.25.31.31,0,0,0-.34,0l-.1,0a1.27,1.27,0,0,1,.13-.34,3.57,3.57,0,0,0,.16-.33l-.45.16a1.46,1.46,0,0,1-.46.07.43.43,0,0,1-.38-.16.69.69,0,0,1-.11-.41l0-.35a.62.62,0,0,1,.23-.16.93.93,0,0,1,.27-.06h.29l.28,0-.16-.11.34,0a.89.89,0,0,1,.53.16.94.94,0,0,1,.33.45,1,1,0,0,0,0-.26q0-.12,0-.26a.53.53,0,0,1,0-.22V37.61a.35.35,0,0,1-.16-.06,2.21,2.21,0,0,1-.19-.23,1.68,1.68,0,0,0-.2-.23.45.45,0,0,0-.32-.11,6.59,6.59,0,0,1,.88-.7v-1.2h0A8.09,8.09,0,0,0,205.1,38a8.12,8.12,0,0,0-.81,1.91,7.93,7.93,0,0,0,0,4.24A8.12,8.12,0,0,0,205.1,46,8.09,8.09,0,0,0,208,48.9a8.12,8.12,0,0,0,1.91.81,7.93,7.93,0,0,0,4.24,0,8,8,0,0,0,3.53-2.06A8,8,0,0,0,218.9,46a8.16,8.16,0,0,0,.81-1.91A7.75,7.75,0,0,0,220,42h-3.14A2.7,2.7,0,0,0,217.29,42.09ZM220,34v7h-8l-3,3V34Zm-1,1h-9v6.59l1.29-1.29.29-.29H219Zm-4.5,4a1.5,1.5,0,1,0-1.5-1.5A1.5,1.5,0,0,0,214.5,39Z"/>
<!-- Пустой квадратик viewBox="423 50 16 16" -->
<path class="cls-1" d="M438,54V65H426V54h12m1-1H425V66h14V53Z"/>
<path class="cls-1" d="M458,51l-2,2H442V66h14V55l2-2Zm-3,14H443V54h12l-7,7-3-3v2l3,3,7-7Z"/><polygon class="cls-1" points="475 53 475 51 464.96 61.04 462 58 462 60 465 63 475 53"/>
<!-- Ссылка в карточке новостей  viewBox="476 50 16 16"-->
<path class="cls-1" d="M487.35,64l1-1v3H476V56h1v9h10.32Zm-1-4a10.19,10.19,0,0,0-2,.2,10,10,0,0,0-1.91.59,10.41,10.41,0,0,0-1.75.95A10.15,10.15,0,0,0,479.1,63V62a6.68,6.68,0,0,1,.26-1.86,6.88,6.88,0,0,1,.73-1.67,7.05,7.05,0,0,1,1.13-1.41A7.21,7.21,0,0,1,482.67,56a7.35,7.35,0,0,1,3.65-1V52L492,57.5,486.32,63Zm1-4h-.92c-.29,0-.56,0-.83,0a5.79,5.79,0,0,0-1.69.42,6,6,0,0,0-1.3.72,6.1,6.1,0,0,0-1.87,2.21,5.68,5.68,0,0,0-.48,1.37,10.88,10.88,0,0,1,2.9-1.32,11.35,11.35,0,0,1,3.17-.45h1v1.59l3.19-3.09-3.19-3.09Z"/>
<!-- График viewBox="494 50 16 16" -->
<path class="cls-1" d="M493,67V62h3v5Zm4,0V54h3V67Zm4,0V51h3V67Zm4-10h3V67h-3Z"/>
<!-- Линейки  viewBox="510 50 16 16" -->
<path class="cls-1" d="M520,52h6V67H510V51l10,10.18Zm-9,14h12.29L511,53.47Zm2-6.83,4.71,4.8H513Zm1,2.47v1.31h1.29ZM523.71,65l1,1H525V53h-4v1h2v1h-2v1h2v1h-2v1h3v1h-3v1h2v1h-2v.91h2v1h-1.29l1,1H524v1Z"/>
<!-- Колокольчик viewBox="355 50 16 16" -->
<path class="cls-1" d="M370.81,64.8a7,7,0,0,1-2.2-5.1V58.1a4,4,0,0,0-2.6-3.9,1.85,1.85,0,0,0,.5-1.2,2,2,0,1,0-4,0,1.85,1.85,0,0,0,.5,1.2,4.23,4.23,0,0,0-2.69,3.9v1.6a6.59,6.59,0,0,1-2.1,5.1.37.37,0,0,0-.2.5h0a.55.55,0,0,0,.5.3h4a2,2,0,0,0,2,1.4,2.17,2.17,0,0,0,2-1.4h4c.2,0,.4-.1.4-.3h0C371.11,65.1,370.91,65,370.81,64.8ZM364.53,52a1,1,0,1,1-1,1A1,1,0,0,1,364.53,52Z"/>
<g id="Layer_2" data-name="Layer 2">
	<g id="Layer_1-2" data-name="Layer 1-2">
		<!-- лист с завертушками и молоточком (свиток) viewBox="410 50 16 16" -->
	<path class="cls-1" d="M422.93,51.3a1.68,1.68,0,0,0-1-.3H412a2,2,0,0,0-2,2V63a1.93,1.93,0,0,0-1.69,1,1.82,1.82,0,0,0,0,2A2.05,2.05,0,0,0,410,67h9a2,2,0,0,0,2-2V64l-1-1v2a.94.94,0,0,1-1,1h-1a1,1,0,0,1,0-2h1V63h-8V53a.94.94,0,0,1,1-1h8.26c-.2,0-.3.6-.3,1v6l1,1V55h3V53A1.94,1.94,0,0,0,422.93,51.3ZM416,64h.3c-.2,0-.3.6-.3,1s.1,1,.3,1H410a1,1,0,0,1,0-2Zm7-10h-2V53a1,1,0,1,1,2,0Z"/>
	<path class="cls-1" d="M420.94,61l-1-1-2.79-2.8a.46.46,0,0,1,0-.5h0l1-1a.19.19,0,0,0,0-.3l-.1-.1-.8-.3a.66.66,0,0,0-.6.1l-.5.5a.45.45,0,0,1-.5,0h0a.45.45,0,0,0-.5,0h0l-.5.5a.46.46,0,0,0,0,.5h0a.46.46,0,0,1,0,.5h0a.86.86,0,0,1-.6.3h-.3a.86.86,0,0,0-.6.3h0a.46.46,0,0,0,0,.5h0l1.49,1.6a.45.45,0,0,0,.5,0h0c.2-.2.2-.4.3-.6v-.3a.87.87,0,0,1,.3-.6.45.45,0,0,1,.5,0h0L420,62.1l1,1,1.89,1.9a.45.45,0,0,0,.5,0h0l.5-.5a.46.46,0,0,0,0-.5h0Z"/>
	</g></g>
	<!-- Книжки на полке 93 шт) viewBox="360 50 16 16" -->
<g id="Layer_2-2" data-name="Layer 2"><g id="Layer_1-2-2" data-name="Layer 1-2">
	<path class="cls-1" d="M392,67h4V51h-4Zm1-13h2V66h-2Z"/>
	<path class="cls-1" d="M397,67h4V51h-4Zm1-13h2V66h-2Z"/>
	<path class="cls-1" d="M402,51V67h4V51Zm3,15h-2V54h2Z"/>
</g></g>
<g id="Layer_2-3" data-name="Layer 2"><g id="Layer_1-2-3" data-name="Layer 1-2">
	<!-- Валик viewBox="372 50 16 16" -->
<path class="cls-1" d="M387,58h-6v1h1v8h-3V59h1V57h7V54h-1v2H375V51h11v2h2v5Zm-7,8h1V60h-1Z"/></g></g>
<!-- Клонирование -->
<path class="cls-1" d="M539,57V51H527V61h4v6h12V57Zm-2-5h1v1h-1Zm-9,0h5v1h-5Zm3,8h-3V54h10v3h-7Zm6-2v1h-5V58Zm5,8H532V60h10Zm0-7h-1V58h1Z"/>
<path class="cls-1" d="M12,74V68H0V78H4v6H16V74Zm-2-5h1v1H10ZM1,69H6v1H1Zm3,8H1V71H11v3H9V73H8v1H4Zm6-2v1H5V75Zm5,8H5V77H9v3H8v1H9v1h1V81h1V80H10V77h5Zm0-7H14V75h1ZM8,72v1H5V72Zm0,7v1H7V79Zm4,1H11V79h1Z"/>
<path class="cls-1" d="M29,74V68H17V78h4v6H33V74Zm-2-5h1v1H27Zm-9,0h5v1H18Zm3,8H18V71H28v3H26.4c-.07-.08-.12-.17-.2-.24a5.9,5.9,0,0,0-1.92-1.3A5.83,5.83,0,0,0,22,72v1a4.81,4.81,0,0,1,1.32.18,5,5,0,0,1,1.18.5A4.91,4.91,0,0,1,25,74H21Zm5-2a5,5,0,0,1,.32.48,5,5,0,0,1,.26.52H22V75Zm6,8H22V77h4.84A5,5,0,0,1,27,78v2.33L25.47,78.5l-.57.58L27.45,82,30,79.08l-.57-.58-1.49,1.83V78a6.14,6.14,0,0,0-.1-1H32Zm0-7H31V75h1Z"/>
</svg>