<?xml version="1.0" encoding="utf-8"?>
<!-- Generator: Adobe Illustrator 19.1.1, SVG Export Plug-In . SVG Version: 6.00 Build 0)  -->
<svg version="1.1" id="Слой_1" xmlns="http://www.w3.org/2000/svg" xmlns:xlink="http://www.w3.org/1999/xlink" x="0px" y="0px"
	 viewBox="0 0 1088 1088" style="enable-background:new 0 0 1088 1088;" xml:space="preserve">
<style type="text/css">
	.st0{opacity:0.1;enable-background:new    ;}
	.st1{enable-background:new    ;}
</style>
<rect x="68" class="st0" width="32" height="32"/>
<rect x="102" class="st0" width="32" height="32"/>
<rect x="136" class="st0" width="32" height="32"/>
<rect x="170" class="st0" width="32" height="32"/>
<rect x="204" class="st0" width="32" height="32"/>
<rect x="238" class="st0" width="32" height="32"/>
<rect x="272" class="st0" width="32" height="32"/>
<rect x="306" class="st0" width="32" height="32"/>
<rect x="340" class="st0" width="32" height="32"/>
<rect x="374" class="st0" width="32" height="32"/>
<rect x="476" class="st0" width="32" height="32"/>
<rect x="408" class="st0" width="32" height="32"/>
<rect x="442" class="st0" width="32" height="32"/>
<rect x="510" class="st0" width="32" height="32"/>
<rect x="544" class="st0" width="32" height="32"/>
<polyline class="st0" points="610,0 610,32 578,32 578,0 "/>
<rect x="612" class="st0" width="32" height="32"/>
<rect x="748" class="st0" width="32" height="32"/>
<rect x="782" class="st0" width="32" height="32"/>
<rect x="816" class="st0" width="32" height="32"/>
<rect x="850" class="st0" width="32" height="32"/>
<rect x="884" class="st0" width="32" height="32"/>
<rect x="918" class="st0" width="32" height="32"/>
<rect x="954" y="0.2" class="st0" width="32" height="32"/>
<rect x="988" y="0.2" class="st0" width="32" height="32"/>
<rect x="1022" y="0.2" class="st0" width="32" height="32"/>
<rect x="1056" y="0.2" class="st0" width="32" height="32"/>
<rect x="0" y="34" class="st0" width="32" height="32"/>
<rect x="34" y="34" class="st0" width="32" height="32"/>
<rect x="68" y="34" class="st0" width="32" height="32"/>
<rect x="102" y="34" class="st0" width="32" height="32"/>
<rect x="136" y="34" class="st0" width="32" height="32"/>
<rect x="170" y="34" class="st0" width="32" height="32"/>
<rect x="204" y="34" class="st0" width="32" height="32"/>
<rect x="238" y="34" class="st0" width="32" height="32"/>
<rect x="272" y="34" class="st0" width="32" height="32"/>
<rect x="306" y="34" class="st0" width="32" height="32"/>
<rect x="340.1" y="34" class="st0" width="32" height="32"/>
<rect x="374.1" y="34" class="st0" width="32" height="32"/>
<rect x="410.1" y="34" class="st0" width="32" height="32"/>
<rect x="444.1" y="34" class="st0" width="32" height="32"/>
<rect x="478.1" y="34" class="st0" width="32" height="32"/>
<rect x="512.1" y="34" class="st0" width="32" height="32"/>
<rect x="646" class="st0" width="32" height="32"/>
<rect x="680" class="st0" width="32" height="32"/>
<rect x="34" class="st0" width="32" height="32"/>
<path d="M0,22l3.6-11L0,0l32,11L0,22z M5.4,10h17.2L3.2,3.4L5.4,10z M3.2,18.6L22.6,12H5.4L3.2,18.6z"/>
<path d="M90.3,4h-4V2.2c0-1-1-2.2-2-2.2h-8c-1,0-2,1.2-2,2.2V4h-4c-1,0-2,1.2-2,2.2v4c0,1,1,2,2,2v18c0,1,1,1.8,2,1.8h16
	c1,0,2-0.8,2-1.8v-18c1,0,2-1,2-2v-4C92.3,5.2,91.3,4,90.3,4z M76.3,2h8v2h-8V2z M88.3,30h-16V12h16V30z M90.3,10h-20V6h20V10z"/>
<path d="M129,8c2,0,3-1.4,3-3s-0.8-3-3-3c-2.4,0-3,2-3,4.6l-3.2,3.2c-1.2-1.2-3-1.8-4.8-1.8s-3.6,0.6-4.8,1.8l-3.4-3.4
	c0-0.6,0.2-1,0.2-1.4c0-1.6-1.4-3-3-3s-3,1.4-3,3s1.4,3,3,3c0.4,0,0.8-0.2,1.2-0.4l3.4,3.4c-1,1.4-1.6,3.2-1.6,5
	c0,1.2,0.2,2.2,0.8,3.2l-4.4,3c-0.4,0-0.8-0.2-1.4-0.2c-1.6,0-3,1.4-3,3s1.4,3,3,3s3-1.4,3-3c0-0.4,0-0.8-0.2-1.2l4-2.8
	c0.8,1,1.6,1.6,2.8,2.2l-1,2.8c-0.8,0.2-1.6,1-1.6,2c0,1.2,0.8,2,2,2s2-0.8,2-2c0-0.6-0.2-1-0.6-1.4l1-2.8c0.6,0,1,0.2,1.6,0.2
	c1.4,0,2.6-0.4,3.6-1l2.8,2.2c-0.4,0.4-0.6,1-0.6,1.6c0,1.6,1.4,3,3,3c1.6,0,3-1.4,3-3S128.6,24,127,24c-0.4,0-0.8,0-1,0.2l-2.6-2.2
	c1.6-1.6,2.6-3.6,2.6-6c0-1.8-0.6-3.6-1.8-4.8l3-3C127.8,8,128.4,8,129,8z M120.6,19l-0.6,0.4c-0.6,0.4-1.2,0.6-2,0.6
	c-2.2,0-4-1.8-4-4s1.8-4,4-4s4,1.8,4,4C122,17.2,121.4,18.4,120.6,19z"/>
<path d="M167.2,27.6l-2.8-2.8c1.2-2.6,0.8-6-1.4-8.2c-2.8-2.8-7.4-2.8-10.2,0s-2.8,7.4,0,10.2c2.2,2.2,5.4,2.6,8.2,1.4l2.8,2.8
	c1,1,2.6,1,3.6,0c0.4-0.4,0.6-1.2,0.6-1.8C168,28.4,167.8,28.2,167.2,27.6z M161.2,25c-1.8,1.8-4.8,1.8-6.6,0s-1.8-4.8,0-6.6
	c1.8-1.8,4.8-1.8,6.6,0C163,20.2,163,23.2,161.2,25z M158.6,5.4l0.2,1l2,1.8l0.6,0.2l0.6-1.2l2.6-0.2l0.4-0.2
	c1.6,2.6,2.6,5.6,2.6,8.8c0,2.6-0.6,5.2-1.8,7.4c0.4-2.6-0.4-5.4-2.2-7.4c-1.6-1.6-3.6-2.4-5.8-2.4c-1.4,0-2.8,0.4-4,1l1.8-2.2
	l2.6-1.4l1.6,0.2L160,10l-2-1.2l-0.8-1h-1L155.6,7l-1.4-0.4L154,8l-1.6-0.4l-0.4-1l1.2-0.4l0.4-1.8l1.2,0.6v0.8l1.2,0.4l0.6,0.2
	l0.8-0.4l-0.8-0.8l-1.4-1.4V3.2l1.4,0.2l1.2,1.2L158.6,5.4z M151.6,14.8l1,0.4c-0.2,0.2-0.4,0.2-0.4,0.4c-0.2,0.4-0.2,0.4-0.4,0.6
	h-0.6l-0.6,0.6l-0.4-1.4L151.6,14.8z M157.8,30c0.6,0,1,0,1.6-0.2c-1.2,0.6-2.4,1.2-3.8,1.4l0.2-1l0.6-0.4C157,30,157.4,30,157.8,30
	z M153.8,29c-0.2,0.4-0.2,0.8-0.2,0.8l0.2,2c-0.6,0-1.4,0.2-2,0.2C143,32,136,24.8,136,16c0-3,0.8-5.6,2.2-8l1.2-0.2l-1.2,1.4
	L139,10h1.8l3.2-1.2l2,2.2v2.6l1.4,4.4h0.6v-2.2l0.8,1.8l1.6,0.4c-0.6,1.2-0.8,2.4-0.8,3.6c0,2.2,0.8,4.4,2.4,5.8
	C152.6,28.2,153.2,28.6,153.8,29z M142,5l2.8-0.4l1.2-0.8l1.4,0.4l2.4-0.2l0.8-1.2l1.2,0.2l2.8-0.2l0.8-1l1.2-0.8l1.4,0.4h0.6
	c-2-1-4.4-1.4-6.8-1.4c-5,0-9.4,2-12.2,6l0,0L142,5z M152.6,1.4l1.6-0.8l1,0.6l-1.6,1.2l-1.4,0.2l-0.6-0.8L152.6,1.4z M147.8,1.4
	l0.6,0.4l1-0.2l0.6,0.8L147.8,3l-1-0.6C146.8,2.2,147.8,1.6,147.8,1.4z"/>
<path d="M180.1,0c-5.6,0-10,4.6-10,10.2c0,2.6,1.2,5.6,2.2,7.6c1.6,3,7.4,13.4,7.4,13.4l0.4,0.8l0.4-0.8c0-0.2,5.6-10.2,7.4-13.4
	c1-1.8,2.2-5.2,2.2-7.6C190.1,4.6,185.7,0,180.1,0z M186.3,16.8c-1.2,2.2-4.4,7.8-6.2,11c-1.8-3.2-5-9-6-11c-1-1.8-2-4.6-2-6.6
	c0-4.6,3.6-8.2,8-8.2s8,3.6,8,8.2C188.1,12.2,187.1,15.2,186.3,16.8z M184.1,10c0,2.2-1.8,4-4,4s-4-1.8-4-4s1.8-4,4-4
	S184.1,7.8,184.1,10z"/>
<path d="M512,32V0h28v32H512z M538,2h-24v8h24V2z M538,12h-24v8h24V12z M538,22h-24v8h24V22z M528,28h-4l-2-4h8L528,28z M528,18h-4
	l-2-4h8L528,18z M528,8h-4l-2-4h8L528,8z"/>
<g>
	<rect x="552" y="2" width="4" height="2"/>
	<polygon points="548,4 550,4 550,2 546,2 546,6 548,6 	"/>
	<rect x="558" y="2" width="4" height="2"/>
	<polygon points="568,16 568,14 566,14 566,16 561.4,16 557.4,12 560,12 560,10 554,10 554,16 556,16 556,13.4 560,17.4 560,22 
		558,22 558,24 560,24 560,30 574,30 574,16 	"/>
	<rect x="566" y="8" width="2" height="4"/>
	<polygon points="566,6 568,6 568,2 564,2 564,4 566,4 	"/>
	<polygon points="548,20 546,20 546,24 550,24 550,22 548,22 	"/>
	<rect x="546" y="8" width="2" height="4"/>
	<rect x="552" y="22" width="4" height="2"/>
	<rect x="546" y="14" width="2" height="4"/>
</g>
<path d="M760,6.8l9.2,9.2l-9.2,9.2V6 M758,2v28l14-14L758,2L758,2z"/>
<path d="M892,30v-6h-6V2h22v6h6v22H892z M906,10V8V4h-18v18h4h2h12V10z M912,10h-4v14h-14v4h18V10z M892,16h10v2h-10V16z M892,12h10
	v2h-10V12z M892,8h10v2h-10V8z"/>
<g>
	<g>
		<path d="M946,2h-26c-1,0-2,0.8-2,2v24.2c0,1,0.8,2,2,2h26c1,0,2-0.8,2-2V4C948,2.8,947.2,2,946,2z M946,28h-26V4h26V28z M934,12
			h-2v2h2V12z M934,8h-2v2h2V8z M938,19l-1.4-1.4l-2.6,2.8V16h-2v4.4l-2.8-2.8l-1.4,1.4l5,5L938,19z"/>
	</g>
</g>
<path d="M1058,16.2c0-7.8,6.2-14,14-14v-2c-8.8,0-16,7.2-16,16s7.2,16,16,16v-2C1064.2,30.2,1058,24,1058,16.2z"/>
<g>
	<path d="M41.6,23.8l3-0.6c0.2,0.2,0.4,0.4,0.4,0.4l-0.6,3l3.8,1.8l1.6-2.4H50h0.2h0.2h0.2l1.6,2.4l3.8-1.8l-0.6-3
		c0.2-0.2,0.4-0.4,0.4-0.4l3,0.6l1.4-3.8L58,18.4v-0.2V18v-0.2v-0.2l2.2-1.4l-1.8-3.8l-3,0.6c-0.2-0.2-0.4-0.4-0.4-0.4l0.6-3L52,7.8
		L50.4,10h-0.2H50h-0.2h-0.2L48,7.8l-3.8,1.8l0.6,3c-0.2,0.2-0.4,0.4-0.4,0.4l-3-0.6L39.8,16l2.2,1.8V18v0.2v0.2v0.2L39.8,20
		L41.6,23.8z M50,14c2.2,0,4,1.8,4,4s-1.8,4-4,4s-4-1.8-4-4S47.8,14,50,14z"/>
	<path d="M34,0v32h32V0H34z M64,30H36V6h28V30z M64,4H36V2h28V4z"/>
</g>
<path d="M232,10V4h-16V0h-12v24h28l4-14H232z M206,2h8v4h16v4h-21.8l-2.2,7V2z M230.6,22H230h-23.2l2.8-10H230h2h1.4l-1.4,4.8
	L230.6,22z"/>
<g>
	<path d="M696,0v14.6l-4,4V16h-2v6h6v-2h-2.6l4-4H712V0H696z M710,14h-12V2h12V14z"/>
	<polygon points="710,30 682,30 682,2 694,2 694,0 680,0 680,32 712,32 712,18 710,18 	"/>
</g>
<g>
	<path d="M662,32V17.4l4-4V16h2v-6h-6v2h2.6l-4,4H646v16H662z M648,18h12v12h-12V18z"/>
	<polygon points="648,2 676,2 676,30 664,30 664,32 678,32 678,0 646,0 646,14 648,14 	"/>
</g>
<rect x="714" class="st0" width="32" height="32"/>
<g>
	<polygon points="730,0 730,14.6 726,18.6 726,16 724,16 724,22 730,22 730,20 727.4,20 731.4,16 746,16 746,0 	"/>
	<polygon points="744,30 716,30 716,2 728,2 728,0 714,0 714,32 746,32 746,18 744,18 	"/>
</g>
<path d="M814,8c0-2-2-4-4-4l0,0h-6V2c0-1-1-2-2-2h-8c-1,0-2,1-2,2v2h-6l0,0c-2,0-4,2-4,4l0,0l0,0v4v2v12v2c0,2,2,4,4,4h24
	c2,0,4-2,4-4v-2V14v-2V8L814,8L814,8z M794,2h8v2h-8V2z M812,28c0,1.2-1,2-2,2s-22.8,0-24,0c-0.6,0-2-0.8-2-2.2c0-0.2,0-1,0-1.8
	c0-2,0-7.2,0-9c1.8,1.2,6.6,2.6,10,3v2h8v-2c3.4-0.4,8.2-1.6,10-2.8c0,1.6,0,6.8,0,9C812,27,812,27.6,812,28z M796,20L796,20v-2h4v2
	l0,0H796z M812,14c0,1.2-5,3-10,3.8V16h-8v1.8c-5-0.6-10-2.6-10-3.8c0,0,0-1,0-2c0-0.8,0-3.4,0-3.8c0-1.4,1.2-2.2,2-2.2l0,0
	c0.8,0,8,0,8,0h8c0,0,7,0,8,0l0,0l0,0c0.8,0,2,0.8,2,2l0,0l0,0c0,0.4,0,3.2,0,4C812,13,812,14,812,14z"/>
<path d="M322,2l-16,28h32L322,2z M322,6l12.6,22h-25.2L322,6z M330,26h-16l8-15L330,26z"/>
<path d="M356,0c-8.8,0-16,7.2-16,16s7.2,16,16,16s16-7.2,16-16S364.8,0,356,0z M356,30c-7.8,0-14-6.2-14-14s6.2-14,14-14
	s14,6.2,14,14S363.8,30,356,30z M358,24c0,1.2-0.8,2-2,2s-2-0.8-2-2c0-1,0.8-2,2-2l0,0C357.2,22,358,23,358,24z M354,6h4v14h-4V6z"
	/>
<path d="M844,4L844,4h-6V2c0-1-1-2-2-2h-8l0,0h-10c-1.2,0-2,1-2,2v6l0,0v4l0,0v2v12v2c0,2,2,4,4,4h24c2,0,4-2,4-4v-2V14v-2V8l0,0
	C848,6,846,4,844,4z M836,2v2h-6V2l0,0H836z M818,6h1.6h2.4l0,0V4V2h2v2v2l0,0h4v2h-4v4h-2V8h-4l0,0V6z M846,26c0,1,0,1.6,0,2
	c0,1.2-1,2-2,2s-22.8,0-24,0c-0.6,0-2-0.8-2-2.2c0-0.2,0-1,0-1.8c0-2,0-7.2,0-9c1.8,1.2,6.6,2.6,10,3v2h8v-2c3.4-0.4,8.2-1.6,10-2.8
	C846,18.8,846,24,846,26z M830,20L830,20v-2h4v2l0,0H830z M846,12c0,1,0,2,0,2c0,1.2-5,3-10,3.8V16h-8v1.8c-3-0.4-6-1.2-8-2.2
	c-0.6-0.4-1.2-0.6-1.6-1c-0.2-0.2-0.4-0.4-0.4-0.6l0,0h10c1,0,2-1,2-2V6h6c0,0,7,0,8,0l0,0l0,0c0.8,0,2,0.8,2,2l0,0l0,0
	C846,8.6,846,11.2,846,12z"/>
<path d="M870,30h-4h-4l2-9l2-9h-2h-2v-1v-1h4h4l-2,9l-2,9h2h2v1V30z M867,8c-0.8,0-1.6-0.4-2-1c-0.6-0.6-1-1.4-1-2s0.4-1.6,1-2.2
	s1.2-1,2-1s1.6,0.4,2,1c0.6,0.6,1,1.2,1,2.2s-0.4,1.6-1,2C868.6,7.6,867.8,8,867,8z"/>
<path d="M1033,28.2h4h4c0,1.2-0.4,2-1.2,2.8c-0.8,0.8-1.8,1.2-2.8,1.2s-2-0.4-2.8-1.2C1033.4,30.2,1033,29.4,1033,28.2z M1050,26.2
	h-13h-13l0.2-0.6l0.2-0.6c1.4-1.8,2-5.2,2.4-8s0.4-5.2,0.4-5.2c0-2,1-4,2.6-5.4s3.8-2.2,6-2.4l0,0l0,0V2.6V1.2c0-0.4,0-0.6,0.2-0.8
	s0.4-0.2,0.8-0.2s0.6,0.2,0.8,0.2c0.2,0.2,0.2,0.4,0.2,0.8v1.6v1.4l0,0l0,0c2.4,0.2,4.6,1.2,6,2.6c1.6,1.4,2.6,3.2,2.6,5.2
	c0,0,0,2.4,0.4,5.2s1,6.2,2.4,8l0.2,0.6L1050,26.2z M1046.4,24.2c-1-2-1.6-5-1.8-7.4s-0.2-4.6-0.2-4.8c0-1.6-0.8-2.8-2-4
	c-1.2-1-3-1.8-4.8-1.8h-0.8h-0.6c-2,0-3.8,0.8-5,1.8s-2,2.4-2,4c0,0.2,0,2.2-0.2,4.8s-0.8,5.4-1.8,7.4h9.6H1046.4z"/>
<path d="M28,48H14v2h2v16h-6V50h2v-1.8V46h14v-6h-2v4H2V34h22v4h4v2.2V48L28,48z M12,64h2V52h-2V64z"/>
<path d="M62,66c-1.2,0-2.2-0.4-2.8-1.2C58.4,64,58,63,58,62c0-1.8,4-8,4-8s4,6,4,8c0,1.2-0.4,2.2-1.2,2.8C64,65.6,63,66,62,66z
	 M61.2,52h-2h-2l-5,5.4l-5,5.4c-0.4,0.4-0.8,0.6-1.2,0.8c-0.4,0.2-1,0.2-1.4,0.2c-0.6,0-1-0.2-1.4-0.2c-0.4-0.2-0.8-0.4-1.2-0.8
	l-3.4-3.4L35.2,56c-0.8-0.8-1-1.6-1-2.6s0.4-1.8,1-2.6l2.4-2.6l2.4-2.6l0,0l0,0v-3v-3c0-1.6,0.6-3,1.4-4c1-1,2.2-1.6,3.6-1.6
	c1.2,0,2.4,0.2,3.4,1s1.6,2,1.6,4.6l0,0l0,0l6,5.6l6,5.6c0.2,0.2,0.2,0.2,0.2,0.4C62.2,51.6,61.6,52,61.2,52z M45,36
	c-0.8,0-1.6,0.4-2,1s-1,1.6-1,2.6v2v2l6-5.8c-0.2-1-0.6-1.6-1.2-1.8C46.2,36,45.6,36,45,36z M50,42.4v3.4v3.4c0,0.4-0.2,0.6-0.4,0.8
	c-0.2,0.2-0.4,0-0.6,0s-0.6,0-0.6-0.2C48,49.6,48,49.2,48,49v-4.2v-4.2l-5.8,5.8l-5.8,5.8C36,52.4,36,53,36,53.4
	c0,0.4,0.2,0.8,0.4,1.2l3.4,3.4l3.4,3.4c0.2,0.2,0.4,0.2,0.6,0.4c0.2,0,0.4,0,0.6,0s0.4,0,0.6-0.2c0.2,0,0.4-0.2,0.6-0.2l5-5.4
	l5-5.4c0.2-0.2,0.4-0.4,0.8-0.4C56.6,50,57,50,57.2,50h0.6h0.6l-4-3.8L50,42.4z"/>
<path d="M390,0c-8.8,0-16,7.2-16,16s7.2,16,16,16s16-7.2,16-16S398.8,0,390,0z M390,26c-1.2,0-2-0.8-2-2c0-1,0.8-2,2-2l0,0
	c1.2,0,2,1,2,2C392,25.2,391.2,26,390,26z M392,20h-4V6h4V20z"/>
<path d="M88,56H68V44h20v2H70v8h18V56z M72,52v-4h12v4H72z M92,58.4c2,1,2.6,1.6,4,1.6l0,0v2l0,0c-1.8,0-3.4-0.6-5-1.8
	c-0.8,0.6-1.6,1-2.4,1.2s-1.8,0.4-2.6,0.4l0,0v-2l0,0c1.6,0,2-0.6,4-1.4v-17c0-0.4-1.2-0.8-1.8-1C87.6,40.2,86.8,40,86,40l0,0v-2
	l0,0c1,0,1.8,0.2,2.6,0.4c0.8,0.2,1.6,0.6,2.4,1.2c1.4-1.2,3-1.6,5-1.6l0,0v2l0,0c-1.6,0-2,0.4-4,1.4V58.4z M100,44v12h-6v-2h4v-8
	h-4v-2H100z"/>
<path d="M118,38h12v16h-14v-4h-10v16h-2V34h14V38z M106,48h10V36h-10V48z M128,52V40h-10v12H128z"/>
<path d="M160,60l-8,6l-8-6h-8c0,0,0-18,0-26h32v26H160z M166,36h-28v22h6.2h0.6l0.6,0.4l6.8,5l6.8-5l0.6-0.4h0.6h6L166,36L166,36z
	 M144,50h16v2h-16V50z M144,46h16v2h-16V46z M144,42h16v2h-16V42z"/>
<path d="M214.2,57l-7.6-7.6L204,52l10.2,10L236,40.6l-2.6-2.6L214.2,57z"/>
<path d="M302,62v2h-28v-2H302z M280,60h-2l8.8-26h2.2l9,26h-2l-2.4-6h-11.2L280,60z M282.8,52H293l-5-15L282.8,52z"/>
<path d="M322,34l10,30h-2l-2.6-8h-12.6l-2.8,8h-2l10-30H322z M315.4,54h11.4l-5.6-17.4L315.4,54z"/>
<path d="M250,4V0h-12v10v2v12h28V12v-2V4H250z M264,22h-24V12h24V22z M240,10V2h8v4h16v4H240z"/>
<path d="M284,4V0h-12v24h28V4H284z M298,22h-24V2h8v4h16V22z"/>
<path d="M371.9,35c-0.2-0.6-0.8-1-1.6-1h-28.8c-0.6,0-1.2,0.4-1.4,1c-0.2,0.6-0.2,1.4,0.4,1.8L352.1,49v15v2h2.2h4h1.8v-2V49
	l11.4-12.2C372.1,36.4,372.3,35.6,371.9,35z M358.1,48v16h-4V48l-11.4-12h27.2L358.1,48z M347.9,38h16.2l-8,8L347.9,38z"/>
<path d="M405.9,35c-0.2-0.6-0.8-1-1.6-1h-28.8c-0.6,0-1.2,0.4-1.4,1c-0.2,0.6-0.2,1.4,0.4,1.8L386.1,49v15v2h2.2h4h1.8v-2V49
	l11.4-12.2C406.1,36.4,406.3,35.6,405.9,35z M392.1,48v16h-4V48l-11.4-12h27.2L392.1,48z"/>
<path d="M463.3,60l4.6,4.6l-1.2,1.2l-6.8-6.8l6.8-6.8l1.2,1.2l-4.6,4.6h12.8v2C476.1,60,463.3,60,463.3,60z M467.9,46.6l-1.2,1.2
	l-6.8-6.8l6.8-6.8l1.2,1.2l-4.6,4.6h12.8v2h-12.8L467.9,46.6z M444.1,52h14v14h-14V52z M446.1,64h10V54h-10V64z M444.1,34h14v14h-14
	V34z M446.1,46h10V36h-10V46z M448.1,38h6v6h-6V38z"/>
<path d="M495.5,50l12.6,12.6l-1.4,1.4l-12.6-12.6L481.5,64l-1.4-1.4L492.7,50l-12.6-12.6l1.4-1.4l12.6,12.6L506.7,36l1.4,1.4
	L495.5,50z"/>
<path d="M529.5,50l8.6,8.6l-1.4,1.4l-8.6-8.6l-8.6,8.6l-1.4-1.4l8.6-8.6l-8.6-8.6l1.4-1.4l8.6,8.6l8.6-8.6l1.4,1.4L529.5,50z"/>
<rect x="546.1" y="34" class="st0" width="32" height="32"/>
<rect x="580.1" y="34" class="st0" width="32" height="32"/>
<rect x="648.1" y="34" class="st0" width="32" height="32"/>
<rect x="682.1" y="34" class="st0" width="32" height="32"/>
<rect x="716.1" y="34" class="st0" width="32" height="32"/>
<rect x="750.1" y="34" class="st0" width="32" height="32"/>
<rect x="784" y="34" class="st0" width="32" height="32"/>
<rect x="818" y="34" class="st0" width="32" height="32"/>
<rect x="852" y="34" class="st0" width="32" height="32"/>
<rect x="886" y="34" class="st0" width="32" height="32"/>
<rect x="920" y="34" class="st0" width="32" height="32"/>
<rect x="954" y="34" class="st0" width="32" height="32"/>
<rect x="988" y="34" class="st0" width="32" height="32"/>
<rect x="1022" y="34" class="st0" width="32" height="32"/>
<rect x="1056" y="34" class="st0" width="32" height="32"/>
<rect x="0" y="68" class="st0" width="32" height="32"/>
<rect x="34" y="68" class="st0" width="32" height="32"/>
<rect x="68" y="68" class="st0" width="32" height="32"/>
<rect x="102" y="68" class="st0" width="32" height="32"/>
<rect x="136" y="68" class="st0" width="32" height="32"/>
<rect x="614.1" y="34" class="st0" width="32" height="32"/>
<path d="M563.5,50l4.6,4.6l-1.4,1.4l-4.6-4.6l-4.6,4.6l-1.4-1.4l4.6-4.6l-4.6-4.6l1.4-1.4l4.6,4.6l4.6-4.6l1.4,1.4L563.5,50z"/>
<path d="M604.5,38.8l2.8,2.8L586.9,62h-2.8v-2.8L604.5,38.8 M604.5,36l-22.4,22.4V64h5.6l22.4-22.4L604.5,36L604.5,36z"/>
<path d="M678.1,52v10c0,1-0.8,2-2,2h-26c-1,0-2-0.8-2-2V52h2v10h26V52H678.1z M672.1,51l-1.4-1.4l-6.6,6.8V36h-2v20.4l-6.8-6.8
	l-1.2,1.4l9,9L672.1,51z"/>
<path d="M813.8,60l-2-5.6l-2-5.6l-2-5.6l-2-5.6c0-0.2-0.2-0.4-0.2-0.6c-0.2-0.2-0.2-0.4-0.4-0.4s-0.4-0.2-0.6-0.2
	c-0.2-0.4-0.4-0.4-0.6-0.4h-0.2h-0.2h-0.2l0,0c0,0-0.4,0.2-0.8,0.2c-0.6,0.2-1.2,0.4-1.8,0.6c-0.6,0.2-1.4,0.6-1.8,0.8s-1,0.6-1,0.8
	v-0.2l0,0l0,0V38c0-0.2,0-0.4-0.2-0.8c-0.2-0.2-0.2-0.4-0.4-0.6c-0.2-0.2-0.4-0.4-0.6-0.4c-0.2-0.2-0.6-0.2-0.8-0.2h-2.6h-2.6h-2.6
	H786c-0.2,0-0.6,0-0.8,0.2s-0.4,0.2-0.6,0.4s-0.4,0.4-0.4,0.6S784,37.8,784,38v6v6v6v6c0,0.2,0,0.6,0.2,0.8c0,0.2,0.2,0.4,0.4,0.6
	c0.2,0.2,0.4,0.4,0.6,0.4s0.6,0.2,0.8,0.2h2.6h2.6h2.6h2.6c0.2,0,0.6,0,0.8-0.2s0.4-0.2,0.6-0.4c0.2-0.2,0.4-0.4,0.4-0.6
	c0.2-0.2,0.2-0.6,0.2-0.8v-5.4v-5.4V46v-5.4l2,5.6l2,5.6l2,5.6l2,5.6c0,0.2,0.2,0.4,0.2,0.6c0.2,0.2,0.4,0.4,0.4,0.4
	s0.4,0.2,0.6,0.2s0.4,0.2,0.6,0.2c0,0,0.4-0.2,0.8-0.2c0.4-0.2,1-0.4,1.6-0.6s1.2-0.4,1.6-0.6s0.6-0.2,0.6-0.2
	c0.2-0.2,0.4-0.2,0.6-0.4c0.2-0.2,0.4-0.4,0.4-0.6c0.2-0.2,0.2-0.4,0.2-0.8C814,60.6,814,60.2,813.8,60z M790,62h-1h-1h-1h-1v-6v-6
	v-6v-6h1h1h1h1v6v6v6V62z M796,62h-1h-1h-1h-1v-6v-6v-6v-6h1h1h1h1v6v6v6V62z M807.6,62l-2-5.6l-2-5.6l-2-5.6l-2-5.6l1-0.4l1.2-0.4
	l1-0.4L804,38l2,5.6l2,5.6l2,5.6l2,5.6l-1,0.4l-1,0.4l-1.2,0.4L807.6,62z"/>
<g>
	<path d="M849,34c0,0,0.2,0,0.4,0s0.2,0,0.4,0.2c0,0.2,0.2,0.2,0.2,0.4s0,0.2,0,0.4c0,0.2,0,0.2,0,0.4s0,0.2-0.2,0.4l-5.6,5.6
		l-5.8,5.6c0.2,0.4,0.6,0.8,0.8,1.2c0.2,0.4,0.4,0.8,0.4,1.2c0,0.4,0.2,0.8,0.2,1.4c0,0.4,0.2,0.8,0.2,1.4c0,0.6,0,1-0.2,1.6
		c0,0.6-0.2,1-0.4,1.4c-0.2,0.6-0.4,1-0.8,1.4c-0.4,0.4-0.6,0.8-1,1.2l-0.6,0.6l-0.6,0.6l-1.8,3.6l-1.8,3.6l-7.6-7.6L818,51l3.6-1.8
		l3.6-1.8l0.6-0.6l0.6-0.6c0.4-0.4,0.8-0.8,1.2-1c0.4-0.4,0.8-0.6,1.4-0.8c0.6-0.2,1-0.4,1.6-0.4s1-0.2,1.6-0.2s1,0,1.4,0.2
		c0.4,0,0.8,0.2,1.2,0.2c0.4,0.2,0.8,0.4,1.2,0.6c0.4,0.2,0.8,0.4,1.2,0.6l5.8-5.6l5.6-5.6C848.8,34.2,848.8,34,849,34
		S849,34,849,34z M834.6,58.2l-4.4-4.4l-4.4-4.4l-2.2,1.2l-2.2,1.2l5.6,5.6l5.6,5.6l1.2-2.2L834.6,58.2z M836,56.6
		c0.4-0.4,0.6-0.6,0.8-1c0.2-0.4,0.4-0.8,0.6-1c0.2-0.4,0.4-0.8,0.4-1.2s0.2-0.8,0.2-1.2s0-0.8-0.2-1.2s-0.2-0.8-0.2-1.2
		c-0.2-0.4-0.4-0.8-0.6-1s-0.4-0.6-0.8-1c-0.4-0.4-0.6-0.6-1-0.8s-0.6-0.4-1-0.6S833.4,46,833,46s-0.8,0-1.2,0c-0.6,0-1,0-1.4,0.2
		c-0.4,0-0.8,0.2-1,0.4c-0.4,0.2-0.8,0.4-1,0.6c-0.4,0.2-0.6,0.4-1,0.8l4.4,4.4L836,56.6z"/>
</g>
<g>
	<path d="M893.4,48L888,64h2l1.4-4h6.2l1.4,4h2.2l-5.4-16H893.4z M892.2,58l2.4-7l2.4,7H892.2z"/>
	<path d="M912.6,43.2l-1.8-1.2c-0.2,0-0.6,0-0.8,0h-10v2h9l-3,2h-8v2h7.8l0.2,4c0,0-3.6,0-4,0c0.2,0.4,2,2,2,2h4c0,0,0-4,0-6h8v-2
		h-7.2C910.2,45,912.6,43.2,912.6,43.2z"/>
	<polygon points="908,38 908,36 906,36 906,38 898,38 898,42 900,42 900,40 914,40 914,42 916,42 916,38 	"/>
</g>
<path d="M470.6,4c-2.2-2.4-7-4-12.6-4s-10.4,1.6-12.6,4c-0.8,1-1.4,2-1.4,3v18c0,0.4,0,0.6,0.2,1c1,3.4,6.8,6,13.8,6
	s12.8-2.6,13.8-6c0-0.4,0.2-0.6,0.2-1V7C472,6,471.6,5,470.6,4z M470,25c0-2-4.6-5-12-5s-12,3-12,5V10.6c2.4,2,6.8,3.4,12,3.4
	s9.6-1.4,12-3.4V25z M458,12c-7.4,0-12-3-12-5s4.6-5,12-5s12,3,12,5S465.4,12,458,12z"/>
<path d="M436.6,4c-2.2-2.4-7-4-12.6-4s-10.4,1.6-12.6,4c-0.8,1-1.4,2-1.4,3v18c0,0.4,0,0.6,0.2,1c1,3.4,6.8,6,13.8,6
	s12.8-2.6,13.8-6c0-0.4,0.2-0.6,0.2-1V7C438,6,437.6,5,436.6,4z M424,2c7.4,0,12,3,12,5s-4.6,5-12,5s-12-3-12-5S416.6,2,424,2z
	 M436,25c0,2-4.6,5-12,5s-12-3-12-5V10.6c2.4,2,6.8,3.4,12,3.4s9.6-1.4,12-3.4V25z"/>
<path d="M504.6,4c-2.2-2.4-7-4-12.6-4s-10.4,1.6-12.6,4c-0.8,1-1.4,2-1.4,3v5v1v5v1v6c0,0.4,0,0.6,0.2,1c1,3.4,6.8,6,13.8,6
	s12.8-2.6,13.8-6c0-0.4,0.2-0.6,0.2-1v-6v-1v-5v-1V7C506,6,505.6,5,504.6,4z M492,2c7.4,0,12,3,12,5s-4.6,5-12,5s-12-3-12-5
	S484.6,2,492,2z M492,30c-7.4,0-12-3-12-5v-2.4c2.4,2,6.8,3.4,12,3.4s9.6-1.4,12-3.4V25C504,27,499.4,30,492,30z M504,19
	c0,2-4.6,5-12,5s-12-3-12-5v-1v-1.4c2.4,2,6.8,3.4,12,3.4s9.6-1.4,12-3.4V18V19z M504,13c0,2-4.6,5-12,5s-12-3-12-5v-1v-1.4
	c2.4,2,6.8,3.4,12,3.4s9.6-1.4,12-3.4V12V13z"/>
<g>
	<path d="M594,0c-8.8,0-16,7.2-16,16s7.2,16,16,16s16-7.2,16-16S602.8,0,594,0z M594,30c-7.8,0-14-6.2-14-14s6.2-14,14-14
		s14,6.2,14,14S601.8,30,594,30z"/>
	<polygon points="594,16 594,11 594,6 593,6 592,6 592,12 592,18 596,18 600,18 600,17 600,16 597,16 	"/>
</g>
<g class="st1">
	<path d="M974.8,19c0.8,0.2,1.4,0.6,2,0.8s1.2,0.8,1.8,1.2c0.6,0.4,1,1,1.6,1.4c0.4,0.6,1,1,1.4,1.6s0.8,1.2,1,1.8s0.6,1.2,0.8,2
		c0.2,0.6,0.4,1.4,0.4,2.2s0.2,2.2,0.2,2.2h-1h-1c0,0,0-1.6-0.2-2.4s-0.4-1.6-0.6-2.2c-0.4-0.8-0.6-1.4-1-2s-0.8-1.2-1.4-1.8
		c-0.6-0.6-1.2-1-1.8-1.4s-1.4-0.8-2-1c-0.8-0.4-1.4-0.6-2.2-0.6c-0.8-0.2-1.6-0.2-2.4-0.2c-0.6,0-1.2,0-1.6,0.2
		c-0.6,0-1,0.2-1.6,0.4c-0.6,0.2-1,0.4-1.4,0.6s-1,0.4-1.4,0.6s-0.8,0.6-1.2,0.8c-0.4,0.4-0.8,0.6-1.2,1s-0.6,0.8-1,1.2
		s-0.6,0.8-0.8,1.2s-0.4,1-0.6,1.4c-0.2,0.4-0.4,1-0.6,1.4c-0.2,0.6-0.2,1-0.4,1.6s-0.6,1.2-0.6,1.2h-1h-1c0,0,0-1.4,0.2-2.2
		s0.2-1.4,0.4-2.2s0.4-1.4,0.8-2s0.6-1.2,1-1.8c0.4-0.6,0.8-1.2,1.4-1.6c0.4-0.6,1-1,1.6-1.4s1.2-0.8,1.8-1.2c0.6-0.4,1.4-0.6,2-1
		c-0.4-0.2-0.8-0.4-1.2-0.8c-0.4-0.2-0.8-0.6-1-0.8c-0.4-0.4-0.6-0.6-0.8-1s-0.6-0.8-0.8-1c-0.2-0.4-0.4-0.8-0.6-1.2
		c-0.2-0.4-0.4-0.8-0.4-1.2c-0.2-0.4-0.2-0.8-0.2-1.4s0-0.8,0-1.4c0-0.6,0-1.4,0.2-2s0.4-1.2,0.6-1.8c0.2-0.6,0.6-1.2,1-1.8
		s0.8-1,1.2-1.4s1-0.8,1.4-1.2s1-0.6,1.8-1c0.6-0.2,1.2-0.4,1.8-0.6s1.4-0.2,2-0.2s1.4,0,2,0.2s1.2,0.4,1.8,0.6s1.2,0.6,1.8,1
		s1,0.8,1.4,1.2s0.8,1,1.2,1.4s0.6,1,1,1.8c0.2,0.6,0.4,1.2,0.6,1.8s0.2,1.4,0.2,2c0,0.4,0,1,0,1.4s-0.2,0.8-0.2,1.4
		c-0.2,0.4-0.2,0.8-0.4,1.2s-0.4,0.8-0.6,1.2c-0.2,0.4-0.4,0.8-0.8,1c-0.2,0.4-0.6,0.6-0.8,1s-1.2,0.8-1.4,1
		C975.6,18.6,975.2,18.8,974.8,19z M962,10.2c0,0.6,0,1,0.2,1.6s0.2,1,0.4,1.6c0.2,0.4,0.4,1,0.8,1.4s0.6,0.8,1,1.2
		c0.4,0.4,0.8,0.6,1.2,1s0.8,0.6,1.4,0.8c0.4,0.2,1,0.4,1.6,0.4c0.4,0,0.8,0,1.4,0s1,0,1.6-0.2s1-0.2,1.6-0.4c0.4-0.2,1-0.4,1.4-0.8
		s0.8-0.6,1.2-1s0.6-0.8,1-1.2s0.6-0.8,0.8-1.4c0.2-0.4,0.4-1,0.4-1.6s0-0.8,0-1.4s0-1-0.2-1.6s-0.2-1-0.4-1.6s-0.4-1-0.8-1.4
		s-0.6-0.8-1-1.2c-0.4-0.4-0.8-0.6-1.2-1s-0.8-0.6-1.4-0.8c-0.4-0.2-1-0.4-1.6-0.4c-0.4,0-0.8,0-1.4,0s-1,0-1.6,0.2s-1,0.2-1.6,0.4
		c-0.4,0.2-1,0.4-1.4,0.8s-0.8,0.6-1.2,1s-0.6,0.8-1,1.2s-0.6,0.8-0.8,1.4s-0.4,1-0.4,1.6S962,9.6,962,10.2z"/>
</g>
<g>
	<path d="M644.1,62c0,1.4-1.2,2-2,2h-24c-1,0-2-0.6-2-2V38c0-1.4,0.4-2,2-2h20l2-2h-22c-2.6,0-4,1.2-4,4v24c0,2.6,1.2,4,4,4h24
		c2.8,0,4-1.2,4-4V40l-2,2V62z"/>
	<polygon points="625.9,54.2 630.5,52.4 646.1,36.8 643.3,34 627.7,49.6 	"/>
</g>
<path d="M1004,42c-2,0-3.8,0.6-5.4,1.2c-1.6,0.8-3.2,1.8-4.4,2.8s-2.2,2-3,2.8c-0.8,0.8-1.2,1.2-1.2,1.2s0.4,0.6,1.2,1.2
	c0.8,0.8,1.8,1.8,3,2.8s2.8,2,4.4,2.8s3.6,1.2,5.4,1.2s3.8-0.6,5.4-1.2c1.6-0.8,3.2-1.8,4.4-2.8s2.2-2,3-2.8s1.2-1.2,1.2-1.2
	s-0.4-0.6-1.2-1.2c-0.8-0.8-1.8-1.8-3-2.8s-2.8-2-4.4-2.8C1007.8,42.6,1006,42,1004,42z M1004,56c-1.2,0-2.4-0.2-3.6-0.6
	c-1.2-0.4-2.2-1-3.2-1.6c-1-0.6-1.8-1.4-2.6-2c-0.8-0.6-1.4-1.2-2-1.8c0.4-0.6,1.2-1.2,2-1.8c0.8-0.6,1.6-1.4,2.6-2
	c1-0.6,2-1.2,3.2-1.6c1.2-0.4,2.4-0.6,3.6-0.6c1.2,0,2.4,0.2,3.6,0.6c1.2,0.4,2.2,1,3.2,1.6c1,0.6,1.8,1.4,2.6,2
	c0.8,0.6,1.4,1.2,2,1.8c-0.4,0.6-1.2,1.2-2,1.8c-0.8,0.6-1.6,1.4-2.6,2c-1,0.6-2,1.2-3.2,1.6C1006.4,55.8,1005.2,56,1004,56z
	 M1004,46c0.6,0,1,0.2,1.6,0.4c0.4,0.2,1,0.4,1.2,0.8c0.4,0.4,0.6,0.8,0.8,1.2c0.2,0.4,0.4,1,0.4,1.6c0,0.6-0.2,1-0.4,1.6
	c-0.2,0.4-0.4,1-0.8,1.2c-0.4,0.4-0.8,0.6-1.2,0.8s-1,0.4-1.6,0.4s-1-0.2-1.6-0.4c-0.4-0.2-1-0.4-1.2-0.8c-0.4-0.4-0.6-0.8-0.8-1.2
	s-0.4-1-0.4-1.6c0-0.6,0.2-1,0.4-1.6c0.2-0.4,0.4-1,0.8-1.2c0.4-0.4,0.8-0.6,1.2-0.8C1003,46.2,1003.4,46,1004,46z"/>
<g>
	<path d="M1022,48h2v16h-2l0,0v2h30v-2h-2V48h2v-2h-30V48z M1042,48h6v16h-4.4h-1.6V48z M1034,48h6v16h-3h-3V48z M1026,48h6v16h-5
		l0,0h-1V48z"/>
	<polygon points="1038,34 1036,34 1022,42 1022,44 1052,44 1052,42 	"/>
</g>
<path d="M1086,49L1086,49L1086,49c0-0.8-0.4-1.6-1-2.2s-1.2-0.8-2-0.8c-0.6,0-1.2,0.2-1.8,0.6s-0.8,0.8-1,1.4h-2.2h-2.2l-0.8-1.4
	l-0.8-1.4l1-1.8l1-1.8c0.6,0.2,1.2,0,1.8-0.2c0.6-0.2,1-0.6,1.4-1.2c0.4-0.6,0.4-1.4,0.2-2.2s-0.6-1.4-1.4-1.8
	c-0.8-0.4-1.6-0.4-2.2-0.2s-1.4,0.6-1.8,1.4c-0.4,0.6-0.4,1-0.4,1.6s0.4,1,0.8,1.4l-1,1.6l-1,1.6h-1.6h-1.6l-1-1.6l-1-1.6
	c0.4-0.4,0.6-1,0.8-1.6c0-0.6,0-1.2-0.4-1.6c-0.4-0.6-1-1.2-1.8-1.4s-1.6,0-2.2,0.4c-0.8,0.4-1.2,1-1.4,1.8s-0.2,1.6,0.2,2.2
	c0.4,0.6,0.8,1,1.4,1.2c0.6,0.2,1.2,0.4,1.8,0.2l1,1.8l1,1.8l-0.8,1.4l-0.8,1.4h-2.2h-2.2c-0.2-0.6-0.6-1-1-1.4
	c-0.4-0.4-1-0.6-1.8-0.6s-1.4,0.2-2,0.8c-0.6,0.6-0.8,1.2-1,1.8v0.2V49l0,0l0,0l0,0l0,0c0,0.8,0.4,1.6,0.8,2.2
	c0.6,0.6,1.2,0.8,2.2,0.8c0.6,0,1.2-0.2,1.8-0.6c0.6-0.4,0.8-0.8,1-1.4h2.2h2.2l0.8,1.4l0.8,1.4l-1,1.8l-1,1.8
	c-0.6-0.2-1.2,0-1.8,0.2s-1,0.6-1.4,1.2c-0.4,0.6-0.4,1.4-0.2,2.2c0.2,0.8,0.6,1.4,1.4,1.8c0.8,0.4,1.6,0.4,2.2,0.2
	c0.6-0.2,1.4-0.6,1.8-1.4c0.4-0.6,0.4-1,0.4-1.6c0-0.6-0.4-1-0.8-1.4l1-1.6l1-1.6h1.6h1.6l1,1.6l1,1.6c-0.4,0.4-0.6,1-0.8,1.6
	c0,0.6,0,1.2,0.4,1.6c0.4,0.6,1,1.2,1.8,1.4c0.8,0.2,1.6,0,2.2-0.4c0.6-0.4,1.2-1,1.4-1.8s0.2-1.6-0.2-2.2c-0.4-0.6-0.8-1-1.4-1.2
	c-0.6-0.2-1.2-0.4-1.8-0.2l-1-1.8l-1-1.8l0.8-1.4l0.8-1.4h2.2h2.2c0.2,0.6,0.6,1,1,1.4c0.4,0.4,1,0.6,1.8,0.6s1.6-0.4,2.2-0.8
	C1085.6,50.6,1086,49.8,1086,49L1086,49L1086,49L1086,49L1086,49z"/>
<g>
	<path d="M32,84c0-0.8-0.2-1.6-0.6-2.2c-0.4-0.6-1-1.2-1.8-1.4c0.4-0.6,0.8-1.4,0.8-2.2c0-0.8-0.2-1.6-0.6-2.2
		c-0.4-0.6-0.8-1.2-1.4-1.4c-0.6-0.2-1.2-0.6-2-0.6h-0.2H26c0-0.8,0-1.6-0.4-2.2c-0.4-0.6-0.8-1.2-1.6-1.6c-0.4-0.2-0.6-0.4-1-0.4
		s-0.6-0.2-1-0.2s-0.8,0-1.2,0.2c-0.4,0.2-0.8,0.4-1.2,0.6c-0.4-0.8-0.8-1.4-1.4-1.8S16.8,68,16,68s-1.6,0.2-2.2,0.6
		c-0.6,0.4-1.2,1-1.4,1.8c-0.4-0.2-0.8-0.4-1.2-0.6c-0.4-0.2-0.8-0.2-1.2-0.2s-0.6,0-1,0.2c-0.4,0-0.6,0.2-1,0.4
		c-0.8,0.4-1.2,1-1.6,1.6C6,72.4,6,73.2,6,74H5.8H5.6c-0.6,0-1.4,0.2-2,0.6S2.4,75.4,2.2,76c-0.4,0.8-0.6,1.4-0.6,2.2
		c0,0.8,0.4,1.4,0.8,2.2c-0.6,0.4-1.2,0.8-1.8,1.4C0,82.4,0,83.2,0,84c0,0.8,0.2,1.6,0.6,2.2c0.4,0.6,1,1.2,1.8,1.4
		C2,88.2,1.6,89,1.6,89.8c0,0.8,0.2,1.6,0.6,2.2c0.4,0.6,0.8,1.2,1.4,1.4s1.2,0.6,2,0.6h0.2H6c0,0.8,0,1.6,0.4,2.2
		c0.4,0.6,0.8,1.2,1.6,1.6c0.4,0.2,0.6,0.4,1,0.4s0.6,0.2,1,0.2s0.8,0,1.2-0.2c0.4-0.2,0.8-0.4,1.2-0.6c0.4,0.8,0.8,1.4,1.4,1.8
		s1.4,0.6,2.2,0.6s1.6-0.2,2.2-0.6c0.6-0.4,1.2-1,1.4-1.8c0.4,0.2,0.8,0.4,1.2,0.6c0.4,0.2,0.8,0.2,1.2,0.2s0.6,0,1-0.2
		c0.4,0,0.6-0.2,1-0.4c0.8-0.4,1.2-1,1.6-1.6C26,95.6,26,94.8,26,94h0.2h0.2c0.6,0,1.4-0.2,2-0.6c0.6-0.4,1.2-0.8,1.4-1.4
		c0.4-0.8,0.6-1.4,0.6-2.2c0-0.8-0.4-1.4-0.8-2.2c0.6-0.4,1.2-0.8,1.8-1.4S32,84.8,32,84z M26.4,76c0.4,0,0.8,0,1,0.2
		c0.2,0.2,0.6,0.4,0.8,0.8s0.4,1,0.2,1.6s-0.4,1-1,1.2C27.2,79.8,27,80,27,80c-0.2,0-0.4,0-0.6,0c-0.4,0-0.8,0-1-0.2
		c-0.2-0.2-0.6-0.4-0.8-0.8s-0.4-1-0.2-1.6c0.2-0.6,0.4-1,1-1.2c0.2,0,0.4-0.2,0.4-0.2S26.2,76,26.4,76z M20.2,72.6
		c0.2-0.4,0.4-0.6,0.8-0.8c0.4-0.2,0.6-0.2,1-0.2c0.2,0,0.4,0,0.6,0c0.2,0,0.4,0.2,0.4,0.2c0.4,0.2,0.8,0.8,1,1.2s0,1-0.2,1.6
		c-0.2,0.4-0.4,0.6-0.8,0.8c-0.4,0.2-0.6,0.2-1,0.2c-0.2,0-0.4,0-0.6,0c-0.2,0-0.4-0.2-0.4-0.2c-0.4-0.2-0.8-0.8-1-1.2
		S20,73,20.2,72.6z M16,70c0.6,0,1,0.2,1.4,0.6S18,71.4,18,72s-0.2,1-0.6,1.4C17,73.8,16.6,74,16,74s-1-0.2-1.4-0.6S14,72.6,14,72
		s0.2-1,0.6-1.4C15,70.2,15.4,70,16,70z M9,71.8c0.2,0,0.4-0.2,0.4-0.2s0.4,0,0.6,0c0.4,0,0.8,0,1,0.2c0.2,0.2,0.6,0.4,0.8,0.8
		s0.4,1,0.2,1.6s-0.4,1-1,1.2c-0.2,0-0.4,0.2-0.4,0.2c-0.2,0-0.4,0-0.6,0c-0.4,0-0.8,0-1-0.2c-0.4-0.2-0.6-0.4-0.8-0.8
		C8,74.2,7.8,73.6,8,73C8.2,72.4,8.6,72.2,9,71.8z M3.8,77c0.2-0.4,0.4-0.6,0.8-0.8C5,76,5.2,76,5.6,76c0.2,0,0.4,0,0.6,0
		c0.2,0,0.4,0.2,0.4,0.2c0.4,0.2,0.8,0.8,1,1.2c0.2,0.4,0,1-0.2,1.6c-0.2,0.4-0.4,0.6-0.8,0.8C6.2,80,6,80,5.6,80
		c-0.2,0-0.4,0-0.6,0c-0.2,0-0.4-0.2-0.4-0.2c-0.4-0.2-0.8-0.8-1-1.2S3.6,77.4,3.8,77z M4,82c0.6,0,1,0.2,1.4,0.6S6,83.4,6,84
		s-0.2,1-0.6,1.4C5,85.8,4.6,86,4,86s-1-0.2-1.4-0.6C2.2,85,2,84.6,2,84s0.2-1,0.6-1.4C3,82.2,3.4,82,4,82z M3.8,91
		c-0.2-0.4-0.4-1-0.2-1.6c0.2-0.6,0.4-1,1-1.2C4.8,88.2,5,88,5,88s0.4,0,0.6,0c0.4,0,0.8,0,1,0.2c0.2,0.2,0.6,0.4,0.8,0.8
		c0.2,0.4,0.4,1,0.2,1.6s-0.4,1-1,1.2c-0.2,0-0.4,0.2-0.4,0.2c-0.2,0-0.4,0-0.6,0c-0.4,0-0.8,0-1-0.2C4.4,91.6,4,91.4,3.8,91z
		 M11.8,95.4c-0.2,0.4-0.4,0.6-0.8,0.8c-0.4,0.2-0.6,0.2-1,0.2c-0.2,0-0.4,0-0.6,0c-0.2,0-0.4-0.2-0.4-0.2C8.6,96,8.2,95.4,8,95
		c-0.2-0.4,0-1,0.2-1.6C8.4,93,8.6,92.8,9,92.6s0.6-0.2,1-0.2c0.2,0,0.4,0,0.6,0c0.2,0,0.4,0.2,0.4,0.2c0.4,0.2,0.8,0.8,1,1.2
		S12,95,11.8,95.4z M16,98c-0.6,0-1-0.2-1.4-0.6C14.2,97,14,96.6,14,96s0.2-1,0.6-1.4C15,94.2,15.4,94,16,94s1,0.2,1.4,0.6
		S18,95.4,18,96s-0.2,1-0.6,1.4C17,97.8,16.6,98,16,98z M18.4,92.8c-0.4-0.2-0.6-0.4-1-0.6C17,92,16.6,92,16.2,92s-0.8,0-1.2,0.2
		c-0.4,0.2-0.8,0.4-1,0.6c-0.2-0.4-0.4-0.8-0.6-1c-0.2-0.4-0.6-0.6-1-0.8c-0.4-0.2-0.6-0.4-1-0.4s-0.6-0.2-1-0.2h-0.2H10
		c0-0.4,0-0.8,0-1.2S9.8,88.4,9.6,88s-0.4-0.8-0.8-1c-0.4-0.2-0.6-0.4-1-0.6c0.2-0.4,0.4-0.8,0.6-1c0.2-0.2,0.2-0.8,0.2-1.2
		s0-0.8-0.2-1.2c-0.2-0.4-0.4-0.8-0.6-1c0.4-0.2,0.8-0.4,1-0.6c0.2-0.2,0.6-0.6,0.8-1C9.8,80,10,79.6,10,79.2s0-0.8,0-1.2h0.2h0.2
		c0.4,0,0.6,0,1-0.2c0.4,0,0.6-0.2,1-0.4c0.4-0.2,0.8-0.4,1-0.8s0.4-0.6,0.6-1c0.4,0.2,0.6,0.4,1,0.6s0.8,0.2,1.2,0.2s0.8,0,1.2-0.2
		s0.8-0.4,1-0.6c0.2,0.4,0.4,0.8,0.6,1c0.2,0.4,0.6,0.6,1,0.8c0.4,0.2,0.6,0.4,1,0.4s0.6,0.2,1,0.2h0.2h0.2c0,0.4,0,0.8,0,1.2
		s0.2,0.8,0.4,1.2c0.2,0.4,0.4,0.8,0.8,1c0.4,0.2,0.6,0.4,1,0.6c-0.2,0.4-0.4,0.8-0.6,1c-0.2,0.2,0,0.6,0,1c0,0.4,0,0.8,0.2,1.2
		s0.4,0.8,0.6,1c-0.4,0.2-0.8,0.4-1,0.6c-0.4,0.2-0.6,0.6-0.8,1c-0.2,0.4-0.4,0.8-0.4,1.2s0,0.8,0,1.2h-0.2h-0.2c-0.4,0-0.6,0-1,0.2
		c-0.4,0-0.6,0.2-1,0.4c-0.4,0.2-0.8,0.4-1,0.8C18.8,92,18.6,92.4,18.4,92.8z M23,96.2c-0.2,0-0.4,0.2-0.4,0.2c-0.2,0-0.4,0-0.6,0
		c-0.4,0-0.8,0-1-0.2c-0.4-0.2-0.6-0.4-0.8-0.8s-0.4-1-0.2-1.6c0.2-0.6,0.4-1,1-1.2c0.2,0,0.4-0.2,0.4-0.2s0.4,0,0.6,0
		c0.4,0,0.8,0,1,0.2c0.2,0.2,0.6,0.4,0.8,0.8c0.2,0.4,0.4,1,0.2,1.6S23.4,95.8,23,96.2z M28.2,91c-0.2,0.4-0.4,0.6-0.8,0.8
		C27,92,26.8,92,26.4,92c-0.2,0-0.4,0-0.6,0c-0.2,0-0.4-0.2-0.4-0.2c-0.4-0.2-0.8-0.8-1-1.2s0-1,0.2-1.6c0.2-0.4,0.4-0.6,0.8-0.8
		c0.4-0.2,0.6-0.2,1-0.2c0.2,0,0.4,0,0.6,0c0.2,0,0.4,0.2,0.4,0.2c0.4,0.2,0.8,0.8,1,1.2S28.4,90.6,28.2,91z M28,86
		c-0.6,0-1-0.2-1.4-0.6C26.2,85,26,84.6,26,84s0.2-1,0.6-1.4C27,82.2,27.4,82,28,82s1,0.2,1.4,0.6S30,83.4,30,84s-0.2,1-0.6,1.4
		C29,85.8,28.6,86,28,86z"/>
	<path d="M16,78c-1.6,0-3.2,0.6-4.2,1.8c-1,1-1.8,2.6-1.8,4.2s0.6,3.2,1.8,4.2c1,1,2.6,1.8,4.2,1.8s3.2-0.6,4.2-1.8
		c1-1,1.8-2.6,1.8-4.2s-0.6-3.2-1.8-4.2C19.2,78.6,17.6,78,16,78z M16,88c-1.2,0-2.2-0.4-2.8-1.2C12.4,86,12,85,12,84
		s0.4-2.2,1.2-2.8C14,80.4,15,80,16,80s2.2,0.4,2.8,1.2C19.6,82,20,83,20,84s-0.4,2.2-1.2,2.8C18.2,87.6,17.2,88,16,88z"/>
</g>
<g class="st1">
	<path d="M869.4,62h6.6v2h-17l-6.4-6.6c-0.2-0.2-0.4-0.6-0.6-1c-0.2-0.4-0.2-0.8-0.2-1s0-0.8,0.2-1c0.2-0.4,0.4-0.6,0.6-1L871.4,34
		l12.4,12.8L869.4,62z M866.6,62l2-2.2l-9.6-10l-4.8,5c-0.2,0.2-0.2,0.4-0.2,0.6s0,0.4,0.2,0.6l5.8,6H866.6z M871.6,37l-11.2,11.6
		l9.6,10l11.2-11.4L871.6,37z"/>
</g>
<path d="M100,68v24H90l2-2h6V70H70v20h6l2,2H68V68H100z M77.8,81.8L84,95.2l6.2-13.4L84.8,84L84,84.2L83.2,84L77.8,81.8 M94,78
	l-10,22L74,78l10,4L94,78L94,78z"/>
<path d="M130.2,68h-20H108v2v10v4h-3.8H102v2v10c0,1.4,1,2.8,2.2,3.4c0.6,0.4,1.4,0.6,2.2,0.6h2h20c2.2,0,3.8-1.8,3.8-4V70v-2H130.2
	z M108,96c0,1.2-0.8,2-2,2s-2-0.8-2-2V86h4V96z M130,96c0,1.2-0.6,2-1.8,2h-18.6c0.4-0.6,0.4-1.2,0.4-2V86v-2v-4V70h20L130,96
	L130,96z M126,80h-12v-2h12V80z M126,84h-12v-2h12V84z M126,88h-12v-2h12V88z"/>
<path d="M66,78c0-5.6-4.4-10-10-10c-2.2,0-4.4,0.8-6,2c-1.6-1.2-3.8-2-6-2c-5.6,0-10,4.4-10,10c0,4.2,2.6,7.6,6,9.2
	c0,0.2,0,0.6,0,0.8c0,5.6,4.4,10,10,10s10-4.4,10-10c0-0.2,0-0.6,0-0.8C63.4,85.6,66,82.2,66,78z M52,78.2C51.4,78,50.6,78,50,78
	s-1.4,0-2,0.2V78c0-2,0.8-3.8,2-5.2C51.2,74.2,52,76,52,78.2C52,78,52,78.2,52,78.2z M50,83.2c-0.8-0.8-1.4-2-1.6-3
	C49,80,49.4,80,50,80s1.2,0,1.6,0.2C51.4,81.4,50.8,82.4,50,83.2z M53.6,80.8c2,1,3.6,2.8,4.2,5c-0.6,0.2-1,0.2-1.6,0.2
	c-1.6,0-3.2-0.6-4.6-1.4C52.4,83.6,53.2,82.2,53.6,80.8z M48.6,84.6C47.4,85.4,45.8,86,44,86c-0.6,0-1.2,0-1.6-0.2
	c0.6-2.2,2.2-4,4.2-5C46.8,82.2,47.6,83.6,48.6,84.6z M36,78c0-4.4,3.6-8,8-8c1.6,0,3.2,0.6,4.6,1.4C47,73.2,46,75.4,46,78
	c0,0.2,0,0.6,0,0.8c-2.8,1.2-4.8,3.4-5.6,6.4C37.8,83.8,36,81.2,36,78z M58,88c0,4.4-3.6,8-8,8s-8-3.6-8-8v-0.2
	c0.6,0.2,1.4,0.2,2,0.2c2.2,0,4.4-0.8,6-2c1.6,1.2,3.8,2,6,2C56.6,88,57.4,88,58,88C58,87.8,58,88,58,88z M59.6,85.2
	c-0.8-2.8-3-5.2-5.6-6.4c0-0.2,0-0.6,0-0.8c0-2.6-1-4.8-2.6-6.6c1.2-0.8,2.8-1.4,4.6-1.4c4.4,0,8,3.6,8,8
	C64,81.2,62.2,83.8,59.6,85.2z"/>
<g>
	<rect x="612" y="14" width="4" height="2"/>
	<rect x="626" width="2" height="4"/>
	<rect x="615.9" y="23.2" transform="matrix(-0.7071 0.7071 -0.7071 -0.7071 1071.891 -395.5876)" width="4" height="2"/>
	<polygon points="638.4,5.2 637,3.8 634,6.6 635.4,8 	"/>
	<rect x="635.3" y="22.2" transform="matrix(-0.7071 0.7071 -0.7071 -0.7071 1103.2773 -408.5889)" width="2" height="4"/>
	<rect x="638" y="14" width="4" height="2"/>
	<path d="M629.8,14c-0.4-1.2-1.6-2-2.8-2c-0.4,0-0.8,0-1,0.2L621.6,8l-4.4-4.2l-0.6,0.6l-0.8,0.8l4.4,4.2l4.2,4.4
		c-0.2,0.2-0.4,0.8-0.4,1.2c0,1.6,1.4,3,3,3c1.4,0,2.4-0.8,2.8-2h2.2h2v-1v-1h-2H629.8z"/>
	<rect x="626" y="26" width="2" height="4"/>
</g>
<g>
	<path d="M948,49.4v0.2v0.2V50v0.2l4,2.6l-2.4,6l-4.6-1c-0.2,0.2-0.6,0.6-0.8,0.8l1,4.6l-6,2.4l-2.6-4h-0.2h-0.2H936h-0.2l-2.6,4
		l-6-2.4l1-4.6c-0.2-0.2-0.6-0.6-0.8-0.8l-4.6,1l-2.4-6l4-2.6V50v-0.2v-0.2v-0.2l-4-2.6l2.4-6l4.6,1c0.2-0.2,0.6-0.6,0.8-0.8l-1-4.6
		l6-2.4l2.6,4h0.2h0.2h0.2h0.2l2.6-4l6,2.4l-1,4.6c0.2,0.2,0.6,0.6,0.8,0.8l4.6-1l2.4,6L948,49.4z M946,51.4c0-0.2,0-0.6,0-0.8
		c0-0.2,0-0.4,0-0.8c0-0.2,0-0.4,0-0.8c0-0.2,0-0.4,0-0.8l3.8-2.4l-1.4-3.2l-4.2,1c-0.4-0.4-0.6-0.8-1-1.2c-0.4-0.4-0.8-0.6-1.2-1
		l1-4.2l-3.2-1.4l-2.4,3.8c-0.2,0-0.4,0-0.8,0c-0.2,0-0.4,0-0.8,0c-0.2,0-0.6,0-0.8,0c-0.2,0-0.4,0-0.8,0l-2.4-3.8l-3.2,1.4l1,4.2
		c-0.4,0.4-0.8,0.6-1.2,1c-0.4,0.4-0.6,0.8-1,1.2l-4.2-1l-1.4,3.2l3.8,2.4c0,0.2,0,0.6,0,0.8s0,0.4,0,0.8c0,0.2,0,0.4,0,0.8
		c0,0.2,0,0.4,0,0.8l-3.8,2.4l1.4,3.2l4.2-1c0.4,0.4,0.6,0.8,1,1.2c0.4,0.4,0.8,0.6,1.2,1l-1,4.2l3.2,1.4l2.4-3.8c0.2,0,0.4,0,0.8,0
		c0.2,0,0.4,0,0.8,0c0.2,0,0.4,0,0.8,0c0.2,0,0.4,0,0.8,0l2.4,3.8l3.2-1.4l-1-4.2c0.4-0.4,0.8-0.6,1.2-1c0.4-0.4,0.6-0.8,1-1.2
		l4.2,1l1.4-3.2L946,51.4z M936,44c0.8,0,1.6,0.2,2.4,0.4c0.8,0.4,1.4,0.8,1.8,1.2c0.6,0.6,1,1.2,1.2,1.8c0.4,0.8,0.4,1.4,0.4,2.4
		c0,0.8-0.2,1.6-0.4,2.4c-0.4,0.8-0.8,1.4-1.2,1.8c-0.6,0.6-1.2,1-1.8,1.2c-0.8,0.4-1.4,0.4-2.4,0.4s-1.6-0.2-2.4-0.4
		c-0.8-0.4-1.4-0.8-1.8-1.2c-0.6-0.6-1-1.2-1.2-1.8c-0.4-0.8-0.4-1.4-0.4-2.4c0-0.8,0.2-1.6,0.4-2.4c0.4-0.8,0.8-1.4,1.2-1.8
		c0.6-0.6,1.2-1,1.8-1.2C934.4,44.2,935.2,44,936,44z M936,54.2c0.6,0,1.2-0.2,1.6-0.4c0.4-0.2,1-0.6,1.4-0.8
		c0.4-0.2,0.6-0.8,0.8-1.4c0.2-0.6,0.4-1,0.4-1.6c0-0.6-0.2-1.2-0.4-1.6c-0.2-0.6-0.6-1-0.8-1.4c-0.4-0.4-0.8-0.6-1.4-0.8
		c-0.6-0.2-1-0.4-1.6-0.4s-1.2,0.2-1.6,0.4c-0.6,0.2-1,0.6-1.4,0.8c-0.4,0.4-0.6,0.8-0.8,1.4c-0.2,0.6-0.4,1-0.4,1.6
		c0,0.6,0.2,1.2,0.4,1.6c0.2,0.6,0.6,1,0.8,1.4c0.2,0.4,0.8,0.6,1.4,0.8C935,54,935.4,54.2,936,54.2z"/>
</g>
<path d="M741.1,36.8c1.4,1,2.6,2.2,3.8,3.6c1,1.4,1.8,2.8,2.4,4.6c0.6,1.6,0.8,3.4,0.8,5.2c0,1.4-0.2,2.8-0.6,4.2s-1,2.6-1.6,3.8
	c-0.6,1.2-1.6,2.2-2.6,3.2s-2,1.8-3.2,2.6c-1.2,0.6-2.4,1.2-3.8,1.6s-2.8,0.6-4.2,0.6c-1.4,0-2.8-0.2-4.2-0.6
	c-1.4-0.4-2.6-1-3.8-1.6c-1.2-0.6-2.2-1.6-3.2-2.6s-1.8-2-2.6-3.2c-0.6-1.2-1.2-2.4-1.6-3.8c-0.4-1.6-0.6-3-0.6-4.4
	c0-1.4,0.2-2.8,0.6-4.2c0.4-1.4,1-2.6,1.6-3.8c0.8-1.2,1.6-2.4,2.6-3.4s2.2-1.8,3.4-2.6h-4.2v-2h8v8h-2v-4.6
	c-0.6,0.2-2.4,1.4-3.4,2.2s-1.8,1.8-2.6,3c-0.6,1-1.2,2.2-1.6,3.6c-0.4,1.2-0.6,2.6-0.6,4c0,1.2,0.2,2.6,0.6,3.8
	c0.4,1.2,0.8,2.4,1.4,3.4s1.4,2,2.2,2.8c0.8,0.8,1.8,1.6,2.8,2.2c1,0.6,2.2,1,3.4,1.4c1.2,0.4,2.4,0.6,3.8,0.6
	c1.2,0,2.6-0.2,3.8-0.6c1.2-0.4,2.4-0.8,3.4-1.4c1-0.6,2-1.4,2.8-2.2s1.6-1.8,2.2-2.8s1-2.2,1.4-3.4s0.6-2.4,0.6-3.8
	c0-1.6-0.2-3-0.8-4.6c-0.6-1.4-1.2-2.8-2.2-4s-2-2.2-3.2-3s-2.6-1.6-4.2-2l0.6-2C738.1,35,739.7,35.8,741.1,36.8z"/>
<g>
	<path d="M698.1,34c1.4,0,2.8,0.2,4.2,0.6c1.4,0.4,2.6,1,3.8,1.6c1.2,0.6,2.2,1.6,3.2,2.6s1.8,2,2.6,3.2c0.6,1.2,1.2,2.4,1.6,3.8
		c0.4,1.4,0.6,2.8,0.6,4.2c0,1.4-0.2,2.8-0.6,4.2s-1,2.6-1.6,3.8c-0.6,1.2-1.6,2.2-2.6,3.2s-2,1.8-3.2,2.6c-1.2,0.8-2.4,1.2-3.8,1.6
		c-1.4,0.4-2.8,0.6-4.2,0.6s-2.8-0.2-4.2-0.6c-1.4-0.4-2.6-1-3.8-1.6s-2.2-1.6-3.2-2.6s-1.8-2-2.6-3.2c-0.6-1.2-1.2-2.4-1.6-3.8
		c-0.4-1.4-0.6-2.8-0.6-4.2c0-1.4,0.2-2.8,0.6-4.2c0.4-1.4,1-2.6,1.6-3.8c0.6-1.2,1.6-2.2,2.6-3.2s2-1.8,3.2-2.6
		c1.2-0.8,2.4-1.2,3.8-1.6S696.7,34,698.1,34z M684.1,50c0,1.4,0.2,2.8,0.6,4h5.6c0-0.6-0.2-1.4-0.2-2c0-0.6,0-1.4,0-2
		c0-0.6,0-1.4,0-2c0-0.6,0.2-1.4,0.2-2h-5.6C684.3,47.2,684.1,48.6,684.1,50z M693.5,36.8c-0.8,0.4-1.8,0.6-2.6,1.2
		c-0.8,0.4-1.6,1-2.2,1.6s-1.4,1.2-1.8,2s-1,1.6-1.4,2.4h5.2c0.2-0.6,0.2-1.2,0.4-1.8c0.2-0.6,0.4-1.2,0.6-1.8s0.6-1.2,0.8-1.8
		C692.9,37.8,693.1,37.2,693.5,36.8z M685.5,56c0.4,0.8,0.8,1.6,1.4,2.4s1.2,1.4,1.8,2c0.6,0.6,1.4,1.2,2.2,1.6
		c0.8,0.4,1.6,0.8,2.6,1.2c-0.4-0.6-0.8-1-1-1.6c-0.4-0.6-0.6-1.2-0.8-1.8s-0.4-1.2-0.6-1.8c-0.2-0.6-0.4-1.2-0.4-1.8h-5.2V56z
		 M703.9,54c0-0.6,0.2-1.4,0.2-2c0-0.6,0-1.4,0-2c0-0.6,0-1.4,0-2c0-0.6-0.2-1.4-0.2-2h-11.4c0,0.6-0.2,1.4-0.2,2c0,0.6,0,1.4,0,2
		c0,0.6,0,1.4,0,2c0,0.6,0.2,1.4,0.2,2H703.9z M698.1,36c-0.6,0-1,0.2-1.4,0.4s-0.8,0.6-1.2,1.2s-0.8,1-1,1.6
		c-0.2,0.6-0.6,1.2-0.8,1.8c-0.2,0.6-0.4,1.2-0.6,1.8c-0.2,0.6-0.2,1-0.4,1.4h10.8c0-0.4-0.2-0.8-0.4-1.4c-0.2-0.6-0.4-1.2-0.6-1.8
		c-0.2-0.6-0.4-1.2-0.8-1.8c-0.4-0.6-0.6-1-1-1.6s-0.8-0.8-1.2-1.2C699.1,36.2,698.7,36,698.1,36z M698.1,64c0.6,0,1-0.2,1.4-0.4
		c0.4-0.2,0.8-0.6,1.2-1.2c0.4-0.6,0.8-1,1-1.6c0.2-0.6,0.6-1.2,0.8-1.8c0.2-0.6,0.4-1.2,0.6-1.8s0.2-1,0.4-1.4h-10.8
		c0,0.4,0.2,0.8,0.4,1.4c0.2,0.6,0.4,1.2,0.6,1.8c0.2,0.6,0.4,1.2,0.8,1.8s0.6,1,1,1.6c0.4,0.6,0.8,0.8,1.2,1.2
		C697.1,63.8,697.5,64,698.1,64z M710.7,44c-0.4-0.8-0.8-1.6-1.4-2.4s-1.2-1.4-1.8-2s-1.4-1.2-2.2-1.6c-0.8-0.4-1.6-0.8-2.6-1.2
		c0.4,0.6,0.8,1,1,1.6c0.4,0.6,0.6,1.2,0.8,1.8s0.4,1.2,0.6,1.8c0.2,0.6,0.4,1.2,0.4,1.8h5.2V44z M702.7,63.2
		c0.8-0.4,1.8-0.6,2.6-1.2c0.8-0.4,1.6-1,2.2-1.6c0.6-0.6,1.4-1.2,1.8-2s1-1.6,1.4-2.4h-5.2c-0.2,0.6-0.2,1.2-0.4,1.8
		c-0.2,0.6-0.4,1.2-0.6,1.8s-0.6,1.2-0.8,1.8C703.3,62.2,703.1,62.8,702.7,63.2z M712.1,50c0-1.4-0.2-2.8-0.6-4h-5.6
		c0,0.6,0.2,1.4,0.2,2c0,0.6,0,1.4,0,2c0,0.6,0,1.4,0,2c0,0.6-0.2,1.4-0.2,2h5.6C711.9,52.8,712.1,51.4,712.1,50z"/>
</g>
<g>
	<circle cx="754.1" cy="50" r="2"/>
	<circle cx="766.1" cy="50" r="2"/>
	<circle cx="778.1" cy="50" r="2"/>
</g>
<g class="st1">
	<path d="M984.2,37.4c0.2,0.4,0.6,1,0.8,1.4c0.2,0.4,0.4,0.8,0.6,1.2c0.2,0.4,0.2,0.8,0.4,1.4c0,0.4,0.2,1,0.2,1.6
		c0,0.8-0.2,1.6-0.4,2.4s-0.6,1.4-1,2.2c-0.4,0.8-0.8,1.2-1.4,1.8c-0.6,0.6-1.2,1-1.8,1.4c-0.6,0.4-1.4,0.6-2.2,1
		c-0.8,0.2-1.6,0.4-2.4,0.4c-0.2,0-0.4,0-0.8,0c-0.2,0-0.4,0-0.8,0l-12.6,12.6c-0.6,0.6-1,0.8-1.8,1.2s-1.4,0.4-2,0.4
		c-0.8,0-1.4-0.2-2-0.4c-0.6-0.2-1.2-0.6-1.6-1.2c-0.4-0.4-0.8-1-1.2-1.6c-0.2-0.6-0.4-1.4-0.4-2c0-0.6,0.2-1.4,0.4-2
		c0.2-0.6,0.6-1.2,1.2-1.8L968,44.8c0-0.2,0-0.4,0-0.8c0-0.2,0-0.4,0-0.8c0-0.8,0.2-1.6,0.4-2.4s0.6-1.4,1-2.2
		c0.4-0.8,0.8-1.2,1.4-1.8c0.6-0.6,1.2-1,1.8-1.4c0.6-0.4,1.4-0.6,2.2-1c0.8-0.4,1.6-0.4,2.4-0.4c0.6,0,1,0,1.6,0.2
		c0.4,0,1,0.2,1.4,0.4c0.4,0.2,0.8,0.4,1.2,0.6s0.8,0.4,1.4,0.8l-6.2,6.2l1.6,1.6L984.2,37.4z M977,50c1,0,1.8-0.2,2.8-0.6
		c0.8-0.4,1.6-0.8,2.2-1.6c0.6-0.6,1.2-1.4,1.6-2.2c0.4-0.8,0.6-1.8,0.6-2.8c0-0.8-0.2-1.4-0.4-2.2l-5.6,5.6l-4.4-4.4l5.6-5.6
		c-0.8-0.2-1.4-0.4-2.2-0.4c-1,0-1.8,0.2-2.8,0.6c-0.8,0.4-1.6,0.8-2.2,1.6c-0.6,0.6-1.2,1.4-1.6,2.2C970.2,41,970,42,970,43
		c0,0.4,0,0.8,0,1s0.2,0.6,0.2,1l-13.4,13.4c-0.4,0.4-0.6,0.6-0.8,1c-0.2,0.4-0.2,0.8-0.2,1.2s0,0.8,0.2,1.2s0.4,0.8,0.6,1
		s0.6,0.6,1,0.6c0.4,0.2,0.8,0.2,1.2,0.2s0.8,0,1.2-0.2c0.4-0.2,0.8-0.4,1-0.8l13.4-13.4c0.4,0,0.6,0.2,1,0.2S976.6,50,977,50z"/>
</g>
<path d="M411.1,44h-1v-4v-4v-1v-1h1h1h6h6h1h1v1v1v4v4h-1h-1v-4v-4h-6h-6v4v4H411.1z M426.1,60h-1h-1h-3h-3h-1h-1h-2h-2h-1h-1v-1v-1
	v-1v-1v-1v-1v-1v-1v-1v-1v-1v-1v-1v-1h1h1h2h2h1h1h3h3h1h1h2h2h1h1v1v1v1v1v1v1v1v1v1v1v1v1v1v1h-1h-1h-2H426.1z M426.1,50h2h2v-1
	v-1h-2h-2v1V50z M426.1,54h2h2v-1v-1h-2h-2v1V54z M426.1,58h2h2v-1v-1h-2h-2v1V58z M416.1,56h-2h-2v1v1h2h2v-1V56z M416.1,52h-2h-2
	v1v1h2h2v-1V52z M416.1,48h-2h-2v1v1h2h2v-1V48z M424.1,56h-3h-3v1v1h3h3v-1V56z M424.1,52h-3h-3v1v1h3h3v-1V52z M424.1,48h-3h-3v1
	v1h3h3v-1V48z M441.7,45.8c-0.2-1.2-0.8-2.4-1.2-3.6c-0.6-1-1.2-2.2-2-3.2s-1.8-2-2.8-3h4.6v-2h-8v8h2v-4.6c1,1,1.8,1.8,2.6,2.8
	c0.8,1,1.4,1.8,1.8,2.8c0.6,1,0.8,2,1.2,3.2c0.2,1.2,0.4,2.4,0.4,3.8c0,1.2-0.2,2.6-0.6,3.8c-0.4,1.2-0.8,2.4-1.4,3.4
	s-1.4,2-2.2,2.8c-0.8,0.8-1.8,1.6-2.8,2.2c-1,0.6-2.2,1-3.4,1.4c-1.2,0.4-2.4,0.6-3.8,0.6v2c1.4,0,2.8-0.2,4.2-0.6
	c1.4-0.4,2.6-1,3.8-1.6c1.2-0.6,2.2-1.6,3.2-2.6s1.8-2,2.6-3.2c0.6-1.2,1.2-2.4,1.6-3.8c0.4-1.4,0.6-2.8,0.6-4.2
	C442.1,48.4,441.9,47,441.7,45.8z"/>
<path d="M264,50v-2h4v2H264z M260,40.6l2.8-2.8l1.4,1.4l-2.8,2.8L260,40.6z M253,58c-5,0-9-4-9-9s4-9,9-9s9,4,9,9S258,58,253,58z
	 M253,42c-3.8,0-7,3.2-7,7s3.2,7,7,7s7-3.2,7-7S256.8,42,253,42z M252,34h2v4h-2V34z M241.6,39l1.4-1.4l2.8,2.8l-1.2,1.6L241.6,39z
	 M242,50h-4v-2h4V50z M246,57.4l-2.8,2.8l-1.4-1.4l2.8-2.8L246,57.4z M254,64h-2v-4h2V64z M264.4,58.8l-1.4,1.4l-2.8-2.8l1.4-1.4
	L264.4,58.8z"/>
<path d="M186.2,36.4l-14.2,14l1.2,1.2l14.2-14c2.6-2.4,6.6-2.6,9-0.2c2.4,2.4,2.4,6.4-0.2,8.8l-4,4l-3.2,3.2l-7.6,7.4
	c-1.8,1.6-4.6,1.6-6.2,0c-1.8-1.6-1.8-4.4,0-6.2l9.4-9.2L186,44l4.2-4.2c1-1,2.8-1,3.8,0s1,2.6,0,3.6l-11.2,11L184,56l11.2-11
	c1.8-1.6,1.8-4.4,0-6.2c-1.8-1.6-4.6-1.6-6.2,0l-4.2,4.2l-1.4,1.4l-9.4,9.2c-2.4,2.4-2.4,6.2,0,8.6c2.4,2.4,6.4,2.4,8.8,0l7.6-7.4
	l3.2-3.2l4-4c3.2-3.2,3.4-8.2,0.2-11.2C194.6,33.2,189.4,33.2,186.2,36.4z"/>
<path d="M1015.6,27.8c-1.2-1.2-4.4-4.4-4.4-10.2v-3.2c0-3.6-2-6.6-5.2-7.8c0.6-0.6,1-1.6,1-2.4c0-2.2-1.8-4-4-4s-4,1.8-4,4
	c0,1,0.6,1.8,1,2.4c-3.2,1.2-5.4,4.2-5.4,7.8v3.2c0,5.8-3,9.2-4.2,10.2c-0.4,0.2-0.6,0.6-0.4,1c0.2,0.4,0.4,0.6,1,0.6h8
	c0.4,1.6,2,2.8,4,2.8c1.8,0,3.4-1.2,4-2.8h8c0.4,0,0.6,0,0.8-0.6C1016.2,28.4,1015.8,28.2,1015.6,27.8z M1003,2.4c1,0,2,0.8,2,1.8
	s-0.8,1.8-2,1.8c-1,0-2-0.8-2-1.8C1001.2,3.2,1002,2.4,1003,2.4z M1003,30.4c-0.6,0-1.2-0.4-1.6-0.8h3
	C1004.2,30.2,1003.6,30.4,1003,30.4z M1006,27.6L1006,27.6L1006,27.6h-6l0,0l0,0h-6.6c1.4-1.6,2.8-5.4,2.8-10v-3.2
	c0-3.4,3-6.2,6.6-6.2s6.6,2.8,6.6,6.2v3.2c0,4.8,1.8,8.4,3.2,10H1006z"/>
</svg>
