<?xml version="1.0" encoding="utf-8"?>
<!-- Generator: Adobe Illustrator 19.1.1, SVG Export Plug-In . SVG Version: 6.00 Build 0)  -->
<svg version="1.1" id="Слой_1" xmlns="http://www.w3.org/2000/svg" xmlns:xlink="http://www.w3.org/1999/xlink" x="0px" y="0px"
	 viewBox="-511 769 512 512" style="enable-background:new -511 769 512 512;" xml:space="preserve">
<path d="M-511,780l1.8-5.5l-1.8-5.5l16,5.5L-511,780z M-508.3,774h8.6l-9.7-3.3L-508.3,774z M-509.4,778.3l9.7-3.3h-8.6
	L-509.4,778.3z"/>
<path d="M-495,769v16h16v-16H-495z M-480,784h-14v-12h14V784z M-480,771h-14v-1h14V771z M-488.5,779.6c0.2,0.2,0.4,0.3,0.6,0.4
	s0.5,0.1,0.7,0.1c0.3,0,0.5,0,0.7-0.1c0.2-0.1,0.4-0.2,0.6-0.4s0.3-0.4,0.4-0.6s0.1-0.5,0.1-0.7c0-0.3,0-0.5-0.1-0.7
	s-0.2-0.4-0.4-0.6s-0.4-0.3-0.6-0.4c-0.2-0.1-0.5-0.1-0.7-0.1c-0.3,0-0.5,0-0.7,0.1c-0.2,0.1-0.4,0.2-0.6,0.4
	c-0.2,0.2-0.3,0.4-0.4,0.6c-0.1,0.3-0.1,0.5-0.1,0.7c0,0.3,0,0.5,0.1,0.7C-488.8,779.3-488.6,779.5-488.5,779.6z M-488.4,777.8
	c0.1-0.2,0.2-0.3,0.3-0.4c0.1-0.1,0.3-0.2,0.4-0.3c0.2-0.1,0.3-0.1,0.5-0.1s0.3,0,0.5,0.1c0.2,0.1,0.3,0.2,0.4,0.3s0.2,0.3,0.3,0.4
	c0.1,0.2,0.1,0.3,0.1,0.5c0,0.2,0,0.3-0.1,0.5c-0.1,0.2-0.2,0.3-0.3,0.4c-0.1,0.1-0.3,0.2-0.4,0.3c-0.2,0.1-0.3,0.1-0.5,0.1
	s-0.3,0-0.5-0.1c-0.2-0.1-0.3-0.2-0.4-0.3s-0.2-0.3-0.3-0.4c-0.1-0.2-0.1-0.3-0.1-0.5C-488.5,778.2-488.4,778-488.4,777.8z
	 M-491.4,781.2l1.5-0.3c0.1,0.1,0.2,0.2,0.2,0.2l-0.3,1.4l1.9,0.8l0.8-1.3h0.1h0.1h0.1h0.1l0.8,1.3l1.9-0.8l-0.3-1.5
	c0.1-0.1,0.2-0.2,0.2-0.2l1.5,0.3l0.8-1.9l-1.3-0.8v-0.1v-0.1v-0.1V778l1.3-0.8l-1-1.7l-1.5,0.3c-0.1-0.1-0.2-0.2-0.2-0.2l0.3-1.5
	l-1.9-0.8l-0.7,1.3h-0.1h-0.1h-0.1h-0.1l-0.8-1.3l-1.8,0.9l0.3,1.5c-0.1,0.1-0.2,0.2-0.2,0.2l-1.5-0.3l-0.8,1.9l1.3,0.8v0.1v0.1v0.1
	v0.1l-1.3,0.8L-491.4,781.2z M-490.3,778.8c0-0.1,0-0.2,0-0.2c0-0.1,0-0.2,0-0.2c0-0.1,0-0.2,0-0.2c0-0.1,0-0.2,0-0.2l-1.2-0.7
	l0.4-1l1.3,0.3c0.1-0.1,0.2-0.2,0.3-0.3c0.1-0.1,0.2-0.2,0.3-0.3l-0.3-1.3l1-0.4l0.7,1.2c0.1,0,0.2,0,0.2,0c0.1,0,0.2,0,0.2,0
	c0.1,0,0.2,0,0.2,0c0.1,0,0.2,0,0.2,0l1-1.4l1,0.4l-0.3,1.3c0.1,0.1,0.3,0.2,0.4,0.3s0.2,0.2,0.3,0.3l1.3-0.3l0.4,1l-1.1,0.8
	c0,0.1,0,0.1,0,0.2s0,0.2,0,0.2c0,0.1,0,0.2,0,0.2c0,0.1,0,0.2,0,0.2l1.2,0.7l-0.4,1l-1.3-0.3c-0.1,0.1-0.2,0.2-0.3,0.3
	c-0.1,0.1-0.2,0.2-0.3,0.3l0.3,1.3l-1,0.4l-0.7-1.2c-0.1,0-0.2,0-0.2,0c-0.1,0-0.2,0-0.2,0c-0.1,0-0.2,0-0.2,0c-0.1,0-0.2,0-0.2,0
	l-0.7,1.2l-1-0.4l0.3-1.3c-0.1-0.1-0.2-0.2-0.3-0.3c-0.1-0.1-0.2-0.2-0.3-0.3l-1.7,0.4l-0.4-1L-490.3,778.8z"/>
<path d="M-468,771h-2v-0.9c0-0.5-0.5-1.1-1-1.1h-4c-0.5,0-1,0.6-1,1.1v0.9h-2c-0.5,0-1,0.6-1,1.1v2c0,0.5,0.5,1,1,1v9
	c0,0.5,0.5,0.9,1,0.9h8c0.5,0,1-0.4,1-0.9v-9c0.5,0,1-0.5,1-1v-2C-467,771.6-467.5,771-468,771z M-475,770h4v1h-4V770z M-469,784h-8
	v-9h8V784z M-468,774h-10v-2h10V774z"/>
<path d="M-453.5,772c1,0,1.5-0.7,1.5-1.5c0-0.8-0.4-1.5-1.5-1.5c-1.2,0-1.5,1-1.5,2.3l-1.6,1.6c-0.6-0.6-1.5-0.9-2.4-0.9
	s-1.8,0.3-2.4,0.9l-1.7-1.7c0-0.3,0.1-0.5,0.1-0.7c0-0.8-0.7-1.5-1.5-1.5s-1.5,0.7-1.5,1.5c0,0.8,0.7,1.5,1.5,1.5
	c0.2,0,0.4-0.1,0.6-0.2l1.7,1.7c-0.5,0.7-0.8,1.6-0.8,2.5c0,0.6,0.1,1.1,0.4,1.6l-2.2,1.5c-0.2,0-0.4-0.1-0.7-0.1
	c-0.8,0-1.5,0.7-1.5,1.5c0,0.8,0.7,1.5,1.5,1.5s1.5-0.7,1.5-1.5c0-0.2,0-0.4-0.1-0.6l2-1.4c0.4,0.5,0.8,0.8,1.4,1.1l-0.5,1.4
	c-0.4,0.1-0.8,0.5-0.8,1c0,0.6,0.4,1,1,1s1-0.4,1-1c0-0.3-0.1-0.5-0.3-0.7l0.5-1.4c0.3,0,0.5,0.1,0.8,0.1c0.7,0,1.3-0.2,1.8-0.5
	l1.4,1.1c-0.2,0.2-0.3,0.5-0.3,0.8c0,0.8,0.7,1.5,1.5,1.5s1.5-0.7,1.5-1.5c0-0.8-0.6-1.4-1.4-1.4c-0.2,0-0.4,0-0.5,0.1l-1.3-1.1
	c0.8-0.8,1.3-1.8,1.3-3c0-0.9-0.3-1.8-0.9-2.4l1.5-1.5C-454.1,772-453.8,772-453.5,772z M-457.7,777.5l-0.3,0.2
	c-0.3,0.2-0.6,0.3-1,0.3c-1.1,0-2-0.9-2-2c0-1.1,0.9-2,2-2s2,0.9,2,2C-457,776.6-457.3,777.2-457.7,777.5z"/>
<path d="M-436.4,782.8l-1.4-1.4c0.6-1.3,0.4-3-0.7-4.1c-1.4-1.4-3.7-1.4-5.1,0c-1.4,1.4-1.4,3.7,0,5.1c1.1,1.1,2.7,1.3,4.1,0.7
	l1.4,1.4c0.5,0.5,1.3,0.5,1.8,0c0.2-0.2,0.4-0.6,0.4-0.9C-436,783.4-436.1,783-436.4,782.8z M-439.4,781.5c-0.9,0.9-2.4,0.9-3.3,0
	c-0.9-0.9-0.9-2.4,0-3.3s2.4-0.9,3.3,0C-438.5,779.1-438.5,780.6-439.4,781.5z M-440.7,771.8l0.1,0.5l1,0.9l0.3,0.1l0.3-0.6l1.3-0.1
	l0.2-0.1c0.8,1.3,1.3,2.8,1.3,4.4c0,1.3-0.3,2.6-0.9,3.7c0.2-1.3-0.2-2.7-1.1-3.7c-0.8-0.8-1.8-1.2-2.9-1.2c-0.7,0-1.4,0.2-2,0.5
	l0.9-1.1l1.3-0.7l0.8,0.1l0.1-0.4l-1-0.6l-0.4-0.5h-0.5l-0.3-0.4l-0.7-0.2l-0.1,0.7l-0.8-0.2l-0.2-0.5l0.6-0.2l0.2-0.9l0.6,0.3v0.4
	l0.6,0.2l0.3,0.1l0.4-0.2l-0.4-0.4l-0.7-0.7v-0.3l0.7,0.1l0.6,0.6L-440.7,771.8z M-444.2,776.5l0.5,0.2c-0.1,0.1-0.2,0.1-0.2,0.2
	c-0.1,0.1-0.1,0.1-0.2,0.2h-0.3l-0.3,0.3l-0.2-0.7L-444.2,776.5z M-441.1,784c0.3,0,0.5,0,0.8-0.1c-0.6,0.3-1.2,0.6-1.9,0.7l0.1-0.5
	l0.3-0.2C-441.5,784-441.3,784-441.1,784z M-443.1,783.5c-0.1,0.2-0.1,0.4-0.1,0.4l0.1,1c-0.3,0-0.7,0.1-1,0.1c-4.4,0-7.9-3.6-7.9-8
	c0-1.5,0.4-2.8,1.1-4l0.6-0.1l-0.6,0.7l0.4,0.4h0.9l1.6-0.5l1,1.1v1.3l0.7,2.1h0.3v-1.1l0.4,0.9l0.8,0.2c-0.3,0.6-0.4,1.2-0.4,1.8
	c0,1.1,0.4,2.2,1.2,2.9C-443.7,783.1-443.4,783.3-443.1,783.5z M-449,771.6l1.4-0.2l0.6-0.4l0.7,0.2l1.2-0.1l0.4-0.6l0.6,0.1
	l1.4-0.1l0.4-0.5l0.6-0.4l0.7,0.2h0.3c-1-0.5-2.2-0.7-3.4-0.7c-2.5,0-4.7,1-6.1,3l0,0L-449,771.6z M-443.7,769.8l0.8-0.4l0.5,0.3
	l-0.8,0.6l-0.7,0.1l-0.3-0.4L-443.7,769.8z M-446.1,769.8l0.3,0.2l0.5-0.1l0.3,0.4l-1.1,0.3l-0.5-0.3
	C-446.6,770.2-446.1,769.9-446.1,769.8z"/>
<path d="M-431,769c-2.8,0-5,2.3-5,5.1c0,1.3,0.6,2.8,1.1,3.8c0.8,1.5,3.7,6.7,3.7,6.7l0.2,0.4l0.2-0.4c0-0.1,2.8-5.1,3.7-6.7
	c0.5-0.9,1.1-2.6,1.1-3.8C-426,771.3-428.2,769-431,769z M-427.9,777.4c-0.6,1.1-2.2,3.9-3.1,5.5c-0.9-1.6-2.5-4.5-3-5.5
	c-0.5-0.9-1-2.3-1-3.3c0-2.3,1.8-4.1,4-4.1s4,1.8,4,4.1C-427,775.1-427.5,776.6-427.9,777.4z M-429,774c0,1.1-0.9,2-2,2s-2-0.9-2-2
	c0-1.1,0.9-2,2-2S-429,772.9-429,774z"/>
<path d="M-410.6,774h-2.4v-2.6c0-0.6-0.3-0.4-0.9-0.4h-4c-0.5,0-1-0.5-1-1s-0.4-1-1-1h-3c-0.5,0-1,0.1-1,0.7s-0.6,0.8-1.1,0.8
	s-1,0.3-1,0.9v10c0,0.5,0.7,1.6,1.2,1.6h10.9h0.2c0.5,0,1.1-0.7,1.3-1.3l2.4-7C-409.8,774.3-410.1,774-410.6,774z M-425,771.4
	c1,0,2.2-0.4,2.2-1.4h3c0,1,0.9,2,2,2h3.8v2h-7.8c-0.5,0-1.3,0.1-1.4,0.6l-1.8,4.8L-425,771.4L-425,771.4z M-412.9,780.1l-0.5,1.5
	c0,0.1-0.3,0.4-0.4,0.4h-0.2h-10.4l2.2-6.7c0-0.1,0.2-0.3,0.4-0.3h7.9h1h1.8L-412.9,780.1z"/>
<g>
	<path d="M-254,785c-4.4,0-8-3.6-8-8c0-4.4,3.6-8,8-8s8,3.6,8,8C-246,781.4-249.6,785-254,785z M-254,770c-3.8,0-7,3.2-7,7
		c0,3.8,3.2,7,7,7s7-3.2,7-7C-247,773.2-250.2,770-254,770z M-252,780.8h-3c-0.6,0-0.6-1,0-1h1v-4h-1c-0.6,0-0.6-1,0-1h2v5h1
		C-251.2,779.8-251.2,780.8-252,780.8z M-254,774c-0.4,0-1-0.6-1-1c0-0.4,0.6-1,1-1s1,0.6,1,1C-253,773.4-253.6,774-254,774z"/>
</g>
<g>
	<path d="M-394.6,781.4l-7.1-12.3c-0.1,0-0.2-0.1-0.3-0.1s-0.2,0.1-0.3,0.2l-7.1,12.3c-0.1,0.1-0.1,0.2,0,0.4
		c0.1,0.2,0.2,0.2,0.3,0.2h14.3l0,0c0.2,0,0.4-0.2,0.4-0.4C-394.5,781.6-394.5,781.5-394.6,781.4z M-408,781l6-10.4l6,10.4H-408z"/>
	<circle cx="-402" cy="779.5" r="0.5"/>
	<path d="M-402.5,774v4c0,0.3,0.2,0.5,0.5,0.5s0.5-0.2,0.5-0.5v-4c0-0.3-0.2-0.5-0.5-0.5S-402.5,773.7-402.5,774z"/>
</g>
<path d="M-387,781c-3.9,0-7-1-7-3h1c0,1,2.3,2,6,2s6-1,6-2h1C-380,780-383.1,781-387,781z M-387,778c-3.9,0-7-1-7-3h1c0,1,2.3,2,6,2
	s6-1,6-2h1C-380,777-383.1,778-387,778z M-387,775c-3.9,0-7-1.4-7-3c0-1.6,3.1-3,7-3s7,1.4,7,3C-380,773.6-383.1,775-387,775z
	 M-387,770c-3.7,0-6,1.3-6,2c0,0.7,2.3,2,6,2s6-1.3,6-2C-381,771.3-383.3,770-387,770z M-387,783c3.7,0,6-1,6-2h1c0,2-3.1,3-7,3
	s-7-1-7-3h1C-393,782-390.7,783-387,783z"/>
<path d="M-380,785v-16h14v16H-380z M-367,770h-12v4h12V770z M-367,775h-12v4h12V775z M-367,780h-12v4h12V780z M-372,783h-2l-1-2h4
	L-372,783z M-372,778h-2l-1-2h4L-372,778z M-372,773h-2l-1-2h4L-372,773z"/>
<path d="M-352,783h-7v-3h-1v-1h-1v1h-2v-1h-1v1h-2v-2h1v1h6v-2.3l-2-2v1.3h-1v-3h3v1h-1.3l2,2h2.3v-6h-1v-1h2v2h-1v1h1v2h-1v1h1v1h3
	V783z M-360,769h2v1h-2V769z M-363,769h2v1h-2V769z M-365,771h-1v-2h2v1h-1V771z M-365,774h-1v-2h1V774z M-365,777h-1v-2h1V777z"/>
<path d="M-344.5,784c-4.1,0-7.5-3.4-7.5-7.5c0-4.1,3.4-7.5,7.5-7.5s7.5,3.4,7.5,7.5C-337,780.6-340.4,784-344.5,784z M-339.6,772.3
	l-1,1l-0.7-0.7l1-1c-1-0.9-2.3-1.4-3.7-1.6v1.4h-1V770c-1.4,0.1-2.7,0.7-3.7,1.5l1,1l-0.7,0.7l-1-1c-0.9,1-1.4,2.3-1.5,3.7h1.5v1
	h-1.6c0.1,1.4,0.7,2.7,1.6,3.7l1-1l0.7,0.7l-1,1c1,0.9,2.3,1.4,3.7,1.6v-1.4h1v1.4c1.4-0.1,2.7-0.7,3.7-1.5l-1-1l0.7-0.7l1,1
	c0.9-1,1.4-2.3,1.5-3.7h-1.5v-1h1.5C-338.2,774.6-338.7,773.3-339.6,772.3z M-344.5,778c-0.8,0-1.5-0.7-1.5-1.5
	c0-0.2,0.1-0.4,0.2-0.6l-2-2l0.7-0.7l2,2c0.2-0.1,0.4-0.2,0.6-0.2c0.7,0,1.2,0.4,1.4,1h2.6v1h-2.6C-343.3,777.6-343.8,778-344.5,778
	z"/>
<path d="M-326,783v-1h1.3l-2-2H-337v-11h11v10.3l2,2V780h1v3H-326z M-327,770h-9v9h8.3l-1-1h-6.3v-7h7v6.3l1,1V770z"/>
<path d="M-310,772v-1.3l-2,2V783h-11v-11h10.3l2-2h-1.3v-1h3v3H-310z M-313,773.7l-1,1v6.3h-7v-7h6.3l1-1h-8.3v9h9V773.7z M-315,780
	v-5h-5v5H-315z"/>
<path d="M-308,771.4l4.6,4.6l-4.6,4.6V771 M-309,769v14l7-7L-309,769L-309,769z"/>
<path d="M-302,783v-14h14v14H-302z M-289,770h-12v12h12V770z M-291,780h-8v-8h8V780z M-292,773h-6v6h6V773z"/>
<path d="M-277,771h-2v-1c0-0.5-0.5-1-1-1h-4c-0.5,0-1,0.5-1,1v1h-2c-0.5,0-1,0.5-1,1v2c0,0.5,0.5,1,1,1v7c0,0.5,0.5,1,1,1h8
	c0.5,0,1-0.5,1-1v-7c0.5,0,1-0.5,1-1v-2C-276,771.5-276.5,771-277,771z M-284,770h4v1h-4V770z M-278,782h-8v-7h8V782z M-277,774h-10
	v-2h10V774z"/>
<path d="M-264,783h-10c-1,0-2-1-2-2v-6v-2c0-0.6,1.5-2,2-2h1v-1c0-0.5,0.5-1,1-1h6c0.5,0,1,0.5,1,1v1h1c0.6,0,2,1.4,2,2v2v6
	C-262,782-263,783-264,783z M-274,782c0.6,0,9.5,0,10,0s1-0.4,1-1c0-0.4,0-3.2,0-4.4c-0.9,0.6-2.3,1.1-4,1.3v1.1h-4v-1.1
	c-1.7-0.2-3.1-0.7-4-1.3c0,1.2,0,4,0,4.4C-275,781.6-274.4,782-274,782z M-268,778L-268,778v-1h-2v1l0,0H-268z M-266,770h-6v1h6V770
	z M-263,773c0-0.5-0.5-1-1-1s-2,0-2,0h-6c0,0-1.6,0-2,0c-0.5,0-1,0.5-1,1c0,0.4,0,2,0,2c0,0.6,1.5,1.5,4,1.9V776h4v0.9
	c2.5-0.4,4-1.3,4-1.9C-263,775-263,773.6-263,773z"/>
<path d="M-243,783v-3h-3v-11h11v3h3v11H-243z M-236,773v-1v-2h-9v9h2h1h6V773z M-233,773h-2v7h-7v2h9V773z M-243,776h5v1h-5V776z
	 M-243,774h5v1h-5V774z M-243,772h5v1h-5V772z"/>
<g>
	<g>
		<path d="M-218,769h-13c-0.5,0-1,0.4-1,1v12.1c0,0.5,0.4,1,1,1h13c0.5,0,1-0.4,1-1V770C-217,769.4-217.4,769-218,769z M-218,782
			h-13v-12h13V782z M-224,774h-1v1h1V774z M-224,772h-1v1h1V772z M-222,777.5l-0.7-0.7l-1.3,1.4V776h-1v2.2l-1.4-1.4l-0.7,0.7
			l2.5,2.5L-222,777.5z"/>
	</g>
</g>
<path d="M-201.1,784.6c-0.2,0.3-0.5,0.4-0.8,0.4h-14.2c-0.3,0-0.6-0.1-0.8-0.4s-0.2-0.6-0.1-0.9l1.8-4.1c0.1-0.2,0.2-0.3,0.4-0.4
	l2.8-1.5h0.1h0.1c0.8,0.6,1.7,0.9,2.7,0.9s1.9-0.3,2.7-0.9h0.1h0.1l2.8,1.5c0.2,0.1,0.3,0.3,0.4,0.4l1.8,4.1
	C-201,784-201,784.3-201.1,784.6z M-203.8,780l-2.3-1.2c-0.9,0.5-1.9,0.8-2.9,0.8s-2-0.3-2.9-0.8l-2.3,1.2l-1.7,4h13.9L-203.8,780z
	 M-209,777.5c-2,0-3.6-1.9-3.6-4.2c0-3.3,1.6-4.2,3.6-4.2s3.6,1,3.6,4.2C-205.4,775.6-207,777.5-209,777.5z M-209,770
	c-1.3,0-2.6,0.4-2.6,3.2c0,1.8,1.2,3.2,2.6,3.2s2.6-1.5,2.6-3.2C-206.4,770.4-207.7,770-209,770z"/>
<path d="M-189.7,782c-0.6,0-5.3,0-5.3,0s-4.8,0-5.3,0c-0.6,0-0.7-0.2-0.7-0.4c0-0.3,0.3-0.4,0.8-0.6c1.2-1.1,1.8-2.5,1.7-4
	c0-0.1,0-0.1,0-0.2c0-1.5,0.5-2.7,2.5-3.1v-0.4c0-0.6,0.4-0.9,1-0.9s1,0.3,1,0.9v0.4c2,0.4,2.5,1.7,2.5,3.1c0,0.1,0,0.1,0,0.2
	c-0.1,1.5,0.5,3,1.7,4.1c0.5,0.2,0.8,0.3,0.8,0.6S-189,782-189.7,782z M-195,771.7c-0.7,0-1.3-0.6-1.3-1.3c0-0.7,0.6-1.3,1.3-1.3
	s1.3,0.6,1.3,1.3S-194.3,771.7-195,771.7z M-195,783h2.7c0,1-1.7,2-2.7,2s-2.6-0.9-2.7-2C-197.7,782.9-195,783-195,783z"/>
<path d="M-188,777c0-3.9,3.1-7,7-7v-1c-4.4,0-8,3.6-8,8s3.6,8,8,8v-1C-184.9,784-188,780.9-188,777z"/>
</svg>
