<?xml version="1.0" encoding="utf-8"?>
<!-- Generator: Adobe Illustrator 19.1.1, SVG Export Plug-In . SVG Version: 6.00 Build 0)  -->
<svg version="1.1" id="Слой_1" xmlns="http://www.w3.org/2000/svg" xmlns:xlink="http://www.w3.org/1999/xlink" x="0px" y="0px"
	 viewBox="0 0 24 24" enable-background="new 0 0 24 24" xml:space="preserve">
<path d="M16,9h6v4h-3v-1h2v-2h-4L16,9z M3,12v-2h5l1-1H2v4h4l0-1H3z M22,3v4H2V3H22z M21,4H3v2h18V4z M13,13v-1h-1v1v2H9v1h3v3h1v-3
	h3v-1h-3V13z M18.5,13c0.3,0.8,0.5,1.6,0.5,2.5c0,3.6-2.9,6.5-6.5,6.5S6,19.1,6,15.5c0-0.9,0.2-1.7,0.5-2.5c0.1-0.4,0.3-0.7,0.5-1
	c0.5-0.8,1.2-1.5,2-2c1-0.6,2.1-1,3.3-1c0,0,0.1,0,0.1,0s0.1,0,0.1,0c1.2,0,2.4,0.4,3.3,1c0.8,0.5,1.5,1.2,2,2
	C18.2,12.3,18.4,12.6,18.5,13z M18,15.5c0-0.9-0.2-1.7-0.6-2.5c-0.2-0.4-0.4-0.7-0.7-1c-1-1.2-2.5-2-4.1-2c0,0-0.1,0-0.1,0
	s-0.1,0-0.1,0c-1.7,0-3.1,0.8-4.1,2c-0.3,0.3-0.5,0.6-0.7,1C7.2,13.7,7,14.6,7,15.5c0,3,2.5,5.5,5.5,5.5S18,18.5,18,15.5z"/>
</svg>
