<?xml version="1.0" encoding="utf-8"?>
<!-- Generator: Adobe Illustrator 19.1.1, SVG Export Plug-In . SVG Version: 6.00 Build 0)  -->
<svg version="1.1" id="Слой_1" xmlns="http://www.w3.org/2000/svg" xmlns:xlink="http://www.w3.org/1999/xlink" x="0px" y="0px"
	 viewBox="-24 20 200 30" style="enable-background:new -24 20 200 30;" xml:space="preserve">
<style type="text/css">
	.st0{fill:#B8CAEC;}
	.st1{fill:#626262;}
	.st2{fill:none;enable-background:new    ;}
	.st3{fill:#666666;}
</style>
<path class="st0" d="M-16.7,20.4c-0.9,0.2-1.7,0.6-2.4,1c-0.7,0.4-1.4,1-2,1.6c-0.6,0.6-1.1,1.3-1.6,2.1s-0.8,1.6-1,2.5
	c-0.2,0.9-0.4,1.8-0.4,2.7c0,1.4,0.3,2.7,0.8,3.9c0.5,1.2,1.3,2.3,2.2,3.3c0.8,0.8,1.4,1.7,1.8,2.7c0.4,1,0.6,2.1,0.6,3.2v3.8
	c0,0.4,0.1,0.8,0.2,1.1c0.1,0.3,0.3,0.6,0.6,0.9c0.2,0.3,0.5,0.5,0.9,0.6c0.3,0.1,0.7,0.2,1.1,0.2h3.6c0.4,0,0.7-0.1,1.1-0.2
	c0.3-0.1,0.6-0.3,0.9-0.6c0.2-0.3,0.4-0.6,0.6-0.9c0.1-0.3,0.2-0.7,0.2-1.1v-3.8c0-1.2,0.2-2.2,0.6-3.2c0.4-1,1-1.9,1.8-2.7
	c1-1,1.7-2.1,2.2-3.3C-4.3,33-4,31.7-4,30.3c0-0.9-0.1-1.9-0.4-2.7c-0.2-0.9-0.6-1.7-1-2.5c-0.4-0.8-1-1.5-1.6-2.1
	c-0.6-0.6-1.3-1.2-2-1.6c-0.7-0.4-1.5-0.8-2.4-1c-0.9-0.2-1.7-0.4-2.7-0.4C-14.9,20-15.8,20.1-16.7,20.4z M-15.8,48.1
	c-0.2,0-0.5-0.1-0.6-0.3c-0.2-0.2-0.3-0.4-0.3-0.7v-2.8h5.5v2.8c0,0.3-0.1,0.5-0.3,0.7c-0.2,0.2-0.4,0.3-0.6,0.3H-15.8z M-16.8,42.5
	c-0.1-1.3-0.4-2.4-0.9-3.4c-0.5-1-1.2-2-2-2.9c-0.8-0.8-1.4-1.7-1.8-2.7c-0.4-1-0.6-2-0.6-3.2c0-1.2,0.2-2.3,0.6-3.3
	c0.4-1,1-1.9,1.8-2.7c0.7-0.8,1.6-1.4,2.6-1.8c1-0.4,2.1-0.7,3.2-0.7c1.1,0,2.2,0.2,3.2,0.7c1,0.4,1.9,1,2.6,1.8
	c0.7,0.8,1.3,1.7,1.8,2.7c0.4,1,0.6,2.1,0.6,3.3c0,1.2-0.2,2.2-0.6,3.2c-0.4,1-1,1.9-1.8,2.7c-0.9,0.9-1.5,1.8-2,2.9
	c-0.5,1-0.8,2.2-0.9,3.4H-16.8z"/>
<path class="st1" d="M15,40h-3v-1h2.3l-3-3H0.7l-3,3H0v1h-3h-1v-1v-3h1v2.3l3-3V24.7l-3-3V24h-1v-3v-1h1h3v1h-2.3l3,3h10.6l3-3H12
	v-1h3h1v1v3h-1v-2.3l-3,3v10.6l3,3V36h1v3v1H15z M11,25.7l-3,3V28H7.3l3-3H1.7l3,3H4v0.7l-3-3v8.6l3-3V32h0.7l-3,3h8.6l-3-3H8v-0.7
	l3,3V25.7z"/>
<path class="st1" d="M22,20c-3.2,0-6,2.8-6,6v14h20V20H22z M35,39H17V26c0-2.4,2.6-5,5-5h13V39z M33,23l-3,14h-2l-2-11l-2,11h-2
	l-3-14h2l2,9l2-9h2l2,9l2-8h-2v-1H33z"/>
<path class="st2" d="z"/>
<path class="st3" d="M56,30.9l1.8-5.5L56,20l16,5.5L56,30.9z M58.7,25h8.6l-9.7-3.3L58.7,25z M57.6,29.3l9.7-3.3h-8.6L57.6,29.3z"/>
<path class="st1" d="M63,49v-1h13v1H63z M63,45h13v1H63V45z M63,38h13v1H63V38z M63,35h13v1H63V35z M60,32h13v1H60V32z M56,41h3v3
	h-3V41z M56,31h3v3h-3V31z M73,43H60v-1h13V43z"/>
<g>
	<g>
		<path class="st1" d="M51.6,20H36.8c-0.4,0-0.8,0.3-0.8,0.8v18.5c0,0.4,0.4,0.8,0.8,0.8h18.4c0.4,0,0.8-0.3,0.8-0.8v-14
			c0-0.2-0.1-0.3-0.2-0.5l-3.6-4.4C52.1,20.1,51.9,20,51.6,20z M51,21v9H41v-9H51z M55,39H37V21h3v9c0,1,0.9,1,1.7,1h8.6
			c0.9,0,1.7-0.1,1.7-1v-7.8l3,3.6V39z"/>
	</g>
	<rect x="46" y="23" class="st1" width="3" height="6"/>
</g>
<path class="st1" d="M94,37.3l2,2L95.3,40l-2-2H78.7l-2,2L76,39.3l2-2V22.7l-2-2l0.7-0.7l2,2h14.6l2-2l0.7,0.7l-2,2V37.3z M93,23.7
	L88.7,28H91v1h-3h-1v-1v-3h1v2.3l4.3-4.3H79.7l4.3,4.3V25h1v3v1h-1h-3v-1h2.3L79,23.7v12.6l4.3-4.3H81v-1h3h1v1v3h-1v-2.3L79.7,37
	h12.6L88,32.7V35h-1v-3v-1h1h3v1h-2.3l4.3,4.3V23.7z"/>
</svg>
