<?xml version="1.0" encoding="utf-8"?>
<!-- Generator: Adobe Illustrator 19.1.1, SVG Export Plug-In . SVG Version: 6.00 Build 0)  -->
<svg version="1.1" id="Слой_1" xmlns="http://www.w3.org/2000/svg" xmlns:xlink="http://www.w3.org/1999/xlink" x="0px" y="0px"
	 viewBox="0 0 538.8 50" style="enable-background:new 0 0 538.8 50;" xml:space="preserve">
<path d="M11.2,30.4h6.4v6.4h-6.4V30.4z M36.8,11.2h-6.4v6.4h6.4V11.2z M28.8,28.8H0V0h28.8C28.8,0,28.8,28.8,28.8,28.8z M9.6,11.2
	c0,2.7,2.1,4.8,4.8,4.8s4.8-2.1,4.8-4.8s-2.1-4.8-4.8-4.8S9.6,8.5,9.6,11.2z M22.4,20.8c0-1.8-1.4-3.2-3.2-3.2H9.6
	c-1.8,0-3.2,1.4-3.2,3.2V24h3.2v-1.6h1.6V24h6.4v-1.6h1.6V24h3.2C22.4,24,22.4,20.8,22.4,20.8z M48,19.2V48H19.2V30.4h6.4v4.8h4.8
	v-4.8v-1.6h14.4L40,24h-9.6v-4.8H48z M38.4,35.2h4.8v-4.8h-4.8V35.2z M38.4,41.6h4.8v-4.8h-4.8V41.6z M32,35.2h4.8v-4.8H32V35.2z
	 M32,41.6h4.8v-4.8H32V41.6z M25.6,41.6h4.8v-4.8h-4.8V41.6z M44.8,43.2H24v1.6h20.8V43.2z"/>
<path d="M383.4,0c-2.4,0-4.3,1.9-4.3,4.3c0,0.5,0.2,1.1,0.3,1.6l-6,6.1c-2.1-1.4-4.5-2.4-7.2-2.4c-2.2,0-4.5,0.6-6.2,1.8l-3.7-4.1
	c0.3-0.6,0.5-1.3,0.5-1.9c0-2.4-1.9-4.3-4.3-4.3c-2.4,0-4.3,1.9-4.3,4.3c0.2,2.4,2.1,4.3,4.5,4.3c0.5,0,1,0,1.3-0.2l3.5,4
	c-1.9,2.1-3.2,4.9-3.2,8.1c0,1.3,0.2,2.5,0.6,3.8l-8.4,6.1c-0.6-0.5-1.4-0.6-2.2-0.6c-2.4,0-4.3,1.9-4.3,4.3c0,2.4,1.9,4.3,4.3,4.3
	c2.4,0,4.3-1.9,4.3-4.3c0-0.3,0-0.6-0.2-1l7.9-5.7c1.3,1.9,3.2,3.3,5.2,4.3l-0.5,1.6c-2.2,0.2-3.8,2.1-3.8,4.3
	c0,2.4,1.9,4.3,4.3,4.3c2.4,0,4.3-1.9,4.3-4.3c0-1.3-0.5-2.4-1.4-3.2l0.6-1.8c0.5,0,0.8,0,1.3,0c1.7,0,3.3-0.3,4.9-1.1l3.7,4.3
	c-0.3,0.6-0.5,1.3-0.5,1.9c0,2.4,1.9,4.3,4.3,4.3c2.4,0,4.3-1.9,4.3-4.3s-1.9-4.3-4.3-4.3c-0.5,0-0.8,0-1.3,0.2l-3.3-4
	c2.5-2.2,4.3-5.4,4.3-9.1c0-2.7-1-5.3-2.4-7.2l6-6.1c0.5,0.2,1.1,0.3,1.6,0.3c2.4,0,4.3-1.9,4.3-4.3C387.7,1.9,385.8,0,383.4,0z
	 M366.2,27.1c-3.2,0-5.7-2.5-5.7-5.7s2.5-5.7,5.7-5.7s5.7,2.5,5.7,5.7S369.4,27.1,366.2,27.1z"/>
<path id="ic_34" d="M208.2,0L200,8h8.2V0z M209.8,0v9.6H200V48h36V0H209.8z M208.2,19.2l-0.2-1.6h19.8v1.6H208.2z M208.2,22.4h19.6
	V24h-19.6V22.4z M208.2,27.2h19.6v1.6h-19.6V27.2z"/>
<path d="M461.6,26.7l20.6-20.6l3.4,3.4l-24,24l-10.9-10.9l3.4-3.4L461.6,26.7z M483.2,23.8c0,10.6-8.6,19.2-19.2,19.2
	s-19.2-8.6-19.2-19.2S453.4,4.6,464,4.6c1.9,0,3.7,0.2,5.3,0.8l3.8-3.8C470.2,0.6,467,0,464,0c-13.3,0-24,10.9-24,24s10.9,24,24,24
	c13.1,0,24-10.9,24-24h-4.8V23.8z"/>
<path d="M431.6,36.8V17.6h-11.2V8h-1.6v9.6h-19.2v11.2H390V0h28.8v8H438v28.8H431.6z M401.2,19.2H430v17.6l0,0V48h-28.8V28.8l0,0
	V19.2z"/>
<path d="M197.2,40.6l-4.2-4c1.8-3.7,1-8.3-2.2-11.4c-4-4-10.6-4-14.8,0c-4,4-4,10.2,0,14.2c3.2,3,7.8,3.7,11.6,2.1l4.2,4
	c1.5,1.4,3.7,1.4,5.1,0c0.7-0.6,1-1.6,1-2.6C198,42.1,197.8,41.3,197.2,40.6z M188.5,37.3c-2.8,2.7-7.3,2.7-10.1,0
	c-2.8-2.7-2.8-7,0-9.8c2.8-2.7,7.3-2.7,10.1,0C191.2,30.1,191.4,34.6,188.5,37.3z M173.3,44.8h-8.3v-1.6V28.8h6.6v-1.6h-6.6v-4.8
	h11.6l1.7-1.6h-13.3h-1.7h-11.6H150v1.6V48h41.5l-3.3-3.2H173.3z M163.3,33.6h-11.6v-4.8h11.6V33.6z M163.3,27.2h-11.6v-4.8h11.6
	V27.2z M188.2,20.8h6.6v6.4C194.8,25,190.7,20.8,188.2,20.8z M194.8,11H150v8.2h44.8V11z M163.3,17.6h-11.6v-4.8h11.6V17.6z
	 M179.9,17.6h-14.9v-4.8h14.9V17.6z M193.2,17.6h-11.6v-4.8h11.6V17.6z M194.8,9.4H150V7.8L165.9,0h13.1L195,7.8v1.6H194.8z"/>
<path id="ic_34_1_" d="M148,44.8h-43.2v-9.6h38.4v-24h4.8V44.8z M100,33.6v-24h9.6V0h32v33.6H100z M128.8,11.2h-16v1.6h16V11.2z
	 M128.8,14.4h-16V16h16V14.4z M128.8,17.6h-16v1.6h16V17.6z M128.8,20.8h-16v1.6h16V20.8z M108,0v8h-8L108,0z"/>
<path d="M50,0v11.2h48V0H50z M94.8,8H53.2V3.2h41.6V8z M70.3,29.9c0-2.1,1.6-3.8,3.7-3.8s3.7,1.8,3.7,3.8s-1.6,3.8-3.7,3.8
	S70.3,32,70.3,29.9z M50,48h48V12.8H50V48z M66,29.9c0-0.3,0-0.6,0-1.1L63.8,27c-0.2-0.2-0.3-0.5-0.2-0.6l2.1-3.7
	c0.2-0.2,0.5-0.3,0.6-0.2l2.7,1.1c0.5-0.5,1.1-0.8,1.8-1.1l0.5-2.9c0-0.3,0.3-0.5,0.5-0.5h4.3c0.3,0,0.5,0.2,0.5,0.5l0.5,2.9
	c0.6,0.3,1.3,0.6,1.8,1.1l2.7-1.1c0.3-0.2,0.5,0,0.6,0.2l2.1,3.7c0.2,0.2,0,0.5-0.2,0.6l-2.2,1.8c0,0.3,0,0.6,0,1.1
	c0,0.3,0,0.6,0,1.1l2.2,1.8c0.2,0.2,0.3,0.5,0.2,0.6l-2.1,3.7c-0.2,0.2-0.5,0.3-0.6,0.2l-2.7-1.1c-0.5,0.5-1.1,0.8-1.8,1.1l-0.5,2.9
	c0,0.3-0.3,0.5-0.5,0.5h-4.3c-0.3,0-0.5-0.2-0.5-0.5l-0.5-2.9c-0.6-0.3-1.3-0.6-1.8-1.1l-2.7,1.1c-0.3,0.2-0.5,0-0.6-0.2l-2.1-3.7
	c-0.2-0.2,0-0.5,0.2-0.6L66,31C66.2,30.7,66,30.2,66,29.9z"/>
<path d="M285.3,3c-1.1-1.8-2.9-3-5.1-3h-1.4h-12h-1.4h-13.8c-3.4,0-6.1,2.7-6.1,6.1v3v11.7l3-3V9V6.1c0-1.6,1.3-3,3-3h13.5h1.4h6.9
	c-0.5,1-0.8,1.9-0.8,3v1.4v3v6.1v4.5v13.4v3v4.5c0,1.6-1.3,3-3,3H268c-1.6,0-3-1.3-3-3v-1.4c0-0.5,0.2-1.1,0.5-1.4
	c0.5-1,1.4-1.4,2.6-1.4h1.4v-3H268h-6.1h-13.5v-7.2l-3,3v4.2h-1.4c-2.7,0-5.1,1.9-5.8,4.5c-0.2,0.5-0.2,1-0.2,1.4v1.4
	c0,0.5,0.2,1,0.2,1.4c0.6,2.6,3,4.5,5.8,4.5h10.6h4.5h9h1.4c2.2,0,4.2-1.3,5.1-3c0.5-1,0.8-1.9,0.8-3v-4.5v-3V21v-4.5v-5.9h7.5h3v-3
	V6.1C286.1,5,285.8,3.8,285.3,3z M262.2,43.5c0.2,0.5,0.3,1,0.6,1.4H259h-4.5h-6.1h-3h-1.4c-1.6,0-3-1.3-3-3v-1.4c0-1.6,1.3-3,3-3
	h1.4h3h13.5h0.8c-0.3,0.5-0.5,1-0.6,1.4c-0.2,0.5-0.2,1-0.2,1.4v1.4C262.1,42.6,262.1,43,262.2,43.5z M283.1,7.5h-7.5V6.1
	c0-1.6,1.3-3,3-3h1.4c1.6,0,3,1.3,3,3L283.1,7.5L283.1,7.5z M259.3,9l-10.7,10.7l-3,3l-4.5,4.5v2.7h2.7l1.8-1.8l3-3l13.5-13.4
	L259.3,9z M254.5,27c-0.8,0-1.4,0.6-1.4,1.4s0.6,1.4,1.4,1.4c0.8,0,1.4-0.6,1.4-1.4S255.3,27,254.5,27z M260.6,27
	c-0.8,0-1.4,0.6-1.4,1.4s0.6,1.4,1.4,1.4s1.4-0.6,1.4-1.4S261.4,27,260.6,27z M266.6,27c-0.8,0-1.4,0.6-1.4,1.4s0.6,1.4,1.4,1.4
	s1.4-0.6,1.4-1.4S267.4,27,266.6,27z"/>
<path d="M517.5,12.6L517.5,12.6L517.5,12.6L517.5,12.6z M514.1,26.9L505,48l20.6-9.3L538.8,25v-2.9L524.3,37l-12.1,5.6l-1.9-1.9
	l5.4-12.6l23.1-23.8V1.3L514.1,26.9z M522.3,35.5L522.3,35.5c0.3,0.3,1,0.5,1.4,0l0,0L539,19.7v-2.9l-16.7,17.3
	C521.9,34.4,521.9,35,522.3,35.5z M517.3,30.2L517.3,30.2c0.3,0.5,1,0.5,1.4,0l0,0l20.3-21V6.6L517.3,29
	C516.8,29.3,516.8,29.9,517.3,30.2z M519.7,32.8L519.7,32.8c0.3,0.3,1,0.5,1.4,0l0,0l17.7-18.4v-2.7l-19.1,19.8
	C519.4,31.8,519.4,32.5,519.7,32.8z M501.8,19.2c0.2,0,0.2,0.2,0.3,0.2c0.2,0.2,0.3,0.3,0.5,0.3c0.2,0.2,0.3,0.2,0.5,0.3
	c0.2,0,0.3,0.2,0.5,0.2c0.3,0.2,0.6,0.2,1,0.3c0.2,0,0.2,0,0.3,0c0.3,0,0.5,0,0.8,0.2h0.2h0.2h0.2c0.2,0,0.3,0,0.3,0l0,0l0,0l0,0
	l0.8,3.2c-0.8,0.5-1.4,1.4-1.4,2.4c0,1.4,1.3,2.6,2.7,2.6c1.4,0,2.6-1.3,2.6-2.7c0-1.4-1.3-2.6-2.6-2.6l0,0l-0.8-3.2
	c2.1-0.6,3.8-2.6,4.1-4.8l2.9,0.2c0.3,1.4,1.8,2.4,3.2,2.1c1.4-0.3,2.4-1.8,2.1-3.2c-0.3-1.3-1.4-2.1-2.6-2.1
	c-1.1,0-2.1,0.8-2.4,1.8l-2.9,0.2c0-2.1-1.1-4-2.7-5.1l2.1-3.8c0.2,0,0.5,0.2,0.8,0.2c1.4,0,2.7-1.1,2.7-2.7S513.8,0,512.4,0
	s-2.7,1.1-2.7,2.7c0,0,0,0,0,0.2c0,0.6,0.3,1.4,0.8,1.9l-2.1,3.8c-0.8-0.3-1.4-0.5-2.4-0.5c-1.6,0-3.2,0.6-4.3,1.6l-1.8-1.6
	c0.2-0.5,0.3-0.8,0.3-1.3c0-1.4-1.3-2.6-2.7-2.6c-1.4,0-2.6,1.3-2.6,2.7s1.3,2.6,2.7,2.6c0.5,0,1-0.2,1.4-0.5l1.8,1.6
	c-0.8,1-1.1,2.2-1.1,3.7c0,0.5,0.2,1,0.2,1.6l-4,1.4c-0.5-0.8-1.3-1.1-2.2-1.1c-1.4,0-2.7,1.1-2.7,2.7c0,1.4,1.1,2.7,2.7,2.7
	c1.4,0,2.7-1.1,2.7-2.7c0,0,0,0,0-0.2v-0.2l4-1.4C500.7,18.1,501.2,18.7,501.8,19.2z"/>
<g>
	<g>
		<path d="M302.9,15c4.3,0,8.6,1.7,11.3,5.2c2.6-3.5,5.6-5.2,10.1-5.2c0.3,0,1.8,0,1.8,0v-4.4c0-6.1-5.8-10.5-12.2-10.5
			c-6.5,0-11.8,4.6-11.8,10.5V15C302.9,15,302.6,15,302.9,15z M307.5,10.5h12.9v3.6h-12.9V10.5z M300.1,15v-4.4
			c-1,0.8-2.8,1.7-2.8,3.6c0,0.6-0.2,1.3,0,1.7C298.1,15.4,300.1,15.1,300.1,15z M330.6,14.2c0-1.7-1.8-2.8-2.8-3.6V15
			c0,0.2,2,0.6,2.8,0.9C330.7,15.4,330.6,14.6,330.6,14.2z M324.9,17.6c-5,0-9.1,3-10.9,7.4c-2-4.4-6.1-7.4-10.9-7.4
			c-6.3,0-12.4,5-13.1,11.5V48h3.6c1.3-3.9,5-7.1,9.3-7.1c4.1,0,7.8,3.1,9.3,7.1h3.6c1.5-3.9,5.1-7.1,9.3-7.1s7.6,3.1,9.1,7.1h3.8
			V29.1C337.3,22.7,331.2,17.6,324.9,17.6z M335.2,44.1c-2.3-3.5-6.1-5.8-10.1-5.8c-4.5,0-8.8,2.8-11.1,7.1
			c-2.3-4.2-6.6-7.1-11.1-7.1c-4.1,0-7.8,2-10.1,5.5V29.3c0.5-4.9,5.3-9,10.3-9c3.6,0,7,2.2,8.4,5.8l1.3,3h2.5l1.3-3
			c1.5-3.5,4.8-5.8,8.4-5.8c5,0,9.8,4.2,10.3,9L335.2,44.1L335.2,44.1z"/>
	</g>
</g>
</svg>
