<?xml version="1.0" encoding="utf-8"?>
<!-- Generator: Adobe Illustrator 19.1.1, SVG Export Plug-In . SVG Version: 6.00 Build 0)  -->
<svg version="1.1" id="Слой_1" xmlns="http://www.w3.org/2000/svg" xmlns:xlink="http://www.w3.org/1999/xlink" x="0px" y="0px"
	 viewBox="0 0 1200 51" style="enable-background:new 0 0 1200 51;" xml:space="preserve">
<style type="text/css">
	.st0{opacity:0;enable-background:new    ;}
	.st1{enable-background:new    ;}
	.st2{fill:none;}
	.st3{fill:#231F20;}
</style>
<rect x="650" y="25" class="st0" width="24" height="24"/>
<rect x="675" y="25" class="st0" width="24" height="24"/>
<rect x="700" y="25" class="st0" width="24" height="24"/>
<rect y="0" class="st0" width="24" height="24"/>
<rect y="25" class="st0" width="24" height="24"/>
<rect x="25" y="25" class="st0" width="24" height="24"/>
<rect x="25" y="0" class="st0" width="24" height="24"/>
<rect x="50" y="0" class="st0" width="24" height="24"/>
<rect x="75" y="0" class="st0" width="24" height="24"/>
<rect x="75" y="25" class="st0" width="24" height="24"/>
<rect x="100.3" y="25" class="st0" width="24" height="24"/>
<rect x="125" y="25" class="st0" width="24" height="24"/>
<rect x="150" y="25" class="st0" width="24" height="24"/>
<rect x="175" y="25" class="st0" width="24" height="24"/>
<rect x="200" y="25" class="st0" width="24" height="24"/>
<rect x="225" y="25" class="st0" width="24" height="24"/>
<rect x="250" y="25" class="st0" width="24" height="24"/>
<rect x="275" y="25" class="st0" width="24" height="24"/>
<rect x="300" y="25" class="st0" width="24" height="24"/>
<rect x="325" y="25" class="st0" width="24" height="24"/>
<rect x="350" y="25" class="st0" width="24" height="24"/>
<rect x="375" y="25" class="st0" width="24" height="24"/>
<rect x="400" y="25" class="st0" width="24" height="24"/>
<rect x="425" y="25" class="st0" width="24" height="24"/>
<rect x="450" y="25" class="st0" width="24" height="24"/>
<rect x="475" y="25" class="st0" width="24" height="24"/>
<rect x="500" y="25" class="st0" width="24" height="24"/>
<rect x="525" y="25" class="st0" width="24" height="24"/>
<rect x="550" y="25" class="st0" width="24" height="24"/>
<rect x="50" y="25" class="st0" width="24" height="24"/>
<rect x="100" y="0" class="st0" width="24" height="24"/>
<rect x="125" y="0" class="st0" width="24" height="24"/>
<rect x="150" y="0" class="st0" width="24" height="24"/>
<rect x="175" y="0" class="st0" width="24" height="24"/>
<rect x="200" y="0" class="st0" width="24" height="24"/>
<rect x="225" y="0" class="st0" width="24" height="24"/>
<rect x="250" y="0" class="st0" width="24" height="24"/>
<rect x="275" y="0" class="st0" width="24" height="24"/>
<rect x="300" y="0" class="st0" width="24" height="24"/>
<rect x="325" y="0" class="st0" width="24" height="24"/>
<rect x="350" y="0" class="st0" width="24" height="24"/>
<rect x="375" y="0" class="st0" width="24" height="24"/>
<rect x="400" y="0" class="st0" width="24" height="24"/>
<rect x="425" y="0" class="st0" width="24" height="24"/>
<rect x="450" y="0" class="st0" width="24" height="24"/>
<rect x="475" y="0" class="st0" width="24" height="24"/>
<rect x="500" y="0" class="st0" width="24" height="24"/>
<rect x="525" y="0" class="st0" width="24" height="24"/>
<rect x="550" y="0" class="st0" width="24" height="24"/>
<rect x="575" y="0" class="st0" width="24" height="24"/>
<rect x="600" y="0" class="st0" width="24" height="24"/>
<rect x="625" y="0" class="st0" width="24" height="24"/>
<rect x="650" y="0" class="st0" width="24" height="24"/>
<rect x="675" y="0" class="st0" width="24" height="24"/>
<rect x="700" y="0" class="st0" width="24" height="24"/>
<rect x="725" y="0" class="st0" width="24" height="24"/>
<rect x="750" y="0" class="st0" width="24" height="24"/>
<rect x="775" y="0" class="st0" width="24" height="24"/>
<rect x="800" y="0" class="st0" width="24" height="24"/>
<path d="M2,2v20h4h1c0-2.8,2.2-5,5-5s5,2.2,5,5h1h4V2H2z M8,12c0-2.2,1.8-4,4-4s4,1.8,4,4c0,2.2-1.8,4-4,4S8,14.2,8,12z M21,21h-3.1
	c-0.3-2.1-1.8-3.8-3.7-4.6c1.6-0.8,2.7-2.5,2.7-4.4c0-2.8-2.2-5-5-5s-5,2.2-5,5c0,1.9,1.1,3.6,2.7,4.4c-1.9,0.8-3.3,2.5-3.7,4.6H3V3
	h18V21z"/>
<path d="M45,15v-4v-1V7h2l-6-5h-8l-6,5h2v3v1v4v3l-2,4h20l-2-4V15z M44,14h-4v-3h4V14z M35,15h4v3h-4V15z M35,14v-3h4v3H35z M39,10
	h-4V7h4V10z M44,10h-4V7h4V10z M33.4,3h7.3l3.6,3H29.8L33.4,3z M30,7h4v3h-4V7z M34,11v3h-4v-3H34z M30,15h4v3h-4V15z M45.4,21H28.6
	l1-2h14.8L45.4,21z M40,18v-3h4v3H40z"/>
<g>
	<path d="M72,8h-1.6l-0.9-3.1C69.2,3.9,68.1,3,67,3H57c-1.1,0-2.2,0.9-2.5,1.9L53.6,8H52v2h0.8L52,13v7v1c0,0.5,0.5,1,1,1h2
		c0.5,0,1-0.5,1-1v-1h12v1c0,0.5,0.5,1,1,1h2c0.5,0,1-0.5,1-1v-1v-7l-0.8-3H72V8z M54.5,8.4l0.9-3.2C55.6,4.6,56.3,4,57,4h10
		c0.7,0,1.4,0.6,1.6,1.2l0.9,3.2c0.1,0.2,0,0.4,0,0.5C69.4,8.9,69.2,9,69,9H55c-0.2,0-0.4-0.1-0.5-0.2C54.5,8.7,54.5,8.6,54.5,8.4z
		 M56,19v-1.4l1.2-0.6h9.5l1.2,0.6V19H56z M71,13.1V19h-2v-2l-2-1H57l-2,1v2h-2v-5.9l0.8-3.1H55h14h1.2L71,13.1z"/>
	<circle cx="55.5" cy="12.5" r="1.5"/>
	<circle cx="68.5" cy="12.5" r="1.5"/>
	<rect x="58" y="14" width="8" height="1"/>
</g>
<path d="M91,6.5C91,4,89,2,86.5,2S82,4,82,6.5c0,2.3,1.8,4.2,4,4.4v9.8l0.5,1.3l0.5-1.3v-9.8C89.2,10.7,91,8.8,91,6.5z M86.5,10
	C84.6,10,83,8.4,83,6.5C83,4.6,84.6,3,86.5,3S90,4.6,90,6.5C90,8.4,88.4,10,86.5,10z"/>
<g class="st1">
	<path d="M105.9,3c0.2,0,0.3,0,0.4,0.1c0.1,0.1,0.3,0.1,0.4,0.3l2.1,2.1c0.1,0.1,0.2,0.2,0.2,0.4c0.1,0.1,0.1,0.3,0.1,0.4
		c0,0.1,0,0.3-0.1,0.4C109,6.8,109,7,108.9,7.1c-0.1,0.1-0.2,0.3-0.3,0.4c-0.2,0.2-0.4,0.3-0.5,0.5c-0.2,0.2-0.4,0.4-0.5,0.6
		c-0.2,0.3-0.3,0.7-0.3,1c0,0.5,0.2,1,0.6,1.3l5.4,5.4c0.4,0.4,0.8,0.6,1.3,0.6c0.4,0,0.7-0.1,1-0.3c0.2-0.1,0.4-0.3,0.6-0.5
		c0.2-0.2,0.3-0.3,0.5-0.5c0.1-0.1,0.2-0.2,0.4-0.3c0.1-0.1,0.2-0.2,0.4-0.2c0.1,0,0.2-0.1,0.4-0.1c0.2,0,0.3,0,0.4,0.1
		c0.1,0.1,0.3,0.1,0.4,0.2l2.1,2.1c0.1,0.1,0.2,0.2,0.2,0.4c0.1,0.1,0.1,0.3,0.1,0.4s0,0.3-0.1,0.4c-0.1,0.1-0.1,0.3-0.3,0.4
		c-0.4,0.4-0.7,0.7-1,1c-0.3,0.2-0.5,0.4-0.8,0.6c-0.2,0.1-0.5,0.3-0.8,0.3c-0.3,0.1-0.7,0.1-1.2,0.1c-0.7,0-1.5-0.1-2.2-0.3
		c-0.8-0.2-1.6-0.6-2.4-1c-0.8-0.4-1.6-0.9-2.4-1.5c-0.8-0.6-1.5-1.2-2.2-1.9c-0.7-0.7-1.3-1.4-1.9-2.2c-0.6-0.8-1.1-1.6-1.5-2.4
		c-0.4-0.8-0.7-1.6-1-2.4c-0.2-0.8-0.3-1.5-0.3-2.2c0-0.5,0-0.9,0.1-1.2c0.1-0.3,0.2-0.6,0.3-0.8c0.2-0.3,0.4-0.5,0.6-0.8
		c0.3-0.3,0.6-0.6,1-1c0.1-0.1,0.2-0.2,0.4-0.3C105.6,3,105.7,3,105.9,3 M105.9,2c-0.3,0-0.6,0.1-0.8,0.2s-0.5,0.3-0.7,0.5
		c-0.4,0.4-0.7,0.7-1,1s-0.5,0.6-0.7,0.9s-0.3,0.7-0.4,1.1S102,6.5,102,7.1c0,0.8,0.1,1.6,0.4,2.5s0.6,1.7,1,2.5s1,1.7,1.6,2.5
		s1.3,1.6,2,2.3s1.5,1.4,2.3,2s1.7,1.2,2.5,1.6s1.7,0.8,2.6,1.1s1.7,0.4,2.5,0.4c0.6,0,1-0.1,1.4-0.2s0.8-0.3,1.1-0.4
		s0.6-0.4,0.9-0.7s0.6-0.6,1-1c0.2-0.2,0.4-0.4,0.5-0.7s0.2-0.5,0.2-0.8s-0.1-0.6-0.2-0.8s-0.3-0.5-0.5-0.7l-2.1-2.1
		c-0.2-0.2-0.4-0.4-0.7-0.5s-0.5-0.2-0.8-0.2s-0.5,0-0.8,0.1s-0.4,0.2-0.6,0.4s-0.3,0.3-0.5,0.5s-0.3,0.3-0.4,0.5s-0.3,0.3-0.4,0.4
		s-0.3,0.1-0.5,0.1c-0.2,0-0.5-0.1-0.6-0.3l-5.4-5.4c-0.2-0.2-0.3-0.4-0.3-0.6c0-0.2,0-0.3,0.1-0.5s0.2-0.3,0.4-0.4s0.3-0.3,0.5-0.4
		s0.3-0.3,0.5-0.5s0.3-0.4,0.4-0.6s0.1-0.5,0.1-0.8s-0.1-0.6-0.2-0.8s-0.3-0.5-0.5-0.7l-2.1-2.1c-0.2-0.2-0.4-0.4-0.7-0.5
		S106.1,2,105.9,2L105.9,2z"/>
</g>
<g class="st1">
	<path d="M137,2c0.9,0,1.8,0.1,2.7,0.4s1.7,0.6,2.4,1s1.4,1,2,1.6s1.1,1.3,1.6,2s0.8,1.5,1,2.4s0.4,1.7,0.4,2.7c0,0.4,0,0.7-0.1,1.1
		s-0.2,0.8-0.3,1.1s-0.3,0.7-0.5,1.1s-0.5,0.6-0.7,0.9s-0.6,0.4-0.9,0.6s-0.7,0.2-1.2,0.2c-0.4,0-0.7,0-1-0.1s-0.6-0.2-0.9-0.4
		s-0.5-0.4-0.8-0.6s-0.4-0.5-0.6-0.9c-0.2,0.3-0.4,0.6-0.7,0.8s-0.5,0.5-0.8,0.6s-0.6,0.3-1,0.4s-0.7,0.1-1.1,0.1
		c-0.7,0-1.3-0.1-1.8-0.4s-1-0.7-1.4-1.1s-0.7-1-0.9-1.6S132,12.6,132,12s0.1-1.2,0.3-1.8s0.5-1.1,0.9-1.6s0.8-0.8,1.4-1.1
		s1.1-0.4,1.8-0.4c0.6,0,1.2,0.1,1.7,0.4s1,0.6,1.4,1.1V7h1.3v5v1.3c0,0.3,0.1,0.7,0.2,1s0.3,0.6,0.5,0.8s0.5,0.4,0.8,0.5
		s0.6,0.2,1,0.2c0.3,0,0.5-0.1,0.8-0.2s0.4-0.3,0.6-0.5s0.3-0.4,0.5-0.7s0.2-0.5,0.3-0.8s0.2-0.6,0.2-0.8s0.1-0.5,0.1-0.8
		c0-0.8-0.1-1.6-0.3-2.3s-0.5-1.4-0.9-2.1s-0.8-1.2-1.4-1.8s-1.1-1-1.8-1.4s-1.3-0.7-2.1-0.9s-1.5-0.3-2.3-0.3s-1.6,0.1-2.3,0.3
		s-1.4,0.5-2.1,0.9s-1.2,0.8-1.8,1.4s-1,1.1-1.4,1.8s-0.7,1.3-0.9,2.1s-0.3,1.5-0.3,2.3s0.1,1.6,0.3,2.3s0.5,1.4,0.9,2.1
		s0.8,1.2,1.4,1.8s1.1,1,1.8,1.4s1.3,0.7,2.1,0.9s1.5,0.3,2.3,0.3c1.2,0,2.3-0.2,3.3-0.7l0.5,1.2c-0.6,0.3-1.2,0.4-1.9,0.6
		S137.7,22,137,22c-0.9,0-1.8-0.1-2.7-0.4s-1.7-0.6-2.4-1s-1.4-1-2-1.6s-1.1-1.3-1.6-2s-0.8-1.5-1-2.4S127,12.9,127,12
		c0-0.9,0.1-1.8,0.4-2.7s0.6-1.7,1-2.4s1-1.4,1.6-2s1.3-1.1,2-1.6s1.5-0.8,2.4-1S136.1,2,137,2z M136.4,15.8c0.5,0,0.9-0.1,1.3-0.3
		s0.7-0.5,1-0.9s0.5-0.8,0.6-1.2s0.2-0.9,0.2-1.3s-0.1-0.9-0.2-1.3s-0.3-0.8-0.6-1.2s-0.6-0.6-1-0.9s-0.8-0.3-1.3-0.3
		s-0.9,0.1-1.3,0.3s-0.7,0.5-1,0.9s-0.5,0.8-0.6,1.2s-0.2,0.9-0.2,1.3s0.1,0.9,0.2,1.3s0.3,0.8,0.6,1.2s0.6,0.6,1,0.9
		S135.9,15.8,136.4,15.8z"/>
</g>
<path d="M168,4h-3V3c0-0.6-0.4-1-1-1h-4c-0.6,0-1,0.4-1,1v1h-3c-0.6,0-1,0.4-1,1v4c0,0.6,0.4,1,1,1v11c0,0.6,0.4,1,1,1h10
	c0.6,0,1-0.4,1-1V10c0.6,0,1-0.4,1-1V5C169,4.4,168.6,4,168,4z M160,3h4v1h-4V3z M167,21h-10V10h10V21z M168,9h-12V5h12V9z"/>
<g class="st1">
	<path d="M194.5,11.6c0,0.1,0,0.1,0,0.2s0,0.1,0,0.2s0,0.1,0,0.2s0,0.1,0,0.2l2.5,1.6l-1.6,3.8l-2.9-0.7c-0.2,0.2-0.3,0.3-0.5,0.5
		l0.7,2.9l-3.8,1.6l-1.6-2.5c-0.1,0-0.1,0-0.2,0c-0.1,0-0.1,0-0.2,0s-0.1,0-0.2,0c-0.1,0-0.1,0-0.2,0l-1.6,2.5l-3.8-1.6l0.7-2.9
		c-0.2-0.2-0.3-0.3-0.5-0.5l-2.9,0.7l-1.6-3.8l2.5-1.6c0-0.1,0-0.1,0-0.2s0-0.1,0-0.2s0-0.1,0-0.2s0-0.1,0-0.2l-2.5-1.6l1.6-3.8
		l2.9,0.7c0.2-0.2,0.3-0.3,0.5-0.5l-0.7-2.9l3.8-1.6l1.6,2.5c0.1,0,0.1,0,0.2,0s0.1,0,0.2,0s0.1,0,0.2,0s0.1,0,0.2,0l1.6-2.5
		l3.8,1.6L192,6.5c0.2,0.2,0.3,0.3,0.5,0.5l2.9-0.7l1.6,3.8L194.5,11.6z M193.3,12.9c0-0.2,0-0.3,0-0.5c0-0.2,0-0.3,0-0.5
		c0-0.2,0-0.3,0-0.5s0-0.3,0-0.5l2.3-1.4l-0.8-2l-2.7,0.6c-0.2-0.2-0.4-0.5-0.6-0.7c-0.2-0.2-0.4-0.4-0.7-0.6l0.6-2.7l-2-0.8
		l-1.5,2.3c-0.2,0-0.3,0-0.5,0c-0.2,0-0.3,0-0.5,0c-0.2,0-0.3,0-0.5,0s-0.3,0-0.5,0l-1.4-2.3l-2,0.8l0.6,2.7
		c-0.2,0.2-0.5,0.4-0.7,0.6c-0.2,0.2-0.4,0.4-0.6,0.7l-2.7-0.6l-0.8,2l2.3,1.5c0,0.2,0,0.3,0,0.5c0,0.2,0,0.3,0,0.5
		c0,0.2,0,0.3,0,0.5s0,0.3,0,0.5l-2.3,1.4l0.8,2l2.7-0.6c0.2,0.2,0.4,0.5,0.6,0.7c0.2,0.2,0.4,0.4,0.7,0.6l-0.6,2.7l2,0.8l1.5-2.3
		c0.2,0,0.3,0,0.5,0c0.2,0,0.3,0,0.5,0c0.2,0,0.3,0,0.5,0s0.3,0,0.5,0l1.4,2.3l2-0.8l-0.6-2.7c0.2-0.2,0.5-0.4,0.7-0.6
		c0.2-0.2,0.4-0.4,0.6-0.7l2.7,0.6l0.8-2L193.3,12.9z M187,8.3c0.5,0,1,0.1,1.4,0.3c0.4,0.2,0.8,0.5,1.2,0.8
		c0.3,0.3,0.6,0.7,0.8,1.2s0.3,0.9,0.3,1.4s-0.1,1-0.3,1.4s-0.5,0.8-0.8,1.2c-0.3,0.3-0.7,0.6-1.2,0.8c-0.4,0.2-0.9,0.3-1.4,0.3
		s-1-0.1-1.4-0.3c-0.4-0.2-0.8-0.5-1.2-0.8c-0.3-0.3-0.6-0.7-0.8-1.2s-0.3-0.9-0.3-1.4s0.1-1,0.3-1.4s0.5-0.8,0.8-1.2
		c0.3-0.3,0.7-0.6,1.2-0.8C186,8.4,186.5,8.3,187,8.3z M187,14.6c0.4,0,0.7-0.1,1-0.2c0.3-0.1,0.6-0.3,0.8-0.6
		c0.2-0.2,0.4-0.5,0.6-0.8c0.1-0.3,0.2-0.7,0.2-1s-0.1-0.7-0.2-1c-0.1-0.3-0.3-0.6-0.6-0.8c-0.2-0.2-0.5-0.4-0.8-0.6
		c-0.3-0.1-0.7-0.2-1-0.2s-0.7,0.1-1,0.2c-0.3,0.1-0.6,0.3-0.8,0.6c-0.2,0.2-0.4,0.5-0.6,0.8c-0.1,0.3-0.2,0.7-0.2,1s0.1,0.7,0.2,1
		c0.1,0.3,0.3,0.6,0.6,0.8c0.2,0.2,0.5,0.4,0.8,0.6C186.3,14.5,186.6,14.6,187,14.6z"/>
</g>
<path d="M212.5,13.1c0.7,1.3,0.7,2.7-0.1,3.6l-4.6,4.6c-1.1,1.1-3.1,0.8-4.5-0.6c-1.4-1.4-1.7-3.4-0.6-4.5l4.6-4.6
	c0.9-0.9,2.3-0.9,3.6-0.1l-0.9,0.9c-0.3-0.1-0.7-0.2-1-0.2c-0.3,0-0.6,0.1-0.9,0.3l-4.6,4.6c-0.4,0.4-0.3,0.9-0.3,1.2
	c0.1,0.6,0.4,1.2,0.9,1.7c0.6,0.6,1.3,0.9,2,0.9c0.3,0,0.6-0.1,0.9-0.3l4.6-4.6c0.4-0.4,0.4-1.2,0.1-1.9L212.5,13.1z M220.7,3.3
	c-1.4-1.4-3.4-1.7-4.5-0.6l-4.6,4.6c-0.9,0.9-0.9,2.3-0.1,3.6l0.9-0.9c-0.1-0.2-0.2-0.5-0.2-0.7c0-0.3,0-0.8,0.3-1.2l4.6-4.6
	c0.3-0.3,0.6-0.3,0.9-0.3c0.7,0,1.4,0.3,2,0.9c0.5,0.5,0.8,1.1,0.9,1.7c0,0.3,0,0.8-0.3,1.2l-4.6,4.7c-0.3,0.3-0.6,0.3-0.9,0.3
	c-0.3,0-0.7-0.1-1-0.2l-0.9,0.9c1.3,0.7,2.7,0.7,3.6-0.1l4.6-4.6C222.4,6.7,222.2,4.7,220.7,3.3z M215,9.8c0.2-0.2,0.2-0.6,0-0.8
	l0,0c-0.2-0.2-0.6-0.2-0.8,0l-5.1,5.1c-0.2,0.2-0.2,0.6,0,0.8l0,0c0.2,0.2,0.6,0.2,0.8,0L215,9.8z"/>
<g>
	<path d="M246,3v0.6l-7.7,7.7l-0.3,0.3V12v9h-2v-9v-0.4l-0.3-0.3L228,3.6V3H246 M247,2h-20v2l8,8v10h4V12l8-8V2L247,2z"/>
</g>
<g>
	<polygon points="253,21 253,2 252,2 252,21 252,22 253,22 272,22 272,21 	"/>
	<path d="M259,10h-5v10h5V10z M258,19h-3v-8h3V19z"/>
	<path d="M271,13h-5v7h5V13z M270,19h-3v-5h3V19z"/>
	<path d="M265,5h-5v15h5V5z M264,19h-3V6h3V19z"/>
</g>
<g class="st1">
	<path d="M287,12h8.8c0,0.4,0,0.8,0,1.1s-0.1,0.7-0.1,1.1s-0.1,0.7-0.2,1s-0.2,0.7-0.4,1c-0.4,0.9-0.9,1.7-1.4,2.4s-1.3,1.3-2,1.8
		s-1.6,0.9-2.4,1.2s-1.8,0.4-2.7,0.4c-0.9,0-1.7-0.1-2.5-0.3s-1.5-0.5-2.2-0.9s-1.3-0.9-1.9-1.5s-1.1-1.2-1.5-1.9s-0.7-1.4-0.9-2.2
		s-0.3-1.6-0.3-2.5s0.1-1.7,0.3-2.5s0.5-1.5,0.9-2.2s0.9-1.3,1.5-1.9s1.2-1.1,1.9-1.5s1.4-0.7,2.2-0.9s1.6-0.3,2.5-0.3h0.6V12z
		 M285.8,13.3V4.5c-0.7,0.1-1.4,0.2-2,0.4s-1.2,0.5-1.8,0.9s-1.1,0.8-1.5,1.3s-0.8,1-1.2,1.6s-0.6,1.2-0.7,1.9s-0.3,1.3-0.3,2
		c0,0.7,0.1,1.5,0.3,2.2s0.5,1.3,0.8,1.9s0.8,1.2,1.3,1.6s1,0.9,1.6,1.3s1.2,0.6,1.9,0.8s1.4,0.3,2.2,0.3c0.7,0,1.4-0.1,2-0.3
		s1.3-0.4,1.9-0.7s1.1-0.7,1.6-1.2s0.9-1,1.3-1.5s0.7-1.2,0.9-1.8s0.4-1.3,0.4-2H285.8z M288.3,2c0.8,0,1.6,0.1,2.3,0.3
		s1.4,0.5,2.1,0.9s1.2,0.8,1.8,1.4s1,1.1,1.4,1.8s0.7,1.3,0.9,2.1s0.3,1.5,0.3,2.3h-8.8V2z M289.5,9.5h6.2c-0.1-0.8-0.4-1.5-0.7-2.2
		s-0.8-1.3-1.4-1.8s-1.2-1-1.8-1.4s-1.4-0.6-2.2-0.7V9.5z"/>
</g>
<g>
	<path d="M317.9,5c-0.3,0-0.7,0.1-0.9,0.3c0,0,0-0.3,0-0.4C316.9,3.8,316,3,315,3c-0.4,0-0.8,0.1-1.1,0.3c-0.1-0.2-0.2-0.4-0.3-0.5
		c-0.4-0.5-1-0.8-1.6-0.8c-0.1,0-0.3,0-0.4,0.1c-0.7,0.1-1.2,0.6-1.4,1.3c-0.3-0.2-0.8-0.3-1.2-0.3c-1.1,0-2,0.9-2,2l0.1,6
		c-0.4-0.7-1.1-1.2-1.9-1.3c-0.4,0-0.8,0.1-1.1,0.3c-0.5,0.3-0.8,0.8-0.9,1.4c-0.1,0.6,0,1.3,0.3,1.8c0,0,2.5,3.8,3.5,5.5
		c1.4,2.2,3.6,3.3,6.6,3.3c4.8,0,6.5-3.1,6.5-6V7C320,5.9,319,5,317.9,5z M319,16c0,2.5-1.5,5-5.5,5c-2.7,0-4.5-0.9-5.7-2.8
		c-0.9-1.4-2.7-4.3-3.3-5.2l-0.2-0.3c-0.2-0.3-0.3-0.7-0.2-1.1c0.1-0.3,0.2-0.6,0.5-0.8c0.4-0.3,1-0.3,1.7,0.5L308,14V5
		c0-0.6,0.4-1,1-1c0.6,0,1,0.4,1,1v5h1V4c0-0.6,0.4-1,1-1l0,0c0.6,0,1,0.5,1,1l0,6h1V5c0-0.6,0.4-1,1-1c0.5,0,1,0.5,1,1v6h1V7
		c0-0.7,0.5-0.9,1-1c0.5,0,1,0.5,1,1C319,7,319,16,319,16z"/>
</g>
<g>
	<g>
		<path d="M343,6L343,6C343,6,343,6,343,6c-0.4,0-0.8,0.1-1.1,0.3c-0.1-0.3-0.3-0.5-0.5-0.7c-0.1-0.1-0.2-0.2-0.4-0.3c0,0,0,0,0,0
			c-0.1-0.1-0.3-0.1-0.4-0.2c-0.1,0-0.3-0.1-0.4-0.1c-0.2,0-0.4,0-0.7,0c0,0,0,0,0,0c-0.2,0-0.3,0.1-0.5,0.2
			c-0.2,0.1-0.4,0.2-0.5,0.4c-0.1-0.2-0.3-0.3-0.5-0.4c-0.1-0.1-0.3-0.1-0.4-0.2c0,0,0,0-0.1,0C337.3,5,337.2,5,337,5c0,0,0,0,0,0
			c-0.2,0-0.3,0-0.5,0.1c0,0,0,0-0.1,0c-0.2,0-0.3,0.1-0.4,0.2c-0.2,0.1-0.4,0.2-0.5,0.4c-0.1-0.2-0.3-0.3-0.5-0.4
			c-0.1-0.1-0.3-0.2-0.5-0.2c0,0,0,0,0,0C334.3,5,334.2,5,334,5c-0.2,0-0.3,0-0.5,0.1c0,0,0,0,0,0c-0.2,0-0.3,0.1-0.5,0.2
			c-0.3,0.2-0.5,0.4-0.7,0.7c0,0,0,0,0,0c-0.1,0.1-0.1,0.3-0.2,0.4c0,0,0,0,0,0.1c0,0.2-0.1,0.3-0.1,0.5v0v2.3
			c-0.9-0.6-2.2-0.2-2.7,0.7c-0.1,0.2-0.2,0.3-0.2,0.5c0,0.1-0.1,0.3-0.1,0.4c0,0,0,0,0,0.1c0,0.1,0,0.3,0,0.4
			c0,0.1,0.1,0.2,0.1,0.2c0,0.1,1.7,5.4,2.7,7c1.4,2.2,3.6,3.3,6.6,3.3c4.8,0,6.5-3.1,6.5-6V8C345,6.9,344.1,6,343,6z M344,9.7V16
			c0,2.5-1.5,5-5.5,5c-2.7,0-4.5-0.9-5.7-2.8c-1-2.2-1.9-4.4-2.6-6.7c-0.1-0.1-0.1-0.3-0.1-0.4c0-0.6,0.4-1,1-1s1,0.4,1,1v1l1,2v-3
			V8.7V7v0v0c0-0.4,0.2-1,1-1c0.8,0,1,0.6,1,1v1.7V11h1V8.7V7v0v0c0,0,0,0,0,0c0-0.5,0.2-1,1-1s1,0.6,1,1v0v0v1.7V11h1V8.7V7v0
			c0-0.5,0.2-1,1-1c0.8,0,1,0.6,1,1v0v0v1.7V11h1V9.7V8c0-0.6,0.4-1,1-1s1,0.4,1,1V9.7z"/>
	</g>
</g>
<g class="st1">
	<path d="M361.5,2c0.5,0,1,0.1,1.5,0.2c0.5,0.1,0.9,0.3,1.3,0.6s0.8,0.5,1.1,0.9s0.6,0.7,0.9,1.1s0.4,0.9,0.6,1.3
		c0.1,0.5,0.2,1,0.2,1.5c0,0.5-0.1,1-0.2,1.5c-0.1,0.4-0.3,0.8-0.6,1.2s-0.5,0.7-0.8,1s-0.6,0.6-0.9,0.9c-0.3,0.3-0.6,0.6-0.9,0.9
		c-0.3,0.3-0.6,0.6-0.8,0.9s-0.4,0.7-0.6,1.1c-0.1,0.4-0.2,0.8-0.2,1.3v1.9h-1.2v-1.9c0-0.5,0.1-1,0.2-1.5c0.1-0.4,0.3-0.8,0.6-1.2
		c0.2-0.4,0.5-0.7,0.8-1c0.3-0.3,0.6-0.6,0.9-0.9c0.3-0.3,0.6-0.6,0.9-0.9c0.3-0.3,0.6-0.6,0.8-0.9s0.4-0.7,0.6-1.1
		c0.1-0.4,0.2-0.8,0.2-1.3c0-0.6-0.1-1.2-0.3-1.7c-0.2-0.5-0.5-1-0.9-1.4c-0.4-0.4-0.8-0.7-1.4-0.9s-1.1-0.3-1.7-0.3
		s-1.1,0.1-1.7,0.3c-0.5,0.2-1,0.5-1.4,0.9s-0.7,0.9-0.9,1.4c-0.2,0.5-0.3,1.1-0.3,1.7H356c0-0.5,0.1-1,0.2-1.5s0.3-0.9,0.6-1.3
		s0.5-0.8,0.9-1.1c0.3-0.3,0.7-0.6,1.1-0.9c0.4-0.2,0.8-0.4,1.3-0.6C360.5,2.1,361,2,361.5,2z M360.9,20.8h1.2V22h-1.2V20.8z"/>
</g>
<path d="M397,2.6c0-0.2-0.1-0.3-0.2-0.4S396.5,2,396.4,2s-0.3,0.1-0.4,0.2l-7.1,7.1c-0.5-0.4-0.9-0.6-1.5-0.8
	c-0.5-0.2-1.1-0.3-1.6-0.3c-0.7,0-1.3,0.1-1.9,0.4c-0.6,0.3-1.2,0.6-1.6,1.1l-0.4,0.4l-0.3,0.3l-0.5,0.3l-3.9,2l9.4,9.4l2-3.9
	l0.3-0.5l0.3-0.3l0.4-0.4c0.5-0.5,0.8-1,1.1-1.6s0.4-1.3,0.4-1.9c0-0.6-0.1-1.1-0.3-1.6s-0.4-1-0.8-1.5l7.1-7.1
	C396.9,2.9,397,2.8,397,2.6z M386.1,20.3l-7.4-7.4l3-1.5l5.9,5.9L386.1,20.3z M389.7,13.3c0,0.5-0.1,1.1-0.3,1.6
	c-0.2,0.5-0.5,0.9-0.9,1.3l-0.4,0.4l-5.7-5.7l0.4-0.4c0.4-0.4,0.8-0.7,1.3-0.9c0.5-0.2,1-0.3,1.6-0.3c0.5,0,0.9,0.1,1.3,0.2
	c0.4,0.1,0.8,0.4,1.2,0.6l0.4,0.3l0.3,0.4c0.3,0.4,0.5,0.8,0.6,1.2C389.7,12.4,389.7,12.9,389.7,13.3z"/>
<g>
	<g>
		<path d="M402,2v2l8,8v10h4v-4v-0.3V12l0.6-0.6l-0.7-0.7l-0.6,0.6l-0.3,0.3l0,1.2v4.5v0.8V21h-2v-9v-0.4l-0.3-0.3L403,3.6V3h18v0.6
			l-3.4,3.4l0.7,0.7L422,4V2H402z M421.3,8l-2.8,2.8L415.7,8L415,8.7l2.8,2.8l-2.8,2.8l0.7,0.7l2.8-2.8l2.8,2.8l0.7-0.7l-2.8-2.8
			l2.8-2.8L421.3,8z"/>
	</g>
</g>
<g>
	<path d="M437,22v-9.3l4-4V11h1V7h-4v1h2.3l-4,4H427v10H437z M428,13h8v8h-8V13z"/>
	<polygon points="428,3 446,3 446,21 438,21 438,22 447,22 447,2 427,2 427,11 428,11 	"/>
</g>
<g>
	<path d="M462,2v9.3l-4,4V13h-1v4h4v-1h-2.3l4-4h9.3V2H462z M471,11h-8V3h8V11z"/>
	<polygon points="471,21 453,21 453,3 461,3 461,2 452,2 452,22 472,22 472,13 471,13 	"/>
</g>
<g>
	<path d="M517,7h-10v10h10V7z M516,16h-8V8h8V16z"/>
	<path d="M521,2h-19v20h20V2H521z M521,21h-18V3h18V21z"/>
</g>
<g>
	<path d="M487,2v9.3l-4,4V13h-1v4h4v-1h-2.3l4-4h9.3V2H487z"/>
	<polygon points="496,21 478,21 478,3 486,3 486,2 477,2 477,22 497,22 497,13 496,13 	"/>
</g>
<g>
	<path d="M544,3.4l1.6,1.6l-16,16H528v-1.6L544,3.4 M544,2l-17,17v3h3l17-17L544,2L544,2z"/>
</g>
<path d="M566.7,3c3.3,0,4.3,2.4,4.3,3.3v13.6c-1.2-0.8-2.7-1.7-4.3-1.7c-2.1,0-3.8,1.4-4.7,2.3c-1-1-2.7-2.3-4.7-2.3
	c-1.6,0-3.2,0.9-4.3,1.7V6.3c0-0.7,0.7-3.3,4.3-3.3c2.9,0,3.8,2.3,3.8,2.4L562,7l0.9-1.7C562.9,5.3,563.9,3,566.7,3 M566.7,2
	c-3.5,0-4.7,3.1-4.7,3.1S561.1,2,557.3,2c-4,0-5.3,2.9-5.3,4.3c0,1.4,0,15.7,0,15.7s2.8-2.9,5.3-2.9c2.5,0,4.7,2.9,4.7,2.9
	s2-2.9,4.7-2.9c2.5,0,5.3,2.9,5.3,2.9s0-14.3,0-15.7C572,4.9,570.5,2,566.7,2L566.7,2z"/>
<path d="M597,3.9L597,3.9C595.9,3,594.3,2,592.7,2c-2,0-3.6,1.4-4.6,2.5c0,0-0.1,0.1-0.1,0.1c-0.1-0.1-0.2-0.2-0.3-0.4
	c-1-1-2.5-2.3-4.3-2.3c-1.6,0-3.2,1-4.3,1.9v0c-0.6,0.6-1,1-1,1c0,0.4,0,0.9,0,1.4c0,5.5,0,15.6,0,15.6s2.8-3.2,5.3-3.2
	c2.5,0,4.7,3.2,4.7,3.2s2-3.2,4.7-3.2c2.5,0,5.3,3.2,5.3,3.2s0-11.8,0-17.1C598,4.9,597.6,4.5,597,3.9z M597,19.6
	c-1.2-0.9-2.7-1.9-4.3-1.9c-2.1,0-3.8,1.5-4.7,2.6c-1-1.1-2.7-2.6-4.7-2.6c-1.6,0-3.2,1-4.3,1.9V5.4c1-1,2.7-2.2,4.3-2.2
	c2.5,0,4.7,3.2,4.7,3.2s2-3.2,4.7-3.2c1.6,0,3.3,1.3,4.3,2.2V19.6z"/>
<path d="M622,5h-20V4h20V5z M622,7h-20v1h20V7z M622,10h-20v1h20V10z M602,14h9v-1h-9V14z M602,17h9v-1h-9V17z M622,21.3l-0.7,0.7
	l-2.4-2.4c-0.6,0.5-1.4,0.8-2.3,0.8c-2.1,0-3.7-1.7-3.7-3.7c0-2.1,1.7-3.7,3.7-3.7s3.7,1.7,3.7,3.7c0,0.9-0.3,1.6-0.8,2.3L622,21.3z
	 M619.5,16.7c0-1.5-1.3-2.8-2.8-2.8s-2.8,1.3-2.8,2.8s1.3,2.8,2.8,2.8c0.6,0,1.2-0.2,1.6-0.5c0.3-0.2,0.5-0.4,0.7-0.7
	C619.3,17.9,619.5,17.3,619.5,16.7z"/>
<path d="M646,12h-9v9h-1v-9h-9v-1h9V2h1v9h9V12z"/>
<g class="st1">
	<path d="M665.1,2c0.6,0,1.2,0.1,1.8,0.2s1.1,0.4,1.6,0.7s1,0.7,1.4,1.1s0.8,0.9,1.1,1.4s0.5,1.1,0.7,1.6s0.2,1.2,0.2,1.8
		s-0.1,1.2-0.2,1.8s-0.4,1.1-0.7,1.6s-0.7,1-1.1,1.4s-0.9,0.8-1.4,1.1s-1.1,0.5-1.6,0.7s-1.2,0.2-1.8,0.2c-0.8,0-1.6-0.1-2.3-0.4
		s-1.4-0.7-2.1-1.2l-7.7,7.7c-0.1,0.1-0.3,0.2-0.4,0.2s-0.3-0.1-0.4-0.2s-0.2-0.3-0.2-0.4s0.1-0.3,0.2-0.4l7.7-7.7
		c-0.5-0.6-0.9-1.3-1.2-2.1s-0.4-1.5-0.4-2.3c0-0.6,0.1-1.2,0.2-1.8s0.4-1.1,0.7-1.6s0.7-1,1.1-1.4s0.9-0.8,1.4-1.1s1.1-0.5,1.6-0.7
		S664.5,2,665.1,2z M665.1,14.5c0.8,0,1.5-0.1,2.2-0.4s1.3-0.7,1.8-1.2s0.9-1.1,1.2-1.8s0.4-1.4,0.4-2.2s-0.1-1.5-0.4-2.2
		s-0.7-1.3-1.2-1.8S668,4,667.3,3.7s-1.4-0.4-2.2-0.4s-1.5,0.1-2.2,0.4s-1.3,0.7-1.8,1.2s-0.9,1.1-1.2,1.8s-0.4,1.4-0.4,2.2
		s0.1,1.5,0.4,2.2s0.7,1.3,1.2,1.8s1.1,0.9,1.8,1.2S664.3,14.5,665.1,14.5z"/>
</g>
<g>
	<g>
		<path d="M682,11h10v-1h-10V11z M692,8h-10v1h10V8z M682,13h6v-1h-6V13z M697,2L697,2l-20,0v20l0,0v0h10l-1-1h-8V3h18v10l1,0L697,2
			L697,2z M690,20l-3-3l-1,1l4,4l7-7l-1-1L690,20z"/>
	</g>
</g>
<rect x="575" y="25" class="st0" width="24" height="24"/>
<path d="M712.7,3.5L702,13.9l0.8,0.7l10.7-10.4c1.5-1.5,3.9-1.5,5.4-0.1s1.4,3.8-0.1,5.3l-2.5,2.4l-1.9,1.9l-6.6,6.5
	c-1,1-2.7,1-3.8,0c-1-1-1-2.7,0-3.7l7.8-7.6l0.8-0.8l2.6-2.5c0.6-0.6,1.6-0.6,2.3,0c0.6,0.6,0.6,1.6,0,2.2l-6.8,6.6l0.8,0.7l6.8-6.6
	c1-1,1-2.7,0-3.7c-1-1-2.7-1-3.8,0l-2.6,2.5l-0.8,0.8l-7.8,7.6c-1.5,1.4-1.5,3.7,0,5.2c1.5,1.4,3.8,1.4,5.3,0l6.6-6.5l1.9-1.9
	l2.5-2.4c2-1.9,2-4.9,0.1-6.8C717.7,1.5,714.6,1.6,712.7,3.5z"/>
<g>
	<circle cx="737" cy="8" r="2"/>
	<path d="M737,2c-3.3,0-6,2.9-6,6.4c0,1.6,0.7,3.5,1.3,4.7c1,1.9,4.4,8.4,4.4,8.4L737,22l0.2-0.5c0-0.1,3.4-6.3,4.5-8.4
		c0.6-1.2,1.3-3.2,1.3-4.7C743,4.9,740.3,2,737,2z M740.8,12.7c-0.8,1.5-2.8,5.3-3.8,7.2c-1.1-2-3.1-5.8-3.8-7.2
		c-0.6-1.2-1.2-3-1.2-4.3c0-3,2.2-5.4,5-5.4c2.8,0,5,2.4,5,5.4C742,9.7,741.4,11.6,740.8,12.7z"/>
</g>
<path d="M754,14v-4h9v4H754z M768,7v1h3v8h-3v1h4V7H768z M765,16h-12V8h12V7h-13v10h13V16z M767,19.1V3.9c1-0.2,1.8-1,1.9-1.9h-1
	c-0.2,0.6-0.8,1-1.4,1s-1.2-0.4-1.4-1h-1c0.2,1,1,1.7,1.9,1.9v15.1c-1,0.2-1.8,1-1.9,1.9h1c0.2-0.6,0.8-1,1.4-1s1.2,0.4,1.4,1h1
	C768.8,20,768,19.3,767,19.1z"/>
<path d="M795.8,4.1c0.2,0.3,0.3,0.6,0.5,0.8c0.1,0.3,0.3,0.5,0.4,0.8c0.1,0.3,0.2,0.6,0.2,0.9c0.1,0.3,0.1,0.6,0.1,1
	c0,0.5-0.1,1-0.2,1.5c-0.1,0.5-0.3,0.9-0.6,1.3s-0.5,0.8-0.9,1.1s-0.7,0.6-1.1,0.9c-0.4,0.2-0.9,0.4-1.3,0.6c-0.5,0.1-1,0.2-1.5,0.2
	c-0.2,0-0.3,0-0.5,0s-0.3,0-0.5-0.1l-7.9,7.9c-0.3,0.3-0.7,0.5-1.1,0.7c-0.4,0.2-0.8,0.2-1.3,0.2c-0.4,0-0.9-0.1-1.3-0.3
	c-0.4-0.2-0.7-0.4-1-0.7c-0.3-0.3-0.5-0.6-0.7-1c-0.2-0.4-0.3-0.8-0.3-1.3c0-0.4,0.1-0.9,0.2-1.3c0.2-0.4,0.4-0.8,0.7-1.1l7.9-7.9
	c0-0.1,0-0.3-0.1-0.5c0-0.2,0-0.3,0-0.5c0-0.5,0.1-1,0.2-1.5c0.1-0.5,0.3-0.9,0.6-1.3c0.2-0.4,0.5-0.8,0.9-1.1s0.7-0.6,1.1-0.9
	c0.4-0.2,0.9-0.4,1.3-0.6c0.5-0.1,1-0.2,1.5-0.2c0.4,0,0.7,0,1,0.1s0.6,0.1,0.9,0.2c0.3,0.1,0.5,0.2,0.8,0.4
	c0.3,0.1,0.5,0.3,0.8,0.5L791,7l1,1L795.8,4.1z M791.4,12c0.6,0,1.2-0.1,1.7-0.3c0.5-0.2,1-0.5,1.4-0.9c0.4-0.4,0.7-0.9,0.9-1.4
	c0.2-0.5,0.3-1.1,0.3-1.7c0-0.5-0.1-0.9-0.2-1.4L792,9.8L789.2,7l3.5-3.5c-0.4-0.2-0.9-0.2-1.4-0.2c-0.6,0-1.2,0.1-1.7,0.3
	c-0.5,0.2-1,0.5-1.4,0.9c-0.4,0.4-0.7,0.9-0.9,1.4C787.1,6.5,787,7,787,7.6c0,0.2,0,0.4,0.1,0.7c0,0.2,0.1,0.4,0.1,0.6l-8.3,8.4
	c-0.2,0.2-0.3,0.4-0.4,0.7c-0.1,0.2-0.2,0.5-0.2,0.8c0,0.3,0.1,0.5,0.2,0.8c0.1,0.2,0.3,0.5,0.4,0.6c0.2,0.2,0.4,0.3,0.6,0.4
	c0.2,0.1,0.5,0.2,0.8,0.2c0.3,0,0.5-0.1,0.8-0.2c0.2-0.1,0.5-0.3,0.7-0.4l8.4-8.3c0.2,0.1,0.4,0.1,0.6,0.1
	C790.9,12,791.1,12,791.4,12z"/>
<polygon class="st2" points="839.4,12 839,12.1 838.6,12 835.9,10.9 839,17.6 842.1,10.9 "/>
<g>
	<polygon points="812,12 806,9 812,22 818,9 	"/>
	<polygon points="802,2 802,18 809,18 808,17 803,17 803,3 821,3 821,17 816,17 815,18 822,18 822,2 	"/>
</g>
<rect x="825" y="0" class="st0" width="24" height="24"/>
<rect x="850" y="0" class="st0" width="24" height="24"/>
<rect x="875" y="0" class="st0" width="24" height="24"/>
<rect x="900" y="0" class="st0" width="24" height="24"/>
<rect x="925" y="0" class="st0" width="24" height="24"/>
<rect x="950" y="0" class="st0" width="24" height="24"/>
<rect x="975" y="0" class="st0" width="24" height="24"/>
<rect x="1000" y="0" class="st0" width="24" height="24"/>
<rect x="1025" y="0" class="st0" width="24" height="24"/>
<rect x="1050" y="0" class="st0" width="24" height="24"/>
<rect x="1075" y="0" class="st0" width="24" height="24"/>
<rect x="1100" y="0" class="st0" width="24" height="24"/>
<rect x="1125" y="0" class="st0" width="24" height="24"/>
<rect x="1150" y="0" class="st0" width="24" height="24"/>
<rect x="1175" y="0" class="st0" width="24" height="24"/>
<g>
	<path d="M837,12l-6-3l6,13l6-13L837,12z M833.1,11.2l3.5,1.7l0.4,0.2l0.4-0.2l3.5-1.7l-3.9,8.4L833.1,11.2z"/>
	<polygon points="827,2 827,18 834,18 833,17 828,17 828,3 846,3 846,17 841,17 840,18 847,18 847,2 	"/>
</g>
<g class="st1">
	<path d="M856.9,2H869v17.1l-2.9,2.9H854V4.9L856.9,2z M867.8,18.6V3.3h-10.4l-2.1,2.1v15.4h10.4L867.8,18.6z"/>
</g>
<g>
	<path d="M881.9,2L879,4.9V22h12.1l2.9-2.9V2H881.9z M893,18.6l-2.4,2.4H880V5.4l2.4-2.4H893V18.6z"/>
	<rect x="883" y="8" width="7" height="1"/>
	<rect x="883" y="11" width="7" height="1"/>
	<rect x="883" y="14" width="7" height="1"/>
</g>
<g>
	<g>
		<path d="M919.5,10c-0.7,0-1.2,0.4-1.4,1h-2.1c-0.1-1.1-0.7-2.1-1.4-2.8l1.8-3.2c0.1,0,0.1,0,0.2,0c0.8,0,1.5-0.7,1.5-1.5
			S917.3,2,916.5,2S915,2.7,915,3.5c0,0.4,0.2,0.8,0.4,1.1l-1.8,3C913,7.2,912.3,7,911.5,7c-0.5,0-0.9,0.1-1.4,0.2l-1.6-2.7
			c0.3-0.3,0.4-0.6,0.4-1.1c0-0.8-0.7-1.5-1.5-1.5S906,2.7,906,3.5s0.7,1.5,1.5,1.5c0.1,0,0.1,0,0.2,0l1.5,2.7
			c-1.2,0.7-2,1.9-2.2,3.3h-2.1c-0.2-0.6-0.8-1-1.4-1c-0.8,0-1.5,0.7-1.5,1.5s0.7,1.5,1.5,1.5c0.7,0,1.2-0.4,1.4-1h2.1
			c0.2,1.4,1,2.6,2.2,3.3l-1.5,2.7c-0.1,0-0.1,0-0.2,0c-0.8,0-1.5,0.7-1.5,1.5s0.7,1.5,1.5,1.5s1.5-0.7,1.5-1.5
			c0-0.4-0.2-0.8-0.4-1.1l1.6-2.7c0.4,0.1,0.9,0.2,1.4,0.2c0.8,0,1.5-0.2,2.2-0.6l1.8,3c-0.3,0.3-0.4,0.6-0.4,1.1
			c0,0.8,0.7,1.5,1.5,1.5s1.5-0.7,1.5-1.5s-0.7-1.5-1.5-1.5c-0.1,0-0.1,0-0.2,0l-1.8-3.2c0.8-0.7,1.3-1.7,1.4-2.8h2.1
			c0.2,0.6,0.8,1,1.4,1c0.8,0,1.5-0.7,1.5-1.5S920.3,10,919.5,10z M911.5,15c-1.9,0-3.5-1.6-3.5-3.5s1.6-3.5,3.5-3.5
			s3.5,1.6,3.5,3.5S913.4,15,911.5,15z"/>
	</g>
</g>
<g>
	<path d="M944.5,10c-0.7,0-1.2,0.4-1.4,1h-2.1c-0.1-1.1-0.7-2.1-1.4-2.8l1.8-3.2c0.1,0,0.1,0,0.2,0c0.8,0,1.5-0.7,1.5-1.5
		S942.3,2,941.5,2S940,2.7,940,3.5c0,0.4,0.2,0.8,0.4,1.1l-1.8,3C938,7.2,937.3,7,936.5,7c-0.5,0-0.9,0.1-1.4,0.2l-1.6-2.7
		c0.3-0.3,0.4-0.6,0.4-1.1c0-0.8-0.7-1.5-1.5-1.5S931,2.7,931,3.5s0.7,1.5,1.5,1.5c0.1,0,0.1,0,0.2,0l1.5,2.7
		c-1.2,0.7-2,1.9-2.2,3.3h-2.1c-0.2-0.6-0.8-1-1.4-1c-0.8,0-1.5,0.7-1.5,1.5s0.7,1.5,1.5,1.5c0.7,0,1.2-0.4,1.4-1h2.1
		c0.2,1.4,1,2.6,2.2,3.3l-1.5,2.7c-0.1,0-0.1,0-0.2,0c-0.8,0-1.5,0.7-1.5,1.5s0.7,1.5,1.5,1.5s1.5-0.7,1.5-1.5
		c0-0.4-0.2-0.8-0.4-1.1l1.6-2.7c0.4,0.1,0.9,0.2,1.4,0.2c0.8,0,1.5-0.2,2.2-0.6l1.8,3c-0.3,0.3-0.4,0.6-0.4,1.1
		c0,0.8,0.7,1.5,1.5,1.5s1.5-0.7,1.5-1.5s-0.7-1.5-1.5-1.5c-0.1,0-0.1,0-0.2,0l-1.8-3.2c0.8-0.7,1.3-1.7,1.4-2.8h2.1
		c0.2,0.6,0.8,1,1.4,1c0.8,0,1.5-0.7,1.5-1.5S945.3,10,944.5,10z"/>
</g>
<g>
	<circle cx="962" cy="12" r="3"/>
	<path d="M962,6c-5.5,0-10,6-10,6s4.5,6,10,6s10-6,10-6S967.5,6,962,6z M962,17c-4,0-7.5-3.6-8.7-5c1.3-1.4,4.7-5,8.7-5
		c4,0,7.5,3.6,8.7,5C969.5,13.4,966,17,962,17z"/>
</g>
<g class="st1">
	<path d="M995.7,2c0.2,0,0.3,0,0.5,0.1c0.2,0.1,0.3,0.2,0.4,0.3c0.1,0.1,0.2,0.2,0.3,0.4s0.1,0.3,0.1,0.5V22h-17.8l-2.2-2.2V3.2
		c0-0.2,0-0.3,0.1-0.5s0.2-0.3,0.3-0.4c0.1-0.1,0.2-0.2,0.4-0.3c0.2-0.1,0.3-0.1,0.5-0.1H995.7z M996,3h-2v10h-14V3h-1.9L978,19.1
		l1.9,1.9h1.2v-5.1l10,0l0.1,5h4.9V3z M981,12h12V3h-12V12z M990,17h-8v4h0.9l0-3h2v3h5L990,17z"/>
</g>
<path d="M1021,20V9h-2h0c0-0.4-0.1-0.7-0.1-1c-0.1-0.4-0.1-0.7-0.2-1c-0.3-0.9-0.8-1.6-1.4-2.4c-0.2-0.3-0.5-0.5-0.7-0.7
	c-1.2-1.1-2.8-1.9-4.5-1.9h-1c-1.7,0-3.3,0.8-4.5,1.9c-0.2,0.2-0.5,0.5-0.7,0.7c-0.6,0.7-1.1,1.5-1.4,2.4c-0.1,0.3-0.2,0.6-0.2,1
	c-0.1,0.3-0.1,0.6-0.1,1h0h-2v11h6v1h-4v1h4h6h4v-1h-4v-1H1021z M1016.5,5.4c0.4,0.5,0.7,1,0.9,1.6c0.1,0.3,0.2,0.7,0.3,1
	c0.1,0.4,0.2,0.7,0.2,1h-2.9c0-0.3,0.1-0.6,0.2-1c0.1-0.3,0.2-0.7,0.3-1C1015.8,6.4,1016.1,5.8,1016.5,5.4
	C1016.5,5.4,1016.5,5.4,1016.5,5.4z M1018,10c-0.1,1-0.6,2.7-1.5,3.7c-0.8-1-1.3-2.7-1.5-3.7H1018z M1012,8V7V3
	c1.4,0.1,2.8,0.7,3.8,1.6c-0.6,0.7-1.1,1.4-1.4,2.4c-0.1,0.3-0.2,0.6-0.2,1c-0.1,0.3-0.1,0.6-0.1,1h-2V8z M1012,10h2
	c0.1,2,0.8,3.2,1.8,4.4c0,0,0,0,0,0c-1,0.9-2.3,1.5-3.8,1.6V10z M1011,3v4v1v1h-2c0-0.4-0.1-0.7-0.1-1c-0.1-0.4-0.1-0.7-0.2-1
	c-0.3-0.9-0.8-1.6-1.4-2.4C1008.2,3.7,1009.6,3.2,1011,3z M1011,10v6c-1.5-0.1-2.8-0.7-3.8-1.6c0,0,0,0,0,0c1-1.2,1.7-2.4,1.8-4.4
	H1011z M1005.2,8c0.1-0.3,0.2-0.7,0.3-1c0.2-0.6,0.5-1.2,0.9-1.6c0,0,0,0,0,0c0.4,0.5,0.7,1,0.9,1.6c0.1,0.3,0.2,0.7,0.3,1
	c0.1,0.4,0.2,0.7,0.2,1h-2.9C1005.1,8.7,1005.1,8.4,1005.2,8z M1008,10c-0.1,1-0.7,2.6-1.5,3.7c-0.8-1-1.3-2.7-1.5-3.7H1008z
	 M1013,21h-4v-1h4V21z M1008,19h-5v-9h1h0c0.1,2,0.8,3.2,1.8,4.4c0.2,0.3,0.5,0.5,0.7,0.7c1.2,1.1,2.8,1.8,4.5,1.9h1
	c1.7-0.1,3.3-0.8,4.5-1.9c0.2-0.2,0.5-0.5,0.7-0.7c1-1.2,1.7-2.4,1.8-4.4h0h1v9h-6H1008z"/>
<g>
	<path d="M1046,20V9h-2V2h-10v3h-5v4h-2v11h6v1h-4v1h4h6h4v-1h-4v-1H1046z M1035,15V3h8v12c0,1.1-0.9,2-2,2h-6h-0.8
		C1034.7,16.5,1035,15.8,1035,15z M1030,6h4v9c0,1.1-0.9,2-2,2s-2-0.9-2-2V6z M1038,21h-4v-1h4V21z M1033,19h-5v-9h1v5
		c0,1.7,1.3,3,3,3h9c1.7,0,3-1.3,3-3v-5h1v9h-6H1033z"/>
	<rect x="1036" y="7" width="6" height="1"/>
	<rect x="1036" y="9" width="6" height="1"/>
	<rect x="1036" y="11" width="6" height="1"/>
</g>
<g>
	<g>
		<path d="M1069.8,18.8c1.3-1.6,2.1-3.4,2.2-5.3h-4.8C1067.4,15.3,1068.3,17.2,1069.8,18.8z M1072,12.5c-0.1-2.9-0.9-4.7-2.2-6.3
			c-1.5,1.5-2.4,3.4-2.6,6.3H1072z M1071,11.5h-2.9c0.2-1.9,0.8-2.9,1.6-3.8C1070.4,8.6,1070.9,9.6,1071,11.5z M1062.5,13.4V22
			c2.9-0.1,5-1,6.7-2.8c-1.7-1.7-2.8-3.9-2.9-5.8H1062.5z M1054.2,6.2c-1.3,1.6-2.1,3.4-2.2,6.3h4.8
			C1056.6,9.6,1055.7,7.7,1054.2,6.2z M1054.3,7.7c0.8,1,1.4,1.9,1.6,3.8h-2.9C1053.1,9.6,1053.6,8.6,1054.3,7.7z M1066.3,12.5
			c0.1-2.9,1.2-5.5,2.9-7.2c-1.7-1.8-3.8-3.1-6.7-3.2h-1c-2.9,0.1-5,1.5-6.7,3.2c1.7,1.7,2.8,4.4,2.9,7.2H1066.3z M1062.5,3
			L1062.5,3c1.8,0,4,1.1,5.4,2.3c-1.3,1.6-2.3,4.3-2.5,6.2h-1.9h-1V3z M1061.5,3v8.6h-2.9c-0.2-1.9-1.2-4.6-2.5-6.2
			C1057.6,4,1059.5,3,1061.5,3z M1052,13.4c0.1,1.9,0.9,3.7,2.2,5.3c1.5-1.5,2.4-3.4,2.6-5.3H1052z M1054.8,19.2
			c1.7,1.8,3.8,2.6,6.7,2.8v-8.6h-3.8C1057.6,15.3,1056.5,17.5,1054.8,19.2z"/>
	</g>
</g>
<path d="M1093.4,8.9l-0.7,0.7l2.4,2.4h-3.3c-0.3-3.7-3.5-6.6-7.3-6.6c-1.5,0-3,0.5-4.2,1.3l-3.7-3.7l-0.7,0.7l3.6,3.6
	c-1.5,1.3-2.4,3.3-2.4,5.4c0,1.8,0.6,3.4,1.7,4.7l-2.9,2.9l0.7,0.7l2.9-2.9c1.3,1.2,3,1.9,4.9,1.9c3.9,0,7.1-3.1,7.3-7h3.2l-2.4,2.4
	l0.7,0.7l3.6-3.6L1093.4,8.9z M1084.5,19c-3.5,0-6.3-2.8-6.3-6.3s2.8-6.3,6.3-6.3c3.3,0,5.9,2.5,6.3,5.6h-1.6c-0.3-2.3-2.3-4-4.6-4
	c-2.6,0-4.7,2.1-4.7,4.7c0,2.6,2.1,4.7,4.7,4.7c2.5,0,4.5-1.9,4.6-4.4h1.5C1090.7,16.3,1087.9,19,1084.5,19z M1088.3,13
	c-0.2,1.9-1.7,3.4-3.6,3.4c-2,0-3.7-1.6-3.7-3.7s1.6-3.7,3.7-3.7c1.8,0,3.3,1.3,3.6,3h-3.3v1H1088.3z"/>
<g>
	<path d="M1106.3,11l-3.3,10h1.3l0.8-2.5h3.7l0.8,2.5h1.3l-3.3-10H1106.3z M1105.6,17.3l1.4-4.4l1.4,4.4H1105.6z"/>
	<path d="M1116,10c-0.6-0.6,2-2.3,2-3c0-1,0-1,0-1h-6v1h4.4c0.2,0,0.3,0.2,0.2,0.4C1116,8,1115,9,1115,9h-1c0,0,1,0.7,1,1h-1h-3v1h4
		v2c0,1.3-2,1-2,1s0,1,1,1c0.1,0,1,0,1,0c0.6,0,1-0.5,1-1c0-0.2,0-3,0-3h4v-1h-3H1116z"/>
	<path d="M1120,4l-4,0V3h-2v1h-4v4l1,0V5h8c0,0,0,1.9,0,2h1C1120,7,1120,4.1,1120,4z"/>
</g>
<polygon points="1147,6 1147,2 1143,2 1143,3 1145.3,3 1137,11.3 1128.7,3 1131,3 1131,2 1127,2 1127,6 1128,6 1128,3.7 1136.3,12 
	1128,20.3 1128,18 1127,18 1127,22 1131,22 1131,21 1128.7,21 1137,12.7 1145.3,21 1143,21 1143,22 1147,22 1147,18 1146,18 
	1146,20.3 1137.7,12 1146,3.7 1146,6 "/>
<g>
	<polygon points="1167,14 1167,13 1163,13 1163,17 1164,17 1164,14.7 1171.3,22 1172,21.3 1164.7,14 	"/>
	<polygon points="1167,10 1164.7,10 1172,2.7 1171.3,2 1164,9.3 1164,7 1163,7 1163,11 1167,11 	"/>
	<polygon points="1157,14 1159.3,14 1152,21.3 1152.7,22 1160,14.7 1160,17 1161,17 1161,13 1157,13 	"/>
	<polygon points="1160,9.3 1152.7,2 1152,2.7 1159.3,10 1157,10 1157,11 1161,11 1161,7 1160,7 	"/>
</g>
<g>
	<rect x="1178" y="13" width="19" height="1"/>
	<rect x="1178" y="10" width="19" height="1"/>
	<rect x="1178" y="16" width="14" height="1"/>
	<rect x="1178" y="7" width="19" height="1"/>
	<polygon points="1182,3 1177,3 1179.5,6 	"/>
	<polygon points="1189,21 1194,21 1191.5,18 	"/>
</g>
<g>
	<path d="M15.8,39.2l2.4,7.8L12,42.2L5.8,47l2.4-7.8L2,34.5h7.7L12,27l2.3,7.5H22L15.8,39.2z M15.9,43.6c-0.2-0.8-0.5-1.6-0.7-2.4
		s-0.5-1.6-0.8-2.4c0.7-0.5,1.3-1,2-1.5s1.3-1,2-1.5h-4.9L12,31.2l-1.4,4.6H5.7c0.7,0.5,1.3,1,2,1.5s1.3,1,2,1.5
		c-0.3,0.8-0.5,1.6-0.8,2.4s-0.5,1.6-0.7,2.4l3.9-3L15.9,43.6z"/>
</g>
<g>
	<g>
		<path class="st3" d="M46,28v12H35h-0.4l-0.3,0.3L31,43.6V41v-1h-1h-2V28H46 M47,27H27v14h3v5l5-5h12V27L47,27z"/>
	</g>
</g>
<g>
	<rect x="582" y="35" width="10" height="1"/>
	<rect x="582" y="37" width="6" height="1"/>
	<polygon points="597,27 597,27 577,27 577,47 577,47 577,47 588,47 588,46 578,46 578,28 596,28 596,38 597,39 597,27 	"/>
	<rect x="582" y="33" width="10" height="1"/>
	<path d="M594.8,43.4c0.8-0.5,1.2-1.4,1.2-2.4c0-1.7-1.3-3-3-3s-3,1.3-3,3c0,1,0.5,1.9,1.2,2.4c-1.3,0.7-2.2,2-2.2,3.6h1
		c0-1.7,1.3-3,3-3s3,1.3,3,3h1C597,45.4,596.1,44.1,594.8,43.4z M593,43c-1.1,0-2-0.9-2-2c0-1.1,0.9-2,2-2s2,0.9,2,2
		C595,42.1,594.1,43,593,43z"/>
</g>
<rect x="600" y="25" class="st0" width="24" height="24"/>
<g>
	<rect x="607" y="35" width="10" height="1"/>
	<rect x="607" y="37" width="6" height="1"/>
	<rect x="607" y="33" width="10" height="1"/>
	<polygon points="622,27 622,27 602,27 602,47 602,47 602,47 613,47 613,46 603,46 603,28 621,28 621,37 622,37 622,27 	"/>
	<path d="M621,38h-7v9h4v0h4v-5h-1V38z M621,46h-2v0h-1h-3v-7h5v3v1h1V46z"/>
</g>
<rect x="625" y="25" class="st0" width="24" height="24"/>
<g>
	<rect x="632" y="35" width="10" height="1"/>
	<rect x="632" y="33" width="10" height="1"/>
	<rect x="632" y="37" width="6" height="1"/>
	<polygon points="647,27 647,27 627,27 627,47 627,47 627,47 638,47 638,46 628,46 628,28 646,28 646,37 647,37 647,27 	"/>
	<rect x="644" y="39" width="3" height="2"/>
	<rect x="640" y="39" width="3" height="2"/>
	<rect x="644" y="42" width="3" height="2"/>
	<rect x="640" y="42" width="3" height="2"/>
	<rect x="644" y="45" width="3" height="2"/>
	<rect x="640" y="45" width="3" height="2"/>
</g>
<path d="M666,34h6v4h-3v-1h2v-2h-4L666,34z M653,37v-2h5l1-1h-7v4h4l0-1H653z M672,28v4h-20v-4H672z M671,29h-18v2h18V29z M663,38
	v-1h-1v1v2h-3v1h3v3h1v-3h3v-1h-3V38z M668.5,38c0.3,0.8,0.5,1.6,0.5,2.5c0,3.6-2.9,6.5-6.5,6.5s-6.5-2.9-6.5-6.5
	c0-0.9,0.2-1.7,0.5-2.5c0.1-0.4,0.3-0.7,0.5-1c0.5-0.8,1.2-1.5,2-2c1-0.6,2.1-1,3.3-1c0,0,0.1,0,0.1,0s0.1,0,0.1,0
	c1.2,0,2.4,0.4,3.3,1c0.8,0.5,1.5,1.2,2,2C668.2,37.3,668.4,37.6,668.5,38z M668,40.5c0-0.9-0.2-1.7-0.6-2.5c-0.2-0.4-0.4-0.7-0.7-1
	c-1-1.2-2.5-2-4.1-2c0,0-0.1,0-0.1,0s-0.1,0-0.1,0c-1.7,0-3.1,0.8-4.1,2c-0.3,0.3-0.5,0.6-0.7,1c-0.4,0.7-0.6,1.6-0.6,2.5
	c0,3,2.5,5.5,5.5,5.5S668,43.5,668,40.5z"/>
<g>
	<path d="M677,28v4h20v-4H677z M696,31h-18v-2h18V31z"/>
	<polygon points="688,38 688,37 687,37 687,38 687,40 684,40 684,41 687,41 687,44 688,44 688,41 691,41 691,40 688,40 	"/>
	<path d="M687.5,34c0,0-0.1,0-0.1,0H677v4h4.5c-0.3,0.8-0.5,1.6-0.5,2.5c0,3.6,2.9,6.5,6.5,6.5s6.5-2.9,6.5-6.5
		c0-0.9-0.2-1.7-0.5-2.5h3.5v-4h-9.4C687.6,34,687.5,34,687.5,34z M678,37v-2h6c-0.8,0.5-1.5,1.2-2,2H678z M687.5,46
		c-3,0-5.5-2.5-5.5-5.5c0-0.9,0.2-1.7,0.6-2.5c0.2-0.4,0.4-0.7,0.7-1c1-1.2,2.5-2,4.1-2c0,0,0.1,0,0.1,0s0.1,0,0.1,0
		c1.7,0,3.1,0.8,4.1,2c0.3,0.3,0.5,0.6,0.7,1c0.4,0.7,0.6,1.6,0.6,2.5C693,43.5,690.5,46,687.5,46z M696,35v2h-3
		c-0.5-0.8-1.2-1.5-2-2H696z"/>
</g>
<path d="M702,28v4h20v-4H702z M721,31h-18v-2h18V31z M712.5,34c0,0-0.1,0-0.1,0H702v4h4.5c-0.3,0.8-0.5,1.6-0.5,2.5
	c0,3.6,2.9,6.5,6.5,6.5s6.5-2.9,6.5-6.5c0-0.9-0.2-1.7-0.5-2.5h3.5v-4h-9.4C712.6,34,712.5,34,712.5,34z M703,37v-2h6
	c-0.8,0.5-1.5,1.2-2,2H703z M721,35v2h-3c-0.5-0.8-1.2-1.5-2-2H721z M713,40h3v1h-3v3h-1v-3h-3v-1h3v-3h1V40z"/>
<g class="st1">
	<path d="M96,47H77l3.8-11.3h5.1v-2.6c-0.4-0.1-0.7-0.2-1-0.4s-0.6-0.4-0.8-0.7c-0.2-0.3-0.4-0.6-0.5-0.9s-0.2-0.7-0.2-1.1
		c0-0.4,0.1-0.8,0.2-1.2s0.4-0.7,0.7-1s0.6-0.5,1-0.7c0.4-0.2,0.8-0.2,1.2-0.2s0.8,0.1,1.2,0.2c0.4,0.2,0.7,0.4,1,0.7
		c0.3,0.3,0.5,0.6,0.7,1s0.3,0.8,0.3,1.2c0,0.4-0.1,0.7-0.2,1.1s-0.3,0.6-0.5,0.9c-0.2,0.3-0.5,0.5-0.8,0.7s-0.6,0.3-1,0.4v2.6h5.1
		L96,47z M78.8,45.8h15.5L91.3,37h-4.2v4.7c0,0.1,0,0.1-0.1,0.2c0,0-0.1,0.1-0.2,0.1c-0.1,0-0.1,0-0.2,0c-0.1,0-0.1,0-0.2,0
		s-0.1,0-0.2,0c-0.1,0-0.1,0-0.2,0c-0.1,0-0.1-0.1-0.2-0.1c0,0-0.1-0.1-0.1-0.2V37h-4.2L78.8,45.8z M84.6,30.1c0,0.3,0,0.5,0.1,0.7
		c0.1,0.2,0.2,0.4,0.4,0.6s0.4,0.3,0.6,0.4s0.5,0.1,0.7,0.1s0.5,0,0.7-0.1s0.4-0.2,0.6-0.4s0.3-0.4,0.4-0.6c0.1-0.2,0.1-0.5,0.1-0.7
		s0-0.5-0.1-0.7c-0.1-0.2-0.2-0.4-0.4-0.6s-0.4-0.3-0.6-0.4s-0.5-0.1-0.7-0.1s-0.5,0-0.7,0.1s-0.4,0.2-0.6,0.4s-0.3,0.4-0.4,0.6
		C84.6,29.6,84.6,29.9,84.6,30.1z"/>
</g>
<g>
	<path d="M62,27c-3.3,0-6,2.9-6,6.4c0,1.6,0.7,3.5,1.3,4.7c1,1.9,4.4,8.4,4.4,8.4L62,47l0.2-0.5c0-0.1,3.4-6.3,4.5-8.4
		c0.6-1.2,1.3-3.2,1.3-4.7C68,29.9,65.3,27,62,27z M65.8,37.7C65,39.2,63,42.9,62,44.9c-1.1-2-3.1-5.8-3.8-7.2
		c-0.6-1.2-1.2-3-1.2-4.3c0-3,2.2-5.4,5-5.4c2.8,0,5,2.4,5,5.4C67,34.7,66.4,36.6,65.8,37.7z"/>
	<circle cx="62" cy="33.2" r="2"/>
</g>
<path d="M109.9,27l-2.9,2.9V37h-1c-1.7,0-3-1.3-3-3c0-1.7,1.4-3,3-3l-0.1-1v0c-2.2,0-4,1.8-4,4c0,2.2,1.8,4,4,4h1v9h12.1l2.9-2.9V27
	H109.9z M120.8,43.6l-2.1,2.1h-10.4V38h5.8v2l3-2.5l-3-2.5v2h-5.8v-6.6l2.1-2.1h10.4V43.6z"/>
<path d="M168,37v2h-11c-0.6,0-1.2-0.2-1.7-0.5c-0.3-0.2-0.5-0.4-0.7-0.7c-0.4-0.5-0.6-1.1-0.6-1.8s0.2-1.3,0.6-1.8
	c0.7,0.5,1.5,0.8,2.4,0.8h11V37l3-2.5l-3-2.5v2h-11c-0.6,0-1.2-0.2-1.7-0.5c-0.3-0.2-0.5-0.4-0.7-0.7c-0.4-0.5-0.6-1.1-0.6-1.8
	c0-1.7,1.4-3,3-3h5.9v-1h-6v0c-2.2,0-4,1.8-4,4c0,1,0.3,1.8,0.9,2.5c-0.6,0.7-0.9,1.5-0.9,2.5s0.3,1.8,0.9,2.5
	c-0.6,0.7-0.9,1.5-0.9,2.5c0,2.2,1.8,4,4,4h11v2l3-2.5l-3-2.5v2h-11c-1.7,0-3-1.3-3-3c0-0.7,0.2-1.3,0.6-1.8
	c0.7,0.5,1.5,0.8,2.4,0.8h11v2l3-2.5L168,37z"/>
<g>
	<path d="M183,41l3-2.5l-3-2.5v2h-2c-1.7,0-3-1.3-3-3c0-1.7,1.4-3,3-3l-0.1-1v0c-2.2,0-4,1.8-4,4c0,2.2,1.8,4,4,4h2V41z"/>
	<rect x="183" y="29" width="14" height="1"/>
	<rect x="183" y="32" width="14" height="1"/>
	<rect x="187" y="35" width="10" height="1"/>
	<rect x="187" y="38" width="10" height="1"/>
	<rect x="187" y="41" width="10" height="1"/>
	<rect x="183" y="44" width="14" height="1"/>
</g>
<path d="M147,37.5l-3-2.5v2h-2V27h-12.1l-2.9,2.9V47h12.1l2.9-2.9V38h2v2L147,37.5z M140.8,43.6l-2.1,2.1h-10.4V30.4l2.1-2.1h10.4
	V37H136c-1.7,0-3-1.3-3-3h-1c0,2.2,1.8,4,4,4h4.7V43.6z"/>
<g>
	<rect x="210" y="30" width="12" height="1"/>
	<polygon points="202,29 202,31 204,33 208,29 208,27 204,31 	"/>
	<rect x="210" y="37" width="12" height="1"/>
	<polygon points="202,36 202,38 204,40 208,36 208,34 204,38 	"/>
	<rect x="210" y="44" width="12" height="1"/>
	<polygon points="202,43 202,45 204,47 208,43 208,41 204,45 	"/>
</g>
<path d="M247,31v-4h-20v4h2v3v1v4v1v4v1h3v1h13v-3h-13v1h-2v-4h2v1h13v-3h-13v1h-2v-4h2v1h13v-3h-13v1h-2v-3H247z M233,44h11v1h-11
	V44z M233,39h11v1h-11V39z M233,34h11v1h-11V34z"/>
<g>
	<path d="M344,34v-4h-5c0,0-0.1-0.8-0.2-1.2s-0.4-0.7-0.6-1s-0.6-0.5-1-0.6S336.4,27,336,27c-0.4,0-0.8,0.1-1.2,0.2
		s-0.7,0.4-0.9,0.6s-0.5,0.6-0.6,1S333,30,333,30h-5v16h8v1h10V34H344z M332,31h2v-1c0-1.1,0.9-2,2-2s2,0.9,2,2v1h2v1h-8V31z
		 M336,45h-7V31h2v2h10v-2h2v3h-7V45z M345,46h-8V35h8V46z"/>
	<circle cx="336" cy="30" r="1"/>
</g>
<path d="M272,31v-4h-20v4h2v3v1v4v1v4v1h3v1h13v-3h-13v1h-2v-4h2v1h13v-3h-13v1h-2v-4h2v1h13v-3h-13v1h-2v-3H272z M258,44h1v1h-1V44
	z M258,39h1v1h-1V39z M258,34h1v1h-1V34z M253,30v-2h18v2H253z"/>
<g>
	<path d="M316,30v-3h-11.1l-1.9,1.9V44h5v3h11.1l1.9-1.9V30H316z M308,42.8h-3.8V29.4l1.1-1.1h9.4V30h-4.9l-1.9,1.9V42.8z
		 M319.8,44.6l-1.1,1.1h-9.4V44v-1.3V32.4l1.1-1.1h4.4h1.3h3.8V44.6z"/>
	<rect x="311.9" y="34" width="5" height="1"/>
	<rect x="311.9" y="38" width="5" height="1"/>
	<rect x="310.9" y="36" width="7" height="1"/>
	<circle cx="316.5" cy="42.5" r="1.5"/>
</g>
<g>
	<path d="M359,41.1C359,41.1,359,41.1,359,41.1C359,41.1,359,40.3,359,41.1z"/>
	<polygon points="359,41.1 359,41.1 359,41.1 	"/>
	<path d="M359,41.1c0-0.1-0.7-2.8,0-3.1c1.2-0.6,2.5-0.7,3.7-0.7c0.7,0,0.5,0,1.1,0.1l0.8-0.9c-0.8-0.2-0.8-0.2-1.9-0.2
		c-1.5,0-2.9,0.3-4.1,0.8c-0.5,0.2-0.8,0.5-0.8,1.8c-1.2-1.5-1.7-1.8-2.3-1.8c-1.4,0-2.5-1.1-2.5-2.5c0-1.3,1-2.3,2.2-2.5
		c0.3,0,0.6-0.2,0.7-0.5c0.2-0.3,0.2-0.6,0.1-0.9c0-0.1,0-0.1,0-0.2c0-0.3,0.2-0.5,0.5-0.5c0.1,0,0.1,0,0.2,0c0.1,0,0.2,0.1,0.4,0.1
		c0.2,0,0.3,0,0.4-0.1c0.3-0.1,0.4-0.4,0.5-0.6c0.1-0.2,0.3-0.4,0.5-0.4c0,0,0.1,0,0.3,0.1c0.2,0.1,0.4,0.2,0.6,0.2
		c0.1,0,0.2,0,0.2,0c0.3-0.1,0.5-0.2,0.6-0.5c0.3-0.5,0.8-0.8,1.3-0.8s1,0.3,1.3,0.8c0.1,0.2,0.4,0.4,0.6,0.5c0.1,0,0.1,0,0.2,0
		c0.2,0,0.4-0.1,0.6-0.2c0.1-0.1,0.2-0.1,0.3-0.1c0.2,0,0.4,0.2,0.5,0.4c0.1,0.3,0.3,0.5,0.5,0.6c0.1,0.1,0.3,0.1,0.4,0.1
		c0.1,0,0.3,0,0.4-0.1c0.1,0,0.1,0,0.2,0c0.3,0,0.5,0.2,0.5,0.5c0,0.1,0,0.2-0.1,0.2c-0.1,0.3-0.2,0.6-0.1,0.8
		c0.1,0.3,0.3,0.5,0.6,0.6c0.6,0.2,0.7,0.3,1,0.8l0.7-0.7c-0.4-0.6-0.6-0.7-1.3-1c0.1-0.2,0.2-0.5,0.2-0.8c0-0.8-0.7-1.5-1.5-1.5
		c-0.2,0-0.4,0-0.6,0.1c-0.2-0.6-0.7-1.1-1.4-1.1c-0.3,0-0.6,0.1-0.8,0.3c-0.4-0.8-1.2-1.3-2.2-1.3s-1.7,0.5-2.2,1.3
		c-0.2-0.2-0.5-0.3-0.8-0.3c-0.7,0-1.3,0.5-1.4,1.1c-0.2-0.1-0.4-0.1-0.6-0.1c-0.8,0-1.5,0.7-1.5,1.5c0,0.2,0,0.4,0.1,0.5
		c-1.7,0.2-3.1,1.7-3.1,3.5c0,1.9,1.6,3.5,3.5,3.5C355.7,38,359,41.3,359,41.1C359,41.1,359,41.1,359,41.1z"/>
	<path d="M369.2,33L358,44.2V47h2.6L372,35.8L369.2,33z M360.2,46H359v-1.4l10.2-10.2l1.4,1.4L360.2,46z"/>
</g>
<polygon points="370,47 362,47 363,46 370,46 "/>
<g>
	<path d="M392.9,38c-0.1,0-0.3-0.1-0.6-0.2c-0.4-0.1-0.5-0.1-0.5-0.1C391.8,37.7,392.8,37.9,392.9,38z"/>
	<path d="M385,42c0,0-0.7-3.7,0-4c1.2-0.6,2.5-0.7,3.7-0.7c1.6,0,2.9,0.3,3.7,0.5c0.2,0,0.4,0.1,0.6,0.1c0.1,0,0.2,0,0.4,0
		c1.4,0,2.6-1.9,2.6-3.5c0-1.5-0.9-2.7-2.2-3.2c0.1-0.2,0.2-0.5,0.2-0.8c0-0.8-0.7-1.5-1.5-1.5c-0.2,0-0.4,0-0.6,0.1
		c-0.2-0.6-0.7-1.1-1.4-1.1c-0.3,0-0.6,0.1-0.8,0.3c-0.4-0.8-1.2-1.3-2.2-1.3s-1.7,0.5-2.2,1.3c-0.2-0.2-0.5-0.3-0.8-0.3
		c-0.7,0-1.3,0.5-1.4,1.1c-0.2-0.1-0.4-0.1-0.6-0.1c-0.8,0-1.5,0.7-1.5,1.5c0,0.2,0,0.4,0.1,0.5c-1.7,0.2-3.1,1.7-3.1,3.5
		c0,1.9,1.6,3.5,3.5,3.5C381.7,38,384.8,42,385,42C385,42,385,42,385,42L385,42z M383.7,39c-1.6-1.9-1.7-2-2.2-2
		c-1.4,0-2.5-1.1-2.5-2.5c0-1.3,1-2.3,2.2-2.5c0.3,0,0.6-0.2,0.7-0.5c0.2-0.3,0.2-0.6,0.1-0.9c0-0.1,0-0.1,0-0.2
		c0-0.3,0.2-0.5,0.5-0.5c0.1,0,0.1,0,0.2,0c0.1,0,0.2,0.1,0.4,0.1c0.2,0,0.3,0,0.4-0.1c0.3-0.1,0.4-0.4,0.5-0.6
		c0.1-0.2,0.3-0.4,0.5-0.4c0,0,0.1,0,0.3,0.1c0.2,0.1,0.4,0.2,0.6,0.2c0.1,0,0.2,0,0.2,0c0.3-0.1,0.5-0.2,0.6-0.5
		c0.3-0.5,0.8-0.8,1.3-0.8s1,0.3,1.3,0.8c0.1,0.2,0.4,0.4,0.6,0.5c0.1,0,0.1,0,0.2,0c0.2,0,0.4-0.1,0.6-0.2c0.1-0.1,0.2-0.1,0.3-0.1
		c0.2,0,0.4,0.2,0.5,0.4c0.1,0.3,0.3,0.5,0.5,0.6c0.1,0.1,0.3,0.1,0.4,0.1c0.1,0,0.3,0,0.4-0.1c0.1,0,0.1,0,0.2,0
		c0.3,0,0.5,0.2,0.5,0.5c0,0.1,0,0.2-0.1,0.2c-0.1,0.3-0.2,0.6-0.1,0.8c0.1,0.3,0.3,0.5,0.6,0.6c1,0.4,1.6,1.3,1.6,2.3
		c0,1.2-1,2.5-1.6,2.5c0,0-0.1,0-0.1,0l-0.6-0.1c-0.9-0.3-2.3-0.6-3.9-0.6c-1.5,0-2.9,0.3-4.1,0.8C384.1,37.3,383.7,37.8,383.7,39z"
		/>
	<polygon points="387,47 395,47 395,46 388,46 	"/>
	<rect x="379" y="46" width="5" height="1"/>
	<polygon points="392,39 385,46 385,47 386,47 393,40 	"/>
</g>
<g>
	<path d="M291.1,38c0-2.2-1.8-4-4-4s-4,1.8-4,4c0,2.2,1.8,4,4,4c0.9,0,1.8-0.3,2.5-0.9l1.8,1.8l0.7-0.7l-1.8-1.8
		C290.7,39.8,291.1,39,291.1,38z M289.5,39.8c-0.2,0.3-0.4,0.5-0.7,0.7c-0.5,0.4-1.1,0.6-1.7,0.6c-1.7,0-3-1.4-3-3s1.4-3,3-3
		s3,1.4,3,3C290.1,38.7,289.8,39.3,289.5,39.8z"/>
	<path d="M291,30v-1v0c0-0.1,0-0.1,0,0c0-0.5-0.5-1-1-1h-1h-4h-1c-0.5,0-1,0.4-1,1c0,0,0,0,0,0v0v1h-6v15h2v1h3v-1h10v1h3v-1h2V30
		H291z M284,29h6v1h-6V29z M294,31.1l-1,0.9h-12l-1-0.9H294z M296,44h-18V34l4,2c0.9-2,2.7-3.5,5-3.5s4.2,1.5,5,3.5l4-2V44z"/>
</g>
<g>
	<path d="M419.6,27c-0.1,0-0.1,0-0.2,0c0,0,0,0,0,0c0,0-0.1,0-0.1,0H408c-1.6,0-3,1.3-3,2.9V41h0c-1.6,0-2.9,1.4-2.9,3
		c0,1.6,1.3,3,2.9,3h10.2c1.6,0,2.9-1.3,2.9-2.9V31.5V31h1.5h2h0.5v-1c0,0,0-0.3,0-0.5C422,28.1,420.9,27,419.6,27z M404.9,46
		c-1.1,0-1.9-0.9-1.9-2c0-1.1,0.8-2,1.9-2h8.1c-0.5,0.5-0.9,1.2-0.9,2c0,0.8,0.3,2,0.9,2H404.9z M417,29.2c0,0.1,0,0.2,0,0.3
		c0,0.2,0,0.5,0,0.5v1v13.1c0,1.1-0.9,2.1-2,2.1c-1.2,0-2-0.9-2-2.1s0.9-2.1,2.1-2.1c0.2,0,0.4-0.3,0.4-0.5c0-0.2-0.2-0.5-0.4-0.5
		H406V29.9c0-1.1,0.9-1.9,2-1.9h9.5h0.3C417.5,28,417.1,28.6,417,29.2z M421,30h-2.9H418c0-0.1,0-0.4,0-0.5c0-0.8,0.7-1.5,1.5-1.5
		c0.3,0,0.7,0.1,0.9,0.3c0.4,0.3,0.6,0.7,0.6,1.2V30z"/>
	<polygon points="408,37 408,38 409,38 415,32 414,31 	"/>
</g>
<g>
	<path d="M471.9,27.8c-0.1-0.2-0.2-0.3-0.3-0.4c-0.1-0.1-0.2-0.2-0.4-0.3c-0.2-0.1-0.3-0.1-0.5-0.1h-12.5c-0.2,0-0.3,0-0.5,0.1
		c-0.2,0.1-0.3,0.2-0.4,0.3c-0.1,0.1-0.2,0.3-0.3,0.4s-0.1,0.3-0.1,0.5V33h-3.7c-0.2,0-0.3,0-0.5,0.1c-0.2,0.1-0.3,0.2-0.4,0.3
		c-0.1,0.1-0.2,0.3-0.3,0.4c-0.1,0.2-0.1,0.3-0.1,0.5v11.4c0,0.2,0,0.3,0.1,0.5c0.1,0.2,0.2,0.3,0.3,0.4c0.1,0.1,0.2,0.2,0.4,0.3
		c0.2,0.1,0.3,0.1,0.5,0.1h17.5c0.2,0,0.3,0,0.5-0.1c0.2-0.1,0.3-0.2,0.4-0.3c0.1-0.1,0.2-0.3,0.3-0.4c0.1-0.2,0.1-0.3,0.1-0.5V28.3
		C472,28.1,472,27.9,471.9,27.8z M457,46h-4V34h4V46z M471,46h-13V28h13V46z"/>
	<path d="M464.4,42.7l0.1,0.3l0.1-0.3c0,0,2-3.8,2.6-5.1c0.4-0.7,0.8-1.9,0.8-2.8c0-2.1-1.6-3.8-3.5-3.8c-1.9,0-3.5,1.7-3.5,3.8
		c0,0.9,0.4,2.1,0.8,2.8C462.3,38.8,464.3,42.7,464.4,42.7z M464.5,33c0.8,0,1.5,0.7,1.5,1.5c0,0.8-0.7,1.5-1.5,1.5
		c-0.8,0-1.5-0.7-1.5-1.5C463,33.7,463.7,33,464.5,33z"/>
</g>
<g>
	<circle cx="487" cy="43" r="2"/>
	<path d="M487,39c-3.9,0-7,4-7,4s3.1,4,7,4s7-4,7-4S490.9,39,487,39z M487,46c-2.5,0-4.7-2-5.7-3c1-1,3.2-3,5.7-3c2.5,0,4.7,2,5.7,3
		C491.7,44,489.5,46,487,46z"/>
	<rect x="482" y="28" width="15" height="1"/>
	<path d="M480,27h-3v3h3V27z M479,29h-1v-1h1V29z"/>
	<rect x="482" y="32" width="15" height="1"/>
	<path d="M480,31h-3v3h3V31z M479,33h-1v-1h1V33z"/>
	<rect x="482" y="36" width="15" height="1"/>
	<path d="M480,35h-3v3h3V35z M479,37h-1v-1h1V37z"/>
</g>
<path d="M517,37v-1h4v1H517z M515,32.3l3.4-3.4l0.7,0.7l-3.4,3.4L515,32.3z M511.5,41c-2.5,0-4.5-2-4.5-4.5s2-4.5,4.5-4.5
	s4.5,2,4.5,4.5S514,41,511.5,41z M511.5,33c-1.9,0-3.5,1.6-3.5,3.5s1.6,3.5,3.5,3.5s3.5-1.6,3.5-3.5S513.4,33,511.5,33z M511,27h1v4
	h-1V27z M503.8,29.5l0.7-0.7l3.4,3.4l-0.7,0.7L503.8,29.5z M506,37h-4v-1h4V37z M508,40.7l-3.4,3.4l-0.7-0.7l3.4-3.4L508,40.7z
	 M512,46h-1v-4h1V46z M519.2,43.5l-0.7,0.7l-3.4-3.4l0.7-0.7L519.2,43.5z"/>
<path d="M543.8,32c-0.2-0.6-0.4-1.1-0.7-1.6s-0.7-1-1.1-1.4s-0.9-0.8-1.4-1.1s-1.1-0.5-1.7-0.7S537.6,27,537,27s-1.3,0.1-1.9,0.2
	s-1.2,0.4-1.7,0.7s-1,0.7-1.4,1.1s-0.8,0.9-1.1,1.4s-0.5,1.1-0.7,1.6c-0.2,0.6-0.2,1.2-0.2,1.8c0,0.9,0.2,1.8,0.5,2.6
	s0.9,1.5,1.6,2.2c0.6,0.5,1,1.1,1.3,1.8c0.3,0.7,0.4,1.4,0.4,2.1v2.5c0,0.3,0,0.5,0.1,0.7s0.2,0.4,0.4,0.6s0.4,0.3,0.6,0.4
	c0.2,0.1,0.5,0.1,0.7,0.1h2.5c0.3,0,0.5,0,0.7-0.1c0.2-0.1,0.4-0.2,0.6-0.4s0.3-0.4,0.4-0.6s0.1-0.5,0.1-0.7v-2.5
	c0-0.8,0.1-1.5,0.4-2.1c0.3-0.7,0.7-1.3,1.3-1.8c0.7-0.7,1.2-1.4,1.6-2.2s0.5-1.7,0.5-2.6C544,33.2,543.9,32.6,543.8,32z
	 M539.1,45.5c0,0.1-0.1,0.2-0.2,0.3c-0.1,0.1-0.2,0.1-0.3,0.2c-0.1,0-0.2,0.1-0.4,0.1h-2.5c-0.1,0-0.2,0-0.4-0.1
	c-0.1,0-0.2-0.1-0.3-0.2c-0.1-0.1-0.1-0.2-0.2-0.3c0-0.1-0.1-0.2-0.1-0.3V43h4.4v2.1C539.2,45.2,539.2,45.4,539.1,45.5z M542.5,36.1
	c-0.3,0.7-0.8,1.3-1.3,1.9c-0.6,0.6-1.1,1.3-1.5,2.1c-0.3,0.6-0.4,1.2-0.5,1.9h-4.4c-0.1-0.7-0.2-1.3-0.5-1.9
	c-0.3-0.8-0.8-1.5-1.5-2.1c-0.6-0.6-1-1.2-1.3-1.9c-0.3-0.7-0.5-1.4-0.5-2.2c0-0.5,0.1-1.1,0.2-1.6c0.1-0.5,0.3-1,0.6-1.4
	c0.3-0.4,0.6-0.8,0.9-1.2c0.4-0.4,0.8-0.7,1.2-0.9c0.4-0.3,0.9-0.5,1.4-0.6c0.5-0.1,1-0.2,1.6-0.2s1.1,0.1,1.6,0.2
	c0.5,0.1,1,0.3,1.4,0.6c0.4,0.3,0.9,0.6,1.2,0.9c0.4,0.4,0.7,0.8,0.9,1.2c0.3,0.4,0.5,0.9,0.6,1.4c0.1,0.5,0.2,1,0.2,1.6
	C543,34.7,542.8,35.4,542.5,36.1z"/>
<g>
	<path d="M444.6,27c-0.1,0-0.1,0-0.2,0c0,0,0,0,0,0c0,0-0.1,0-0.1,0H433c-1.6,0-3,1.3-3,2.9V41h0c-1.6,0-2.9,1.4-2.9,3
		c0,1.6,1.3,3,2.9,3h10.2c1.6,0,2.9-1.3,2.9-2.9V31.5V31h1.5h2h0.5v-1c0,0,0-0.3,0-0.5C447,28.1,445.9,27,444.6,27z M429.9,46
		c-1.1,0-1.9-0.9-1.9-2c0-1.1,0.8-2,1.9-2h8.1c-0.5,0.5-0.9,1.2-0.9,2c0,0.8,0.3,2,0.9,2H429.9z M442,29.2c0,0.1,0,0.2,0,0.3
		c0,0.2,0,0.5,0,0.5v1v13.1c0,1.1-0.9,2.1-2,2.1c-1.2,0-2-0.9-2-2.1s0.9-2.1,2.1-2.1c0.2,0,0.4-0.3,0.4-0.5c0-0.2-0.2-0.5-0.4-0.5
		H431V29.9c0-1.1,0.9-1.9,2-1.9h9.5h0.3C442.5,28,442.1,28.6,442,29.2z M446,30h-2.9H443c0-0.1,0-0.4,0-0.5c0-0.8,0.7-1.5,1.5-1.5
		c0.3,0,0.7,0.1,0.9,0.3c0.4,0.3,0.6,0.7,0.6,1.2V30z"/>
	<polygon points="437.8,33.2 437.9,31 436.5,32.6 435.1,31 435.2,33.2 433,33.1 434.6,34.5 433,35.9 435.2,35.8 435.1,38 
		436.5,36.4 437.9,38 437.8,35.8 440,35.9 438.4,34.5 440,33.1 	"/>
</g>
<path d="M565,29.8l-0.2,3.4l-0.1,1.1l1.1-0.1l3.4-0.2l-2.5,2.3l-0.8,0.7l0.8,0.7l2.5,2.3l-3.4-0.2l-1.1-0.1l0.1,1.1l0.2,3.4
	l-2.3-2.5l-0.7-0.8l-0.7,0.8l-2.3,2.5l0.2-3.4l0.1-1.1l-1.1,0.1l-3.4,0.2l2.5-2.3l0.8-0.7l-0.8-0.7l-2.5-2.3l3.4,0.2l1.1,0.1
	l-0.1-1.1l-0.2-3.4l2.3,2.5l0.7,0.8l0.7-0.8L565,29.8 M566.1,27l-4.1,4.6l-4.1-4.6l0.3,6.2l-6.2-0.3l4.6,4.1l-4.6,4.1l6.2-0.3
	l-0.3,6.2l4.1-4.6l4.1,4.6l-0.3-6.2l6.2,0.3l-4.6-4.1l4.6-4.1l-6.2,0.3L566.1,27L566.1,27z"/>
<rect x="725" y="25" class="st0" width="24" height="24"/>
<rect x="750" y="25" class="st0" width="24" height="24"/>
<rect x="775" y="25" class="st0" width="24" height="24"/>
<rect x="800" y="25" class="st0" width="24" height="24"/>
<path d="M736,36v2h1v9h-3v-9h1v-2v-1h10v-4h-2v3h-15v-7h15v3h3v1v4v1H736z M735,46h1v-7h-1V46z"/>
<g class="st1">
	<path d="M762,27c0.9,0,1.8,0.1,2.7,0.4s1.7,0.6,2.4,1s1.4,1,2,1.6s1.1,1.3,1.6,2s0.8,1.5,1,2.4s0.4,1.7,0.4,2.7s-0.1,1.8-0.4,2.7
		s-0.6,1.7-1,2.4s-1,1.4-1.6,2s-1.3,1.1-2,1.6s-1.5,0.8-2.4,1S762.9,47,762,47c-0.3,0-0.7-0.1-1-0.2s-0.6-0.3-0.8-0.5
		s-0.4-0.5-0.5-0.8s-0.2-0.6-0.2-1c0-0.3,0-0.6,0.1-0.8s0.1-0.5,0.2-0.6s0.2-0.4,0.3-0.5s0.2-0.3,0.3-0.5s0.2-0.4,0.2-0.5
		s0.1-0.4,0.1-0.7c0-0.3-0.1-0.7-0.2-1s-0.3-0.6-0.5-0.8s-0.5-0.4-0.8-0.5s-0.6-0.2-1-0.2c-0.2,0-0.5,0-0.7,0.1s-0.4,0.1-0.5,0.2
		s-0.3,0.2-0.5,0.3s-0.4,0.2-0.5,0.3s-0.4,0.2-0.7,0.2s-0.5,0.1-0.8,0.1c-0.3,0-0.7-0.1-1-0.2s-0.6-0.3-0.8-0.5s-0.4-0.5-0.5-0.8
		s-0.2-0.6-0.2-1c0-0.9,0.1-1.8,0.4-2.7s0.6-1.7,1-2.4s1-1.4,1.6-2s1.3-1.1,2-1.6s1.5-0.8,2.4-1S761.1,27,762,27z M762,45.8
		c0.8,0,1.6-0.1,2.3-0.3s1.4-0.5,2.1-0.9c0.6-0.4,1.2-0.8,1.8-1.4s1-1.1,1.4-1.8s0.7-1.3,0.9-2.1s0.3-1.5,0.3-2.3s-0.1-1.6-0.3-2.3
		s-0.5-1.4-0.9-2.1s-0.8-1.2-1.4-1.8s-1.1-1-1.8-1.4c-0.6-0.4-1.3-0.7-2.1-0.9s-1.5-0.3-2.3-0.3s-1.6,0.1-2.3,0.3s-1.4,0.5-2.1,0.9
		s-1.2,0.8-1.8,1.4s-1,1.1-1.4,1.8s-0.7,1.3-0.9,2.1s-0.3,1.5-0.3,2.3c0,0.2,0,0.3,0.1,0.5s0.2,0.3,0.3,0.4s0.2,0.2,0.4,0.3
		s0.3,0.1,0.5,0.1c0.2,0,0.5,0,0.7-0.1s0.4-0.1,0.5-0.2s0.3-0.2,0.5-0.3s0.3-0.2,0.5-0.3s0.4-0.2,0.6-0.2s0.5-0.1,0.8-0.1
		c0.5,0,1,0.1,1.5,0.3s0.9,0.5,1.2,0.8s0.6,0.7,0.8,1.2s0.3,0.9,0.3,1.5c0,0.3,0,0.6-0.1,0.8s-0.1,0.5-0.2,0.7s-0.2,0.4-0.3,0.5
		s-0.2,0.3-0.3,0.5s-0.2,0.4-0.2,0.5s-0.1,0.4-0.1,0.7c0,0.2,0,0.3,0.1,0.5s0.2,0.3,0.3,0.4s0.2,0.2,0.4,0.3S761.8,45.8,762,45.8z
		 M757,33.3c0.2,0,0.3,0,0.5,0.1s0.3,0.2,0.4,0.3s0.2,0.2,0.3,0.4s0.1,0.3,0.1,0.5s0,0.3-0.1,0.5s-0.2,0.3-0.3,0.4s-0.2,0.2-0.4,0.3
		s-0.3,0.1-0.5,0.1s-0.3,0-0.5-0.1s-0.3-0.2-0.4-0.3s-0.2-0.2-0.3-0.4s-0.1-0.3-0.1-0.5s0-0.3,0.1-0.5s0.2-0.3,0.3-0.4
		s0.2-0.2,0.4-0.3S756.8,33.3,757,33.3z M760.8,30.8c0.2,0,0.3,0,0.5,0.1s0.3,0.2,0.4,0.3s0.2,0.2,0.3,0.4s0.1,0.3,0.1,0.5
		s0,0.3-0.1,0.5s-0.2,0.3-0.3,0.4s-0.2,0.2-0.4,0.3s-0.3,0.1-0.5,0.1s-0.3,0-0.5-0.1s-0.3-0.2-0.4-0.3s-0.2-0.2-0.3-0.4
		s-0.1-0.3-0.1-0.5s0-0.3,0.1-0.5s0.2-0.3,0.3-0.4s0.2-0.2,0.4-0.3S760.6,30.8,760.8,30.8z M764.5,40.8c0.2,0,0.3,0,0.5,0.1
		s0.3,0.2,0.4,0.3s0.2,0.2,0.3,0.4s0.1,0.3,0.1,0.5s0,0.3-0.1,0.5s-0.2,0.3-0.3,0.4s-0.2,0.2-0.4,0.3s-0.3,0.1-0.5,0.1
		s-0.3,0-0.5-0.1s-0.3-0.2-0.4-0.3s-0.2-0.2-0.3-0.4s-0.1-0.3-0.1-0.5s0-0.3,0.1-0.5s0.2-0.3,0.3-0.4s0.2-0.2,0.4-0.3
		S764.3,40.8,764.5,40.8z M765.8,34.5c-0.2,0-0.3,0-0.5-0.1s-0.3-0.2-0.4-0.3s-0.2-0.2-0.3-0.4s-0.1-0.3-0.1-0.5s0-0.3,0.1-0.5
		s0.2-0.3,0.3-0.4s0.2-0.2,0.4-0.3s0.3-0.1,0.5-0.1s0.3,0,0.5,0.1s0.3,0.2,0.4,0.3s0.2,0.2,0.3,0.4s0.1,0.3,0.1,0.5s0,0.3-0.1,0.5
		s-0.2,0.3-0.3,0.4s-0.2,0.2-0.4,0.3S765.9,34.5,765.8,34.5z M767,37c0.2,0,0.3,0,0.5,0.1s0.3,0.2,0.4,0.3s0.2,0.2,0.3,0.4
		s0.1,0.3,0.1,0.5s0,0.3-0.1,0.5s-0.2,0.3-0.3,0.4s-0.2,0.2-0.4,0.3s-0.3,0.1-0.5,0.1s-0.3,0-0.5-0.1s-0.3-0.2-0.4-0.3
		s-0.2-0.2-0.3-0.4s-0.1-0.3-0.1-0.5s0-0.3,0.1-0.5s0.2-0.3,0.3-0.4s0.2-0.2,0.4-0.3S766.8,37,767,37z"/>
</g>
<path d="M794.6,27c-0.1,0-0.1,0-0.2,0c0,0,0,0,0,0c0,0-0.1,0-0.1,0H783c-1.6,0-3,1.3-3,2.9V30h-3v10h3v1h0c-1.6,0-2.9,1.4-2.9,3
	c0,1.6,1.3,3,2.9,3h10.2c1.6,0,2.9-1.3,2.9-2.9V31.5V31h1.5h2h0.5v-1c0,0,0-0.3,0-0.5C797,28.1,795.9,27,794.6,27z M778,31h1v1h-1
	V31z M778,39v-6h2h1h8v6h-8h-1H778z M786,32v-1h1v1H786z M788,32v-1h1v1H788z M779.9,46c-1.1,0-1.9-0.9-1.9-2c0-1.1,0.8-2,1.9-2h8.1
	c-0.5,0.5-0.9,1.2-0.9,2c0,0.8,0.3,2,0.9,2H779.9z M792,29.2c0,0.1,0,0.2,0,0.3c0,0.2,0,0.5,0,0.5v1v13.1c0,1.1-0.9,2.1-2,2.1
	c-1.2,0-2-0.9-2-2.1s0.9-2.1,2.1-2.1c0.2,0,0.4-0.3,0.4-0.5c0-0.2-0.2-0.5-0.4-0.5H781v-1h9V30h-9v-0.1c0-1.1,0.9-1.9,2-1.9h9.5h0.3
	C792.5,28,792.1,28.6,792,29.2z M796,30h-2.9H793c0-0.1,0-0.4,0-0.5c0-0.8,0.7-1.5,1.5-1.5c0.3,0,0.7,0.1,0.9,0.3
	c0.4,0.3,0.6,0.7,0.6,1.2V30z"/>
<g>
	<path d="M819.6,27c-0.1,0-0.1,0-0.2,0c0,0,0,0,0,0c0,0-0.1,0-0.1,0H808c-1.6,0-3,1.3-3,2.9V41h0c-1.6,0-2.9,1.4-2.9,3
		c0,1.6,1.3,3,2.9,3h10.2c1.6,0,2.9-1.3,2.9-2.9V42l-1-1v3.1c0,1.1-0.9,2.1-2,2.1c-1.2,0-2-0.9-2-2.1s0.9-2.1,2.1-2.1
		c0.2,0,0.4-0.3,0.4-0.5c0-0.2-0.2-0.5-0.4-0.5H806V29.9c0-1.1,0.9-1.9,2-1.9h9.5h0.3c-0.3,0-0.7,0.6-0.8,1.2c0,0.1,0,0.2,0,0.3
		c0,0.2,0,0.5,0,0.5v1v5.2l1,1v-5.7V31h1.5h2h0.5v-1c0,0,0-0.3,0-0.5C822,28.1,820.9,27,819.6,27z M813.1,42c-0.5,0.5-0.9,1.2-0.9,2
		c0,0.8,0.3,2,0.9,2h-8.1c-1.1,0-1.9-0.9-1.9-2c0-1.1,0.8-2,1.9-2H813.1z M821,30h-2.9H818c0-0.1,0-0.4,0-0.5c0-0.8,0.7-1.5,1.5-1.5
		c0.3,0,0.7,0.1,0.9,0.3c0.4,0.3,0.6,0.7,0.6,1.2V30z"/>
	<path d="M815.4,32.1c0.2-0.2,0.1-0.4-0.1-0.5l-1.2-0.4c-0.3-0.1-0.6,0-0.8,0.2l-0.7,0.7c-0.2,0.2-0.5,0.2-0.7,0
		c-0.2-0.2-0.5-0.2-0.7,0l-0.7,0.7c-0.2,0.2-0.2,0.5,0,0.7c0.2,0.2,0.2,0.5,0,0.7s-0.6,0.4-0.9,0.4l-0.4,0c-0.3,0-0.7,0.2-0.9,0.3
		l0,0c-0.2,0.2-0.2,0.5,0,0.7l2.1,2.1c0.2,0.2,0.5,0.2,0.7,0l0,0c0.2-0.2,0.4-0.6,0.3-0.9l0-0.4c0-0.3,0.2-0.7,0.3-0.9
		c0.2-0.2,0.5-0.2,0.7,0l7.6,7.6c0.2,0.2,0.5,0.2,0.7,0l0.7-0.7c0.2-0.2,0.2-0.5,0-0.7l-7.6-7.6c-0.2-0.2-0.2-0.5,0-0.7L815.4,32.1z
		"/>
</g>
<rect x="825" y="25" class="st0" width="24" height="24"/>
<rect x="850" y="25" class="st0" width="24" height="24"/>
<rect x="875" y="25" class="st0" width="24" height="24"/>
<rect x="900" y="25" class="st0" width="24" height="24"/>
<g>
	<path d="M831,27v3h-3v14h3v3h15V27H831z M829,43V31h2v12H829z M845,42l-4,4h-9V28h13V42z"/>
	<rect x="834" y="31" width="9" height="1"/>
	<rect x="834" y="33" width="6" height="1"/>
	<rect x="834" y="35" width="9" height="1"/>
	<rect x="834" y="37" width="6" height="1"/>
	<rect x="834" y="39" width="9" height="1"/>
	<rect x="834" y="41" width="6" height="1"/>
</g>
<g>
	<path d="M860,34h-6v1h6V34z M860,37h-6v1h6V37z M860,40h-6v1h6V40z M869,34h-6v1h6V34z M869,37h-6v1h6V37z M869,40h-6v1h6V40z
		 M852,27v20h19V27H852z M861,46h-8V30h8V46z M861,29h-8v-1h8V29z M870,46h-8V30h8V46z M870,29h-8v-1h8V29z"/>
</g>
<g>
	<path d="M917,34h-11v1h11V34z M917,37h-11v1h11V37z M917,40h-11v1h11V40z M902,27v20h19V27H902z M920,46h-17V30h17V46z M920,29h-17
		v-1h17V29z"/>
</g>
<g>
	<path d="M882,34h-3v1h3V34z M882,37h-3v1h3V37z M882,40h-3v1h3V40z M888,34h-3v1h3V34z M888,37h-3v1h3V37z M888,40h-3v1h3V40z
		 M877,27v20h19V27H877z M883,46h-5V30h5V46z M883,29h-5v-1h5V29z M894,34h-3v1h3V34z M894,37h-3v1h3V37z M894,40h-3v1h3V40z
		 M895,46h-5V30h5V46z M895,29h-5v-1h5V29z M889,46h-5V30h5V46z M889,29h-5v-1h5V29z"/>
</g>
<rect x="925" y="25" class="st0" width="24" height="24"/>
<g>
	<path d="M927,47h6V27h-6V47z M928,30h4v16h-4V30z"/>
	<rect x="929" y="32" width="2" height="12"/>
	<path d="M934,47h6V27h-6V47z M935,30h4v16h-4V30z"/>
	<rect x="936" y="32" width="2" height="12"/>
	<path d="M941,27v20h6V27H941z M946,46h-4V30h4V46z"/>
	<rect x="943" y="32" width="2" height="12"/>
</g>
</svg>
