<?xml version="1.0" encoding="utf-8"?>
<!-- Generator: Adobe Illustrator 19.2.1, SVG Export Plug-In . SVG Version: 6.00 Build 0)  -->
<svg version="1.1" id="Слой_1" xmlns="http://www.w3.org/2000/svg" xmlns:xlink="http://www.w3.org/1999/xlink" x="0px" y="0px"
	 viewBox="0 0 256 256" style="enable-background:new 0 0 256 256;" xml:space="preserve">
<style type="text/css">
	.st0{fill:none;}
	.st1{fill:#CC4B3E;}
	.st2{fill:#B0B0B0;}
	.st3{fill:#6D97D7;}
	.st4{fill:#CC6262;}
	.st5{fill:#97C981;}
	.st6{fill:#2FA53A;}
	.st7{fill:#B2B2B2;}
	.st8{fill:#9ABB50;}
	.st9{fill:#5B8CD6;}
</style>
<rect y="0" class="st0" width="30" height="30"/>
<rect x="30" y="0" class="st0" width="30" height="30"/>
<g>
	<polygon class="st1" points="12,12 12,6 17,6 17,3 2,3 2,18 7,18 7,12 	"/>
	<polygon class="st2" points="17.5,7 12,7 12,12 17.5,12 24,12 24,22 27,22 27,7 	"/>
	<rect x="8" y="13" class="st3" width="15" height="15"/>
</g>
<path class="st4" d="M52,3h5.6l-2.1,2l2.1,2H52V3z"/>
<polygon class="st2" points="52,7 52,9.2 53,10 53,7 "/>
<path class="st2" d="M54,26.7L54,26.7c0-0.2,0-0.3,0-0.3V17v-0.3l-8.9-9.3L36,16.8v0.3v9.4v0.3c0,0-0.1,1.3,0.5,1.3
	c0.7,0,6.8,0,6.8,0v-3.7c0,0,0-1.3,1.1-1.3h1.1c1.1,0,1.4,0.9,1.4,0.9v3v1c0,0,5.7,0,6.5,0C54.2,28,54,26.7,54,26.7z M51,21H39v-4
	h12V21z"/>
<path class="st3" d="M32.5,15.6c0,0,0.6,1.4,2.3,0L45,5.3l10.2,10.3c2,1.4,2.3,0,2.3,0L45,3.1L32.5,15.6z"/>
<rect x="60" y="0" class="st0" width="30" height="30"/>
<g>
	<path class="st5" d="M73,9.2L71.1,7c0.2-0.3,0.2-0.6,0.2-1c0-1.2-1-2.2-2.2-2.2s-2.2,1-2.2,2.2s1,2.2,2.2,2.2c0.2,0,0.5,0,0.7-0.1
		l1.9,2.1C72.1,9.9,72.5,9.5,73,9.2z"/>
	<path class="st5" d="M73.6,21.2c-1.1,0.1-2,1.1-2,2.2c0,1.2,1,2.2,2.2,2.2s2.2-1,2.2-2.2c0-0.7-0.3-1.3-0.8-1.7l0.3-0.9
		c-0.6-0.1-1.2-0.2-1.7-0.4L73.6,21.2z"/>
	<path class="st5" d="M65.9,19.7c-0.4-0.2-0.8-0.3-1.2-0.3c-1.2,0-2.2,1-2.2,2.2s1,2.2,2.2,2.2c1.2,0,2.2-1,2.2-2.2
		c0-0.2,0-0.3-0.1-0.5l4.2-3c-0.3-0.5-0.6-1-0.8-1.6L65.9,19.7z"/>
	<path class="st5" d="M80.7,22.6c-0.2,0.3-0.3,0.7-0.3,1c0,1.2,1,2.2,2.2,2.2s2.2-1,2.2-2.2s-1-2.2-2.2-2.2c-0.2,0-0.4,0-0.6,0.1
		l-1.8-2.1c-0.4,0.4-0.9,0.7-1.5,0.9L80.7,22.6z"/>
	<path class="st5" d="M85.3,3.3c-1.2,0-2.2,1-2.2,2.2c0,0.3,0.1,0.6,0.2,0.8L80,9.6c0.5,0.3,0.9,0.8,1.2,1.2l3.2-3.2
		c0.3,0.1,0.6,0.2,0.8,0.2c1.2,0,2.2-1,2.2-2.2C87.5,4.3,86.5,3.3,85.3,3.3z"/>
	<path class="st3" d="M81.2,10.8c-0.3-0.5-0.8-0.9-1.2-1.2c-1-0.8-2.3-1.3-3.8-1.3c-1.2,0-2.3,0.3-3.2,0.9c-0.5,0.3-0.9,0.7-1.3,1.1
		c-1,1.1-1.7,2.6-1.7,4.2c0,0.7,0.1,1.4,0.3,2c0.2,0.6,0.4,1.1,0.8,1.6c0.7,1,1.7,1.8,2.8,2.2c0.5,0.2,1.1,0.4,1.7,0.4
		c0.2,0,0.5,0,0.7,0c0.9,0,1.8-0.2,2.5-0.5c0.5-0.2,1-0.6,1.5-0.9c1.4-1.1,2.2-2.9,2.2-4.8C82.5,13.2,82,11.9,81.2,10.8z M76.2,17.5
		c-1.7,0-3-1.3-3-3s1.3-3,3-3s3,1.3,3,3S77.9,17.5,76.2,17.5z"/>
</g>
<rect x="90" y="0" class="st0" width="30" height="30"/>
<g>
	<polygon class="st6" points="99.9,12.6 98.1,14.4 103.8,20 116.3,7.5 114.5,5.8 103.8,16.5 	"/>
	<path class="st7" d="M115,15c0,5.5-4.5,10-10,10s-10-4.5-10-10s4.5-10,10-10c1,0,1.9,0.1,2.8,0.4l2-2c-1.5-0.5-3.1-0.9-4.8-0.9
		c-6.9,0-12.5,5.6-12.5,12.5s5.6,12.5,12.5,12.5s12.5-5.6,12.5-12.5H115z"/>
</g>
<rect x="120" y="0" class="st0" width="30" height="30"/>
<g>
	<path class="st8" d="M132.9,28V18h14l-3-3h-6v-2h10v15H132.9z M134.9,19v2h3v-2H134.9z M137.9,22h-3v2h3V22z M141.9,19h-3v2h3V19z
		 M141.9,22h-3v2h3V22z M145.9,19h-3v2h3V19z M145.9,22h-3v2h3V22z M146.9,25h-13v1h13V25z"/>
	<path id="Rectangle_1_copy" class="st2" d="M137.9,8h4v4h-4V8z M131.9,22h-4.1v-4h4.1V22z"/>
	<path id="Rectangle_1_copy_2" class="st9" d="M121.9,2h15v15h-15L121.9,2z M129.4,5c-1.3,0.1-2.4,1.2-2.5,2.5
		c0.1,1.3,1.2,2.4,2.5,2.5c1.3-0.1,2.4-1.2,2.5-2.5C131.8,6.2,130.7,5.1,129.4,5z M124.9,14h2v-1h1v1h3v-1h1v1h2v-1
		c-0.1-1.1-0.9-1.9-2-2h-5c-1.1,0.1-1.9,0.9-2,2V14z"/>
</g>
</svg>
