<svg xmlns="http://www.w3.org/2000/svg" width="20" height="20" viewBox="0 0 20 20">
  <defs>
    <style>
      .cls-1 {
        fill: #030303;
        fill-rule: evenodd;
      }
    </style>
  </defs>
  <path class="cls-1" d="M7,2V6H2V18c0,2.071,1.012,4,3,4H18a4.254,4.254,0,0,0,4-4V2H7ZM7,18c0,1.941-.677,3-2,3s-2-1.184-2-3V7H7V18Zm14,0a3.5,3.5,0,0,1-3,3H7c0.137,0.023,1-1.035,1-3V3H21V18ZM19,7H14V6h5V7Zm0,2H14V8h5V9Zm0,2H10V10h9v1Zm0,2H10V12h9v1Zm0,2H10V14h9v1Zm0,2H10V16h9v1ZM10,6h3V9H10V6Z" transform="translate(-2 -2)"/>
</svg>
