<?xml version="1.0" encoding="utf-8"?>
<!-- Generator: Adobe Illustrator 19.1.1, SVG Export Plug-In . SVG Version: 6.00 Build 0)  -->
<svg version="1.1" id="Слой_1" xmlns="http://www.w3.org/2000/svg" xmlns:xlink="http://www.w3.org/1999/xlink" x="0px" y="0px"
	 viewBox="0 0 671 671" enable-background="new 0 0 671 671" xml:space="preserve">
<path d="M22,5H2V4h20V5z M22,7H2v1h20V7z M22,10H2v1h20V10z M2,14h9v-1H2V14z M2,17h9v-1H2V17z M22,21.3L21.3,22L19,19.6
	c-0.6,0.5-1.4,0.8-2.3,0.8c-2.1,0-3.7-1.7-3.7-3.7c0-2.1,1.7-3.7,3.7-3.7c2.1,0,3.7,1.7,3.7,3.7c0,0.9-0.3,1.6-0.8,2.3L22,21.3z
	 M19.5,16.7c0-1.5-1.3-2.8-2.8-2.8c-1.5,0-2.8,1.3-2.8,2.8s1.3,2.8,2.8,2.8c0.6,0,1.2-0.2,1.6-0.5c0.3-0.2,0.5-0.4,0.7-0.7
	C19.3,17.9,19.5,17.3,19.5,16.7z"/>
<path d="M46,12h-9v9h-1v-9h-9v-1h9V2h1v9h9V12z"/>
<g>
	<path d="M65.1,2c0.6,0,1.2,0.1,1.8,0.2s1.1,0.4,1.6,0.7s1,0.7,1.4,1.1s0.8,0.9,1.1,1.4c0.3,0.5,0.5,1.1,0.7,1.6S72,8.2,72,8.9
		s-0.1,1.2-0.2,1.8s-0.4,1.1-0.7,1.6c-0.3,0.5-0.7,1-1.1,1.4s-0.9,0.8-1.4,1.1s-1.1,0.5-1.6,0.7s-1.2,0.2-1.8,0.2
		c-0.8,0-1.6-0.1-2.3-0.4s-1.4-0.7-2.1-1.2l-7.7,7.7c-0.1,0.1-0.3,0.2-0.4,0.2s-0.3-0.1-0.4-0.2c-0.1-0.1-0.2-0.3-0.2-0.4
		s0.1-0.3,0.2-0.4l7.7-7.7c-0.5-0.6-0.9-1.3-1.2-2.1s-0.4-1.5-0.4-2.3c0-0.6,0.1-1.2,0.2-1.8s0.4-1.1,0.7-1.6c0.3-0.5,0.7-1,1.1-1.4
		s0.9-0.8,1.4-1.1s1.1-0.5,1.6-0.7S64.5,2,65.1,2z M65.1,14.5c0.8,0,1.5-0.1,2.2-0.4c0.7-0.3,1.3-0.7,1.8-1.2s0.9-1.1,1.2-1.8
		s0.4-1.4,0.4-2.2s-0.1-1.5-0.4-2.2s-0.7-1.3-1.2-1.8S68,4,67.3,3.7c-0.7-0.3-1.4-0.4-2.2-0.4s-1.5,0.1-2.2,0.4
		c-0.7,0.3-1.3,0.7-1.8,1.2S60.2,6,59.9,6.7s-0.4,1.4-0.4,2.2s0.1,1.5,0.4,2.2s0.7,1.3,1.2,1.8s1.1,0.9,1.8,1.2
		C63.6,14.4,64.3,14.5,65.1,14.5z"/>
</g>
<g>
	<g>
		<path d="M82,11h10v-1H82V11z M92,8H82v1h10V8z M82,13h6v-1h-6V13z M97,2L97,2L77,2v20l0,0v0h10l-1-1h-8V3h18v10l1,0L97,2L97,2z
			 M90,20l-3-3l-1,1l4,4l7-7l-1-1L90,20z"/>
	</g>
</g>
<g>
	<rect x="107" y="10" width="10" height="1"/>
	<rect x="107" y="12" width="6" height="1"/>
	<polygon points="122,2 122,2 102,2 102,22 102,22 102,22 113,22 113,21 103,21 103,3 121,3 121,13 122,14 122,2 	"/>
	<rect x="107" y="8" width="10" height="1"/>
	<path d="M119.8,18.4c0.8-0.5,1.2-1.4,1.2-2.4c0-1.7-1.3-3-3-3s-3,1.3-3,3c0,1,0.5,1.9,1.2,2.4c-1.3,0.7-2.2,2-2.2,3.6h1
		c0-1.7,1.3-3,3-3s3,1.3,3,3h1C122,20.4,121.1,19.1,119.8,18.4z M118,18c-1.1,0-2-0.9-2-2c0-1.1,0.9-2,2-2s2,0.9,2,2
		C120,17.1,119.1,18,118,18z"/>
</g>
<g>
	<rect x="132" y="10" width="10" height="1"/>
	<rect x="132" y="12" width="6" height="1"/>
	<rect x="132" y="8" width="10" height="1"/>
	<polygon points="147,2 147,2 127,2 127,22 127,22 127,22 138,22 138,21 128,21 128,3 146,3 146,12 147,12 147,2 	"/>
	<path d="M146,13h-7v9h4v0h4v-5h-1V13z M146,21h-2v0h-1h-3v-7h5v3v1h1V21z"/>
</g>
<g>
	<rect x="157" y="10" width="10" height="1"/>
	<rect x="157" y="8" width="10" height="1"/>
	<rect x="157" y="12" width="6" height="1"/>
	<polygon points="172,2 172,2 152,2 152,22 152,22 152,22 163,22 163,21 153,21 153,3 171,3 171,12 172,12 172,2 	"/>
	<rect x="169" y="14" width="3" height="2"/>
	<rect x="165" y="14" width="3" height="2"/>
	<rect x="169" y="17" width="3" height="2"/>
	<rect x="165" y="17" width="3" height="2"/>
	<rect x="169" y="20" width="3" height="2"/>
	<rect x="165" y="20" width="3" height="2"/>
</g>
</svg>
