<?xml version="1.0" encoding="utf-8"?>
<!-- Generator: Adobe Illustrator 19.1.1, SVG Export Plug-In . SVG Version: 6.00 Build 0)  -->
<svg version="1.1" id="Слой_1" xmlns="http://www.w3.org/2000/svg" xmlns:xlink="http://www.w3.org/1999/xlink" x="0px" y="0px"
	 viewBox="-299 389 12 32" style="enable-background:new -299 389 12 32;" xml:space="preserve">
<style type="text/css">
	.st0{fill:#FFFFFF;}
	.st1{fill:#666666;}
</style>
<path class="st0" d="M-288,391h-2v-1c0-0.5-0.5-1-1-1h-4c-0.5,0-1,0.5-1,1v1h-2c-0.5,0-1,0.5-1,1v2c0,0.5,0.5,1,1,1v9
	c0,0.5,0.5,1,1,1h8c0.5,0,1-0.5,1-1v-9c0.5,0,1-0.5,1-1v-2C-287,391.5-287.5,391-288,391z M-295,390h4v1h-4V390z M-289,404h-8v-9h8
	V404z M-288,394h-10v-2h10V394z"/>
<path class="st1" d="M-288,407h-2v-1c0-0.5-0.5-1-1-1h-4c-0.5,0-1,0.5-1,1v1h-2c-0.5,0-1,0.5-1,1v2c0,0.5,0.5,1,1,1v9
	c0,0.5,0.5,1,1,1h8c0.5,0,1-0.5,1-1v-9c0.5,0,1-0.5,1-1v-2C-287,407.5-287.5,407-288,407z M-295,406h4v1h-4V406z M-289,420h-8v-9h8
	V420z M-288,410h-10v-2h10V410z"/>
</svg>
