<?xml version="1.0" encoding="utf-8"?>
<!-- Generator: Adobe Illustrator 21.0.0, SVG Export Plug-In . SVG Version: 6.00 Build 0)  -->
<svg version="1.1" id="Layer_1" xmlns="http://www.w3.org/2000/svg" xmlns:xlink="http://www.w3.org/1999/xlink" x="0px" y="0px"
	 viewBox="0 0 147 147" style="enable-background:new 0 0 147 147;" xml:space="preserve">
<style type="text/css">
	.st0{fill:#378DDA;}
</style>
<path class="st0" d="M0,35V1h36v34H0z M34,3H2v30h32V3z M32,9H4V8h28V9z M9,31H8V11h1V31z M15,31h-1V11h1V31z M22,31h-1V11h1V31z
	 M28,31h-1V11h1V31z"/>
<path class="st0" d="M37,30V6h36v24H37z M71,8H39v20h32V8z M44.7,17.3l3.5-3.5l0.7,0.7L45.4,18l3.5,3.5l-0.7,0.7l-3.5-3.5l0,0L44,18
	L44.7,17.3L44.7,17.3z M52.7,17.3l3.5-3.5l0.7,0.7L53.4,18l3.5,3.5l-0.7,0.7l-3.5-3.5l0,0L52,18L52.7,17.3L52.7,17.3z M60.7,17.3
	l3.5-3.5l0.7,0.7L61.4,18l3.5,3.5l-0.7,0.7l-3.5-3.5l0,0L60,18L60.7,17.3L60.7,17.3z"/>
<path class="st0" d="M101.5,16.3c-0.6,1.1-1.1,2.4-1.7,3.6c-1.1,2.5-2.3,5-3.4,7.5c-1.3,2.8-2.5,5.6-3.8,8.3c0,0.1-0.1,0.1-0.1,0.3
	c-0.7-1.6-1.4-3.1-2.1-4.6c-1.8-4-3.6-7.9-5.4-11.9c-0.6-1.3-1.2-2.5-1.8-3.7c-0.6-1.3-1-2.6-1.1-4C81.9,10,82,8.2,82.8,6.5
	c1.6-3.6,4.4-5.8,8.5-6.4c5.6-0.7,10.5,3,11.5,8C103.3,11,102.9,13.7,101.5,16.3z M100.7,8.5C99.9,4.7,96.5,2,92.6,2
	c-0.4,0-0.7,0-1.1,0.1c-3.3,0.4-5.5,2.1-6.8,5.2c-0.5,1.2-0.7,2.6-0.5,4.3c0.1,1.2,0.4,2.3,0.9,3.3c0.6,1.2,1.2,2.5,1.8,3.8
	c1.4,3,2.7,6,4.1,9l1.6,3.5l5.4-12c0.2-0.3,0.3-0.7,0.5-1c0.4-0.9,0.8-1.8,1.3-2.7C100.9,13.1,101.2,10.9,100.7,8.5z M92.5,14.2
	c-2.2,0-3.9-1.7-3.9-3.8s1.8-3.8,3.9-3.8c2.2,0,3.9,1.7,3.9,3.8S94.7,14.2,92.5,14.2z"/>
<path class="st0" d="M0,107V78h2v27h34v2H0z M25,84h8v19h-8V84z M26,102h6V85h-6V102z M15,80h8v23h-8V80z M16,102h6V81h-6V102z
	 M4,94h9v9H4V94z M5,102h7v-7H5V102z"/>
<path class="st0" d="M18,51.7L29,48L18,73L7,48L18,51.7z M18,69.3l8.3-18.6L18,53.6l-8.3-2.9L18,69.3z M25,63l2-2h7V39H2v22h6l2,2H0
	V37h36v26H25z"/>
<path class="st0" d="M40,73V39h6v2h-4v30h25V41h-4v-2h6v34H40z M59,37h2v5h-2V37z M52,39h5v2h-5V39z M63,67H46V45h17V67z M62,46H47
	v20h15V46z M48,37h2v5h-2V37z"/>
<path class="st0" d="M74,70V40h36v30H74z M108,42H76v26h32V42z M104,48H80v-1h24V48z M104,52H80v-1h24V52z M82.3,59.1
	c-1.2,0-2.2-0.9-2.2-2.1c0-1.1,1-2.1,2.2-2.1s2.2,0.9,2.2,2.1C84.4,58.2,83.5,59.1,82.3,59.1z M87,62.2l5.1-7l1.6,2.8l1.8-0.6L98,65
	H80l4.3-4.5L87,62.2z"/>
<path class="st0" d="M114,50h-2v-2h2V50z M112,58h2v-2h-2V58z M112,54h2v-2h-2V54z M120,70h2v-2h-2V70z M112,62h2v-2h-2V62z M115,39
	h-4v4h1v3h2v-3h1v-1h3v-2h-3V39z M130,40h-2v2h2V40z M134,40h-2v2h2V40z M120,42h2v-2h-2V42z M124.5,61h-1.1l5-15h1.2l5,15h-1.1
	l-1.3-4h-6.4L124.5,61z M126.1,56h5.8l-2.9-8.7L126.1,56z M115,67h-1v-3h-2v3h-1v4h4v-1h3v-2h-3V67z M126,40h-2v2h2V40z M146,48h-2
	v2h2V48z M144,54h2v-2h-2V54z M144,58h2v-2h-2V58z M143,39v1h-3v2h3v1h1v3h2v-3h1v-4H143z M144,62h2v-2h-2V62z M124,70h2v-2h-2V70z
	 M146,64h-2v3h-1v1h-3v2h3v1h4v-4h-1V64z M128,70h2v-2h-2V70z M136,42h2v-2h-2V42z M132,70h2v-2h-2V70z M136,70h2v-2h-2V70z M123,64
	h12v-1h-12V64z"/>
<!-- widget-cloud viewBox="111 0 36 36-->
<path class="st0" d="M122,1h-9v5h9V1z M121,5h-7V2h7V5z M145,0h-12v8h12V0z M144,7h-10V1h10V7z M121,27h8v-5h-8V27z M122,23h6v3h-6
	V23z M140,15.2V11h-9.4c-1.6-1.9-4-3-6.6-3c-4.6,0-8.4,3.6-8.6,8.1c-2.7,1.5-4.4,4.3-4.4,7.4c0,4.7,3.9,8.5,8.6,8.5h5.4v4h12v-4h1.4
	c4.8,0,8.6-3.8,8.6-8.5C147,19.4,144,16,140,15.2z M139,12v7h-13v-7H139z M136,35h-10v-5h10V35z M138.4,30H137v-1h-12v1h-5.4
	c-3.7,0-6.6-2.9-6.6-6.5c0-2.3,1.3-4.5,3.4-5.6l1-0.5l0-1.1c0.1-3.4,3.1-6.2,6.6-6.2c1.3,0,2.5,0.4,3.5,1H125v9h15v-2.7
	c2.9,0.7,5,3.3,5,6.3C145,27.1,142,30,138.4,30z"/>
<path class="st0" d="M70,89c-1.3,0-2.4,0.8-2.8,2h-3.2c-0.3-2.2-1.3-4.3-3-5.8l2.3-4.3c1.6,0.4,3.2-0.6,3.6-2.2
	c0.4-1.6-0.6-3.2-2.2-3.6c-1.6-0.4-3.2,0.6-3.6,2.2c-0.2,0.9,0,1.8,0.5,2.5l-2.3,4.3c-2.1-1.2-4.7-1.4-7-0.7l-1.9-3.6
	c1-1.3,0.8-3.3-0.6-4.3c-1.3-1-3.3-0.8-4.3,0.6s-0.8,3.3,0.6,4.3c0.7,0.6,1.7,0.8,2.6,0.5l1.8,3.3c-2.5,1.4-4.1,4-4.4,6.8h-3.2
	c-0.6-1.6-2.3-2.4-3.8-1.8c-1.6,0.6-2.4,2.3-1.8,3.8c0.6,1.6,2.3,2.4,3.8,1.8c0.9-0.3,1.5-1,1.8-1.8h3.2c0.3,2.9,2.1,5.5,4.6,6.9
	l-1.7,3.3c-0.3-0.1-0.7-0.2-1-0.2c-1.7,0-3,1.3-3,3c0,1.7,1.3,3,3,3c1.7,0,3-1.3,3-3c0-0.6-0.2-1.1-0.4-1.6l2-3.8
	c2.2,0.6,4.5,0.4,6.5-0.7l2.4,4.4c-0.9,1.4-0.5,3.3,1,4.3c1.4,0.9,3.3,0.5,4.3-1c0.9-1.4,0.5-3.3-1-4.3c-0.8-0.5-1.8-0.6-2.7-0.3
	l-2.3-4.3c1.8-1.5,3-3.6,3.2-5.9h3.2c0.6,1.6,2.3,2.4,3.8,1.8c1.6-0.6,2.4-2.3,1.8-3.8C72.4,89.8,71.3,89,70,89z M59.8,97.1
	c-0.5,0.5-1,0.8-1.6,1.2c-3.5,1.7-7.7,0.4-9.4-3.1c-1.7-3.5-0.4-7.7,3.1-9.4c2.1-1,4.5-1,6.5,0.1c3.4,1.9,4.6,6.1,2.8,9.5
	C60.8,96,60.3,96.6,59.8,97.1z"/>
<!-- widget-semnet viewBox="73 73 36 36" -->
<path class="st0" d="M108,78.9c0-1.6-1.3-2.9-2.8-2.9H105c-1.7,0-3,1.4-3,3.1c0,0.4,0.1,0.9,0.3,1.3l-4.8,4.9
	c-2.7-1.8-6.1-1.8-8.8-0.1l0,0l-4.1-4.5c0.3-0.5,0.5-1.1,0.4-1.7c-0.1-1.7-1.5-2.9-3.1-2.9c-1.7,0.1-2.9,1.5-2.9,3.1
	c0.1,1.6,1.4,2.9,3,2.9c0.3,0,0.5,0,0.8-0.1l4.2,4.6c-1.3,1.4-2,3.3-2,5.3c0,0,0,0.1,0,0.1c0,0.4,0,0.7,0.1,1.1v0.1
	c0.1,0.4,0.1,0.8,0.3,1.2l-5.9,3.8c-0.4-0.3-0.9-0.4-1.5-0.4c-1.2,0-2.3,0.8-2.8,1.9c-0.2,0.4-0.2,0.7-0.2,1.1l0,0l0,0
	c0,1.7,1.3,3,3,3s3-1.3,3-3c0-0.4-0.1-0.7-0.2-1.1l5.5-3.5c0.8,1.3,2,2.3,3.3,2.9l-0.7,2.5c-1.7,0-3.1,1.4-3.1,3.1s1.4,3.1,3.1,3.1
	s3.1-1.4,3.1-3.1l0,0c0-0.9-0.4-1.8-1.1-2.4l0.7-2.6c1.4,0.3,2.9,0.1,4.3-0.4l2.5,3.2c-0.3,0.5-0.4,1-0.4,1.5c0,1.7,1.3,3.1,3,3.1
	h0.1c1.1,0,2.1-0.7,2.6-1.7c0.2-0.4,0.3-0.9,0.3-1.4c0-1.7-1.3-3.1-3-3.1c-0.4,0-0.7,0.1-1.1,0.2l-2.1-2.8c3.5-2.7,4.2-7.7,1.6-11.2
	c-0.1-0.2-0.2-0.3-0.4-0.4l4.7-4.8c0.4,0.2,0.8,0.3,1.3,0.3c1.7,0,3-1.4,3-3.1C108,79,108,79,108,78.9z M93,98c-3.2,0-5.8-2.4-6-5.6
	c0-0.1,0-0.3,0-0.4c0-3.3,2.7-6,6-6s6,2.7,6,6S96.3,98,93,98z"/>
<path class="st0" d="M142,89c-1.3,0-2.4,0.8-2.8,2h-1.3c-0.2-1.6-0.9-3-1.9-4.2l4.7-4.8c0.4,0.2,0.8,0.3,1.3,0.3c1.7,0,3-1.4,3-3.1
	c0-0.1,0-0.1,0-0.2c0-1.6-1.3-2.9-2.8-2.9H142c-1.7,0-3,1.4-3,3.1c0,0.4,0.1,0.9,0.3,1.3l-4.8,4.9c-2.7-1.8-6.1-1.8-8.8-0.1l0,0
	l-4.1-4.5c0.3-0.5,0.5-1.1,0.4-1.7c-0.1-1.7-1.5-2.9-3.1-2.9c-1.7,0.1-2.9,1.5-2.9,3.1c0.1,1.6,1.4,2.9,3,2.9c0.3,0,0.5,0,0.8-0.1
	l4.2,4.6c-1.3,1.4-2,3.3-2,5.3c0,0,0,0.1,0,0.1c0,0.4,0,0.7,0.1,1.1v0.1c0.1,0.4,0.1,0.8,0.3,1.2l-5.9,3.8c-0.4-0.3-0.9-0.4-1.5-0.4
	c-1.2,0-2.3,0.8-2.8,1.9c-0.2,0.4-0.2,0.7-0.2,1.1l0,0l0,0c0,1.7,1.3,3,3,3s3-1.3,3-3c0-0.4-0.1-0.7-0.2-1.1l5.5-3.5
	c0.8,1.3,2,2.3,3.3,2.9l-0.7,2.5c-1.7,0-3.1,1.4-3.1,3.1s1.4,3.1,3.1,3.1s3.1-1.4,3.1-3.1l0,0c0-0.9-0.4-1.8-1.1-2.4l0.7-2.6
	c1.4,0.3,2.9,0.1,4.3-0.4l2.5,3.2c-0.3,0.5-0.4,1-0.4,1.5c0,1.7,1.3,3.1,3,3.1h0.1c1.1,0,2.1-0.7,2.6-1.7c0.2-0.4,0.3-0.9,0.3-1.4
	c0-1.7-1.3-3.1-3-3.1c-0.4,0-0.7,0.1-1.1,0.2l-2.2-2.8c1.8-1.3,2.9-3.2,3.2-5.4h1.3c0.6,1.6,2.3,2.4,3.8,1.8
	c1.6-0.6,2.4-2.3,1.8-3.8C144.4,89.8,143.3,89,142,89z M130,98c-3.2,0-5.8-2.4-6-5.6c0-0.1,0-0.3,0-0.4c0-3.3,2.7-6,6-6s6,2.7,6,6
	S133.3,98,130,98z"/>
</svg>
