<?xml version="1.0" encoding="utf-8"?>
<!-- Generator: Adobe Illustrator 19.1.1, SVG Export Plug-In . SVG Version: 6.00 Build 0)  -->
<svg version="1.1" id="Слой_1" xmlns="http://www.w3.org/2000/svg" xmlns:xlink="http://www.w3.org/1999/xlink" x="0px" y="0px"
	 viewBox="93 24 256 22" style="enable-background:new 93 24 256 22;" xml:space="preserve">
<style type="text/css">
	.st0{fill:#F5F5F5;}
</style>
<path id="Shape_1_copy_2" class="st0" d="M225,39.1h-15c-1.1,0-2-0.9-2-2v-11c0-1.1,0.9-2,2-2h15c1.1,0,2,0.9,2,2v11
	C227,38.2,226.1,39.1,225,39.1z M226,26.1c0-0.6-0.4-1-1-1h-15c-0.6,0-1,0.4-1,1v11c0,0.6,0.4,1,1,1h15c0.6,0,1-0.4,1-1V26.1z
	 M210,26.1h7v4h-2l2,3h1l2-3h-2v-4h7v11h-15V26.1z M215,39.1h5v2h3v1h-11v-1h3V39.1z"/>
<path id="Shape_45_copy" class="st0" d="M265,44.1h-3v-1h2.3l-3-3h-10.6l-3,3h2.3v1h-4v-4h1v2.3l3-3V28.8l-3-3v2.3h-1v-4h4v1h-2.3
	l3,3h10.6l3-3H262v-1h4v4h-1v-2.3l-3,3v10.6l3,3v-2.3h1v4H265z M261,29.8l-3,3v-0.7h-0.7l3-3h-8.6l3,3H254v0.7l-3-3v8.6l3-3v0.7h0.7
	l-3,3h8.6l-3-3h0.7v-0.7l3,3V29.8z"/>
<path class="st0" d="M244,39.1h-15c-1.1,0-2-0.9-2-2v-11c0-1.1,0.9-2,2-2h15c1.1,0,2,0.9,2,2v11C246,38.2,245.1,39.1,244,39.1z
	 M245,26.1c0-0.6-0.4-1-1-1h-15c-0.6,0-1,0.4-1,1v11c0,0.6,0.4,1,1,1h15c0.6,0,1-0.4,1-1V26.1z M229,32.1h7v-3h-2l2-3h1l2,3h-2v3h7
	v5h-15V32.1z M234,39.1h5v2h3v1h-11v-1h3V39.1z"/>
<path id="lens_ic_cnt" class="st0" d="M113,43.2l-0.9,0.9L109,41c-1.7,1.6-4,2.5-6.4,2.5c-5.3,0-9.6-4.4-9.6-9.7s4.2-9.7,9.6-9.7
	l0,0c5.4,0.1,9.7,4.5,9.6,9.9c0,2.2-0.8,4.4-2.2,6.1L113,43.2z M102.6,25.4c-4.6,0.1-8.3,3.8-8.3,8.5c0,4.6,3.7,8.2,8.3,8.3
	c4.6-0.1,8.3-3.8,8.3-8.5C110.8,29.2,107.1,25.5,102.6,25.4z"/>
<path id="_-" class="st0" d="M133,43.2l-1,0.9l-3.1-3.1c-1.7,1.6-4,2.5-6.4,2.5c-5.3,0-9.6-4.4-9.6-9.7s4.2-9.7,9.6-9.7l0,0
	c5.4,0.1,9.7,4.5,9.6,9.9c0,2.2-0.8,4.4-2.2,6.1L133,43.2z M130.8,33.8c0-4.6-3.7-8.3-8.3-8.4c-4.6,0.1-8.3,3.8-8.3,8.5
	c0,4.6,3.7,8.2,8.3,8.3C127.2,42.1,130.8,38.4,130.8,33.8z M119,33.1h7v1h-7V33.1z"/>
<path id="_" class="st0" d="M153,43.2l-1,0.9l-3.1-3.1c-1.7,1.6-4,2.5-6.4,2.5c-5.3,0-9.6-4.4-9.6-9.7s4.2-9.7,9.6-9.7l0,0
	c5.4,0.1,9.7,4.5,9.6,9.9c0,2.2-0.8,4.4-2.2,6.1L153,43.2z M150.8,33.8c0-4.6-3.7-8.3-8.3-8.4c-4.6,0.1-8.3,3.8-8.3,8.5
	c0,4.6,3.7,8.2,8.3,8.3C147.1,42.1,150.8,38.4,150.8,33.8z M143,37.1h-1v-3h-3v-1h3v-3h1v3h3v1h-3V37.1z"/>
<path id="Shape_45_copy_1_" class="st0" d="M285.3,44.1l-2-2h-14.6l-2,2l-0.7-0.7l2-2V26.8l-2-2l0.7-0.7l2,2h14.6l2-2l0.7,0.7l-2,2
	v14.6l2,2L285.3,44.1z M283,27.8l-5,5v-0.7h-0.7l5-5h-12.6l5,5H274v0.7l-5-5v12.6l5-5v0.7h0.7l-5,5h12.6l-5-5h0.7v-0.7l5,5L283,27.8
	L283,27.8z M274,29.1h1v4h-1V29.1z M271,32.1h4v1h-4V32.1z M271,35.1h4v1h-4V35.1z M274,35.1h1v4h-1V35.1z M277,35.1h1v4h-1V35.1z
	 M277,35.1h4v1h-4V35.1z M277,29.1h1v4h-1V29.1z M277,32.1h4v1h-4V32.1z"/>
<path id="arrow_ic_cnt" class="st0" d="M187.6,34.7l3.4-1.5l-9-4.6l-9-4.6l2.5,9.7l2.5,9.7l2.2-3l1.6-2.1l4.5,5.6l3.3-2.6l-4.5-5.6
	L187.6,34.7z M188.1,41.3l-1.6,1.2l-4.7-5.9l-3.3,4.4l-3.8-14.8l13.7,7l-5,2.2L188.1,41.3z"/>
<g>
	<path class="st0" d="M169.9,40c1.4-1.7,2.2-3.8,2.2-6.1c0.1-5.4-4.2-9.8-9.6-9.9l0,0c-5.3,0-9.6,4.4-9.6,9.7s4.3,9.7,9.6,9.7
		c2.4,0,4.7-0.9,6.4-2.5L172,44l0.9-0.9L169.9,40z M162.6,42.2c-4.6,0-8.2-3.7-8.3-8.3s3.7-8.4,8.3-8.5c4.6,0,8.3,3.8,8.3,8.4
		C170.9,38.4,167.2,42.1,162.6,42.2z"/>
	<polygon class="st0" points="158.2,33.4 159.2,33.4 159.2,30.4 162.2,30.4 162.2,29.4 158.2,29.4 	"/>
	<polygon class="st0" points="163.2,30.4 166.2,30.4 166.2,33.4 167.2,33.4 167.2,29.4 163.2,29.4 	"/>
	<polygon class="st0" points="159.2,34.4 158.2,34.4 158.2,38.4 162.2,38.4 162.2,37.4 159.2,37.4 	"/>
	<polygon class="st0" points="166.2,37.4 163.2,37.4 163.2,38.4 167.2,38.4 167.2,34.4 166.2,34.4 	"/>
</g>
<path class="st0" d="M305.2,34.6c0,0.1,0,0.1,0,0.2s0,0.1,0,0.2s0,0.1,0,0.2s0,0.1,0,0.2l2.8,1.7l-1.7,4.1l-3.2-0.7
	c-0.2,0.2-0.4,0.4-0.5,0.5l0.7,3.2l-4.1,1.7l-1.7-2.8c-0.1,0-0.1,0-0.2,0s-0.1,0-0.2,0s-0.1,0-0.2,0s-0.1,0-0.2,0l-1.7,2.8l-4.1-1.7
	l0.7-3.2c-0.2-0.2-0.4-0.4-0.5-0.5l-3.2,0.7l-1.7-4.1l2.8-1.7c0-0.1,0-0.1,0-0.2c0-0.1,0-0.1,0-0.2c0-0.1,0-0.1,0-0.2
	c0-0.1,0-0.1,0-0.2l-2.8-1.7l1.7-4.1l3.2,0.7c0.2-0.2,0.4-0.4,0.5-0.5l-0.7-3.2l4.1-1.7l1.7,2.8c0.1,0,0.1,0,0.2,0s0.1,0,0.2,0
	s0.1,0,0.2,0s0.1,0,0.2,0l1.7-2.8l4.1,1.7l-0.7,3.2c0.2,0.2,0.4,0.4,0.5,0.5l3.2-0.7l1.7,4.1L305.2,34.6z M303.9,36
	c0-0.2,0-0.3,0-0.5s0-0.3,0-0.5s0-0.3,0-0.5s0-0.3,0-0.5l2.6-1.6l-0.9-2.2l-2.9,0.7c-0.2-0.3-0.5-0.5-0.7-0.8
	c-0.2-0.2-0.5-0.5-0.8-0.7l0.7-2.9l-2.2-0.9l-1.6,2.6c-0.2,0-0.3,0-0.5,0s-0.3,0-0.5,0s-0.3,0-0.5,0s-0.3,0-0.5,0l-1.6-2.6l-2.2,0.9
	l0.7,2.9c-0.3,0.2-0.5,0.5-0.8,0.7c-0.2,0.2-0.5,0.5-0.7,0.8l-2.9-0.7l-0.9,2.2l2.6,1.6c0,0.2,0,0.3,0,0.5s0,0.3,0,0.5s0,0.3,0,0.5
	s0,0.3,0,0.5l-2.6,1.6l0.9,2.2l2.9-0.7c0.2,0.3,0.5,0.5,0.7,0.8c0.2,0.2,0.5,0.5,0.8,0.7l-0.7,2.9l2.2,0.9l1.6-2.6
	c0.2,0,0.3,0,0.5,0s0.3,0,0.5,0s0.3,0,0.5,0s0.3,0,0.5,0l1.6,2.6l2.2-0.9l-0.7-2.9c0.3-0.2,0.5-0.5,0.8-0.7c0.2-0.2,0.5-0.5,0.7-0.8
	l2.9,0.7l0.9-2.2L303.9,36z M296.9,30.9c0.6,0,1.1,0.1,1.6,0.3c0.5,0.2,0.9,0.5,1.3,0.9c0.4,0.4,0.7,0.8,0.9,1.3
	c0.2,0.5,0.3,1,0.3,1.6s-0.1,1.1-0.3,1.6c-0.2,0.5-0.5,0.9-0.9,1.3c-0.4,0.4-0.8,0.7-1.3,0.9c-0.5,0.2-1,0.3-1.6,0.3
	s-1.1-0.1-1.6-0.3s-0.9-0.5-1.3-0.9c-0.4-0.4-0.7-0.8-0.9-1.3c-0.2-0.5-0.3-1-0.3-1.6s0.1-1.1,0.3-1.6c0.2-0.5,0.5-0.9,0.9-1.3
	c0.4-0.4,0.8-0.7,1.3-0.9S296.3,30.9,296.9,30.9z M296.9,37.9c0.4,0,0.8-0.1,1.1-0.2s0.6-0.4,0.9-0.6c0.3-0.3,0.5-0.6,0.6-0.9
	c0.1-0.3,0.2-0.7,0.2-1.1s-0.1-0.8-0.2-1.1c-0.1-0.3-0.4-0.6-0.6-0.9c-0.3-0.3-0.6-0.5-0.9-0.6c-0.3-0.1-0.7-0.2-1.1-0.2
	s-0.8,0.1-1.1,0.2c-0.3,0.1-0.6,0.4-0.9,0.6c-0.3,0.3-0.5,0.6-0.6,0.9s-0.2,0.7-0.2,1.1s0.1,0.8,0.2,1.1c0.1,0.3,0.4,0.6,0.6,0.9
	c0.3,0.3,0.6,0.5,0.9,0.6C296.1,37.8,296.5,37.9,296.9,37.9z"/>
<path class="st0" d="M205.9,27c-0.4,0-0.7,0.1-1,0.3V27c0,0,0,0,0-0.1c0-1.1-0.9-1.9-2-1.9c-0.4,0-0.8,0.1-1.1,0.4
	c-0.1-0.2-0.1-0.3-0.3-0.5l-0.1-0.1c-0.4-0.5-0.9-0.8-1.5-0.8h-0.1c-0.1,0-0.2,0-0.3,0.1c-0.7,0.2-1.2,0.6-1.4,1.3
	c-0.3-0.2-0.8-0.3-1.2-0.4c-1.1,0-2,0.9-2,2v6c-0.4-0.7-1-1.2-1.8-1.3c-0.4,0-0.8,0.1-1.1,0.3c-0.5,0.3-0.8,0.8-0.9,1.4
	c-0.1,0.6,0,1.3,0.3,1.8l3.5,5.5c1.4,2.2,3.6,3.3,6.6,3.3c4.8,0,6.5-3.4,6.5-6.3V29C207.9,27.9,207,27,205.9,27
	C205.9,27,205.9,27,205.9,27z M201.9,43.1c-1.5,0.3-5-1-6.2-2.9l-3.3-5.2l-0.2-0.3c-0.2-0.3-0.3-0.7-0.2-1.1
	c0.1-0.3,0.2-0.6,0.5-0.8c0.4-0.3,1-0.3,1.7,0.5l1.7,2.6v-9c0-0.6,0.4-1,1-1c0,0,0,0,0.1,0c0.5,0,1,0.5,1,1v5h1v-6c0-0.6,0.4-1,1-1
	c0.2,0,0.5,0.1,0.7,0.3c0.1,0.1,0.1,0.1,0.2,0.2c0,0,0,0.1,0.1,0.1c0,0.1,0,0.2,0,0.4v1v5h1v-5c0-0.6,0.4-1,1-1s1,0.4,1,1v6h1v-4
	c0-0.8,0.6-1,1-1c0.6,0,0.9,0.2,0.9,1C206.7,39.8,207.8,42,201.9,43.1z"/>
</svg>
