<?xml version="1.0" encoding="utf-8"?>
<!-- Generator: Adobe Illustrator 19.1.1, SVG Export Plug-In . SVG Version: 6.00 Build 0)  -->
<svg version="1.1" id="Layer_1" xmlns="http://www.w3.org/2000/svg" xmlns:xlink="http://www.w3.org/1999/xlink" x="0px" y="0px"
	 viewBox="-43 380 524.7 34" style="enable-background:new -43 380 524.7 34;" xml:space="preserve">
<style type="text/css">
	.st0{fill:#FFFFFF;}
</style>
<path class="st0" d="M-36.6,399h4v4h-4C-36.6,403-36.6,399-36.6,399z M-20.6,387h-4v4h4V387z M-25.6,398h-18v-18h18V398z M-37.6,387
	c0,1.7,1.3,3,3,3c1.7,0,3-1.3,3-3s-1.3-3-3-3C-36.3,384-37.6,385.3-37.6,387z M-29.6,393c0-1.1-0.9-2-2-2h-6c-1.1,0-2,0.9-2,2v2h2
	v-1h1v1h4v-1h1v1h2V393z M-13.6,392v18h-18v-11h4v3h3v-3v-1h9l-3-3h-6v-3H-13.6z M-19.6,402h3v-3h-3V402z M-19.6,406h3v-3h-3V406z
	 M-23.6,402h3v-3h-3V402z M-23.6,406h3v-3h-3V406z M-27.6,406h3v-3h-3V406z M-15.6,407h-13v1h13V407z"/>
<path class="st0" d="M33.3,380c-1.5,0-2.7,1.2-2.7,2.7c0,0.3,0.1,0.7,0.2,1l-3.8,3.8c-1.3-0.9-2.8-1.5-4.5-1.5
	c-1.4,0-2.8,0.4-3.9,1.1l-2.3-2.6c0.2-0.4,0.3-0.8,0.3-1.2c0-1.5-1.2-2.7-2.7-2.7s-2.7,1.2-2.7,2.7c0.1,1.5,1.3,2.7,2.8,2.7
	c0.3,0,0.6,0,0.8-0.1l2.2,2.5c-1.2,1.3-2,3.1-2,5.1c0,0.8,0.1,1.6,0.4,2.4l-5.3,3.8c-0.4-0.3-0.9-0.4-1.4-0.4
	c-1.5,0-2.7,1.2-2.7,2.7s1.2,2.7,2.7,2.7s2.7-1.2,2.7-2.7c0-0.2,0-0.4-0.1-0.6l5-3.6c0.8,1.2,2,2.1,3.3,2.7l-0.3,1
	c-1.4,0.1-2.4,1.3-2.4,2.7c0,1.5,1.2,2.7,2.7,2.7c1.5,0,2.7-1.2,2.7-2.7c0-0.8-0.3-1.5-0.9-2l0.4-1.1c0.3,0,0.5,0,0.8,0
	c1.1,0,2.1-0.2,3.1-0.7l2.3,2.7c-0.2,0.4-0.3,0.8-0.3,1.2c0,1.5,1.2,2.7,2.7,2.7s2.7-1.2,2.7-2.7s-1.2-2.7-2.7-2.7
	c-0.3,0-0.5,0-0.8,0.1l-2.1-2.5c1.6-1.4,2.7-3.4,2.7-5.7c0-1.7-0.6-3.3-1.5-4.5l3.8-3.8c0.3,0.1,0.7,0.2,1,0.2
	c1.5,0,2.7-1.2,2.7-2.7C36,381.2,34.8,380,33.3,380z M22.5,397c-2,0-3.6-1.6-3.6-3.6s1.6-3.6,3.6-3.6s3.6,1.6,3.6,3.6
	S24.5,397,22.5,397z"/>
<path id="ic_34" class="st0" d="M64.6,380l-5,5h5V380z M65.6,380v6h-6v24h22v-30H65.6z M64.6,392l-0.1-1h12.1v1H64.6z M64.6,394h12
	v1h-12V394z M64.6,397h12v1h-12V397z"/>
<path class="st0" d="M118.6,396.8l12.9-12.9l2.1,2.1l-15,15l-6.8-6.8l2.1-2.1L118.6,396.8z M132.1,395c0,6.6-5.4,12-12,12
	s-12-5.4-12-12s5.4-12,12-12c1.2,0,2.3,0.1,3.3,0.5l2.4-2.4c-1.8-0.6-3.8-1-5.7-1c-8.3,0-15,6.8-15,15c0,8.2,6.8,15,15,15
	s15-6.8,15-15h-3V395z"/>
<path class="st0" d="M180.7,403v-12h-7v-6h-1v6h-12v7h-6v-18h18v5h12v18H180.7z M161.7,392h18v11l0,0v7h-18v-12l0,0V392z"/>
<path class="st0" d="M233.2,405.4l-2.5-2.5c1.1-2.3,0.6-5.2-1.3-7.1c-2.4-2.5-6.4-2.5-8.9,0c-2.4,2.5-2.4,6.4,0,8.9
	c1.9,1.9,4.7,2.3,7,1.3l2.5,2.5c0.9,0.9,2.2,0.9,3.1,0c0.4-0.4,0.6-1,0.6-1.6S233.6,405.8,233.2,405.4z M228,403.3
	c-1.7,1.7-4.4,1.7-6.1,0c-1.7-1.7-1.7-4.4,0-6.1c1.7-1.7,4.4-1.7,6.1,0C229.6,398.8,229.7,401.6,228,403.3z M218.8,408h-5v-1v-9h4
	v-1h-4v-3h7l1-1h-8h-1h-7h-1v1v16h25l-2-2H218.8z M212.8,401h-7v-3h7V401z M212.8,397h-7v-3h7V397z M227.8,393h4v4
	C231.8,395.6,229.3,393,227.8,393z M231.8,386.9h-27v5.1h27V386.9z M212.8,391h-7v-3h7V391z M222.8,391h-9v-3h9V391z M230.8,391h-7
	v-3h7V391z M231.8,385.9h-27v-1l9.6-4.9h7.9l9.6,4.9v1H231.8z"/>
<path id="ic_34_1_" class="st0" d="M283.9,408h-27v-6h24v-15h3V408z M253.9,401v-15h6v-6h20v21H253.9z M271.9,387h-10v1h10V387z
	 M271.9,389h-10v1h10V389z M271.9,391h-10v1h10V391z M271.9,393h-10v1h10V393z M258.9,380v5h-5L258.9,380z"/>
<path class="st0" d="M303.4,380v7h30v-7H303.4z M331.4,385h-26v-3h26V385z M316.1,398.7c0-1.3,1-2.4,2.3-2.4s2.3,1.1,2.3,2.4
	c0,1.3-1,2.4-2.3,2.4S316.1,400,316.1,398.7z M303.4,410h30v-22h-30V410z M313.4,398.7c0-0.2,0-0.4,0-0.7l-1.4-1.1
	c-0.1-0.1-0.2-0.3-0.1-0.4l1.3-2.3c0.1-0.1,0.3-0.2,0.4-0.1l1.7,0.7c0.3-0.3,0.7-0.5,1.1-0.7l0.3-1.8c0-0.2,0.2-0.3,0.3-0.3h2.7
	c0.2,0,0.3,0.1,0.3,0.3l0.3,1.8c0.4,0.2,0.8,0.4,1.1,0.7l1.7-0.7c0.2-0.1,0.3,0,0.4,0.1l1.3,2.3c0.1,0.1,0,0.3-0.1,0.4l-1.4,1.1
	c0,0.2,0,0.4,0,0.7c0,0.2,0,0.4,0,0.7l1.4,1.1c0.1,0.1,0.2,0.3,0.1,0.4l-1.3,2.3c-0.1,0.1-0.3,0.2-0.4,0.1l-1.7-0.7
	c-0.3,0.3-0.7,0.5-1.1,0.7l-0.3,1.8c0,0.2-0.2,0.3-0.3,0.3H317c-0.2,0-0.3-0.1-0.3-0.3l-0.3-1.8c-0.4-0.2-0.8-0.4-1.1-0.7l-1.7,0.7
	c-0.2,0.1-0.3,0-0.4-0.1l-1.3-2.3c-0.1-0.1,0-0.3,0.1-0.4l1.4-1.1C313.5,399.2,313.4,398.9,313.4,398.7z"/>
<path class="st0" d="M432.1,381.9c-0.7-1.1-1.8-1.9-3.2-1.9H428h-7.5h-0.9H411c-2.1,0-3.8,1.7-3.8,3.8v1.9v7.3l1.9-1.9v-5.5v-1.8
	c0-1,0.8-1.9,1.9-1.9h8.4h0.9h4.3c-0.3,0.6-0.5,1.2-0.5,1.9v0.9v1.9v3.8v2.8v8.4v1.9v2.8c0,1-0.8,1.9-1.9,1.9h-0.9
	c-1,0-1.9-0.8-1.9-1.9v-0.9c0-0.3,0.1-0.7,0.3-0.9c0.3-0.6,0.9-0.9,1.6-0.9h0.9v-1.9h-0.9h-3.8h-8.4v-4.5l-1.9,1.9v2.6h-0.9
	c-1.7,0-3.2,1.2-3.6,2.8c-0.1,0.3-0.1,0.6-0.1,0.9v0.9c0,0.3,0.1,0.6,0.1,0.9c0.4,1.6,1.9,2.8,3.6,2.8h6.6h2.8h5.6h0.9
	c1.4,0,2.6-0.8,3.2-1.9c0.3-0.6,0.5-1.2,0.5-1.9v-2.8v-1.9v-8.4v-2.8v-3.7h4.7h1.9v-1.9v-0.9C432.6,383.1,432.4,382.4,432.1,381.9z
	 M417.7,407.2c0.1,0.3,0.2,0.6,0.4,0.9h-2.4h-2.8h-3.8h-1.9h-0.9c-1,0-1.9-0.8-1.9-1.9v-0.9c0-1,0.8-1.9,1.9-1.9h0.9h1.9h8.4h0.5
	c-0.2,0.3-0.3,0.6-0.4,0.9c-0.1,0.3-0.1,0.6-0.1,0.9v0.9C417.6,406.6,417.6,406.9,417.7,407.2z M430.7,384.7H426v-0.9
	c0-1,0.8-1.9,1.9-1.9h0.9c1,0,1.9,0.8,1.9,1.9L430.7,384.7L430.7,384.7z M415.9,385.6l-6.7,6.7l-1.9,1.9l-2.8,2.8v1.7h1.7l1.1-1.1
	l1.9-1.9l8.4-8.4L415.9,385.6z M412.9,396.9c-0.5,0-0.9,0.4-0.9,0.9s0.4,0.9,0.9,0.9s0.9-0.4,0.9-0.9S413.4,396.9,412.9,396.9z
	 M416.7,396.9c-0.5,0-0.9,0.4-0.9,0.9s0.4,0.9,0.9,0.9s0.9-0.4,0.9-0.9S417.2,396.9,416.7,396.9z M420.4,396.9
	c-0.5,0-0.9,0.4-0.9,0.9s0.4,0.9,0.9,0.9s0.9-0.4,0.9-0.9S420.9,396.9,420.4,396.9z"/>
<path class="st0" d="M369.6,387.9L369.6,387.9L369.6,387.9L369.6,387.9z M367.5,396.8l-5.7,13.2l12.9-5.8l8.3-8.6v-1.8l-9.1,9.3
	l-7.6,3.5l-1.2-1.2l3.4-7.9l14.5-14.9v-1.8L367.5,396.8z M372.6,402.2L372.6,402.2c0.2,0.2,0.6,0.3,0.9,0l0,0l9.6-9.9v-1.8
	l-10.5,10.8C372.4,401.5,372.4,401.9,372.6,402.2z M369.5,398.9L369.5,398.9c0.2,0.3,0.6,0.3,0.9,0l0,0l12.7-13.1v-1.7l-13.6,14
	C369.2,398.3,369.2,398.7,369.5,398.9z M371,400.5L371,400.5c0.2,0.2,0.6,0.3,0.9,0l0,0L383,389v-1.7l-12,12.4
	C370.8,399.9,370.8,400.3,371,400.5z M359.8,392c0.1,0,0.1,0.1,0.2,0.1c0.1,0.1,0.2,0.2,0.3,0.2c0.1,0.1,0.2,0.1,0.3,0.2
	c0.1,0,0.2,0.1,0.3,0.1c0.2,0.1,0.4,0.1,0.6,0.2c0.1,0,0.1,0,0.2,0c0.2,0,0.3,0,0.5,0.1h0.1h0.1h0.1c0.1,0,0.2,0,0.2,0l0,0l0,0l0,0
	l0.5,2c-0.5,0.3-0.9,0.9-0.9,1.5c0,0.9,0.8,1.6,1.7,1.6c0.9,0,1.6-0.8,1.6-1.7c0-0.9-0.8-1.6-1.6-1.6l0,0l-0.5-2
	c1.3-0.4,2.4-1.6,2.6-3l1.8,0.1c0.2,0.9,1.1,1.5,2,1.3c0.9-0.2,1.5-1.1,1.3-2c-0.2-0.8-0.9-1.3-1.6-1.3s-1.3,0.5-1.5,1.1l-1.8,0.1
	c0-1.3-0.7-2.5-1.7-3.2l1.3-2.4c0.1,0,0.3,0.1,0.5,0.1c0.9,0,1.7-0.7,1.7-1.7s-0.8-1.8-1.7-1.8s-1.7,0.7-1.7,1.7c0,0,0,0,0,0.1
	c0,0.4,0.2,0.9,0.5,1.2l-1.3,2.4c-0.5-0.2-0.9-0.3-1.5-0.3c-1,0-2,0.4-2.7,1l-1.1-1c0.1-0.3,0.2-0.5,0.2-0.8c0-0.9-0.8-1.6-1.7-1.6
	c-0.9,0-1.6,0.8-1.6,1.7s0.8,1.6,1.7,1.6c0.3,0,0.6-0.1,0.9-0.3l1.1,1c-0.5,0.6-0.7,1.4-0.7,2.3c0,0.3,0.1,0.6,0.1,1l-2.5,0.9
	c-0.3-0.5-0.8-0.7-1.4-0.7c-0.9,0-1.7,0.7-1.7,1.7c0,0.9,0.7,1.7,1.7,1.7c0.9,0,1.7-0.7,1.7-1.7c0,0,0,0,0-0.1v-0.1l2.5-0.9
	C359.1,391.3,359.4,391.7,359.8,392z"/>
<g>
	<g>
		<path class="st0" d="M460.5,389.5c2.6,0,5.2,1.1,6.8,3.3c1.6-2.2,3.4-3.3,6.1-3.3c0.2,0,1.1,0,1.1,0v-2.8c0-3.9-3.5-6.7-7.4-6.7
			s-7.1,2.9-7.1,6.7v2.8C460.5,389.5,460.3,389.5,460.5,389.5z M463.3,386.7h7.8v2.3h-7.8V386.7z M458.8,389.5v-2.8
			c-0.6,0.5-1.7,1.1-1.7,2.3c0,0.4-0.1,0.8,0,1.1C457.6,389.8,458.8,389.6,458.8,389.5z M477.2,389c0-1.1-1.1-1.8-1.7-2.3v2.8
			c0,0.1,1.2,0.4,1.7,0.6C477.3,389.8,477.2,389.3,477.2,389z M473.8,391.2c-3,0-5.5,1.9-6.6,4.7c-1.2-2.8-3.7-4.7-6.6-4.7
			c-3.8,0-7.5,3.2-7.9,7.3v12h2.2c0.8-2.5,3-4.5,5.6-4.5c2.5,0,4.7,2,5.6,4.5h2.2c0.9-2.5,3.1-4.5,5.6-4.5s4.6,2,5.5,4.5h2.3v-12
			C481.3,394.4,477.6,391.2,473.8,391.2z M480,408c-1.4-2.2-3.7-3.7-6.1-3.7c-2.7,0-5.3,1.8-6.7,4.5c-1.4-2.7-4-4.5-6.7-4.5
			c-2.5,0-4.7,1.3-6.1,3.5v-9.2c0.3-3.1,3.2-5.7,6.2-5.7c2.2,0,4.2,1.4,5.1,3.7l0.8,1.9h1.5l0.8-1.9c0.9-2.2,2.9-3.7,5.1-3.7
			c3,0,5.9,2.7,6.2,5.7L480,408L480,408z"/>
	</g>
</g>
</svg>
